29
0 0
-191736733792270024000 107916829388354873000
-117519515983926797000 58170214609684891000
-90343731508371485000 41759579724881090000
-138743090322515136900 17461390273071899600
-141219123160465143200 17104575979112765700
-138211038732118298800 16731134859657801300
-139335183987098390680 16671797186916152900
-138635654317756491800 16512660177437743600
-139440583371048409190 15563747431485783380
-140418662933294255750 15657467793227365560
-139130541199555253810 15455194111680317590
-139424131455496454770 15456194334893555420
-139586530917709802990 15472233757252982190
-139568555291277159910 15353323270116548710
-139679075244109462070 15356215372677836460
-138468879615120744300 15211396886138245820
-139516054270415459060 15306841848639275720
-142148441845630782900 15576336811564420840
-139625397001149084770 15216784242799722870
-139712909550851520990 15225146783721403010
-140078498458369180170 15026693132764430210
-139493903705190732320 14945225637000577280
-139929733896688171947 14831866669284550199
-140503746092561940500 13502958748967240200
-141529873619478356000 13529097571715755300
-204913928410349274000 14905960964845558340
-165253719645658358000 -40283713723009530000
-244574180254846030000 -76406006885522047000
