23
0 0
118691246443 -7856133681
22807780916 27850496804
12108022756 19142414052
12677281773 20534411016
11955386836 19389329688
12928437766 21142423897
12114685465 20356484303
11979991594 20149471919
17565331024 29811928858
11647720481 19950935967
11954658728 20489769716
12136596025 20809599623
9504585936 16461202391
11651792943 20231777242
11600317177 20475407082
11465396770 20256518874
9767846309 18186879388
10486193019 22233133775
12275066955 34272523237
10357771712 22054255423
5080544043 14887291829
-13955857017 61684983707
