23
0 0
41773562842030149000 94544797168854630250
40282218272250679700 94132695364382313400
38555065229228422450 90471444685738079550
37269308986704565050 92620839133491034630
37320981523253418700 93308232732141503790
37016108992809552950 92945638278083806949
37028503293360276120 93264685314764794015
36966273019082785880 93215573319082240595
37043768938348829400 93417273795531294850
36966177648506709875 93346455542468746810
36548214763121435739 92294906165827988150
36909242020919680950 93230934429605797835
36747999327258707830 93028076901428855835
36945732361973103125 93559997171421064250
36872298985003902165 93374966650640201310
36781155119835778250 93385702071861633385
36796528143801611780 93533199023524434750
-64047080098937418500 110762133067793891500
37668575579178835600 95754296925549426950
33549416797064647400 98401263145122332500
37804101565667235700 110897672483228785500
39455462249888779300 148434696563018100000
