23
0 0
-5100303618 -23066159937
11758695755 -16021789357
7060024127 -7384466924
10630560960 -3713365084
10815570475 -3755193417
9944529528 -2729168839
35621335985 -9669958959
8201121334 -2220910868
10592409967 -2820785522
11573278019 -2827504046
9662692878 -2465342291
10836040982 -2642559834
10526694289 -2558484223
10146693127 -2393659806
10515801366 -2475543274
10582689272 -2485127186
10550169528 -2460233249
10879026579 -2492630927
10170806128 1264618020
12528549177 1716841667
19005219875 3274396313
23319436315 6199858315
