23
0 0
5630122223521746100 5776812274768518180
3090801130299703860 4895898748323902739
3013352610932080000 3763868594486309600
3051923667303702730 4928154323465552100
3093337938733925880 5002629423823032670
3000454352062752360 4891079698065478663
3001003050326771310 4910035797977542769
2693172163284213470 4406523253936192870
3017684221639724850 4977900471242756650
2937393039175783223 4845662489696938609
2927827973242663999 4830194580715952500
2967267727249844924 4899707076931969903
2927106544485034494 4838164241814022375
2919586323426633561 4826615642993625439
2956842003676390860 4888261782346956490
2922314104383151943 4885622795138102841
2692377790119897960 4666952969673002710
3010878802190975440 4977604478542612030
2910415060424329425 5046340679480530740
2898885044101314699 5121061723523782640
2831950068587573410 5108267297974799330
1889737268708898640 7707923109518417900
