26
0 0
-114019493448073200 531526923917080100
-174358058147506860 603189698365187320
-232581359523458260 645990868983696290
-405549324631454590 769869660958505690
-270410936580468060 1982363811497335140
-323402475849703200 1985122362898444390
-391825237581818530 1989803306351493610
-402829667714094160 1987984449103881410
84994192814576087970 30548500076031225100
-410523865482287050 1990050965994891620
-212713255021449040 2399392135931242000
-274799993166630680 2348720173526723600
-326486892189196260 2370695325247435600
-380630098762492520 2325562544044536020
-387296922339177030 2323933780299924100
-612782055892118730 21319238244321123100
-542243750474386130 1942770888604149510
-939346120964563569 3168386509684133700
-685173181935484660 1998666381349630660
-981535549407037133 2194059982339991760
-990818889544804001 1880027943426751300
-1699581268695698190 2037080836346477030
-1727144901707133680 1766584704161795630
-973548146952522816 875621219264215240
-3814257602728966030 1432373045239647737
