32
0 0
-25624237355101963450 12650669391887639000
-25671881612975651300 4266417218429343800
-25602048256160476250 4196190965797463700
-25595168369249644950 4190639161436267550
-26219189471684656315 3175767850539616800
-26626351236556195770 2804889771209851105
-26218057318202573805 3087830498774645600
-25281926685822483300 4011754466490949150
-26182826583037606145 3077523856124685500
-26213905781250729470 2744881944342467200
-26184667180588239580 2741503005476701255
-26479419187211139996 2772243354460180735
-26240801172701713520 2719021598101821805
-26181777355982636260 2706279794810527765
-26050431880270753620 2727216323924145860
-26513823265722241480 2739743616589431645
-26454796478301848511 2512073472594522446
-26592391263623108005 2438803834290805700
-26037701792567184770 2678020189665232835
-26036884642334673295 2675774903885617120
-26211620374706117805 2594272295686128030
-26211756468279252825 2591973850063515885
-25917578199348819050 2374783464476012565
-26146977022814732165 2295838859697832305
-26278899789259335445 2220409310124391670
-26592314083086559965 2429121811197917220
-26206634020829659730 2085048132896120790
-26744748061414522740 -388490960972908200
-27129107789264071100 2152673029880360425
-27155792238995167450 2139361107303602700
-27168080140167724550 2132826938886159690
