23
0 0
-5446011360127200600 -17792954682910807400
3960310261109533580 -6620501255795030600
4000480622121905100 -6429458106117850560
3578244450699648040 -5341827019310465440
4723971800027503534 -5771396241075877770
4738256384938850320 -5776898108058049393
4711737528411024690 -5665219450160226664
4751024179370791440 -5704088858566433498
4677899637024733410 -5612465405622135074
4888214331406032020 -5864667382444829330
4775823438366024548 -5729187721189990494
4877150334038867060 -5828973508169088952
4746752535364602732 -5670283329430409208
4692429042452594770 -5593333899114457886
4803740878198882794 -5704113664537224758
4806504503923095122 -5700681549601411806
4826120170311968014 -5678301735937939122
4959017467305826240 -5738591595501067086
4466405999569809442 -4024549349394433760
5002881656789709420 -5741829360029424878
7838742166842961400 -7030297384765928820
24635096520770221200 -9679970119495371800
