23
0 0
-381414877 -127716777052
38076931214 -22569081665
26954161222 -13928401007
21227012269 -10220906870
28909024695 -13260720835
27326326950 -12309537828
28661188831 -12763726775
29407240644 -13092289922
28956330832 -12874070251
29052249497 -12686719383
26070550449 -11583893642
28188128039 -12307363396
28566819742 -12430289318
27321982311 -11771788249
28281524242 -12182173704
29059015573 -12343860208
26016552944 -8670715512
29549957248 -12548285735
40240002608 -16790853993
32375797421 -6626454992
50572863080 10655407577
57188067525 17545672777
