23
0 0
55779861014 29600686283
33837015129 26560997872
138117014585 -39805296221
29577251748 26129943698
31180043653 27613074600
29169010319 25904836816
29109442546 26063063344
26559713934 23918560373
29197320604 26679637072
28937371422 26566546420
28888682370 26574834218
28181871041 25927867856
28509646718 26340029681
27596405296 25672586165
27326765755 25829827880
28027000301 26558419963
28713389710 27211940371
26947251559 25585511623
28407845281 27041733507
27842038178 27336087870
28173275989 29061293850
-42722672314 65616206874
