19
0 0
1170775426035470980 -791030650220387643
1270440351280714180 618405935963073147
116133630915462050 34206288094878201
1083085096118406290 -707559119661310763
1241997050282316820 500728117309118007
3941073675841307130 4594189173863092647
-4778445946242063370 324944684312757347
3278588047716938730 -5091758572433163953
2770475562777723030 776753788229821367
-887150868446213370 1219894673594199247
557891082984674560 -2169273176081334753
-3116116762560242970 224898647018173407
2534065865721104230 -3602116251265166553
3023266674155324330 3204592889989677747
834796811943974162 -1177886057635348753
1773456268739197670 520867624739028887
-167037303366986470 484393718639005897
813738592438728330 -57541571419104753
