23
0 0
45699140558121764000 -39033930211232161400
30103813653785173000 -20468203904502011400
16620974489357330210 -9911879119264229100
11549368682226935000 -6814825071947389600
17728644622286705300 -5707101346523096840
17373726400770684680 -5577683718590397834
17582235895648753790 -5564507464406906913
18159244360783076300 -5649360118933115151
18025692152829634900 -5574654703192698486
17351531539103009600 -5365885920592686540
16681116934202741521 -5132262882847191500
17623886875830513120 -5352414339235832900
17990872138085089800 -5443539156747807770
16683015936358338006 -4763526988421715910
17272688396367902490 -4931009954259856800
18646877906299719700 -5310585094254925670
17910722129892553100 -5093440765201497290
24722660052187341200 -7023095864987878500
16579402514074251980 -4699757100039531820
17745318294148131500 -4702890990501929030
143266842817818653000 47576085508630164600
2065573361086104000 52822102176124933600
