29
0 0
-97335941372510920000 62949484914823558500
-64384214578959935000 36743222704489682000
-49945645281924368500 26383257844648349500
-73445031109277761950 12239224790208453200
-74863515355183606550 11543516636325698000
-72924809027124640850 11227390466524370150
-73997663202825785325 11066371407539451900
-73594633080422935650 10860361727012575750
-73949063705061749545 10208041945927844145
-74502121197095365970 10282422409654080250
-73668439688221325500 10165088477720783805
-73936899695455533790 10152044623446437515
-74040575462798182575 10159659352527094975
-74009667527096134800 10088870518864294595
-74078208676550583180 10088934148081504410
-73339287718623594150 9987229754093543650
-73978145652391807500 10053219288235434755
-75444496853250648900 10250756534894041255
-74036382781435668190 10009804712813575950
-74083353811319013595 10014368290748059205
-74448485869173328615 9765025699443213881
-73989983942444616085 9703272131846733480
-74276711302435383725 9572877461496038615
-74368672635839771960 9031699537789965000
-75016555382636370650 9060047761451693000
-93667933134466935500 9740436500999579445
-82786228338989894000 -18532561471631135000
-126329604549420580000 -39423927722367517500
