19
0 0
-715352148730523700 7150317568529227100
-6167537098329769000 3005038704996849992
-668393151809634400 525759603612618400
-735973609753589400 6165281884021026900
-5343630937887230600 3436385847794751120
-52226310356385953900 -1284969282456511300
29092397639732082100 -41334778193008514500
16633545832305861100 47550762360008977500
-13827479802977428900 11699903795298451500
-3074409591239108280 -13569416187643831500
9499699295442779100 9338850125501650300
16911958262244768100 -24166174361118891500
11535799070851349100 35471360205966209500
-31503497018797362900 799339244275748300
1568987225079195600 6401982610219912700
-6975874321739079900 5573798923541347000
-1561791748149226940 -1861734027142673600
-2353669351731994527 3349233078511355850
