29
0 0
-192186434854058622000 113332278808582322000
-120675735838057925000 59666357696776777000
-94445454435553968000 43324131693946356000
-138930460406073598000 22624035113974114300
-141312698990223276000 22327829219521423800
-138306360922452352500 21822346569175217400
-139406510614033393340 21754331192958744900
-138701673408710366300 21639153396010114900
-139503445288092791750 20629002039271097270
-140485208198080327990 20767243622127855160
-139183983541209629240 20558978197075887300
-139453307021192682520 20559196515251810960
-139618593349348784640 20572416547950265230
-139596835138474996000 20451430987824694470
-139709123594779782610 20451562745724066190
-137575797221332305800 20138106924780116890
-139520914832498769740 20422110604800186130
-142229673711949016800 20698490873281955810
-139657543193301783710 20316799815868714180
-139738435817712958180 20325178707230437630
-140136003967908638990 20094958404859409550
-139555410661475181510 20007472780080626670
-139944494550752576995 19908971466128201441
-140524865366972586530 18525136671472280400
-141539586143412561200 18632116084130107500
-192252835453250749000 18981840431181452660
-164111976591151820000 -34078658762561946000
-230592766136748209000 -58118957020915542000
