32
0 0
8137357543589669300 -8684999422288032300
1594580558483770820 1397966667183302210
1593887666493050420 1400418747816301520
2625284450343597000 815545397520286000
1717527063752226470 1548981015635529790
2017672610651909650 1943992209346820920
1908516977550629100 2149552202947151950
1638517128490555720 1847376545334479155
1591353167128836315 1627159220164790830
1443550121951444000 1627814830838837300
1566545958188850265 1766686321976228845
1562773167281491750 1816880136455322500
1443833626780180870 1629970065762754545
1481020615838731050 1807388226980540565
1462753716331156110 1856561017115778465
1473209327975472875 1959909094131333150
1471939407066223250 1962007719276097170
1582603951594111550 2292805500657752100
1446904396754962955 1714053511180371535
1178886056361558590 1708853290778101095
1285961649527735005 1865884338958801735
1176492890316900235 1708638924395569510
1284259559097233356 1865802333627472350
1349546536804055165 1963447749360626725
1349480174032175565 1963645264207340345
1318858396628198430 1985106396977685500
1315057724155472200 1994685577580560650
-9105537197032629700 17089687107449083700
-6714723878573811200 18865100645576990700
2740498184823295550 40626560790804280200
16792907870772409800 74773963634393662200
