29
0 0
-167450539963326675000 -55318496508941350000
-101160041516067269500 -40074607766348682000
-111926598321489501500 -81699508268445301500
-91728284370154022650 -69823436140116495500
-90395350707977510540 -68836265414873155350
-91974792155911142200 -70690325965997059735
-90688464057471939985 -69726987084777848450
-89902977958072106200 -69546078695070889650
-90923040512137051395 -70338768244299139490
-90356670945624650705 -70277784766599963045
-90409955963056416210 -70321605826096474740
-90432130417879311335 -70394923058883355030
-90272017206022237190 -70271646522436013120
-90322679796406300700 -70334770539983569065
-90238370509297260570 -70315913679570949085
-90344717366831356245 -70414602915003661550
-90262229245035417970 -70367718965370782185
-88654330953979301650 -69120816762178910450
-89563890166417173700 -69938878527426028200
-89716282950482234800 -70248286687609188700
-88936597107676220750 -69780266527044416350
-90773493005535217885 -70917573039534022890
-90489025731302313789 -71063682111059549480
-90895020062002752470 -71492332514572772450
-90162128813874469080 -71242770383236246660
-73642950959863571500 -65802821951032453250
-98067678338528647000 -88320111950102809500
-67260647482033539000 -106354784866614957000
