26
0 0
8165343415740252600 -202362420876730200
8376831566345781100 -119896534811647860
9326919197849751180 -399186228928095040
9327791022239358050 -399752805570458120
9979411401480594548 221123355788311750
10084454506815809500 244777512246125630
9812086774731336050 -419784035921997170
10385039470564235060 683125464974984080
10448324534453159290 818929809160606380
10448639007588916720 811127480859508580
10390712578334485290 665490410634552080
10438621294518559970 547084942172012680
10455857070575400960 559968410955709580
10497639129901104760 -461887384365150064
10501643801300486390 -446712307817594703
10615667200331524370 -455662068472240236
10504533171020720080 709643596374846580
10760714551939377000 949909056645434680
10672349632523215330 -453462300241575891
11477869323187516200 -1161952948557229530
11460304268678795000 -1069142132693109470
11476782918586686900 -533461899017464083
10897959553933185200 1673346012720751680
10938508910022150130 1994023831367336380
13305633832170995100 7659279893669661880
