26
0 0
-8008661930611873200 7165730394507275900
-9356534995315888800 8628334041400760600
-11279089037394659690 9222093059446644890
-11243534131087611310 9290048242196633290
-9878679571916118500 9196414255843675100
-11205631302816152100 9418659037084037210
-10504603019709106700 9549738110423378250
-10570423467518705600 9745510791128429790
-11623779054083090270 9409363673369582430
-10570069186423795600 9745757535917230740
-11540880106443465320 9467509542903590090
-10906688681454484200 9747229736355915820
-10798235008490635600 9923123898807642020
-10797500343208161000 9924291285966035060
-10989788040785718830 10158947266445129100
-10985944350113729540 10163391108200883000
-9909812739622700100 13837146952508074800
-11832282711260668541 9370395658926838830
-11360938771874455490 10479128343850354600
-11453982043395424960 10560097699173071300
-12329247937844452340 17169255685635307900
-11956404581570227332 11028706311374458700
-11834483869011476477 9365247484841800380
-11838318705145483469 9356308939933608810
-11861152655177376443 9333585273993355860
