26
0 0
-32584796935134945100 37112408905559954900
-3691253935464301520 -1924851527398005800
-2606015721397921590 -3387643210230754500
-4523961195583061500 -3921470674392064330
-3478096017528447750 -4179087804037166120
-3411547218606011450 -4278064967649404990
-22547843412877354100 -18679690958034086100
-2641173798134732390 -3811491806899215660
-2654448838188084820 -3996718348589284040
-2249335178539871730 -3433820431448362810
-3470896982467499560 -5141307155903925560
-2314103463441916560 -3527923848067995070
-2341648534890746980 -3569928709991814870
-2585050079213863320 -3941221685158871890
-2623905604065234170 -4000097376326401950
-2581946566416282890 -3942335478435191510
-3377674381963506000 -5160428296424444680
-2835439386240253070 -4333296092309909941
-2363998935472208100 -4014162681414923060
-2694684082920595720 -4394621916071331207
-2397895266476675330 -4446383180947377735
4292958474086871900 -16343835039682325100
1878820104834698400 -6895698149774465400
1848242753974044200 -5565778896595947600
2558238156436432600 -5748901503361642000
