29
0 0
121301128464735851000 147304554557250753000
-3757116877544643000 80439641920358612400
-50012066295167863700 94209110920529033000
-45291388185108484900 77476613624860317800
-44670262699624244000 75924659641241268950
-46767307924952051200 76603703694648573740
-47191769142521597000 76949595029587796800
-47765756265655536200 76501027676470319430
-48586170480196890150 78329968760919290500
-48072976621090529820 76577902639889696530
-47391451913344846100 75431969277636146480
-47872846276124144700 76159080549034373900
-48212468131286672700 76172911780066915500
-48932691154096376802 77292144368669007400
-48462285725011464430 76546391768864115070
-48126668199816230050 75934734261286295766
-48464662682674328480 76142840741950363010
-48361336245199916110 75923172492028621973
-47682770162098069700 74358623130684130200
-49577446115296576500 76826645825042480810
-48349266725716159590 74873470983200471100
-50677405310522792400 77914325617071157000
-49145289622556575800 75461318809555207170
-49453445607563490940 74074911448922546200
-51246334153770155900 76363011119938020330
-53712974744629771700 70692896174651655300
-67907932183103298000 88811122009704365000
-219937283400634989000 46293334480235489000
