19
0 0
1845052897132907950 655228117502537605
355082253535401590 1925476738994444050
13735316296641147050 5003108522480190600
-9355424329545936450 10048806698168073100
-2179756816426905700 -12471210364151278400
1401437423943802250 1064128242503529695
222772094268462700 1336844407200327895
575925632456043955 179732206793124400
-78078312957585000 -452095997455679250
2275618672357583700 813658313724476818
2594791268311150 2219142540228184400
345289447923768655 1989195467643463250
-50285634901081900 -40340182758505900
1905131337645622100 631849571612024025
571561850019213220 214014087585508500
1373930335506503300 1043208155660453335
254642965142592990 1323482613251019995
733378383556103050 860234952165660600
