32
0 0
39330566837 -12718090061
33689889495 3943770763
33674836026 3986428361
31713844928 1849972662
35051842724 7578662931
36012521314 8374682746
34920508142 7823985520
28629189500 3930932703
34586132001 7794621998
34604300951 8439831913
34433898762 8447683646
35442193149 8571212914
34710098694 8562370021
34408234865 8554886052
33350141332 8353183277
35724142056 8974428782
34753738895 8827180966
35654020752 9132738672
33150383107 8501895721
33138809794 8507577061
34377451556 8833949258
34372443506 8857279066
31572035385 9159156850
33540970635 10390680327
33453246008 13744376708
35642618479 9161693009
32791981681 15330751616
31029876262 26559932835
37175462361 9651442507
38204604842 9973498584
38532818979 10082756485
