23
0 0
-47826158526624852500 217494380252553859750
-126251754566350720000 26705275671876386000
-164135089144910107500 10582418171509037000
-161701083074006662500 9739884436293723000
-158998666214885106750 9000496932617630750
-165941349065192384250 7124662035398490900
-167287357407460154725 7055626667455553050
-167918851438411081975 7027245628417938825
-169435679459772511000 6917022961421474050
-167793994736797895025 6847170851671902800
-167092099126141193100 6807679290253662075
-167816224528610717725 6817544957296235275
-166105229223692258650 6535873973868991000
-166206016569121335950 6538256477745013000
-168417344330781813320 6601410783067853950
-167574159092771739725 6563950873202745775
-121798965843508632500 -8143440208555754000
-167318307626373104075 6157126057304568800
-168460581184516592623 6136420609761961175
-174513445854320241750 -14351909002258327750
-199729692419489360000 -17847581625051969250
-396171035536257960000 -72541809686295272750
