23
0 0
68193978311717256000 -5649105028674927000
35331404160930332900 26842449046168249300
33990172256070741000 27693746649578055200
24752947878393057200 20986649739058674000
27121003701384183620 34613920839438408330
37618205030740066000 42580203319958354500
27278996930986744230 34843503939755734340
27263708801202936740 34843197849807393690
27594516419816300000 35321323973558708900
26964961986982869600 34544175368044533560
27057417734228876800 34676970264705894090
27158349290779456920 34948264828947420760
26832937686455422930 34669420304390254120
26416415387865744205 34133486913646973910
26926896968288673700 34799431521023800700
26690904091431746250 34803010442324875770
27384118060551771500 35482418196896013400
26196389293468106920 34319231122109867238
54224282838988455000 73539259115625333000
26472446719503341500 36196669650585027000
4978071785183155000 23940755077124069000
-23680164545740974000 188754764004377931000
