26
0 0
-3500664268589222770 -1996219900846001500
-3502519310427618930 -2010381043543910100
-3922322574552645950 -2177746428821685200
-3922489233951508240 -2177644958435014100
-3808361444352986780 -2781631448391994270
-3840938239949833920 -2864422554386782070
-4193667734214395800 -2328441452986967000
-3610321133267022020 -3427327245570669470
-3412189612808167300 -3737882189245755672
-3450210385341111600 -3727150785546534769
-3680700636375576010 -3424561633675296170
-3769658793959597800 -3438961513145467710
-3870345134177691100 -3601146599709697639
-5620460119770968000 -3112302372712105580
-5612084469392930700 -3117498530370530500
-5818343274023847100 -3229116835903775420
-3730311366594545850 -3733330224163831847
-3673792157043056420 -4261078070079498230
-5924035068110107200 -3291027457428904160
-8027094144032746200 -3797512022913777040
-8003068957624508100 -3802255419456565320
-7191943379038785600 -3971101749179521310
-2926292537417121400 -4715468781827328800
-2601843426381572800 -4869918353790595200
-1659862857764271400 -6216479797055853900
