23
0 0
35138862426 164985363335
80287068502 86603475190
317836158 115033564699
-3582262632 109016808849
-4172166501 107021776183
-4318175967 108388498797
-4339929109 106763288000
-4434050612 107080961880
-4576353192 107513421863
-4558799045 107076734361
-4944244124 108856817623
-4938889412 108670032287
-4895944519 107554134055
-4830690406 105244905263
-4977343878 106914255565
-5041515326 107776348542
-6180769622 113589377889
-6025723454 109191212840
-6487949968 108614531913
-11125963277 107901747614
-11792293740 112504057570
-40698985565 110535405348
