19
0 0
-1895276267231589500 38390543620483064500
-34576309481916969000 15591028626590198650
-4073060573457875000 3020549287750223000
-2916076000297497000 32387569108387979500
-28892938088623312000 18093653039493670300
-257596963633737082000 -2909276356347914000
172621695603627658000 -241326663181017218500
127519397804158508000 298549864829685076500
-75725259046437812000 61417996040328275500
-21932024945394931000 -59250799384278248500
79179078747898913000 56530981523340937500
116984395388816933000 -164275996837309733500
61709357084607743000 165961444994792881500
-165371185914140572000 5408736378355849500
12564522887502864500 34278492957316773000
-38213231702454286500 30171521681414346500
-10171337594641275400 -8842056550146746000
-12379831845152001705 17336871614429841068
