26
0 0
13147724310630010713 -42582587318522464300
13183457458645843120 -42892320743172761600
14154960070122193500 -43344204323268100380
13829783332812743820 -43391762534820934200
13146791586732800249 -42911497094651475800
13826065108696211090 -43395864838103636580
13373079477748117300 -43311090710108296390
13333319463315059780 -43370907527844136420
14206455905053291900 -43495226533010926900
13331528229568558820 -43370962753327899240
13947853518471566520 -43482441586318450050
13443101916517480130 -43430133702013898720
13382301427261850020 -43451596837045380950
13372516119216709410 -43453800737234054420
13446976468810422240 -43839706136277073340
13372695017280177940 -43867361811053823670
-19041778130839754000 -81651743960152680000
14634290806622901100 -43563185025594502220
13786566391499035010 -44884117766919526250
14046266613538669380 -45687408940576373600
12590621879998351260 -87550967718744744000
33591683274824416000 -110219464137966440000
14636157799857079400 -43560368294050316210
14638793732302109600 -43556717597804839900
14642186533578117300 -43554537680707276920
