23
0 0
-9584729417842543140 6804452031511623290
-640517183641347124 -441757091018350520
-615717776476232880 -296130350564576440
-520821544864962186 -464362542196802690
-507775758609075091 -490700223707931911
-535712874288095117 -527839810890047496
-426004877676807700 -443591167721014500
-473425940996480060 -503101028614209054
-484835116016277003 -520636316957640637
-372177080371358110 -399706602054835330
-488182123968869860 -524659855320063775
-442094382036071310 -482334693739387572
-472682039232576165 -519250441139901224
-481005616630598022 -529202369394830292
-438404924450728650 -483173785708297596
-448832066477648880 -516651090307123560
-401547431034561910 -462459031892222599
-464971821459020302 -604111752757455238
-492984403845923055 -657312112485218472
8382283125853341560 -7128598347686274810
-501075160146200812 -684301524324247910
-1083487916582830480 -3953144728313242810
