23
0 0
-1927500227566443500 -81703206437632695500
13019229370977040150 -17353945145956824000
13205387945977686000 -10938408000496180750
11322087483063076750 -9359865836585639655
14944534922196692385 -9130419724542445925
15836590318137775450 -9604988763455555800
14927315805064493415 -8927850245423976905
15271983442387051200 -9129328213703900820
14597119412314325275 -8701550638501090510
15195057613094862570 -9027847441298414459
14996538021961763590 -8907391043528038290
15019601465997701175 -8807965817865010330
14367212008246100220 -8346980860474876100
13747071117784886200 -7864370848919831050
15334587786421005050 -8756905984040581970
15067232891575107180 -8604161684405227275
15357956914077487250 -8770082584960770280
15607885788007116850 -8910574467981634585
15666486026794871800 -8686618600994024265
16170854430650245500 -8369088367985499900
18014876032935164350 -8688701990744126780
48726667021218011500 4116784885746038500
