23
0 0
-5366316301825310700 -15927993844071831800
-7753512862021400700 -39329758394617393800
3147205978957832100 -5670204806409904900
5270651932663585880 -3341751905076675280
5706899392086325740 -3079189468272000890
5319669292060257590 -2237340384362641620
6406693834738164500 -2693419825516036404
4174648595275595560 -1752330661547158980
5671046282467101020 -2379935209606238300
6141842766519308200 -2569928718983828730
4999697785111733411 -2091820894596902730
5956850987481940850 -2484676688678237370
5642975488062242550 -2339676009827517220
5447925920276713260 -2024435156056427300
5705115626177936580 -2115126898987594360
5868278856999565270 -2154271117115562340
5742859871681860970 -2102880718837755200
6093985572605777000 -2179981658147598350
30027499022059296300 82951519626993590200
8805824096945331500 3557097856666026600
7826629943640390500 -1396741092232316600
8631977070387858200 -1123931624183605400
