23
0 0
40381728180983161500 -4353486146099610800
36220591193441459500 -3282563127357500900
34224755188801787550 -3090057229841064550
31041179889800037900 -1931401023396706165
31504863249969943700 -1952277537530426210
30772658206624128230 -1885580864214931855
30783256498567847000 -1864767028790602165
30299972280210983355 -1834968144006079415
31024678366489275400 -1877598138607052670
30799254465201122595 -1840624233593507800
30790422485349919590 -1838008933175771210
30567896208288704505 -1816955273818137265
30582808102401403080 -1812582696465565425
30416211156080136128 -1794899172850605430
30421910902777533345 -1779124088591262810
30455972989485718305 -1779609815913218695
30825241788943895745 -1800454020001546440
30313276432064098630 -1768161957920542075
30622303945018308055 -1749089466145683660
30476476955097326390 -1702112405572553410
48338472700529658500 24219016068863757100
-1666652947780670500 8737260971310332600
