29
0 0
-119537618791452115200 101115978140418872000
-141564861778707721000 74924339323258510000
-111404923962733265000 58613860001719581000
-125445294297259207860 49578818951323175400
-123728254279787586100 47902544430146012000
-124630308400563541400 48230399316222347900
-125811914676752721931 48662284826078719900
-124174398671325144400 47512108359120860550
-125174980086523933000 47598507512272655550
-125359496277248514720 47653908275420759400
-125202165368341245210 47441103949819826120
-125564161035007462840 47571730629970987650
-123754624797669510100 46883854863959860170
-125443724243922741170 47498241242311157540
-127511010557966528200 48266689935277765800
-125396399172287485730 47296324567492596480
-125720138513960525170 47410497003051075570
-125695633831269791300 47250259941321755290
-124723425171506076200 46867106791949407720
-126041608890687988680 46412663716593334470
-126962527201771551400 47080468825640463340
-125578013710043067250 45791440665105227770
-126851306231117090070 46253863584855267740
-128098355698166099800 45956812472771531500
-127606895160232230300 44719450573644446000
-124329429685113799400 17039530436772054000
-148160754575709275000 17856489126981302000
-209668230042548934000 -3583620267097763000
