26
0 0
7708644146928343200 17221107389446402470
7824887586764764424 17694752088204343987
7826372292943484809 17701511619505980747
7918663656367468391 17663602279589741310
7920282094868994338 17667464934328265655
10419599908624294900 15213103920613259800
7837649855074635667 17756689726216167930
7929175730360323315 17688442286708357584
7915019395232229946 17701940217659322029
7880271575595173621 17732114109605995230
7880290492052465085 17732145778562438770
7915176568804502241 17702294096121464697
8498095697935348150 17293316590158123640
8464158132838753900 17332620954822134970
7935131708293582961 17698044544502782942
7912098034466972878 17733335503774817220
7952247266501517912 17735977021257194440
7942229155322928588 17743971421403832760
7886711727194779975 17751511743808243140
8018488263416643300 17872944921202957510
8018172615283315930 17872833090438101140
8016488652835382410 17873538599603332780
7848873938064491624 17784759005155514060
7693496938460901780 17897520122835207640
7427535493290522860 18157554877322668940
