23
0 0
9102091320888397000 -84930443350908471700
16084849505464064000 -82027208695859857100
12864858175207348000 -56028158526306152000
26216555175854812700 -77379546909714624600
31741751879053277860 -81615945983754861700
32201978988661320340 -76172980259570968900
30663449844657223600 -74539079844640979700
31787898221800482370 -75727154401215434630
31813312713659146547 -74758401039041033800
32248904843403226450 -75780266434170565644
32054602058971876290 -75104175018947146390
32763251007413594020 -76192849955144015490
32345528059052627980 -75217344269675030780
31817605272967655650 -73950447063193009000
32112242748378714530 -74624765599503974800
32210625307281920130 -74832813290607572500
32226190221275867900 -73719490625314745800
32399551796374023050 -74491461715861549400
33510669348650858300 -75927851805809670001
33893592999229617400 -75854753368642912903
45306334345398781000 -86357004467599361000
107799285770110089000 -117317155136651149000
