29
0 0
232651852322873102000 6367478746349633000
107238650883880701000 28014109953129432000
79001453556161343200 22402537810131401000
91345280795684370000 47211627771304441800
92139532123933575100 48584467355381540470
90774546988107061600 48740026377492581830
88648931906109141130 47941574678910400730
89658009378892807400 48524106033584671920
88768710483417610770 48560864123407859940
89797318514102022770 49292632927391264350
87941315011940495000 48293445293046402950
90576310909518572600 49754037062339097000
89864400699851087700 49377332652246321740
89661344617506240100 49270289567702794980
89584685301881752050 49307347481392838590
89680005960841705040 49361115569114648840
89795140786060272140 49471070410169191580
89585202752156611910 49363301915063058870
88727109773930282910 49121935064713376100
89680473904121003170 49447966346307898870
88994227813613744889 49732829188832946510
89988786364782067500 50467805717960642800
90440776959724980900 50902963894453962000
88434807561470138660 49823041994231580520
89557548381948079920 51180761033409289900
111306901232242942000 81528395926588343000
63488158667986562000 59506750702144823000
99796413444467150000 103333232138713533000
