23
0 0
30620679897222945200 -27316215088028507330
8198114838684328700 -2785415931430380280
4689316609062701385 -578668198848446780
5737593382402407200 262375124664282290
6294652658548712200 -679415801992453180
5155778970775390485 243040486351728850
5707824387098450100 272217804264475620
5405078987106510000 264484148425417435
5139168996417366210 358446619589774465
5309905259148279650 403015931255875140
2827053913053219250 217254831521420679
5559788370676005950 437689069985913570
5263028715340608050 442433044308065670
4938189060504567510 415897613790144830
4966231381782448685 552936490267749980
4956027740664271955 556893116613727050
5420787497289925450 622685387853291575
5001187715147991980 736715459429427070
3066394270693079700 2511177363819483420
5433669656272909700 634809046799284160
-4918685786611170800 16521603359660904670
-40883826921970481300 73781712365750019670
