23
0 0
-185410833312119906000 -60909981523357131000
53313021541576160100 -112680102792721428200
55156390063129342800 -104395409389662903630
55828577266456371390 -104930058866285810350
56730500761403663716 -105721364334983081270
55993259625146770100 -104294163685980391250
56279339947577376830 -104576743791637067200
56540748155076219498 -105059943208685579400
56847891718826005240 -105485924802291599060
57332951034137468220 -106233015510013483690
57523469823592248670 -106527948040741911500
56702094464452164938 -104979000842684401740
56937283810346281400 -105250268219765503468
57000040323028333180 -105265437349343048151
55275019007166512300 -99947892381032854900
57603304780842797500 -105887154713945352930
56619456681242353772 -101629388354035147000
58048399421812879800 -103115263751853365600
58881800763012890000 -101983881078712518700
62349025263659977400 -107501466444792280100
74904515799362136000 -122508835207520473000
124257480345350041000 -169466724062602477000
