29
0 0
-180997448330209018800 121580383344688471000
-207989898694052803000 78411910136496136000
-172935233354397624000 65163811050344018000
-187374374656644425370 54024112428678534400
-185029057972217248100 52744206352547798800
-186485696965654500600 52553633030416039200
-187715613184576216618 52424242435846586700
-185841843415846057400 51747890574858779640
-187003893519497361160 51776268999806547120
-187279316330233046070 51796614036861693110
-187057652261743264580 51549589266274519970
-187523083033947864860 51649765173787964750
-185100015754629292900 50970865060018808730
-187363300265768694940 51585613542212022070
-189702503603926088200 52229522045466584600
-187277616684420623790 51353267923935193200
-187670038747615943680 51453250328923347740
-187623740165084472070 51263662383814488260
-186512150908034659800 50874715749083423213
-187978650054830361760 50225141510206207770
-188994364753434451000 50999498915801009450
-187392136305012165630 48289834541069519000
-188869929866559335900 50215220213081996560
-190932385266752050800 49029274263511206800
-190387260350397432800 46927668710005605600
-185405081717062778800 6415492829767181000
-216203372405334926000 6985106116793714000
-307617171761856550000 -36890348985677451000
