26
0 0
184973297040795487000 201107672700068593000
199216492766373610000 209870811443577468000
202638392653841452500 239536361409733823700
210202204399570969747 236908610695997226900
216833060059317777000 219251733709476764000
213686623899336851600 235860704279813258500
214683050531158405800 233775739700341544100
217166313252906840000 229226499234244593600
211892125910813909400 241839043986257759000
217225293266705264700 229183327736274193500
212082661422976442600 241681864141564880000
215268964991554295900 234944184712966838900
217164839737784344400 234417678503425708300
217295310266852045000 234376106192325874900
225707664113683598000 237146477234282613300
232162821277403762000 230250337450962535052
339488842551003670000 200448135285426881000
204028574072955977100 260602995047548090000
225782741558960692000 237338333230030265100
226809070586972337000 239410085257115593800
252609669323363424000 239343306859063127000
235288225061981834000 247181598924198179000
203967240727022266700 260668621053334539000
203954285502078845600 260682519829658850000
202655426566382503800 262080828229944638000
