23
0 0
41592116187232032000 -151673222641559962000
75469113696705374200 -34727934990136986600
65517906608420026100 -27892228998498892700
54736768011553251000 -22709491348629712700
67538539301509228600 -26857860242983842470
65847418696359336760 -25977951516549323170
67288438128318338490 -26393825901141719045
67963809003719404500 -26655161641557911280
67558511530262543900 -26489756382298378687
67640954458612759600 -26272080605439210460
64289973615719704800 -25174422487199130000
66798477546446511500 -25940673923259081250
67149831033069335740 -26036222222723847720
65903077758780605610 -25416895823397419480
66888845419453740760 -25795891117812038230
67658974277083724300 -25956445225351219290
63643270432722867800 -20918841872107735100
68091512186228470800 -26111260452620666570
77282467520435626000 -29380404410515618400
70073158443612837000 -19953188477605997900
87349362168426004000 -2492636471101218000
93606308414401821000 4664136203981986000
