32
0 0
-4455712042024522200 26209373278048403700
-12936178729212770800 6236292434114103800
-12948133579472438300 6218794263650963200
-13214671805004272100 7858159470594846800
-13590749827643812830 5676606303313856600
-13936216019106596950 6347013996050157300
-14260200549949901600 5668929223437272500
-13727073762916465010 5374862551615355370
-13576991558086999260 5481477345314318360
-13362130793979707860 5231869813916098750
-13683647458138779780 5353661129845130910
-13709210897601701660 5323533833850463680
-13425921295620090090 5207078027816823030
-13680981253670391190 5149247202865947280
-13738261304038537020 5058947586059705560
-13882544803127428510 5025476892208528440
-13884336109158841170 5021476895602028230
-13997338966319846590 4987489762634036910
-13517942172848432980 5086913316100272770
-13440703043724895540 4421090993568590790
-13609059799120565640 4631686087993046739
-13406476877051171340 4288864075420932040
-13526898105753735850 4421035310202670880
-13813200227239731570 4685764326692268410
-13814021249008382370 4684654026545726530
-13860999677783069650 4401077245320375670
-13872161983416908400 4379386448703306690
-14503809236534493670 2393941648844345500
-39074161010099598000 -46231234085799726300
-15566892971255132800 4028132718306755540
-61837227969006707000 -5451246940927577300
