26
0 0
-858548229611390920 -29976695622841748400
-988546970334491530 -30398258201084206200
-123169544135248000 -31091054088334799990
-572518895103495230 -31070454919285172900
-1010840409456772400 -30408341829816129600
-593598818026849710 -31080118274326432160
-942777849035957430 -30875624980852663150
-995113442031541020 -30905384038476727560
-343951042482338700 -31276824160205237490
-1003355606584792660 -30908954976478696930
-468206670131212550 -31236622373437678100
-849007143325227350 -31032231387014795190
-986196499877032730 -31050958182614769640
-989857602031325360 -31051107031858277330
-1042722359709135650 -31288994607330231330
-1048503074756371900 -31287440778110505780
-6105072053268375000 -33618440237614435800
1256850240031815800 -32188182000054656890
-1046877732021354830 -31570318369634577813
-1052430394502271270 -31740479050277810880
-2283675416009328170 -32891114972065791500
-1117756345071632710 -32669866840902032800
1274155885238678300 -32193507770886677970
1297184404445760600 -32201462836099646530
1334465337758755700 -32215127196031858820
