19
0 0
-283882687903572750 3339457299034499700
-3498150616330698350 1336851510487381025
-551372338158589650 322413914137216850
-373694720032637450 2804629932420636700
-2992870489609970900 1560506807804889950
-24903865589614963850 -835078308663410400
16349082550542546150 -24289822638845649450
9338754562863024150 25054275151955991050
-8922043597312740350 7471278703027924550
-2546721379837545400 -7580912023576321450
6852480916927346650 4751718344356459900
8284637517404022150 -12477587067262954450
5855405269364314650 17124833730567264050
-21317831714065112350 -445705485830271150
900001262073080200 2905527155406927700
-3672739082711307100 2551580292640743150
-1174616181329078875 -1215275211677105100
-1064327501206660355 1582561994755013392
