26
0 0
-868504309519109200 3962532829089106200
-1348826673639639100 6034149716609604500
-1745662613979363700 7034027038804553841
-2277254258939780000 8025276362395444640
-2293875060245441500 8041603932757851140
609555426220468100 10580821831697516500
527733046443107500 11052067976575058300
460819388311295800 11465243193406357700
168411894772671800 12440727368269430800
169310288134558200 12750630812853603200
153814783468864500 13011589866209685200
-1737054205120599300 15370546108616522100
-2871270756998896900 20057314830068885500
-2975682505995082500 20484847596971412500
-5045949318366442050 26700696823317277500
15136186636344631200 -5020864423696477500
16053016324924086200 -3468132543213981500
20548749699532389200 -862551717406930100
22057946515470440200 -26655299088961500
11317463032589146200 11054095338541388100
11574804049834681200 11380296702827588600
13455094907330802200 13355954060490747200
14686611343131740200 17454763578161551500
15561480329266611200 18683263733312597500
20493746551113339200 26250152147308040500
