29
0 0
-27129627312725406400 32659039116383330880
-29642778984874007200 37148434438533007500
-37508649494818336100 53471708126809546000
-30747379612337436300 32862188674162734320
-31583937473462590770 33977917914031811300
-31573979540306011390 33082365411479299390
-32405215449529638847 34374582385784822200
-31975023303837844740 33586526170712402500
-31510405055150639500 32269285295227770968
-31088650096918201800 31428847357045012130
-32029648582922948630 32874268012336782680
-31946057542447593100 32608115859130799900
-32273658596487732070 33014190981382882010
-32021603063662949020 32354963710998149600
-32231407503036304900 32693854161739455550
-31933113872673366520 31935597103548553810
-32530041805098075301 32901295629493681780
-32794063259342572730 33361326099649289500
-32242755557697637520 32369368375315107240
-32496913433113702688 32658604980471599230
-32533377723421759612 32070298130907847890
-33077618816535691850 32768462188861466510
-32076141799113593380 31082660098621118400
-33690816070279431500 33357577560503521500
-33472152982768182000 32164936544291056994
-32542366537101795286 15085951411206150000
-46767335721910786000 41665823337696851000
-70679709105816238000 13394354096487768000
