32
0 0
198466821776382890 -264951825084106200
243610810660468280 -319921853128684600
307489465923319250 -366872850522993200
383258137376456220 -399665425962198700
418836958642579170 -402703534464415100
444839450433469750 -1457732140020887300
470088170772545100 -1513197803594474580
502323601598630320 -1608051850073689490
610288511259411640 -1772568612442661510
634006629275481300 -1838736287899871850
663719509125282660 -1903478302805544840
1183137595208651460 -1964776737144678330
1283805253522990860 -2061447600484600940
1406039127377673960 -2167258938760283040
1488416623345970360 -2228498081231100400
-123356505117240940 -2344000446504791450
-118497814637654160 -2357180122360408680
-100891414768286180 -2407741730152551751
-94601324838154040 -2453467699304801436
76555338391210320 -2609707067914790440
106057660216330390 -2678555156999032390
195778645767903430 -2904195049739495250
364559485377612050 -3218399978227671700
372278954290604560 -3238907400559948060
455591705938394090 -3449345891980108350
-873278867197690770 -1891572446562413370
-868310755142310020 -1933773614993754090
-901807318889012200 -2189841888185837000
-938566767761855700 -2367478381109729150
-942478112811603940 -2382092138894319544
-889716119821942580 -1798301699473112230
