23
0 0
471183865015102596 4424197665703823300
582598421084301420 4687068031457035400
640268772965531110 5421231125529500300
718223570712808890 6628941692910069514
837874125052756560 6754566110162361895
866433374705160460 6783922662387714220
1097816056950467530 7014192872553621920
726585150560210160 7186977277379753830
834353476293452000 7265620851865648520
1040003895496006870 7229397091241772970
904852058765419810 7376945225005624270
1801308570416383880 7911886554334319200
2168321922581539380 8146686396139415500
1802040310784567180 8073439325092501800
2475437027940732380 8853870159797689600
966870717789645260 7723503136020077500
11728203209901828880 17783443332076653300
807702845570409210 7660742637719107860
842813306764096290 7998453069877146000
847662755955752530 8565642020284248700
801120226003186880 8564980825591289800
-11095737843009363120 71551822420785670300
