23
0 0
19819330678 -56978152496
24007605721 -33570037258
23733178364 -31582470709
15223182132 -19692022689
27221154736 -17023493883
28399741724 -17353364474
27065436021 -16380090853
27921198710 -16871891691
26709142397 -16123252342
27698170078 -16528494345
27354181883 -16319228630
27398451360 -16067121639
26643069923 -15530767125
26162463138 -15084680075
27822600010 -15917334250
27465523152 -15712074212
27863128413 -15938913799
28317069201 -16175364984
28473712738 -15565177521
29103489478 -14805691139
41206759560 -13573504669
72633750230 17416391352
