19
0 0
-328398844291048850 3598720740816153000
-3280866605577085650 1458904936119408890
-493066416288813650 345117514246210800
-404409255030721800 3010018045307069050
-2860409715823591300 1666285005264045790
-24840204686736893750 -991265123722414400
12700135525499626750 -17753117308889055100
8907685412354683750 23835711341969596400
-7785462930705666750 6262669396120453550
-1891434538195207250 -5546245222368779100
6413475122029429250 5389089419296450650
8127246536169932250 -11449601963437604100
5758605095046586750 16818157728555944900
-17377640972821244250 -99091155200558700
1042888214338584000 3246323483237772050
-3657004732249347300 2685750621030371750
-1041774575944881230 -878403826092918600
-1202897921150357318 1693281213297109585
