23
0 0
114535569423 182711782905
95277651122 155100852655
48825424199 199561028218
48117903938 198507846251
47199717896 204064041189
45374650161 201319020162
46300956728 200195502229
45154930867 201170166537
44960119786 200390029382
45144561185 201260975850
45012745634 200901961701
45135934802 201553236506
44893983678 201479702364
44714367963 201230139257
44719873629 201668577265
44438680629 201102831530
44501406547 201458773302
21189229052 201518628244
21052913455 209122578955
36802364669 211217780735
19094109477 228390657891
17752090802 234142723615
