23
0 0
55423390052 -16072579928
23538214992 -2258870827
39584542105 -2871758003
16268696499 -577558058
15564311099 -508993824
28520848352 5984283782
28297446272 6028755006
28486951927 6114302944
29456331129 6402985056
28297137168 6165743130
28383490154 6187707708
28632786452 6318652919
28326657190 6268210371
27745669760 6174734730
28485492029 6350061511
29343419469 6559173811
28349970512 6547647942
32140933915 7187721721
27541125548 6549668203
30825950337 8505020846
-40086477389 102811871228
100778028685 77373819342
