19
0 0
-5310858882853197000 66876146544592596000
-65199628116407408000 27123582454782195600
-8082055085143715000 5203060124734806000
-5971162488746351000 60354364170030337000
-55905425437153177000 32274029805793550140
-488663783733077815000 -17292980867109020000
243760304172533515000 -354096190353611810000
166078226518242725000 436033312568868610000
-134961072602843375000 106605114518644659000
-42269153894417075000 -123228985019291720000
119912633580039975000 95642853665659424000
161307855692296135000 -236210285545870450000
104376086838263695000 302738481515605720000
-335068647759092565000 -367920601597933000
21436381772372597000 64627909360068019000
-70104695942416857000 50994462644824010000
-18303534416150932300 -18539561312262376000
-21698012620042252210 31586268643208293391
