19
0 0
485308110044181306 583584050332827320
-262744557809554284 712081177127288710
864963149561711516 1086675173804866380
-888261770913558784 789326524288235380
245862173586473796 -580336470632985710
-706175292513497464 574953426214572660
340471483206208036 -315458405616054630
588267361541916366 1036170206861597620
-227621542804677194 681441575332282940
8973166013875477 45737224149228520
441211929025428566 568486427978604360
560199880952189446 984568109818013950
-647452825290340474 576447323525434910
309816496572777566 -265350205883332890
70738147940205284616 26346519003912360990
-57700520618736037384 48671357681256288990
-12815063769234648384 -73722211457708512010
74187850744875616 431888409153371990
