23
0 0
-3073822506709658410 -3353692653725352579
-3064233977752244190 -3353747470574150726
-2473778385105795860 -2792522357075174180
-2933449164783340660 -3345100166020776278
-2863599328467510430 -3523567283856041980
-2664449778458057436 -3415589370821290591
-2585416100167183308 -3272658127270889810
-2627738656989880190 -3370365447218886003
-2526866790047344804 -3306507384690866826
-2578849699323865521 -3375599690870517502
-2532276720689841840 -3333215327391287068
-2591361676460794920 -3446377326294208811
-2516369175106292097 -3347322099333009742
-2438254501260073180 -3247963031468473730
-2478849497399380010 -3302436770903701324
-2488397875326677650 -3318153825729492670
-2322809018708412370 -3227546033678028510
-2433842519736103250 -3298218421337517758
-2484207138716484250 -3466862484175443988
-2410102402576802720 -3482339083853999229
-2349253318941652670 -3979872400722475200
447857020401689900 -9033603611994141100
