29
0 0
-2175521466 -123056213358
47589974177 -62370445751
33212218377 -62701600579
47739988218 -59774916089
47149587848 -58824580989
48309748487 -59706060825
47814518082 -58929548445
48269262618 -59306152702
47842111914 -57966603881
48763519661 -58909684727
48939514523 -59088056000
48463844036 -58507781449
48406963382 -58326190258
48592536371 -58586785694
48509780881 -58220291267
48645888276 -58382839672
48754820885 -58511583877
48797404526 -58157656503
48814282381 -58413062187
48718123011 -56771605685
49186232593 -58484865506
49179710749 -57298358297
49692389430 -57758649832
51107285274 -55741414881
50296845866 -57630768831
65193283761 -61727629809
71296694629 -27105644157
102420342040 -30467423993
