23
0 0
81605858142 -70512286544
52587958042 -81087933223
31182949121 -8778498960
43841277641 -12053311079
34222948727 -6890337771
34386257660 -6807130113
33897106961 -6644737421
34285051072 -6676304518
34563121558 -6708366249
33994908745 -6597244380
34185252444 -6499487764
27611201319 -5241995399
33825923303 -6413067016
32590250251 -6110514005
34055254367 -6379889485
33221283110 -4828087433
32964682722 -4704813496
29384668245 -2099287111
37205828243 -5041590526
36055369171 1153873012
43578439379 -2382012735
44466636580 30331689516
