23
0 0
-49400856769 93140897852
-47843509422 19944263780
-41708244542 15105078934
-44144664688 11734178352
-39428609561 13925236497
-41091123650 12908029715
-44019551621 11634301735
-39152491825 10283274658
-44095731375 11560698296
-44034007059 11355764080
-44368761010 11439540687
-33254097134 8569411593
-44059682985 11091302875
-43975899460 11068730023
-44339576201 11158967648
-44584510950 10765408577
-44766510367 11266275038
-44985337365 10799481831
-44963371054 10156657776
-48019801161 9841093662
-48184866976 8569269411
-157880891631 -70329977662
