23
0 0
40316020565 83626427524
24598900447 54427202284
15565717503 73571835979
14467076872 76302418100
13361110366 70898459551
13363503247 71586173655
13585848309 72809300919
13121349893 71913331412
13303830009 72940463895
12980504394 71191774011
13109593239 71949477971
13058801461 71789832706
12814677055 72057228572
12762255626 71928443025
12717801700 72485754585
12466376587 72352566481
12422455001 72664136842
9566825962 67668854193
10278084295 72818327617
10624420250 75396583177
6566718949 75614939283
-15302354582 87825222799
