23
0 0
8287559591782849000 151460778093924636400
-7929129661968120800 49494661141168379400
-6855628944738375000 20695083879376049400
-5112401056480468100 7003925218327555200
-14395475265348533380 9805470674055925300
-12677279313864501700 8516744071260808689
-14086220057325496790 9085521666909098400
-16159883148822468000 10409999091323605200
-12320113080995539700 7914501602956604930
-15073422104372839350 9488744952493239830
-14385835317599033740 9048302431686966610
-15017157250594448200 9424427350590878140
-15117177625812739880 9368851672789639740
-14126497610054525410 8852116966673979820
-7784052997883830800 4767068160536011600
-14595775903896718520 8934638850244987750
-14450368004873309270 8809186002369107370
-14136428277316925890 8447305089608979202
-15237738640881627980 8617740330306598550
-16737194332058933000 -466511238157433200
-16520127797831250300 8766237858114486600
-26093646470186374000 -34615528099042788600
