19
0 0
-207768783382209600 3769739490767693300
-3402972101758873200 1427286040239447035
-461772723577936200 375241315796166700
-296425558805978550 3146751667859513950
-2749211724427016200 1716973319150828485
-25838752089222418750 -796041136145160500
14010392052365505250 -19133676906011980450
9485795509450579250 24504575885637252050
-9111462081237126750 7477615707251707050
-2344431532589117600 -6885649573212407450
7926561662259896250 5365439336725842800
8894436061948008750 -12203202632244207450
7558387894498826750 20330755938229430550
-19298189045258281250 -90854834222263500
1095377389269334800 3308450922652420350
-3641191436053994550 2962108693511300550
-1042222051417247668 -886938132282754100
-1203843054305071040 1644880650999096955
