23
0 0
110582366680 -57939289007
45739376452 -16297767314
61265593337 -6873224604
64535469774 -7216391690
56606416609 -5571630892
52449261119 -5088157166
63202546997 -5776800069
60243864017 -3070207461
61063095382 -3004775333
60457146181 -2708224076
59882349657 -2679440709
61000636667 -2433985647
60084090116 -2315107770
59450772757 -2274043010
60330009234 -2267004096
60289358800 -1930125449
61972006630 -2298361151
61855118078 -1952862209
78100193167 47197851
57182071915 7248013802
142806287248 33462308365
21347772374 119609404788
