23
0 0
165621604109219481000 -181467560780416706000
81186995270314469000 -49767117234743288700
93384170185244455500 -44388570338324770160
98143068456096520800 -52201906882943622300
92485912792605910520 -43931456145419190448
86763828885357125100 -41925855449344768400
94111302269853789530 -44489215809454436550
93437196135638303110 -43947829095308601213
94036941088185743730 -44151173275098999060
93648026121215515200 -43588224546753635920
93483818940394326520 -43417420712736824940
94094299117808824410 -43651602341860461650
93536085555589920060 -43388422127580308100
93441342030185052030 -43343879362689416020
93670497991249268500 -43433432893219699720
93846422719902289460 -43213910456818898630
94772216159322091100 -43933790518662087518
95093920040642619600 -43781663135553085070
111217739525680298000 -50473538663143362800
94272864781612218600 -38337610844329788100
129061783638939340000 -49327030359055468400
109996796865814528000 94088040816425954000
