23
0 0
3824799338807432500 -2634319611339056740
2996817870045413270 -780838226048138290
2923871622840191740 -678898985183181680
2919756144984160330 -658742437893408120
2938317343705137710 -650420346001835270
2877743061738027824 -529854042277786297
2809660497900644099 -517216919860849419
2844028048130302671 -504576278966426143
3246583014539891640 -569663705808210262
2906185953053897795 -508956616233607665
2879854207669039606 -488804844295373190
2831840129373437727 -480139841472188372
3019931575009073260 -477127220601729313
2849284581199585989 -449912791832646416
2287422464846169160 -351193563587862380
2732123307266524830 -412806245750337640
2984492305044764280 -450720380617511228
3067548660283530420 -390772193774251110
2884435620353871815 -359441946748241610
3948821059824482100 -69951414899284650
-3551029828232306000 6418175132031425960
7083157380627946500 1116156104061619760
