23
0 0
-25060490460 49980117446
-13608896741 16907120613
-683886982 33272497119
-9229607453 3001568513
-11774160805 3766234637
-8639025646 2607129668
-9038546816 2444722447
-7014943492 1880066491
-9852019878 2562396539
-9449598933 2290091618
-9446317195 2268322906
-8761584278 2101602941
-8916890018 2074603040
-8182550477 1840618463
-8652488737 1777825695
-8828907505 1808989408
-10070931543 2052945915
-8222603882 1669759211
-9955744781 1837319070
-9989029309 1621187197
-11968120801 1388287928
-18522069349 -51071051291
