32
0 0
-21188360287420545600 36421398418426852140
-1310928768891759300 1320295863309148240
-1419727437399461300 1253660653230676840
-1423692806956704900 1252828180846896640
-1426942550813631700 1252157531023635440
-2213893200187414900 1932764428337476640
-1467247570836166100 1280587818031547240
-2069479694884700260 1126453639719491290
-2254881252286393620 1082581855448047730
-1661100662728945890 766531689694287250
-1798413047989260930 826147797085503010
-2141307562344122070 819742276292295880
-1701172246404214200 770856197275661150
-3038446834985813950 909236461712053130
-2130071690483428230 636522668681727020
-1690436116489034970 504963580424842440
-2016608405653078480 602177265417021770
-1832468317596125620 530372606614735020
-787356832224253700 227806807660765683
-2013681740016466710 582460652876751820
-1736002749137923710 493615793484986230
-1322125502644999000 332099349646884950
-2121470562699743180 458635176748410680
-1979795361222053060 352502281294050390
-1966541164153276860 326856424326683830
-1965586441233635340 319379169383578870
-1863262362035342140 28876388270429070
-1910147041543927640 -120685845737628150
-1909158396337131840 -124303714019362820
-1907752324910679560 -129849478789873470
-2927961845712694280 -8942590826275122160
