29
0 0
-1064693224049099095000 -253130614932665585000
-689137568145646962500 -275225295524301305000
-1100720349867969430000 -821763263274811765000
-675271212841861241000 -522968554620485782500
-664807134875951494250 -515308657311042732500
-668783859375970080137 -526292874426888816500
-674244939161486966500 -540199932633403897000
-660391117493296606500 -529253969443632292500
-665238574636087027600 -535359541564011228400
-666816655796614672150 -537223958534421380000
-668045953171428107400 -539678912908167883650
-663083701006031219500 -535678798355376102200
-649859069337788643000 -525040119652309261000
-665150201630349507100 -537742817576240993750
-662892919740192582500 -537467382637592778000
-658092809139445066000 -533748209385192629500
-683269502263113880000 -554187563812088601000
-666621297119963429000 -540796808854765179800
-664227418947862366300 -539214108108693606240
-673822819985845495500 -548143168254903812500
-659769853045320754500 -540249089749812031350
-667282596074082935000 -551633211307254451500
-647301611734804744500 -539211330850971246870
-673879025677731162000 -561693313521043851000
-663571739123761585500 -555549895452494115500
-458992726048132775000 -542657634047285577400
-553066616242570275000 -672291653589865310000
-1257921695891725100000 -1678608522959267450000
