19
0 0
696132322722609660 278011749952563786
107300923351817596 741874150849529240
14877033481166265220 5949269399414804000
-11894602851711129380 10187265977886791800
-2178997383380713380 -15116649476499499400
515512571179177260 427839087970745190
67856518218390542 510539188578592448
220064156676859160 81507624252755460
-23027543439801960 -172015196778206920
856615624689416900 344076910736048983
-30154835175187740 847824186844250900
102475923203279154 770482574433863060
-22363121511989940 -18482784494064640
723320444383137740 267886110862294448
216537935140945726 92547354515726280
507714995088473380 419265425409786760
79180315845008034 508073120876579980
267811082024809020 339961966934031000
