29
0 0
-23575511983486370000 -95763644642344116000
29676508848291372960 -32699381262507623200
-4034761300827978000 -36302336985958837200
29435228751474812710 -29648259167381498860
28532616152302940250 -28736100857128957368
30125945377574040110 -29533374036239374730
29400786058292011549 -28812366150177529193
30013176664309553100 -29139161486482935150
29111132195274278590 -27998307992981529470
30435435532604429100 -28783032699275230497
30765257154527688900 -28931547031528503848
30088287655866244350 -28392812248029483220
30011439614085664350 -28219407478823713710
30257606318570096230 -28450766034470925550
30096223453631339470 -28133670461035316690
30282475651174308120 -28267041272771918660
30510655623241043600 -28336932808748031190
30426831127137206700 -28051506763641347470
30530663011630505900 -28291461250446253720
30076527672855794440 -26702920928409620200
30919219905884940100 -28340506344113977970
30742226217746729300 -27217681342790797500
31360671907880894200 -27669713371623613800
32453494809506101000 -26014910395415128400
31849314480567793800 -27585754086551269300
45283037785873805000 -30254907053747265700
45179057465294440000 -6747283171641377000
83260090424971071000 -2015536417717084000
