23
0 0
-1044886062880985400 -53919958888132996000
5822528467037856700 -27746883277922432900
6608572298650540200 -22419318786680706200
-41408568100989764500 -2791770523432697000
7942018850438793950 -19950664526692738190
8851394919555800400 -21880659812363901700
7998748207123845160 -19452038469935327250
8398732106430178400 -20422864506276291720
7600585814574332705 -18387996360356911300
8389362624203845090 -19869690033443141469
8069746184939919870 -19480717267752979400
8180949736515026150 -19059934947738684520
7706057573775545025 -17882896020429696600
7251405326549897450 -16564958642132440100
8724994245861639000 -19373269012556271330
8331263010560291170 -18498937359801120100
8727035650661307800 -19377715755475226750
9079464115233602200 -20129646677672007500
9392512149324620900 -19300225011544472180
10582550495240686700 -18766438921601360400
12078736348749060900 -21327389612398566500
102567095695729382500 -7102107563769630000
