23
0 0
28254300940382010050 -18579753199777431600
28132675385228167300 -16586794448484465600
26090180861525965225 2093501817724631650
26970538924017594715 3004917961681719340
27161117634341143950 3078200378057660977
26792332139889277415 3302754735976142530
25990826781353496000 2967884893030516125
26909238887032336080 3423937315532929260
26846373108693281545 3428574007249757340
26581501226675647413 3398009908818598035
26931404082721949250 3529511619664554000
27097776166177361400 3557881390854307835
26620206878072576097 3530652450321932710
26334788737166886350 3511791888316547715
26777949153367835030 3578448402169479080
27099265591637828900 3626005476138018600
27220380604918741000 3715811598446895300
27145356158796488000 3812267275894321350
63380951777110050000 8994830867495049400
27174084376104941050 4782499572595831700
31349715922383547450 6921036414830085450
38271693400360786000 55119206451987937900
