23
0 0
-44032212533417021000 68131384426192865500
-27992764831583379500 29321394688867459500
-15942323773512175400 15728950818774432500
-17989535925853406360 4054960436724632100
-20178644107331386900 4364695567469115600
-17371416175899142980 3710118336451568580
-17750212629840741030 3471099355119393500
-15554175752219243200 2931082105480721950
-18589437440444945740 3454210065785576130
-18194809843659266922 3220100865110431510
-18185854696791254857 3196026274772323890
-17415611784046196620 3034419043717286160
-17556294608875930790 2989842060689953120
-16900167840596153900 2778054168642317361
-17270145235772069400 2674263520325118736
-17436291022043371280 2692472463788639769
-18752992690547593240 2895026755140509320
-16911052475846510400 2603055953791317140
-18586612361978239280 2646151847642667920
-18589901144919557590 2425372482838111300
-20144278990862353300 2129466871514588970
-20903517187937803600 -84672767976752405500
