19
0 0
-2830475237687413200 30315725267466209200
-27679197203783496800 12685026686702522920
-3964376947293822600 3044385525380095800
-3475656340843134800 25323144253892601600
-23011992216696579400 14578395840517763060
-209276125337512402000 -4400299121710218800
105621695485718166000 -148758750349134210800
73190871088029038000 196129987693855861200
-60286018794434796000 48744141093995607200
-14937194516953477400 -46316575363535400800
44700995305993326000 40534691551410917200
68356096353698222000 -96463011072150910800
46536571906637620000 137745302925568197200
-145349679064849894000 1748966582062294600
7853858326499178800 26893303732187362400
-30048514485969051000 23619257283182833200
-8257348860001068420 -7536969571277756800
-10166530904401047636 14331829814855436769
