29
0 0
-48232043253204535000 137085663365713879000
-26756749456144962000 72827934478732499000
-83080615528000114230 86375582927290844000
-79273802535542526500 53569704396099918100
-82111659020480461640 52761600690863373600
-78161149798072578000 47947719319072295000
-81908046941211984350 50220176851059019200
-80775538381040299000 48998571950400389200
-82925910272336760400 49965503627507648300
-81987846152215285400 48133223514916085300
-82236302393205670517 48201973845533829200
-80163592954018534100 46938329214464458830
-81915608720210144040 47852372175281086100
-78768508680954455800 45938966669642700860
-82131382939797629560 47808585878297955100
-81948396326578260140 47547782989825913890
-82452535654532301940 47804460794461286000
-82183309135712556920 47332699122703973680
-82488474357097369090 47495261693648989800
-85798584597765165000 49343454359801952300
-83861282368308392300 47336132819961533610
-81763286472611704930 46059305156947207220
-83035394612547124150 46073262392254772380
-82281964464221346787 43861967914283263800
-86399425825076274100 45057657061551255100
-114305783528500433000 43817859266943335700
-94260339791447240000 -9788398039009257000
-210586563154545005000 -47697958958935624000
