23
0 0
20134476647671900400 6630617107123967700
3680820729306843200 8364150477917725350
2811570975995561770 7891839900617094861
2793978955235498470 7906539471417367180
2771910239137100930 7936652577967793630
2751019379127034765 7883835543359415437
2747195698533598855 7893428615894153695
2754130358777325786 7916330429035988355
2755054920871638566 7928807041861140901
2758058421188263815 7952502147753444711
2761137825894927127 7971066034306876060
2738717016642006674 7910318067444671799
2741042056052017910 7920430980301420716
2732897783625192900 7922345240375112816
2529902718761199550 7722188301653998280
2731145546017274925 7940714275055255325
2528295759351937290 7753531961349452750
2514509657252414920 7817011230472806048
2383551764495102070 7762516417676338297
2446086557328645130 7997284164465540770
2445636761116146190 8526312381095177800
406501524809199300 12611142775985736100
