32
0 0
14805637542359096500 29234237248940003200
8928015380925621480 23643253276505152910
8920709187772250860 23701581006816660766
8920374905695310240 23713065443009424847
8920115402729276480 23722070520604229702
9234322582784782700 24559891941384149330
8924727721888741040 23738631485878691400
8904071771499798560 24329339666517952900
8892432360657364270 24689274200363232770
8663087692172441170 24085335296539553010
8686651804998321010 24152101510819988370
8807086651502056940 24660415146364834380
8667196837454905410 24101861009697031620
8882504855221672150 25005477480398415900
8784858775747905170 24731265583368370400
8539857372149482860 24042046277559059030
8717502195750353480 24542690071154830480
8596869709613797680 24207015399118053730
7353936777403078700 20743752467560257200
8699214068410247560 24541878225500483900
8559519424469907860 24151101738454739260
8292730258626791580 23763565026575664239
8605127703980752730 24805169221360309300
8472075446256010030 24556977518024282350
8408704919083380960 24525560050531501160
8395118407877487470 24532726384382282280
8099171660601444545 24440945602367059510
6661122121280651500 25516474066077138000
6540709919791560700 25561146914592705400
6109945530488491000 25721114224555293300
5276930374035982800 26249321503840599000
