19
0 0
-2099288367926913800 15694748686963096000
-13883549090423515200 6895817895548747440
-1827163743485602600 1481716071865857800
-2290413192701003200 12911172709636565200
-12027259922589022000 7753170981556089192
-99589720235145510800 -1253211405324532400
67938759755013047200 -92010253650440156400
38416828655279775200 107348899744169223600
-33405136243925252800 28570195370863025600
-7163309282853587180 -23286238914070808400
23795652639115157200 21448239246494826400
51227723003763305200 -69576906248062280400
21061995914867803200 67409259502324195600
-75899483950707822800 1088120231622329400
3213126660825943200 13658650009877796200
-15261239242924426200 12167054299236913800
-3850743272073623460 -3618926201904638000
-5662976599703709644 7673483842334183069
