19
0 0
-224784197243335715 2860834213845229600
-3090643120622480620 1404759694527308840
-328002039157444006 232393204872901700
-250906738460181185 2248301639859868950
-2428360134375044670 1586736565977519085
-48608027726358773770 870900295763500565
14093490506820979230 -20181849226139378050
20307512746397620230 41088769322600547450
-11691006117206514270 11938384623176445950
-4022652563405829170 -10115943991248451050
12040581136913792230 3716874017587932850
10734759401836507730 -15416959495217736050
14384638538378212230 30002114468615046950
-36433880505333565270 1052734691921025480
953248645875883830 2246106913378475450
-3067776262231281570 2631709384309460550
-1000260042548390020 -883906003983401950
-995454956709697020 1427543044146535550
