19
0 0
-302817182989922330 5833394887333710700
-6154816751992927010 2713136913786820580
-858930181463151577 564748851817220200
-569664835336858860 4857319765962491600
-4834042927586991910 2987520498350533390
-97438101229219581710 1771347271500783230
28525981814474333290 -40401742763818739300
40584605297594949290 82573798286234249700
-23264822290647158710 23862007679055085700
-7911037096435458310 -19805419405905472300
23449276068328538290 7986364242937288600
21947751538812204290 -31132104356401271300
25977986542748459290 55059186678772192700
-72645765617974587710 2069968894531083610
2018643045873225990 4783946462502181300
-6456224361587206210 5312023643833049500
-2023712715342124710 -1636607417671067600
-1944059451376085910 2756115196848190440
