19
0 0
-3800208734520628100 59393259489645027000
-62697960291858738500 28255471895162751100
-7945981046309054767 7859448413960109000
-5881556527060576900 47946627631599403000
-48269388747918686500 32025366857657378100
-972771155960529067500 18198963872649356500
283897298407835142500 -402558855789865537000
403852144982533422500 822598377259101563000
-234449689577548727500 240451014905563123000
-80657830397618746500 -199661113040974457000
240894622539039832500 74887198745559651000
218926863875094972500 -311076662959892227000
287265865625747712500 604072983259592993000
-727507264311143567500 21542165161536062800
19240034709781654500 47967366111421273000
-63433517468810543500 53708631714864477000
-20463212248142648500 -16808290882038923000
-20200322135226449500 28692314911412915700
