19
0 0
-52322812903357660 1410728292363834340
-1247887945476200220 660051261010149536
-196093809132637540 163275278485900720
-95676447315807820 1159268432887162800
-1008440501931112540 748235842000920092
-13394861976211308340 201720065360069180
6470413474147416260 -10290422491901422240
5624237743684336860 12159481979915332960
-2893982218257615540 2677107510886827680
-923774816864669020 -2434087582191116240
2517546276742726260 1827759624678270800
2783658251525418460 -4440394920739327240
2401342865529580060 6041644514008682360
-6485211875434555540 469529960104630740
453981284218231200 1215298955850107280
-1331793223971369220 1196238139414452580
-422398818626420429 -340757541890576200
-433403586126519340 690259851124661160
