19
0 0
-36037742336859840 710305774348822230
-633161716209287080 323943286815652702
-86711178674508330 64036807711961880
-48139655255423900 603193286968625620
-534348624616214710 367018966483887392
-5621683183546136010 64327480506275110
2719094617156324690 -4190378414883046780
2233389107843666090 5160299995541245020
-1396706728101438910 1320342569747342190
-481134585385366140 -1159449018697339580
1208641854940657990 873355510114471440
1397114608139014090 -2180516058534699380
1153787253644599090 3010500546262898720
-3220101320329759910 204264573436276250
204130459049096790 625038254691833170
-679401978761623810 574568810225602670
-193927938833620143 -165358003752960990
-223066486182049010 344749687054824920
