19
0 0
-32934568738325740 736545740367346770
-654334606576502770 339750696993598698
-93874406005783220 73091178884362980
-49296183441845180 618702530558982520
-544098585867200010 384502727917599916
-5562319100922566350 110389719530780090
2652624680292661550 -4135758764752404790
2222425245315077650 5101665482582568410
-1406001643470422450 1335603592740385850
-486600387702054510 -1148889197010902890
1205332855857648250 889582041631461840
1464473084878564250 -2304257790461535490
1230374672230282350 3156945530261515510
-3382116932423674450 223608697560966750
194126555226572790 642574592276473130
-686483767089465760 583376972604485200
-194911963451935751 -149655127520012910
-229089725104942850 358765479120315110
