19
0 0
-27639030203899170 703308563688333700
-622902597955192490 327718179551624966
-86612306525631300 70564678514481780
-45443681144506720 593017766699531410
-518485640488953600 367444298025945404
-6711871991539535700 85358053815211800
3254374722544294500 -5152022114841763730
2806955640836150900 6097690804266508270
-1404301170372249100 1322379789467704030
-470702936147924420 -1174041819152104930
1224462478361081600 882688772924358740
1364722281856090600 -2195700114805879130
1191531907382355600 2983042786289314070
-3206795817397537400 243684071756524379
215811210491062250 609773805763759440
-663624241803163970 585319651513184790
-202728596846990202 -164066714036985580
-216847209386363900 343675581079986170
