19
0 0
-20629161355940484 624560345134337120
-600411106513292580 287857624613969680
-89425672409232912 68574370719766290
-46572500791584173 499944334936214400
-471749362144971770 332152179735670442
-9615277373344979270 193594865000816111
2833850840306330330 -4099223387154438940
4080517453367929130 8161159324453108260
-2614817974784359370 2633594120379477460
-748376129954928090 -2028918955397376640
2066429735251222430 839898373965445630
2169035271430501630 -3140666216270559040
2661858556446078630 5537949186787940560
-7396676269110770470 221141053277104580
180277574689445730 491130261357896550
-616401267650327890 538026168627107910
-213241603746686980 -154126723304163970
-201714315207801710 291927094706972721
