19
0 0
-42366688050292611 564437439871525680
-610671540193613311 275414221832083533
-83902940212739807 55950585786736480
-52944361168900197 489064334987042230
-476788111919817451 312150189291282620
-9634939047282335521 160651048264946705
2893017818900667179 -4131284871746229110
4061757623283103779 8144399505738279690
-2598665738185692521 2602292900085960190
-819079051212809221 -1861798625749684210
2090404850126111579 824594223491432480
2212602485452485379 -3171061912775484210
2645181691443964679 5513367674730227790
-7414493826226508221 191812858697735649
157527590372343429 487247477667036670
-603089984711221441 524785767565893520
-202047296692924761 -176784995839384340
-196278282985081471 280594532016128406
