19
0 0
-567383999875740530 2887300899304469300
-2934696536761188250 1670746330953838125
-488768272997876487 387880094052414850
-623244579778440215 2418164877947046600
-2521724238781716600 1765186591377347185
-48638457875433824500 932139173085248800
12399797235847054500 -17403498475892147700
18823699581931554500 38889107790634705800
-9105319536458693000 8353413035712358300
-3640932132865593150 -9466157306894062700
10699415761634598500 3695149513588730250
10367855179623279500 -14587521702537223700
14357181331992261500 30526294179233636300
-35009844843621816000 1156879817430813035
861311864433352050 2348328261955690450
-3160582387301318050 2698556536181063050
-1010732854764115450 -619248953565083800
-1208485065923953450 1698523260601387205
