19
0 0
-529193912773408270 5862906369934068900
-6280760745861792580 2933271396014056600
-956082406358078479 774683999278747500
-597807815438839600 5123338125465881200
-5112341507894574080 3201725283590673860
-98122543044641948080 1900176668206694710
28110376952710952920 -40397789000719400500
40303998833957289920 82250823702789900500
-23460448087660169080 23947432454770832500
-7501737012945288580 -15738287269073674500
23017564821928671920 9627006888675059000
21839765010541298920 -31475891929106631500
29617621858197508920 62232768801745925500
-72117047858794341080 2202018226080215450
1696344294072157720 4980209844012897700
-6595661901656521580 5544142425081020900
-2156014312804282280 -1539004493462984100
-2070362593107070680 2980337341762066090
