26
0 0
28684340267 -25433489463
29100534561 -25737867626
30424783393 -27593989178
30425945919 -27596979897
31499273092 -27859438820
31665034919 -28005234707
31155166841 -28255973398
32202351079 -27975212829
32804359519 -27730941540
32785327071 -27750315448
32196250803 -27994405353
32083068355 -28363570448
32110026278 -28386766254
31729907538 -28821271426
31763071058 -28802879685
31831007877 -28872180177
32454552184 -28194156891
32483051027 -28203509100
31887382631 -28914856508
49417308309 -65313693784
42818712876 -48046160137
39898885158 -37218165479
34376826429 -27322901756
35482093414 -26641463623
38748075270 -25313028634
