23
0 0
-92108089035237282000 40909998819214752000
-65608596390096901500 -47568146226799782600
-63975511850216574050 -46465716077734358900
-64600769326981117650 -47948096863517263830
-64776717829275127250 -48306567187940678960
-65255955247032951140 -49213108578208548940
-64403925225624846170 -48625394108136107580
-65136888454558839800 -49185369721919838200
-63476092958800477200 -47944197577365427370
-59823995897338928800 -45280046094687483300
-64587511053093751815 -48947025933148239783
-64147405504966261310 -48831549375375375419
-64269449998051520240 -49192411111028386590
-64001474494338223850 -49115673395727526840
-64049731109551318210 -49456210208656893140
-64493418188209713841 -49530892344714297380
-62548430125464309200 -50283100787154554600
-64021741400970601000 -53047497459319172200
-75096250232447162000 -71794956201793503000
-55696615184146618800 -55799495635539951400
-82859509828558572000 -87655904798543100000
-89619434269656620000 -101475285584252368000
