32
0 0
-604160375642640225000 5144617365386180000
-525808012617590649000 -11643041856406430000
-515751571963472126820 -114563869106160042000
-515750575086454410375 -114681061683110013500
-508465564356111451000 -115239900594152106000
-513555562779956608050 -117026752139782097150
-516187450502679036557 -117630887016905484600
-507874541687888066000 -115949433360645149500
-515847927172146986850 -117829049136655327450
-512870531697043506850 -118110551400229820500
-516021231867509754535 -117869261394400971750
-503920997895598055000 -115128987309558554500
-514916040006634877700 -118528787617412325650
-512415571332340451700 -118149521665127432750
-514327879749866688300 -118728273637756021100
-514808095734353907000 -119033309504593873850
-515322351956471027200 -118963468006169880400
-515531712603686713100 -119226971314046234000
-506154129684756106000 -117141922130103595600
-509402892208020445500 -120098875874743573900
-509156568315393250000 -121682097521117670650
-510654373468869223500 -121105790103730939295
-415224702568091210000 -181522351680805015000
-515288880917260720500 -119324653194861424000
-514946053903846594450 -119466213978612869650
-510789764834082911500 -121225521874471089590
-510866144992135145500 -122230433203902432200
-437209233296539900000 -172576042825452675000
-493394043266078708000 -220567417618821835000
-516426329862139709335 -269491781984165825000
-724469847484935875000 -176730099279255215000
