23
0 0
25629764988389293700 8730823614249559600
18495706860852404100 7219266307766161800
20729503830574141310 11026279017113421080
21120680702919930050 11495176634506436170
20168391275698372750 11053237179033876530
20351202914590557060 11270674429291265810
20243781987834370278 11211618752870635098
20191058533462552583 11215844978881967117
20248709541772095862 11250404308462570097
20267224877566629949 11261544026414624009
20235856522851066706 11246086096083955276
20377309146491872250 11327370154667506836
20245812018785909639 11261660788934141137
20232409110453000783 11256829140603791430
20286459832881239643 11307402501755531163
20263434675582539620 11304584529021653194
20313737505057181248 11356411668430430650
19659300879179671020 11245753750013490719
20096176709512652680 11503710107238920310
20609400279689828840 11818081415193229300
20276497669024604556 12212452596224556340
20340852480510435540 13666194264851494000
