23
0 0
21386172491420134700 -30384796180723924500
23846476721123386500 -13808423839422524000
18167291847294714800 -9641845799044740420
18658206928001599035 -9484696197391478605
18069403584897324830 -9177818555018308105
17412804331111726750 -8841060505195366130
18511982450985461200 -9207482711077709665
18638446931035825105 -9251274410231038419
18401813472758921010 -9117269688237287520
18986122111318103200 -9394825352702600055
18539698378130728675 -9157532635492342070
18337118777609269650 -9019199902341582890
18436797555379974000 -9006817833285574220
17974347091484746850 -8770897082760760650
18624176564779721385 -9059505552085375830
18512037894052430185 -8952844946232243390
18110880899706101710 -8743009904142091050
18964195327348297900 -9148344223254473635
17200181493744843750 -7753594988527721200
19018217256169184700 -8509890338381833100
24968496573666492000 -7581122498640369250
34272561280683743500 -5278104473895600700
