23
0 0
-3760242395946750000 -163634394707559040000
222185669128124953000 -169765867020445640000
70946539225384034000 -54146070704217129700
67551354255215868160 -51554223167388267990
68701745459632621500 -51019452145473993880
68423349927836407640 -50635353395577974730
68683035605737604180 -50574579078325665490
68541327605851885840 -50219796170116491250
69322215550539671400 -50788155378219005089
69009753884695920960 -50544372370365165490
64960335375324188500 -47377393902927222400
68834218343604316020 -50200932558627766100
69105829276332637610 -50397396827678855340
68326570711414705552 -49799583619274585000
68641742134131052660 -49828817589236389940
68961567905231489300 -50059262306655161840
70768375922094845100 -50254022018841502580
70610442727778268200 -50091791652866152640
65938001788144019400 -44540153785431008900
69538495215911004400 -46179822585210005700
75942602978418902800 -47537772840324359100
153131554115908875000 -15229680495771936000
