23
0 0
81379267189 -253489942670
105832813363 -156496337680
124693365004 -156809631668
122629824847 -153705611523
114143598016 -142943904295
126869363498 -151951935995
127223778441 -152936984040
127912793268 -153102710955
128980259309 -154270745100
127840952602 -152906284141
127342473409 -152241740407
127866671992 -152860840056
126565113569 -151054673434
127012048903 -151563735520
128147962150 -152894160610
127571915653 -152176989779
106957449490 -95423132642
127435446050 -151670834142
128301556327 -152274284237
171140179484 2150390013
164026158044 -130610344445
229907785767 -165624672133
