23
0 0
19191470721 -53693734422
23149696644 -30503304857
22911053217 -29760523135
17877903753 -16980202296
26070214353 -15666018655
27109829400 -16028801888
25739754503 -15137085916
26714763877 -15610338731
25452391575 -14871195222
26521641740 -15270802792
26185669352 -15051550069
26230881600 -14786384252
25297163253 -14073688730
25173570097 -13946831858
26658020981 -14668567064
26291215530 -14466083737
26706146703 -14693590198
27134346991 -14916224740
27242139976 -14365041006
27823208671 -13718911428
40135926875 -12621818714
66581850816 12334076883
