23
0 0
-53499250945426025600 22479435527268523500
-50936972736741495500 18355735299983232300
-47949313844617752500 17203704672001271900
-48909204200786147310 14873351796472903210
-50360508342874447000 16058724650366541000
-48496361910279803020 15194178232425236830
-48872735890864518910 14827596317809175050
-47115162989674569100 14285694426496693163
-48999263913062418270 14787784052824641660
-48961348071949721570 14748066282210722760
-48937708399635910400 14694905927561294310
-48632401925561711410 14544517185487835930
-48695252545270803700 14525510822992522930
-48240805610813737800 14265900266593360144
-48434257412322653030 14220149537477443322
-48686457084113629810 14249986464282835594
-49303364068385440696 14429104916209361700
-48239851089612823800 14110852336009393050
-49200681909174424119 14269585270714405753
-49288195898056585678 14047114263128631060
-49920915837247916620 13915001997619266200
-45855757217784918700 -106677699690418188000
