23
0 0
15888656392 -95774412564
20811438637 -94032308586
14057864353 -62657521409
31181839267 -89902835001
39143050725 -93802571019
39708443953 -88089220519
37960683352 -86331804727
39244231200 -87622109859
39267435968 -86615374572
39752040092 -87676050263
39523096052 -86978018705
40258183017 -88072746635
39819981072 -87100084989
39217102465 -85777295225
39553341535 -86500666685
39687318761 -86698106899
39670833270 -85548022790
39866533281 -86373977834
41047821058 -87824408465
41391939983 -87754917999
54077932568 -99254431250
147109815980 -146432784956
