19
0 0
-71711658636042460 675907937924216950
-686287828967455710 291913769843623268
-96420205892981660 65013904556139090
-78928114398020020 580323903768389380
-579980388168731860 338450864239529661
-4896832495168505030 -102759319355265920
2311649463781483970 -3336750286828771770
2208906423431651070 5598934486275150630
-1548490476199618930 1242250340712229700
-438010644874381820 -1313485701331932870
1213484193833250770 941181525190794980
1569908062631883670 -2283594119632615270
1078527062008518670 3137527468444435730
-3403902302955782030 44143427286559200
177172128672726930 604480069817861790
-733045874912480990 528675153495501820
-223028517505250012 -195564589389089740
-231288766830284569 333948029074022436
