19
0 0
56355751234659888 -47787319984415211
21011870972842148 48339477222593112
3986784507590575 5848344583186477
48267349430432826 -39414377855485277
23731485928287439 37379575768244226
-153750948765280683 1292127276077883698
-3470286082994019483 -651491478354386762
1495333473323831417 -2639696571124631502
56886926146970769 58886600036551684
-83932495918318448 128539757818523408
151504888231051497 -493050663728880922
-467204002526573563 -84035931740302213
470134002053322177 -794239008263821942
-58420687119954855 617637791765862688
57127073194810514 -95331117886911044
37989219998924968 39508003355196104
-11260116188157015 33063895661465698
27070694953500087 4998706103962451
