32
0 0
75415924305559339000 -27960246817686645600
65154967934596413810 -8555691952870891200
65137800389714801380 -8523353346550826600
65117580356204512660 -8508950574233545600
65161030448351375060 -7176483680957523526
65929315934068408800 -7439300661821304930
65106775895031208410 -7096319407042080650
64145752031477597890 -8354640937177212500
64889138783801247850 -7015574435914400010
64819579754111774730 -6655876653863731980
64691745905156817420 -6624343993683678800
65181024984895510700 -6888268598744536800
64804397793453258950 -6552344574323680860
64646190443211439770 -6536124090333475760
64453746900778231150 -6574397377940292650
65233796272740422100 -6403867846026869860
64783981684236817380 -6438063957845276860
65188624533718031200 -6330492503532089180
64152300838479036963 -6224158793686042600
64143425113968950310 -6215222826243559400
64510145079055620170 -6221403798134501300
64492870581470936480 -6186191468478735600
63672671412913200630 -5774367009019389100
64082000422163984512 -5593358673571614700
63208788908069910440 -3368159109136470900
65160370758628112280 -6276742555277472120
62331754817456421200 -1981456812647274300
58960957077174083400 5857703951193262400
65460815481693503400 -6119718661559278200
68780505150887644500 -5683767551593281700
69711023121484671300 -5493843757750812900
