19
0 0
252308211222548677 193139561200621532
-41109660864243173 315075101102448020
422211642811303227 336819292519089790
-250491673989336533 390375923389226780
39478581536338649 -218980553605246940
-209918946275213523 308037130122033730
90499704365621448 -142674144070390950
330617792267897547 342851676251426620
-29707858262864133 299420359300104590
7856502789825957 17701621602901520
233049905831343607 191092681400063346
319752241317482257 331632107018381180
-194769738824670123 304237071589382890
86216047865493195 -127654516304694460
3624011008317696117 562290394410618860
-2046655058799865983 3050479960792895910
-1366157399159525583 -3104555692900444190
70399516786101817 169404887434356510
