29
0 0
-86037769984459572000 58112540536098196000
-72183820365234283000 22998406817297484000
-8593673053085371000 85323943025482622000
-55668242627878248570 13083375512556387400
-56566759167085946400 12587259885607127700
-53679747446890839800 13430275810951419600
-54511443899606341220 12105642488104419800
-53261858963308260500 11514633785127975290
-55170702322042279985 11914685253929990400
-52045033321461351700 11213607848974903010
-54552533096898205600 11482381136730547900
-54322029719679249490 11389926492506582670
-55462345227938306830 11599878545011746270
-54695505173565760000 11436723176542910570
-54506224602975721740 11284523731524957530
-54742348666525543140 11247529311792272870
-54221298436071103150 11138780397880760110
-54407676829064320970 11064416906532537870
-54617159759865534260 11083640057993177530
-53656275679811228400 10764948562174185132
-56701421198119705900 11024719825860057210
-55321007432707172250 10755636305048846779
-54366554729952619880 10507360359236105870
-52859541425354469800 9780096261205002400
-55480053004665189610 10042387940147783490
-71902067910098009000 4123861488521077800
-41846013647840061000 -1920938986206807000
-87529631691248590000 -51284075502610183000
