19
0 0
-316709450292442800 6532052202318513200
-6809880436328299400 2506512588003224970
-744818268650550200 420189864556777400
-434446495286351400 5802524291721407900
-5817694177491008900 2981603782241492451
-49284921926552134600 -656888121491668700
25405923152739169400 -37500417035754623700
16643646177439285400 45112818043710418300
-14700303979795923600 11548235885221996600
-3783651454521904400 -12120118573908515700
10656472003082400400 8756866224973318200
16062750311009433400 -23871862338130285700
11079851162403941400 32442320419516270300
-34800159928377088600 508482662075472500
1512380970308993400 6033506782703950500
-7411703438675342400 5090474155981022700
-1827179155970913960 -2378722608590758500
-1931312959792491130 2860198694421709652
