26
0 0
71599200420485060 -446490938895002600
97509667313657730 -491948297098923600
146401207062753430 -561473273986860300
512692423506092950 -1081098612480826600
-608461786724433907 -1048437970189228700
-457135470402295590 -1217565901788624800
-264614177748749050 -1433954863972264140
-247429590014425310 -1449131110853486570
-1655262624308097410 -964439991932613700
-217328198542721390 -1485658036394191380
-1247863175477480360 -1269644988054088600
-1173286541879487730 -1311093981951732670
-845225639164273420 -1588597577428229330
-747949839615839302 -1643336576325125680
-741446283638345445 -1648385261849499330
-170110881540568123450 -85120724238602235700
234926166370389570 -1819172997938650360
644872769211831250 -3068160609392789840
611309217479707250 -2398009959642363180
995776083848509350 -3005401085554066550
1415834561126059650 -2900542898619561750
3305252737870688450 -5377773335340504000
2410134590881537850 -3794225941298918200
1327232302900638350 -1994072355579645010
4896042688049325150 -6020037087160378700
