23
0 0
57131105852435827000 -16225682518659479700
51101715913478637500 -8768319599098066400
50283208346886920700 -8193615486413939700
47314753218190506800 -3975647746067735630
43944732622787275700 -7153816921052335000
46475844032675162540 -3676813632011557064
46889166090056650060 -3694188612583477776
46206780555939853190 -3559911872801811199
46888284639809259890 -3556705252187853077
46711108139177848770 -3464885706736493070
44240311695551920200 -3260542419707639330
46718952251284180500 -3352090841054627000
46583028222374354790 -3320525092319039890
46771870814105153280 -3236675726185843220
46495639789558994200 -3213736263635691800
46615752286487404660 -3209909538144231270
47008656084772199190 -3235922876828069950
46449100287323181110 -3158094289828323670
46743298639183124290 -2895224937185073180
46614242320785233730 -2664269309031445780
49728066267607096700 2596730720556497100
50637913812056153500 86172182102731226300
