23
0 0
47596802178559611000 46355741661482851940
130053513041053566000 -15309025406214044000
39230359536235454400 46214108344081652450
31753916777209638200 46027858397897659158
32850420753318242500 41776058332110232800
30972213681721017410 46100828607828636766
31507473943736401100 41328091727643883200
30535316290405887150 45533725993775586870
30548370879828781540 45827221375480671720
30390161556829679010 45597359439073190560
30826436377528216590 46499859609942631060
30596830142957911830 46459275846430023350
30284894886811974880 45993118380836121907
23131900216136883100 35472326499627629000
29463592206057367390 45974588646242865357
30182057422720877225 46469754202850734690
30744209961268158080 48125548512429504300
30017099447991135380 47143447027583186600
29709194431112854140 46884759511699863560
21557153427300740300 50316755714712175900
28192474575007800800 49344028996745183000
-60948615208027229000 94305040454944356000
