23
0 0
-121539868901721300000 85304590760033989000
-56008240651790896650 -549006780692432000
-52252728130692129250 -5343440927319950250
-54059063610416690810 -5586919878598622400
-53762639733294087670 -5832476270620984900
-53651757638324709041 -6253949441739503720
-53411477016321782125 -6114336087305542890
-53320915372878718115 -6219011205056818625
-53559098846531946000 -6246983920138043275
-53567156971401060642 -6249512935372106315
-53351812492827350560 -6239174229582386755
-53310334738798715670 -6322200408489739155
-53474604547185488345 -6361395428028813780
-53514446943871522740 -6381166238320827000
-53484373237168081890 -6409485717127793080
-53590234089774818241 -6491300654336088225
-53521369905717138170 -6490545154936245995
-54630676017941199550 -7656039865131870650
-44819320595625527000 -14770506613715572500
-47981127199793843000 -16834555007175836500
-48103394436068037000 -17516829629026878500
-43845032142520671000 -26358449786145034500
