32
0 0
-30026128983923749000 126050475739052062000
-58156090488820189000 9222492579386703000
-40241978401467108900 -6515607724344336700
-40580623198284988900 -7912580199208429500
-40301394531454284300 -7899307398166393000
-42052675258449524340 -8893903445320484400
-42271643319810339000 -11437075706451470200
-42316975940326455860 -11843579216557508550
-42625879706790695280 -11931451518348303440
-42466882273331769590 -11674935852661844940
-36429181303061034400 -7710805062988157900
-42279420769040841490 -11914332661397445110
-42280445029332606130 -11927284593486275030
-42280079945450088800 -11938104119305823780
-42460432264358935580 -12023375942251554450
-42462997319539071120 -12043012126848322580
-42640820182579932050 -12094428104029716860
-42645073310398412130 -12104564904282155810
-41702835213231534600 -11880519026044873170
-41706319759857214000 -11923627414634678270
-41696121415637823300 -11943822743191368310
-41489824758159655400 -12126793254378070340
-42546638838298572240 -12648281001578463717
-41851723657239849300 -12444501944531061170
-41851385428574652000 -12450291220014724850
-41853186827584862900 -12457534529283994512
-41759994651559588700 -13018987975735346050
-41802636499122044700 -13171939469096778750
-43421259618244889110 -18986081726886753900
-43059361290022524190 -12860960129585802230
-72375878939137096000 -48020900539790133000
