23
0 0
47002468733787634300 -164600789315833905000
19670281969777423000 -36399727450398155000
42516367758551538500 -20633132153458443680
11836501547631224000 -15496545968987217800
41809498263411905980 -20253084250724344603
41587565994486236100 -20142173466567748040
41808358028963094940 -20150134528092893010
42171763668620289020 -20204844972263403160
41476763123814287890 -19871073316399419640
41569908706373577090 -19908204779326472440
41892956728266806760 -20024233595215648100
41556785036955432840 -19806070693746037490
41791390819368957610 -19916767231044012480
39722454443483848500 -17902590261090103700
41926125728609763540 -19968020482811559070
41832493464686713340 -19860913716531283330
42473794704035149200 -19134895166622783300
45726780048568684800 -20595374511821609350
40348549744857462100 -18151491444890758100
42620718359290676400 -18666385601758117300
49276371368561822800 -21248948929524127050
81187457038635296000 -26503715683440155900
