32
0 0
893793607974132486000 -694942212349410627000
57991800560425269200 -31106033291865760900
59709372308098185200 -31153915311166126600
60262891723797138300 -31253664102558883700
60425195940210141200 -31282955091746563500
75835309705664308000 -39246785412583162700
60595982357434739700 -31359618888197306420
73820871684608388000 -33717481180617773400
82414104861587006000 -35255416612550783700
64463299072981669390 -27468843977190521500
67853714614410195600 -28889500791127986600
79562180926543803000 -32422928501155903460
65324494017442490773 -27746339259200647900
96660214000364959000 -37811910970777267100
80234359288573534000 -31640122203227370740
62739579026393642300 -24534832652241247800
72799321150699426100 -29629479072297703200
67214276372241047300 -26269929013886904800
28362091352575938000 -10182698496608570000
72241123932010516600 -27861364711306508300
64698087414262045460 -24769412321676217600
55132221629916064000 -19030651343832086000
77007093116339906000 -26168209618223484400
71369933062907808300 -24242824854063846400
70997995571311300800 -23927737694074571100
70976515273274220100 -23852034411423801800
65172904968813913460 -18059749203336925000
67427713186615532500 -10769070071543120000
67148133772972932700 -10305901936050539000
66139704117092038340 -8537556233502191000
66783383825487297900 -929491652845229000
