19
0 0
180917512749739240 -1037206701799734000
988706109108910300 -361924188869097970
142838686366509600 -95313749708366440
192042298143881490 -865847895908955500
834742637348258530 -437969245051509940
31104648598938162890 5035119176724844450
-19731947904845240110 23382649572306345750
-10203077072234282110 -29816899639700014250
3086952739509486690 -2340847657135836350
664674680463916670 2806596619465366150
-2582003798114753910 -1864879852998360350
-3962712425810487410 4743678560781881950
-1945872415369732510 -6840855610834813650
7078208463038867790 698046159384097450
-204844969027209570 -921104084983044220
1081039534388280860 -754055606323212090
293429056497578687 276028800637424520
389874540619549890 -466376963556277250
