19
0 0
-987278099147693500 6840463589136230700
-6697032752943229600 3073957897201000540
-900665113070994100 604682799424946700
-1064693641834476800 6047590755856589800
-5858320608175653300 3421964720381120437
-47695601450806702000 -1033865892581973700
28924795997047450000 -39677206137536941800
29317523934387566000 73437978497522010200
-14083249212301151000 11133366458383848400
-3520461161095850200 -12258537347205303800
11046961345978716000 9374880256682045100
16951766880693860000 -23445165015286068800
8099198372412058000 26508650154331792200
-30615828890734203000 765645033386491100
1728529955800025800 6466431068541569400
-7513254431942081900 5420293332268919100
-2032908982325609420 -2009899339387599200
-2524510897870338100 3477580709271587680
