19
0 0
-6695148365314254000 68141282603713891000
-61289452223420855000 29185671321432102200
-7552364821228273000 4804291914938839000
-6963001245778456000 59300758293531231000
-53616034292278508000 32513115856214426969
-500265028888881229000 -17413189986231878000
263352362119375001000 -387476524094218417000
174838288926620981000 469361157825955693000
-144302788139377349000 122275486071107529000
-36890217693650896000 -110696819655757297000
110286081690201451000 94525430414854533000
122970868239070551000 -183007152883503877000
115638135749685431000 336056239760169943000
-357528521310299879000 -1858170095862306000
16088738553180674000 62061039066200623000
-69254926023819535000 53936043263595801000
-16795026547732740300 -18311900132140510000
-22488145614247665600 33278684122987457390
