23
0 0
8790517988234115000 -162405054575825065000
70107606889904095000 -42173874758296512000
59504869160823634900 -35367879746914668800
63178437093857791370 -29789563432194376480
63804742711775885500 -29408475174602651020
61267577232763009600 -27788234649567102200
62861887932183186291 -28360870928327165920
63159620124040686810 -28479666547369695940
75434781094713971000 -33489244638870885600
64279311588703850000 -28254259697250883980
63756262775508696330 -28022976125234720920
62605638104324096210 -27481100457247114400
63185124717102569050 -27628336559901229700
59149336936158358400 -25655676768816812400
63033029769399892540 -27294045488360257800
61357976351409785600 -26431572906633749400
63961582149195347600 -27544232874900444700
66616967509343678200 -26822075389312988300
65669823459853340900 -25846770407550078200
60158731726220178800 -18053622188167812000
82995052084619192000 -23877576118394257900
201061045455704609000 -1346998775070858000
