23
0 0
-7288102494740329000 -107607774232819927900
17510858165915167380 -11369541698700383100
14377820179479866800 -9292208158955670260
16416805948101528120 -8454119499636580965
14783168611236145900 -7416752875292843700
17286083952630066300 -8599042451920125190
16425313511299305930 -8111999728587710890
18165938796776502300 -8928678820614917830
17245886382439830970 -8092258777587073490
17299976876371249020 -8111382478093268900
8908503811804239000 -4160565740666604000
16189797699739889100 -7550561349323171720
16611039664810463009 -7471380974678553080
15992384068182161370 -6883520298112462200
17244055333391505170 -7579605866730670280
17419159497111325150 -7467706498217171090
18744061998856680400 -7498364955050148960
16531207477568748745 -6533131799421273600
15318521726734979300 -4730011090699500200
17386358063292109850 -4896071869109670200
21379188546601208200 86741299064731483100
71456910741208074000 -7217150747226466000
