29
0 0
9600530288026490500 -59942280502392032000
9000037293728258000 -32118233151971046100
26231181350261125000 -49794911848159967000
26606339356757427885 -36119173059938610000
26942481829147150185 -36536819450458884250
26891895337537356245 -35934537180270465229
26574900210643742295 -35508408844715458130
26763570662438141690 -35743546422500843105
26717524432029592585 -35433362889324850650
26918905632813456985 -35695478053213397060
27000001634918401670 -35716256160464958920
26600512263214642205 -35184993501185719300
26912878069758476630 -35589325481045829535
26967760562116322940 -35583897774835167690
27147259880896433705 -35818177846632147875
26921575009421842215 -35510781679994185555
27083025592874046085 -35678245753486846990
27090339429265053505 -35571414536548238235
26999658633632691330 -35497443541616487825
26918401831607888895 -35313678929291203000
27410767918603596350 -35669774353934991850
28232910528189858500 -36047811926014037940
27256886295760614360 -35450653773340566750
27608867789111872950 -34756794657890459100
28306543107789635500 -35566275775023809655
44452370931145214000 -41261229415282322000
40711875299989589000 -13969378782630170500
87862495192541631000 -30134330735276544000
