32
0 0
-54589153979 71191523799
-63837377005 -11902042742
-56458869730 -14466442254
-56786276984 -15887654074
-56471679431 -15899216855
-58370647708 -16666395344
-58338596103 -19083405559
-58366545696 -19295214186
-58640886398 -19388758546
-58597564592 -18997119625
-52608719001 -15096784070
-58322072021 -19362534788
-58322553129 -19377868318
-58321015358 -19383583011
-58500503227 -19480738023
-58501044420 -19490413275
-58647898730 -19542442887
-58649279511 -19556593597
-57762396122 -19280618951
-57765194660 -19360417850
-57762200828 -19368512200
-57503085008 -19514911298
-58572847283 -20079933184
-57915047828 -19892348530
-57914377590 -19896495474
-57915462070 -19900954438
-57733439189 -20265847044
-57802175462 -20505038286
-59237627081 -25577531797
-59053171379 -20305164631
-77690360617 -44072357278
