26
0 0
-4025262484299175800 1500470071117978605
-4093741294587445000 1490675291835307995
-4541560831234743200 1817817942973771150
-4541847045174548200 1818149352897820700
-4784227725863453235 1572566130941131195
-4809475010259616940 1575028170340192370
-4749402037332107950 1900988291933718450
-4879709554072733030 1340939750777055875
-4932654560591573740 1085247321148517025
-4933536721425577530 1088553133918026430
-4890594355727418360 1359791356749518755
-4949790053902971285 1446481817500367875
-5026258523655822450 1438555650286767900
-5200668889419659490 2094638622833279850
-5198319996662893235 2079277728533659450
-5230184282709863060 2093784221806199500
-5022140450562493795 1378325092231263420
-5080269336826755152 1328926496596873990
-5239548020842435115 2095654682721841250
-5875364834796022150 2822261196870459450
-5868830959450336850 2807005241865649850
-5657523660446274750 2297133585023894400
-5000600990622608805 814352422496202890
-4988117960813653860 745369244426761600
-4996154061225401485 701026960373593950
