23
0 0
-1935216808103620000 32659982616243576400
-4907291052062149400 12100372527649444200
-5101949292636437020 4896630163163125160
-4381075539124940700 4085957986819879680
-6120409959002881894 4003901198445918960
-5948833917555063860 3773638116310131960
-6082597775538666430 3809735955713053744
-6998209153332841640 4367367224135432000
-5873398944534717660 3659993477415006409
-6293868400529671524 3868048615790646018
-6130242353947818898 3766381457201422410
-6289149736731716014 3862947409340546216
-6320065949172496982 3837990583015122560
-6102150522344666310 3746393695829399166
-5087681865238669320 3087047985095986340
-6165819053378379326 3729443995092637282
-6152595475099874598 3718267430870317400
-6060650037211752460 3619427318267408062
-6346583146165998936 3548285038269171906
-6407484712574324366 3119557593176320380
-7461087896042553080 3135856344967535660
-12301083108249547400 -9241405805417022600
