23
0 0
-18391684056754502000 -92900051895509625000
57010575707553326600 -45588120478559783190
55953967530804518400 -43745253348961569400
60362514131882705990 -44372737606795830560
60304852397169911160 -44262881212452053990
53074725685760020700 -38927316009542649500
60626921232376611830 -44426318690901753110
60433693206881463120 -44280911260108001170
60251644613806550310 -44061189785170554460
60625024535474523270 -44420327638889037600
60516441491655721300 -44251641401530740470
60588827164642526220 -44304463958223926440
60511560154012646330 -44179626752438687230
59815936959396942937 -43640038766430348000
60133521838651514050 -43627204146935281200
59853399681584732031 -43199587337995419900
62365623710189985900 -43706172801064025700
62113799685841877400 -43529289617986101300
57480215221465992400 -39484874693195123100
63559827336162285900 -43462444626896978000
74010607917460166000 -40103515402411789900
106996796325590293000 -32869295244594090000
