29
0 0
-2492046371260877300 11548947487759038500
-3160092523658165600 5783592156027678700
-6827781654831919215 7033753077808130400
-6665066441835320330 4325780617456408370
-6824412083540364672 4425507983476174150
-6552119755729176700 4036154604283458919
-6815950172591619819 4196913012503774950
-6725842345500691590 4140981313703873060
-6978718561364484540 4162523147007202970
-6839792436667431409 4076457521697091810
-6858577836700444458 4079232342677069250
-6675567202627316060 3970082838869228789
-6823201083863921363 4056063504105566500
-6543380045882997860 3868539701002855652
-6856775762179602637 4049341460628544730
-6835760377120049446 4025774881124884940
-6882427387432816423 4052987882461213090
-6860411445048176148 4012696099431893596
-6884837148706346114 4024075635136142736
-7132698409102233340 4142791231075360400
-7069141977802636960 4013982937946639000
-6817533791442759322 3867661635144108604
-6940633259224447222 3936987675609860293
-6893531779026714074 3631967713524192330
-7291502616472131960 3840290128346472750
-10011356006277457600 3856529115556242939
-7735255495987603040 1001566407817005600
-18674660137280803400 -4577523054802800300
