32
0 0
3072666076822889800 2483475915941180670
2731392430077330880 2984565578851972066
2443762618248643243 2983267302214970969
2442134266430218514 2984521372851012629
2415069781532943227 2956751378327180335
2454501833386913163 3014887979391907055
2445566272703503965 3021689182166239583
2440706805252046964 3026868290123325086
2469767240439884160 3051609593753210924
2461908218663679659 3032887522901261396
2260897718412596960 2795260371185601600
2432986987794602984 3031246554884180105
2432326690211012318 3031775028801947779
2432111384087177765 3031912063962219540
2440637084124905249 3043017411886939730
2440456361124294306 3043387028695527679
2478853706047838940 3091430316167716790
2479310459031168450 3092851978851147560
2405151484155780803 3014588987540127139
2402835809451973814 3016384602329412415
2393345364333667908 3015698116346644671
2381254245834709677 3014375843594263643
2421599394308223574 3067262491886276880
2388601932154237976 3027918270380269757
2388444194933020061 3028041766709780934
2387807375769905360 3028552583723094899
2203258892089247590 3164222070332701750
2188398606705415180 3176454031392980140
1496873636011309420 4988711570254132000
2564550597058331700 3294082188570850490
4525960671756643000 7187089412853626400
