23
0 0
32575741040727539050 31843128882367722000
-847526060557388850 16695386607354130500
-1157124041103263500 16002078319715853358
-1799410151750787900 16493305457232768700
-1926284899732131750 16733735176402579550
-1911579805366632500 16365918127310773665
-2050194516532003150 16354171699705249395
-1768048317337677600 14011031648919788950
-2089375636552748315 16455834594190600305
-2070491637016532625 16187351092746005230
-2069725534302005430 16101814821108210225
-2100533960518964615 16337211891207043955
-2138057578589764795 16106345738332248895
-2132700773974893570 16043947026746106540
-2153900277605883340 16199811361673750685
-2685569715131720115 16121679043503588090
-2891185228887830150 15128764716189127100
-2183575456163985695 16421224326139323945
-3123494923340470400 16214679732058275040
-3681723966546180750 16153343773290457540
-4460200124446449600 15924686278286945093
-8069827922419699950 15629458429865799695
