29
0 0
-51928184419378424250 46272929073913494000
-62314510800947761000 31717740102984638000
-45344585356793132500 22679168214090826000
-52805166832299072855 18272601841576833750
-51745927936685622150 17318840852568459650
-52243920690307038900 17449507993159444900
-52901034823113280827 17631110337153539750
-51984018867730615850 17092479102980091765
-52565800561013560210 17109079637186214430
-52657987305574049840 17132725704319261650
-52564866786337752055 17042876402908369960
-52772269206340627865 17108687354063313760
-51741525588480861900 16772874580964011140
-52673666090615055010 17073211366883906685
-53475923749468455650 17321136616458626500
-52661570723131408955 16976847160180176125
-52836770336931037615 17021866008723121455
-52795068220468115415 16958565256022498560
-52299800056180349250 16788362614450452130
-52915291149843667682 16608826101930494180
-53220621070685814970 16903105624716507505
-52687016377047131885 16264960032452091500
-53177130802160324340 16631788302289475236
-53732120612970910150 16535755588178158870
-53265385031251543810 16333027233532551305
-51343581375346335650 7335511957550770000
-62225949945850785000 4443175572221010000
-97796546217833067000 -7205326319172167000
