19
0 0
-4748057011297355000 92158405069761033750
-75687157012129091250 37139938717051407375
-9751960870507867500 6669313117826441250
-6505181082277090000 79170011189066801250
-66749255429317572500 41501749344260677788
-696917116723194806250 -18068383875034627500
269162056014294881250 -378709942357077568750
221523878731287918750 564264727670350881250
-185913164929310181250 150880408365239153750
-51028651154713122500 -145221497803483743750
152012932492130331250 125947735793669728750
165135528269288218750 -233345851846450981250
152143997562600781250 418190860898494606250
-448714247217181268750 5241312827252163750
29062722347013808750 83153041936924981250
-90580654392176878750 71791010864688331250
-21474411721492767125 -18221850194416195000
-29229784149807066500 41188436786498549075
