19
0 0
-2603414676465199000 35388782683223813500
-32489241397193300500 14961297670351226050
-3605361335940873000 2325762279015821500
-3438687156458537500 30490438513662656500
-27601681172909926500 17334260055631747575
-252469253572826056000 -6480431101982855500
140351546565459169000 -213037238294033240500
87176509556919874000 230763392325918244500
-71998094309989196000 60425522702710181500
-19392487966286750000 -58373347895127535500
50625401747163239000 46916628512940676500
62728639848382144000 -96548422200231570500
60469721524182174000 172475900985546979500
-169279354470477171000 2033420182550338000
9444233481805439500 31615024154883009000
-35450805845978377000 28129128532556970500
-9042993268323624450 -10178516551311105500
-11055074872216833885 17007865781369276516
