19
0 0
1408616713129187490 -263653113423211870
679439076709138460 944891384046441350
131710703848033460 73555202844121246
1162259571747203160 -164247302475437550
764866748493271920 744530036043891360
-1788218643729784710 29749718899830542340
-13277744413632653310 -3025687464306930260
25379185975612979690 -15859456761526190660
4863955905623489390 2653105221885150640
-4590143716525822310 2788679896767187940
2057331818470498290 -3324858509607060660
-7264597601876407410 -1640921871914498160
10934169282963911690 -6476980863736239560
-138564325581936920 10677229811250662340
1213357224839205190 -661045194374174400
1196034592017174170 858704025398738020
-567577125512310910 517574054895542640
745223107008353040 168780817230280353
