23
0 0
164542137578 14249639974
130808001654 23563374003
121427513645 37127209777
117044982421 26117764612
109524201832 24859228109
120134756108 37688691322
118905772467 38211533061
118387647591 38454833595
118575249352 38525303033
118380382422 38481887051
118312488041 38464926541
118578999989 38681493417
118319976895 38633623244
118488787843 38701636140
118096274299 38581898156
118322369092 39033667326
119016657067 38914180198
118728051770 39245424055
119223454742 40138683180
111978673218 50778170362
109437058891 68260450089
142353669642 91271239571
