19
0 0
-8092572659933237000 72046742394004326000
-64447962863321347000 30754694888308410200
-4910952667828342000 3274198382704179000
-8930641032076676000 59171603325288098000
-54220296379175564000 34799559156848114091
-763097605632514637000 -47826002004735071000
260667594410997713000 -364361102542772032000
226591849443765753000 584122069595094968000
-172381315025027847000 143603691621033778000
-41650154002963414000 -127692429091214242000
125488909634523973000 100276044500062427000
147812587697948973000 -207594618153905552000
130752653119360843000 372274156045145688000
-378531766029030957000 -3896330948887816000
18755124872494390000 62306352597522734000
-71130386367517687000 56890224133303713000
-14246919109472770300 -21375138847270532000
-25086183776960235400 35140940289673797740
