32
0 0
-127558650222 28768063111
-128868281187 17778792539
-126990473211 16432811018
-131875359454 13802199264
-129398447884 12263485395
-132044627603 13714476565
-126788139704 12757857413
-129288096386 12074216874
-129577846063 11845057910
-129897650373 12063803683
-129537726304 11810458678
-130313291243 12075618047
-129103122547 11864621665
-129442757060 11777811719
-129952195577 11673798733
-129953301541 11667053294
-130439286104 11576099450
-130443871497 11561705917
-129453210023 11758749288
-128972769214 11417149854
-129078286199 11408816987
-128536217426 11108059009
-128538029758 11108055495
-129624878236 11333619903
-129434356438 11094668483
-130192925790 10317482057
-129613813003 10268378917
-140753944955 -16680662425
-134939051577 6117724054
-141733608294 9132306447
-208365581816 -2871698522
