26
0 0
-492056563783496027000 -592172374055348556000
-222332430393186940000 -525226212404130192000
-302189834484453460000 -553060594218623532000
-500611557597240957900 -600256777435578395000
-500931087693421878300 -600988788228702152000
-733327696679474430000 -101221761208963530000
-495683096849537603000 -613461853607745300100
-502420476010523968600 -604359637238688092300
-500480815938617110400 -608176999838605793300
-498205136735182585800 -611872571411794402385
-498240748435711812700 -611889152402123005724
-500543487848123032500 -608275618827338602800
-512550590338686268400 -598141254966311552000
-512134804537834927600 -599440488107101733000
-506051224338182874900 -604939197884582526100
-501380342678980537700 -611921276546714186398
-506248662151253315700 -606496083989857730200
-504364681554503500000 -608942598577558842900
-500419617141686153500 -613015264690725576400
-523615584934079771000 -620450791799849999000
-523192037855444212000 -620494445876855126700
-520636407510667645000 -621215673287957014100
-496983520658412409000 -617692724986217234800
-489304378598400880000 -626924385415376288000
-487280770703835766000 -631276324372212085000
