26
0 0
8187935993689986700 -7419583282159237200
8483109541324609900 -7628143182600106950
8785724867339184580 -8193344703614443850
8785692356114545925 -8193765285715504900
9310450753130462842 -8372241410871326250
9413440556639739635 -8461564373474570000
9238087056173154704 -8615203716414428760
9726883308826862800 -8490436908941748820
10038226510185553700 -8348808804141616650
10035614252559747450 -8351454280952445100
9724194036662820135 -8498578285443284100
9679877144414613905 -8686203094710752705
9688608285118005200 -8693603259613366255
9500191022642833720 -8889970485901556310
9522284689304853805 -8876959025085711810
9561607970000305485 -8917948679561805650
9850545776574856050 -8596672084416573750
9920429903918401000 -8624880111709727585
9572404073817804465 -8923153795132255785
28461920957446655500 -48044860304362127500
20924482955084206000 -31070300575222653000
13653831704095505200 -13290660619921228350
10650364750540713750 -8179906692141960250
11212714788658531100 -7795507908238223350
12739091289261170400 -7077413580649601900
