23
0 0
1135317216 -130372702901
38112489552 -23324049649
27901740554 -14419915968
21705992780 -10861791348
29506049601 -13882966107
28182638498 -13084965230
29292401675 -13460556482
29940262748 -13749547548
29563281595 -13560699535
29624692864 -13375112924
26838606608 -12296709268
28821637464 -13011931920
29195386385 -13139984465
27975830272 -12466756360
28915981603 -12866372263
29663187971 -13064607607
26451406744 -8702146357
30081526968 -13238547590
40297124348 -17340677990
31843598934 -7937893966
52427478616 11318413629
58430057663 17552407565
