23
0 0
2503618598162728900 -10306434516335344680
4032185052419953345 -1458075311450452030
4025139520172251758 -1245384111970245300
4132847010983445238 -730488207127476193
4181172645218696237 -729855838804112934
3995104199276051277 -696732732596343510
4115156222107231280 -709424746727747411
4031539013234760197 -693450831310430647
4017645253594617537 -683179552007757365
4138152999954395589 -702166779843450262
4117520350090834623 -694469057374206931
4164822374426471098 -700636239368951839
3997390346328017366 -668978729333626397
4158116346383805030 -686841682110965795
4119244047634538460 -680268297665550744
4167993531897873015 -688097759324673546
4199634244137904970 -691186207272316798
4200039578104252360 -676078366877656385
4616509272653424140 -733040967422437646
4209880319888074570 -653843210599368410
4797993431205595240 -546718147431752540
16754435820942417400 7612184642700952020
