19
0 0
-2712511075324771875 -395575069530884075
-1013677478344845225 -2546891034043339950
-359408508152537550 -535683738232817850
-2068891095544669425 -438990098810839275
-1297888949972409775 -1967792266530566725
4356468976007425525 -39355245057836098875
29191896428919559525 23054860263408369125
-37274553958596587975 13357918690853518875
-8531129323524482725 -9544077129448465125
9818466836217902025 -3011711221949209475
-5013526066363030725 9613322247823449625
16255111668058799775 12757313397504710625
-21888224395632813725 7303107877608525875
1906924173904390525 -23002887378687457125
-2127601486200534350 542850003161373425
-2118832225406717350 -2509557007290760250
520245157937635050 -975759099444837856
-1242062851223205475 -980822034524741375
