23
0 0
111180293457 74493286433
80051213387 70537534279
76981551948 80531044443
76488375064 69313167587
74424388212 67520447478
75680814231 79988219363
75854298564 80172485064
75580355807 80002468628
75759562839 80199731977
75634217548 80088727453
75545629025 80233712008
75678949613 80387780692
76102818245 80847863370
76733314686 81535433594
75612806420 80389674642
74753156312 79584151041
75792825961 81061799079
74769461176 80615748656
74259626584 80427202327
74710318927 81950643153
40201700849 89565618050
62572709404 155472670191
