23
0 0
23413783804 -155959112489
135843037848 -153890765246
79530830887 -87615546236
78026338658 -85906762046
78772124317 -85481295857
78711083433 -85341633566
78897199928 -85259280826
78865431793 -84999352174
79344747506 -85507716618
79083859819 -85176921490
78062550649 -83920063818
79059861791 -84969985681
79185657941 -85081723976
78816762452 -84670450646
79004536621 -84649571849
79183833155 -84826502908
81182997669 -85815429213
80456987684 -84519918698
78029330741 -78671282976
80526910491 -80799877662
84197266653 -82319470777
110439201465 -67780038880
