29
0 0
122860082424289760000 -54162462075658941800
57193217249937254400 -11069689531248830200
23317880169780824000 -55036319653949543800
55975814810887586250 -6054078933380725800
52910945809592391900 -8193773761266837200
55536970500724832890 -5341210759900014100
54173026258186737460 -4521286544525988080
56295504466845432500 -4691049251134010720
55502405066776778770 -4097423471047786323
55697736889997900280 -4068229565190365124
57074441007436947200 -4690984003423335970
55875489791873520680 -3788164743446330360
55389328675344660680 -3749711992606619090
55636392161087822760 -3740565883136791610
56510739130835831200 -3793287522674505880
52352253452236207800 -3508007940431821890
55474314305873303890 -3490920167224600540
54517239319344141190 -3405697497183778250
55853962011792400860 -3449879909836612540
55705446615522310530 -3368083512495944150
56311685341570116100 -2106911399439676600
55137786934775298463 -1612058067527492300
57088797425729126100 -1585202777546267400
53976875117894027300 298792534663919400
56946329801044178200 649641363845699900
66471025880026466000 5723201439773597300
50476433410187570000 11478129486365470200
63448684440722606100 22716343119985908200
