32
0 0
-86906572860 112899378543
-99938456629 45981123665
-100111476897 45847009280
-103423393435 47031443159
-103375019149 44713731910
-104161528310 44247175369
-104260193450 43975866636
-103715483228 43679861752
-103343875376 43868636382
-102201080954 43367326497
-103643726269 43647866194
-103649640957 43644173653
-102247788553 43363534485
-103454862708 43411791630
-103523546150 43179964748
-103759235954 43189870679
-103766875072 43159346520
-104414262936 43211665257
-102831698978 43064928236
-100749739227 41514292105
-103025158222 42183532611
-99924682089 40905509842
-103016902793 42167919509
-103555502181 42655988693
-103556127419 42655646715
-103523402330 42304263186
-103576340355 42253926982
-104035973782 40104742201
-106213022046 39133985823
-172877358734 3490977513
-209991433050 52018107845
