23
0 0
-41886428832947402000 12127523901987209000
-20058550469261533620 -17422073663795884280
-19360411291521009660 -16035796050542128400
-19628027238663012120 -17343121564129644710
-19758964299387586115 -17479322354467943390
-20177275812053380850 -17911752566189340170
-19551793779708786560 -17510889682062465740
-19840871038939616720 -17785834677957951935
-18732475346166530200 -16778758704407454040
-14140987668883200300 -12676491430387777600
-19821814298199149350 -17769063985605911540
-19493928746386844270 -17517071320043294760
-19622211731662651833 -17795400996461195230
-19213501696706211260 -17797777658310542760
-19205893513415577640 -17860853630637604570
-19749555818430687730 -17925458952529588400
-17753396941504519800 -17862648139175409960
-18953079257324812380 -19686414741664362800
-22129798979560112500 -23319376227948500900
66073111495100278000 -29275365147928119000
-25191148562737172100 -29051579553473276000
-35843984929397572000 -49210504861607947000
