23
0 0
41737529772791631970 -176526466892369731000
46865823160889230500 -26572279974366836300
40070609797967073610 -19012464824830752070
32912658801690921400 -15324597123733447500
41621135517180485830 -18689786697845007060
40036256541884635570 -17534715830666532350
41261768149225601640 -17912022217596179610
41887359181371923600 -18181542604075369444
41563205388610483200 -18015040545196761080
41562999141336154880 -17879300021845892030
39238300647775764700 -17003713691996501200
40845451231296146770 -17560203432710348520
41129183159685516440 -17623118747389378470
40014934067381700520 -17114174924889953200
40909908392578420565 -17438355053707937150
41533456739491948880 -17566059278988700750
38010198383867469200 -11151006490816103000
42001305135128010000 -17755921566681406960
47304060146334827100 -19897775499438100000
47979858906154905600 -3938080459317703000
50247913531151430200 -539735619580913000
53629330783905163000 5594614288956481000
