26
0 0
20658962286 3285001815
20794749050 3253666338
21601330137 3846705513
21446424860 1292270020
21640694009 3805870637
22215579292 2908687339
23274826831 2801159526
22043228130 4182975010
22140581523 4132731123
22028023460 4261070385
22031437287 4259442419
22744640787 3941606328
23382547948 2723906684
23083680020 3311772463
22545756379 4367166572
22147389612 5323734591
23134260873 3627650797
22863258971 4570163018
21792748952 5786207804
27282085804 298856962
25218899448 2433905210
23376409758 4895388961
21799280725 5971595244
21789150204 5990845742
17044989805 15024383099
