32
0 0
-57400107707524476200 77292607437501130300
-3769675411869707200 3531213893205944170
-4358995406705508500 3589318039154038110
-4465583529313938800 3605692154425496340
-4495726163823717700 3610370642060317930
-6481514467709878470 5971746332295773300
-4551576994935177400 3641156804262589970
-5539248164354377170 3778718456043823900
-6139991024538974690 3865988843595973200
-4959005586243168200 3068875121661768330
-5105712313398944380 3159471495672827460
-6089140705952647189 3766769578643639000
-5083074192183410160 3143984503574113240
-6758871033607919850 3957229345373867500
-6094526746077469423 3567800696619544850
-4948823017412003500 2896672091692646500
-5808207489427653260 3399488654429087440
-5146472653376323110 3008496045254615630
-2859638217309706500 1601911854860371400
-5802173703514268820 3376461602757198360
-5014163679770251700 2892176262064185130
-4405971877550985300 2309126788180939950
-6016288167198994563 3045396220313645770
-5656722866055415450 2812681079349357370
-5652081149194485340 2804473213794628521
-5652265409259241790 2803119238938164364
-5351861131464329930 2141793982426463620
-5439193008249718940 1968518773509470290
-5436205180340353000 1960428024905687620
-5418044813294178880 1910741096926392810
-6258882577986599970 -1081133543595699100
