23
0 0
9714776664 -83654551955
240780370970 -99344978404
75309397069 -30633070066
73151459344 -29742527962
74167420763 -29313879853
74003245268 -29129572447
74287849667 -29092080574
74219651360 -28833901827
74828846425 -29038608131
74469836507 -29068972588
73091871155 -28294141763
74438707137 -28813844567
74673949338 -28904051826
74171962188 -28689573524
74366917202 -28631085029
74597732297 -28695437320
79354231637 -28386960036
78068654712 -27657547923
72765136600 -24007544391
76710721932 -25287626842
83034548262 -25544157024
96864774202 -19977157535
