23
0 0
28492229318 173122003551
61301770259 109778695577
1768345734 133935603845
-4630314517 124097125417
-5216459976 122163797995
-5396427444 123433455032
-5382355496 121908720468
-5479500452 122211079339
-5612602302 122611694970
-5621437145 122211070781
-5950629139 123998223562
-5952328840 123682278818
-5942059585 122612859677
-5937951310 120254958254
-6049603191 121960330811
-6103301682 122846578372
-7231890584 129354917834
-7217237469 124269242852
-7697572924 123628704387
-13514588994 122459285304
-14939372101 128170411812
-63417786059 122486950400
