23
0 0
3085016668011895100 -5792218904803971200
16775914512596462900 -8455548052612865600
6532690703410373140 -3259541653736844530
6337948845704857198 -3161886323663748473
6439675506395954373 -3121545961717519444
6426109634386411288 -3101952465048317331
6453852273271249970 -3099293733879130819
6448393264495045002 -3071809331231517282
6505138493891909900 -3095707645593915343
6470262061376499549 -3097757309322173771
6341352659007090670 -3010060843901150850
6471584410943656291 -3071013688634392291
6492383743597832250 -3080609651920323360
6444639069116747400 -3053319422688130966
6465225675345876094 -3048364187457925183
6490026331793332740 -3058454178398403476
6853167120650155180 -3060835283737946495
6751400782764231210 -2995118946046832760
6348142350484030444 -2577063208197515470
6727677341418981630 -2682103044390933140
7306027769198249150 -2769136321177232820
9710871722396209900 -1842012566333824900
