23
0 0
-1798140642902225150000 435645798915518190000
-1083219436126290378000 -332541344508528843000
-1059468434342779194900 -332457138280295709000
-1060478537502495100700 -338022614808087135700
-1062313283987918994480 -343401644903701512300
-1051045950729877974000 -339857943230256217200
-1055725709974875143800 -342215298075368917000
-1060082488417519364400 -343012855476964291100
-1061187112310931850300 -344039038672692267700
-1062640779363053587070 -344613607374067244000
-1071188536609639045400 -347762959744580487300
-1055169648145461956200 -342610117061226288200
-1060118388000062590700 -344221318090483265800
-1059937991347582316000 -345890692194819811340
-910930651036236320000 -321527359171601120000
-1060937225842072961200 -346436204368456010383
-938651024876011160000 -332602575322684982000
-1009857096297846560000 -374390870499403434000
-998328147902824504000 -381362469069677743000
-1056295911127617767600 -404119484892167037000
-1193418921034419920000 -460428609737238280000
-1818229106033457430000 -1007775736897985440000
