23
0 0
63370570981 43238313817
226992239460 -75665071430
50434839754 43009898572
41596675144 42845297271
42401541029 38199211251
40916196255 42844981626
40829030136 37636313644
40385258424 42321617198
40434877361 42642959274
40215315404 42411947460
40840072841 43220865274
40538042845 43218958320
40162314757 42819277994
27759306699 29709472654
39321501023 42804035896
40116219475 43218908729
40880490703 44686261065
40035416824 43858448278
39769742325 43599631469
33309177268 46332277092
38665743268 45856158511
-78920966444 109951083712
