23
0 0
72322125024940724000 -81711595099939595200
67954771302674292000 -183200820141501094200
20239901857636020600 -6982118507961894200
32649254665835558000 -11186004678541078000
22895715582658948130 -5081320531793630130
23047348228828796020 -4996212042328972724
22614802308640907110 -4837211250881562551
22946227062764404610 -4839108747354579875
23212525832493264200 -4892907069697993127
22696767242306803760 -4774620438950470870
22853475739672875000 -4654539849190484680
17484477814293832100 -3553041517938502300
22540384941110152340 -4571129670777138240
21366718270413970500 -4245791574465913480
22739213904362372600 -4517918917594049830
21906398828792290150 -2847776805504883700
21552996486539416910 -2611598110060485200
18769482732963699800 81582595797250700
26463906312753143300 -2579718040150091000
24552629395829392400 6451597267724046800
32524413279728296000 170297093369837500
34102667337984289000 60042758504067230800
