26
0 0
-221622446337233800 23958578683679300
-354710918193086400 5348521586788070
-385889588225278900 -44215843453750
-471026258710984200 -15085908413474860
-1088138596778345860 633941245855270010
-1274872608050437250 393739902622249360
-1396155107826737660 279181509244628860
-1446622878638259020 167804878562621700
3403587539118818800 25364447500095502380
-1456591348573082100 164918518534140280
-1722882683303989190 1379315852409106880
-1713950308854269440 1292832546006533880
-1875985772682390039 1043977303341896480
-1623262297283835800 368431053233641140
-1630079435055239890 362732520384386790
-49118451937972334900 50459258996440553380
-1478226397779254240 22977801599644020
-2792755537876072760 19776454800486840
-1575183336317406460 411293102567670
-2239469342189988450 -1053403339051200
-1583192779514671590 -153980358958743870
-2843017519956999450 -362039712788972979
-1615170629520797260 -209573919838331269
-1386308450782017590 -180488514712759910
-3763561321801656900 -4084643618331875520
