29
0 0
-55053335073896056000 141566501680294328000
-30781306934989777000 76216225531498741000
-93180850772056732400 89258230112615643000
-86443138971052609100 56290213383459182500
-89030673284865288390 55502347718906123400
-84990997327294991700 50793255470687679540
-88531919029319696780 52797771385452763800
-87433733140717165300 52137388984649961800
-89949163545940637400 52442610261283088700
-88623001617822767030 51319556340333260900
-88877680687867251507 51340308169071394700
-86630604062469736400 50010781900345568358
-88465582756598354920 51018099682281938700
-85518478438142981900 49074927174016998110
-88765856681410429030 50937949895046282700
-88543178932380920540 50711688296497566810
-89089767554375999990 51024459315884257000
-88776134523819576960 50555406868023891540
-89084352718797336320 50712932584294337560
-91829551630200181900 52148008120418097100
-90538276442307071500 50633865513416039980
-88143736627737975990 49269906358091142580
-89598756468212409920 49286564980374057080
-88566991600583485890 47402537636692627200
-92117023182547835400 49232101731288333600
-123079958786257572000 49623537762642389780
-98053565133115273200 -3227371492843776000
-211511756269638958000 -31268062008559929000
