32
0 0
667936076478146830000 44420918519832720000
607585288738902954000 163939080296986269000
576320166106159157000 185765404973995139000
569447851608395244400 196363503383781790000
568506949083900093600 197071826611677900900
569117112772307922100 200808149320188423100
568374568211258089200 201899216471462710123
567447370694536699500 203556257409343260600
570195999133237110000 204654447278585095200
569447952717171031800 202585173042522081350
556283358140791611500 199722916163627672000
565589732798360265600 205991009225143501200
565532281851189053700 206075623644632752700
565294621561247966500 206424621382512926400
565878997983822824100 206713854224847557900
565855461573323253800 206756930215136390100
568351724041304298600 207718052007941675000
568342409684581233400 207807978957094677600
562803251221788044700 206729301314991332100
562475446661674912000 207233031097443995500
562210546883915343500 207488432041589446100
560264277366620198280 208998545298395069600
563521778970743079100 211043947159779934400
560679295299852679800 210021537234622030600
560630952882962852110 210095856372310603200
560315535104268583200 210584256935506267900
549062905428711240000 227693033195993838000
546213056968553539000 232180857891043949000
516169075630591800000 278826674609804897000
567973255142466428800 213784335278893638000
893084376706636080000 1272360360344942770000
