23
0 0
13986076325 -57668983147
17342655653 -46093380348
15803228952 -41077803610
21216975904 -33503495259
22236882197 -34869173019
21085948787 -33054949777
21368538274 -32988380597
20246229391 -31224597499
21782160028 -33293280443
21678341300 -32921378624
21695396646 -32872532987
21386725098 -32321216776
21531808397 -32450832453
21303224368 -32070933581
21449700827 -32106529728
21579764014 -32291952018
22034648867 -32965152624
21381703269 -31941368886
22098780977 -32730192860
22162701950 -32619861605
22986279077 -33171318586
67648562443 45534616732
