23
0 0
14007408292078741000 48054774881401177500
8575430417919292950 43700277029705469350
7986709525928142450 41492762741291595495
7549246184115960750 39301734720451691100
6624901074519771800 42604908755969859050
6418796792075747425 41931561678584380535
6373803133322577000 41665748783000895060
6334644493627568450 42165293337111724180
6157663590972187650 41026380071720402050
6104061463391305490 40845354821178934300
6252531212283483385 41959037901999289220
6175617628992009280 41771994779852589475
6200089669653755965 42012265241443379190
6127747119218961070 42008336248568867540
6201390467835911260 42098276950267254735
6127108715882314960 42022093940637473030
5621566866171732535 41657938815681646580
6075623002690626765 42275102633226536940
4378469440546530150 42957418456289884100
5900190892431255242 43797074617803633400
62810274155527000 44951852135394937250
-2472489852511538500 46141546480301248500
