23
0 0
32258450431 -35938745928
27975782649 -18242287041
26759388265 -8851101660
24996018165 -7802372330
25089801464 -5560278433
24972129481 -5668721945
25025443121 -5423298939
24836859332 -5367545539
24885796136 -5309830316
25113023578 -5168325383
23340051751 -4729485182
24968231746 -5026781129
24803085915 -4993445103
24403710927 -4907928220
24961315787 -5019840555
24769249689 -4820830574
25041501772 -4788744765
23540117029 -3636725713
22239028447 -2219752898
24503562688 -1905402210
35756971998 25593933640
19730925486 47783703667
