23
0 0
44553883365 -115670606521
51834191722 -86415834916
52492428513 -85889373088
51911520733 -84906436614
51927314228 -84890963251
51932794528 -84555297851
52150127721 -84893085093
52070393081 -84617490489
51981284209 -84562571471
52315723733 -84584330445
52045098124 -84141759525
51709921543 -83587938364
51938492622 -83829710927
51969288241 -83841624949
51967409637 -83693156110
52295018395 -84351728232
52291357212 -84195363939
52779523966 -84730761067
52930366853 -84479915702
53495728885 -84397770796
54128355540 -84675953462
55168750989 -84889735146
