23
0 0
1005530845 -80037113718
14667886822 -60729737303
14622690573 -58624361878
15187505362 -60691578829
15398455394 -61470147810
15504169895 -59978246044
15575661764 -60090355002
12521139880 -48208252575
15911905129 -60805969818
15612145717 -59587076690
15553315507 -59191736282
15746157428 -59921342640
15695230602 -59274400205
15647392289 -58915480849
15788893415 -59719812914
16157950267 -59369085837
17596483551 -51835302666
15966447047 -60738736281
16685812463 -59879733406
23735612432 -61308767985
21441525136 -54538769781
45484660587 -64842528731
