23
0 0
31933574854838635100 77246358715245309000
18963009746277186100 55955310525137165000
11336337713644381600 70623121917338977400
9927078267385900600 73449274890900289400
9168531608925061800 68272980727595528720
9118401692659457700 68934232264532153340
9220770967537207800 70005405554775460000
8832164501915531550 69264965166085503780
8934072307694248300 70120718257065525700
8729288324105286700 68600981482678611160
8816358849135860230 69309852932183716770
8771197836613803280 69147546411512596710
8524707675841613490 69426724328929575860
8459573068457521600 69296251990909672900
8428291547137236270 69778506488182116300
8161403902216988267 69663801268879900970
8151093765795746584 69941307130102500200
5915039548239379400 66136207413050524100
6061109400414325400 70131978406906357000
5956034476543465700 72846567268781145100
1982098645205464700 72924801874439291100
-18148402627947593900 83560257642782634000
