23
0 0
9994225440642769500 -37237903884105921500
8222797926343497800 -8779657419789544100
5146484740099034550 -9799475957706438850
8100250399861105930 -7937614980121995950
7276282758581800290 -7067791359780219530
7721419034216513030 -7169946887385136615
7969419254674859165 -7336215545478995320
7697881602352326013 -7006003733005642945
8050067931906447450 -7293556587485222470
8002322889518946770 -7243395388919916505
8081500027533196450 -7306256564329251525
7507221271543467145 -6772980307363773000
8046490581599279965 -7243013855675957240
7997668780641843365 -7198972404064471080
8062958510531621960 -7257501380574084010
8076388527747187030 -7242025227404624270
8624794149974331950 -7762022948170650750
8129529321461772250 -7273858570038777250
8124895567115917740 -7183317655565060705
8929657369164750050 -7713218502745986375
9275993499762214050 -7528444338394405460
17075582678653365000 -5598769735229664150
