23
0 0
331848014773569682000 -715172572674650995000
339321641011291848500 -709909151630926439500
342401738371697867000 -706200514247287095500
352613777961295327566 -701895588214022020450
352663782917538602325 -700848468513465155150
353054733120702905725 -700713730870744618700
333727578624744113500 -683606676461254826500
353353778299047388650 -699608213069854728300
352750762235174060260 -698297443293763742200
354752408424842541850 -696072282386279990500
352994652361550392185 -692265054020436886000
355111532808720187950 -696298677902390109700
355247106818364090600 -696262459773970566400
355788843273070025050 -695153781398183167600
355188340702090453350 -696438843205147630200
355821197609472675900 -695184293384319540750
356494079360440515200 -693727256796144085500
359391764024611341500 -698988473593633329575
359483694395957505500 -699085732430987188170
360368031148530756500 -698677393291439303025
366108947874378817000 -703204664985345841400
624301493261785365000 -792521681428286495000
