32
0 0
33478174350592979600 -48502107532323983420
16778839170220586640 -6565370286337637220
18018823928492548000 -1115199810254409020
18145183705323822200 -594539097317473340
15645143389750253946 247660737943259700
16860906803001412760 1397637261099915360
19140659736507230800 -300834042715981020
15585594515050888373 403823529227672400
18376804124615726000 291733486436250200
16861601430196539900 1467364160568931960
18731695246527286400 1633082025028741760
12202933590988689600 1066271202675886736
17973456889408001000 1610125041628435400
16708420170636099000 1580605300731176500
17082141910774508520 1646355640065643740
17888998092834193200 2760031778845628920
18979761179218157000 3082363316103718820
19015961746803520200 3211309955621107380
12592013735374293400 1270780464208117416
15269725376544179400 2691025618773987560
15266816958283351960 2700631351507654200
16677337015657297920 2954229057674323580
14402312329236832940 3381120538545704180
18261018504388545600 3259108657281647780
18254549721729106200 3259526420936764780
16860978766632009380 3354364535425666980
16907738420586810220 3589363922506652780
-36793738370908909600 61388312248912686580
10127788700953954200 283495031504000314580
30559869136235394800 46948556293007332580
163342710318122386400 64488310183211136580
