29
0 0
8874300313164144200 -5626253343114330750
12213448718626438100 -8429236892144029700
52964418017874101000 -48153189131021880700
12405231848944478920 -5096127064660877710
13664086641555383080 -5802724409219942400
13408863530455883018 -5086180978689621340
14791033276147747800 -5860795207215997340
14039820799391944650 -5412690844851235000
13086483000213767130 -4502284080073958470
12362202793142612700 -4012078087255026300
13892185836832462080 -4840583671271512710
13702267800241808300 -4653002150513627580
14266973833971100210 -4883601336622323990
13729199723449763090 -4414784073073674470
14107356539834563500 -4645288829840561940
13501858836057751960 -4106529728511138700
14593489952447021000 -4744777512351592580
15079037348103281300 -5037557516885989520
14037985056734027280 -4367559965479745040
14430711597434918500 -4546434394678814100
14331214957026671980 -4043246201835215500
15281320070339490600 -4535983118675496360
13438052693457607115 -3446495789834430600
16397143932872817100 -4842542522337173000
15584830054277435400 -3874237863185630700
11047392707876641600 3989699251716250900
37675557808150279000 -8256981827445271500
59477674406488893000 21591167430240822300
