29
0 0
270235272856507280000 112318692599023873000
133008736165690447000 58037923440536016000
211936685958573641000 173866193762251685000
148943396560780393400 156757362028934413560
147237067045953129160 155369023558386380500
149330232235687148200 158351770948464693100
147861307940468551600 157424179751206241940
147957861146923042400 158252943692919668800
147491438473809854600 157040691283784538781
146107675869783733920 156929768833887664022
145145258368298701700 155997380918036119930
146650108584961011570 157727715483693359590
146526217580792698790 157620524614984868370
146692678403151410900 157801389216919861650
146540799444066770310 157761050053504266560
148423191521945771100 159804173970050747600
146390341981524818550 157643490586940437240
146575065591507162290 157846486593059687410
146359499804049025561 157717560263571082340
146446289019707787150 157812118892571339250
145705703801155633480 157396788804960564640
146638430183687880150 158460401610245394600
145895049238797548110 157925310686456631640
144775456921004435000 158030005695474287000
146141884112955575000 159966686926832178500
122944538932449980000 162139183879227801400
168120487934621976000 223376487538400825000
117064069421704700000 290779768535466860000
