23
0 0
17233892954945345500 -29670850823102116750
12111113052944145550 -7950400604017424250
10693664558994120895 -3297706344205846550
11081002764172156500 -1854030002898548150
10779925197736474305 -1612079001350735855
10694075176638122060 -1442328232156123785
10705173710328361045 -1355674603156597696
9885327461078280660 -1248401510339210200
10590044861714967595 -1218448698229438625
10454189129061997430 -1085018529977886265
10650559096637037570 -1032915272613070130
10446074473505855215 -1011022654142173345
10412488836388138334 -1007578665249031485
10629401979873058725 -1021334429751278290
10810882131094199310 -1038600265434635690
10809989120425370345 -1034498257820632080
10639958188366646905 -946394473727157840
10434070687279972400 -906344936275793140
10326770456443962630 -850874279016689865
10832754044295061410 -613056819901865050
7043387941574685350 23094658650654003250
28581033878406633500 95389832841993915250
