29
0 0
8874300313 -5626253343
12213448719 -8429236892
52964418018 -48153189131
12405231849 -5096127064
13664086642 -5802724409
13408863531 -5086180978
14791033276 -5860795207
14039820799 -5412690845
13086483000 -4502284080
12362202793 -4012078087
13892185837 -4840583671
13702267800 -4653002150
14266973834 -4883601336
13729199724 -4414784073
14107356540 -4645288830
13501858836 -4106529728
14593489953 -4744777512
15079037348 -5037557517
14037985057 -4367559965
14430711598 -4546434394
14331214957 -4043246202
15281320070 -4535983118
13438052694 -3446495790
16397143933 -4842542522
15584830054 -3874237863
11047392708 3989699252
37675557808 -8256981827
59477674407 21591167431
