19
0 0
-22050687013661330 659442153235866390
-648323522548896000 230247489194920672
-92178797062124370 52774476335823550
-42909047442995660 538192364907143790
-523686502823585260 286011240196810638
-6186516917089989490 -379813743670392250
2528688709958733110 -3545053597173882710
1823239125121818810 4630194488200320090
-1743700304063136190 1415475050709334790
-435531193757691420 -1212503642501885310
1203930988475498210 897095987696957310
1722141778727765710 -2429618419776259010
1128125361908321110 3120224155721254790
-4778473212584946390 -218901186240823980
187878955048497570 570406690463575170
-696375479467521910 524006981199190310
-204960011589823176 -176566861291929910
-198705114958605546 279436975107709269
