23
0 0
-797521314677494900 -7008804526833721400
814150433441768400 -4388477271746990960
947776760987547350 -4122178462769164030
1015737708406191823 -4321366684083942752
1038210378113074642 -4406524195385152260
1051285871307805583 -4228309051877778094
1062370548067000783 -4241097003933574240
909828238817992550 -3845597377561627820
1098675079411420755 -4320486381850720693
1066372059184768547 -4189293166708152763
1059694817568140831 -4159126967521663750
1082166149106872471 -4221509016438482155
1074498886678087598 -4162098537085435260
1070283432862781238 -4134315026996663700
1087030341006757855 -4198462142032464356
1126573513786819211 -4164199379404854816
1232914685517089730 -3629741608597159720
1113444748035465727 -4300221873019164304
1189334861548639790 -4198678154060301050
1719949658998355660 -4203160268650026189
8066318399314795800 1639784622681868300
4829736918959299500 -4100396494255367400
