23
0 0
17313926980 -24497454499
16812823892 -18147517186
13092726161 -1458505310
15421759094 1207786458
15805932680 1358668472
15011413597 1772170748
13881140319 1643855778
15290048916 2063652356
15116926566 2044700786
14502151359 1976778034
15340637957 2248618119
15747618791 2357470664
14588645011 2268892587
14151514479 2216463079
14972094391 2415525465
15740735327 2553282574
16138768778 2861962834
15877001106 3022887175
89992713501 18171964515
16184627794 5462620446
21763778638 7432184458
35251854183 72674215533
