23
0 0
55354652630 -38856050122
52055003105 -24348810892
50908356058 -14486670791
49286076823 -13624707146
49370203447 -11730406098
49242070907 -11824477678
49296635400 -11589571627
49118716463 -11531218513
49168298801 -11497507793
49387198332 -11353018606
47596419617 -10894041240
49265053813 -11244779259
49089975573 -11202361581
48674405105 -11100306285
49241555088 -11221167882
49071124996 -11039500392
49302861944 -11037067187
47940821310 -10068806242
46674869033 -8596242105
48822036169 -8399730150
61879288657 20934557265
41040950405 73966413713
