23
0 0
81646967073 -14496055274
52751928702 -3424138767
68389811189 -3875365252
42596631041 -978272536
41088788465 -929971128
55872413895 5781566489
55595501749 5836833757
55818951654 5927253474
56991318330 6190908788
55544753161 6034666560
55658093802 6051942167
55916286912 6182859207
55571042701 6159041564
54959673130 6118120067
55728869535 6235212381
56814054170 6400554818
55544934483 6463390171
59281035915 6697856386
54739276566 6504454172
57750526980 8255258925
2998386249 70761857711
165055020432 118580323041
