23
0 0
-29107996586 -92818164933
26374680924 -14894030257
20724836302 -13483094525
25717708850 -14190148299
21600172609 -11782708410
26282252102 -14281141083
25897947178 -13559073237
26754812564 -14373355305
26204506551 -13568794137
26372588654 -13652311764
17073639807 -8835733901
25776737955 -13335720752
26063809801 -13323302967
25652736888 -12873939139
26286934053 -13429397843
26572975099 -13329821244
27325798407 -13619670072
26076574799 -12986005403
23883601126 -7294301393
26567187377 -13083129969
57693003975 94050848640
79485662766 -23757295712
