23
0 0
39449018284 -148975813792
127774892677 -144268424318
82906584245 -92165961024
81220422750 -90281303658
81925246058 -89886677488
81859041778 -89733888403
82075596474 -89648369815
82028384085 -89363946197
82574563495 -89958177720
82263705644 -89582721961
81156712882 -88190594403
82254284411 -89362318686
82387617702 -89476235435
81943420046 -88980618511
82155380133 -88935734062
82424344879 -89182254990
84554639312 -90300859411
83541558201 -88971721686
80865312951 -83090090437
83291616147 -85083600795
87493237615 -86715195827
109815984225 -74642672060
