23
0 0
123378042492 664052894
122974011492 1642467615
117121636217 2158441089
119726540923 9686461854
119003393203 9629792211
102517794214 2084102598
119408964734 10019015394
119900250305 10060274513
119573632440 10075989337
119107636484 10059871750
119534828493 10152944558
119980147425 10238132139
119361389674 10189931264
118548956754 10123615024
119228014106 10633385402
120176288692 10729840302
118686609660 11048112126
121479449492 10461993754
117045267847 12339259457
121176670310 13058794696
121790663981 10940031618
135916003666 32330854485
