23
0 0
57520039552 8762257654
48471286809 18485589257
45916933864 20631589995
40771375640 20125803879
41282565533 25399389629
44318018063 26433684851
41690177200 25868356387
41589709826 25872894933
41730028090 26013327629
40996147082 25668204217
41049356231 25729988746
41098782088 25905808434
40811375881 25855654790
40288115750 25524543978
40824282515 25865895674
40746137613 25918899082
41386989710 26341573680
40027506917 25749467322
45702800462 29761988361
40016298525 27820056140
8404290716 23166163838
-5170222884 123282076751
