23
0 0
50328909627 5085974797
32200037246 12492957655
31212349405 12586487100
19701320150 12301736279
19563743341 17091084540
24091767066 21259682598
20223634248 17870045530
20235262987 17966009367
19809746462 17510016302
19895740994 17664578221
19182768514 17034082078
19746048168 17536579558
20180636696 17923003392
20107942302 18024808965
19762825229 17727569533
19738987610 17708304560
14363052433 13365180170
19312724342 17500756141
19472580012 18293035826
18975628591 18050357081
19456851542 18976973828
-32400853500 94454267173
