23
0 0
30844793015 -33366687447
29409301893 -29031803871
20364151676 -19510395321
15509273433 -14431932795
23734450962 -11882606839
23539290466 -11670446231
23661768658 -11679813860
24171981823 -11835587691
23931985372 -11701673071
23577010705 -11514312821
23087277114 -11252300513
23752248891 -11448762008
24023941868 -11354854293
23263712077 -10645034601
23698684673 -10968312187
24495055677 -11190917171
24317917930 -11093898263
30642175434 -13838629234
22566834450 -9616398111
24217691700 -10210682457
31429367613 -6711930590
44975786601 92405957782
