23
0 0
159500308131 -7330132490
120733922091 7053923840
112738113335 18940906332
108966065761 11246123277
102524046621 11077544363
111452944375 19529016205
110280013736 20058083869
109784594363 20305407008
109976483226 20354436036
109780525462 20329947614
109705473871 20318344792
109990190137 20493493843
109710333815 20477156688
109888973382 20535582639
109449280745 20460683385
109706174619 20886961784
110371548933 20669516353
110106600491 20992899446
110569502559 21703275958
101224097299 36156422287
99736446944 48927327689
135158536301 69021836978
