23
0 0
14896247925 -95186075013
20128800337 -93343088257
15476067360 -65287801690
28919132947 -90088035508
38682472540 -94786195194
39725954822 -87501336449
37982159682 -85863518396
39252784337 -87029488104
39328728668 -86068148584
39797743269 -87081957950
39597760663 -86424343519
40369490750 -87483904837
39922232158 -86513749720
39371863667 -85288110052
39690815496 -85934586256
39797482540 -86135310834
39857137723 -85068834750
40014580898 -85810805261
41253860270 -87227024686
41730273667 -87127792247
56794450628 -99165804074
120419255161 -121433402581
