23
0 0
53322123654 -49616683360
35668976315 -56150692841
15146425328 -5537096536
31174524027 -11053235523
17937716273 -3979148799
18146064105 -3883338271
17537691725 -3663942629
18010716841 -3715009327
18381090963 -3772285541
17644491811 -3613140362
17886996176 -3495611719
12410309978 -2415122671
17438845597 -3390600291
16293470533 -3106009997
17708236845 -3358784333
16812435312 -1660220113
16445503030 -1558155109
13363420670 -614293569
23452113492 -905108216
22711573018 16733327024
31042723013 1748784091
30629643788 47507295576
