23
0 0
38282237260 75151232124
21061989631 55282661051
14880098621 68879973966
13891395105 71682114881
12792361195 66646886031
12747639875 67294617734
12909092175 68403756517
12470190848 67651655434
12620645229 68539406355
12321088431 66956268171
12453284369 67688121849
12389165552 67511174516
12191736798 67738270800
12162276649 67598485372
12034496826 68229232100
11752673381 68083400950
11767362327 68377336604
9287214776 64532912162
9793768184 68419170530
9820370744 71144757992
6568643578 70842245622
-15259233285 82530878910
