23
0 0
70902908383 -17059286494
64463866712 -9121449201
64042731689 -9007955455
61850336305 -5821567021
58047753616 -8072561535
60365093111 -4642336022
60715218591 -4634526443
60139687797 -4446162848
60702058349 -4482093795
60551957458 -4423062845
58725431950 -4242320050
60578000568 -4333245037
60446984816 -4309198606
60616796510 -4208886606
60344553216 -4184312077
60457226006 -4175163012
60769200632 -4196693767
60302435463 -4135688465
60551625533 -3918408715
60433115404 -3751291027
61470421179 -1857472856
57636560044 94146123860
