23
0 0
87451849539 -14219795890
80887691432 -1309825699
80242578799 -654684426
80204724375 -492546764
80393453725 -411152001
79701092207 827850017
78957548912 875939267
79393501672 946394856
83914225028 1081716987
80039131918 1044440996
79731888022 1249201326
79219638663 1250781219
81226454389 1601433545
79422855621 1579380961
77762610678 1655318424
78197848953 1726727175
80874361982 1789867926
81728676572 2459793748
79788548147 2417024833
91299306775 6767652669
67159194119 11767059421
144176810924 31793932092
