23
0 0
137814000192 49075554599
48042723979 98619759310
44866157910 110333884035
40749515129 101881705188
39990987934 105055242154
39799816843 104557357986
39584355661 104507471835
39500248334 104726605811
38804428120 102506641776
39419765726 104621657968
38996955108 103604214312
39584662358 105178573880
39305014488 104878619360
38388956582 103907166037
39326069244 104939324891
38453474043 104089715620
39478375843 105510919736
37908823665 103383029609
38777845174 105917452974
31104684909 110375140592
28700729061 184065730171
-21943720090 155086168594
