23
0 0
106402576622 -1908868157
25647553059 21974990946
31828586214 28187043545
22783495615 20229556198
23717904393 21151845413
23031175778 20842662319
23507315369 21312199969
23512620617 21476939936
23122592915 21016397303
23248373671 21319948578
23201700354 21280889891
23280933121 21427602393
22947122402 21130112515
23047312916 21223098377
23292732419 21449500074
23163399728 21348183121
23031909121 21260428201
23179267941 21406339285
21286884234 21074043524
22283086234 23048824471
22359838718 23203169261
17604131751 34265193076
