23
0 0
32592864426 -188409116196
39503461471 -183787189022
40264032651 -182944855693
41683163607 -182563649722
41754052468 -182299883600
41892480016 -182272121685
39607633492 -179892387574
41872699524 -182174122498
41826290475 -181965932149
42414831300 -181479348239
42210824865 -180604637378
42467817167 -181509644931
42521126648 -181512680313
42744766656 -181224967563
42484955237 -181562963264
42762480490 -181242148307
43083242643 -180822592949
43399074818 -182119991174
43406947380 -182130395663
43640026484 -182062469338
44240080934 -182657819682
149323852434 -205663557176
