23
0 0
-6962460579 -130454978312
31199758853 -18008574823
21395398409 -11160077798
15699103282 -7445314646
23442816574 -10316322061
21775253806 -9392965317
23140779353 -9829732410
23875302502 -10139189995
23473129892 -9948090406
23522722247 -9739035755
20415013111 -8650476441
22627820241 -9367591884
23053080529 -9502033080
21852868477 -8893743078
22714425688 -9237818332
23556194545 -9405476980
20098933182 -5042701663
24065110580 -9608652911
32932828826 -12998107392
27088164913 -2531131010
45361045712 13812945705
52455719284 21141053258
