23
0 0
89314515692 46796236737
65569334446 40507788246
61249997914 49698732735
60304057530 38766638152
58387275957 37854040448
59831477654 48998196404
59991503743 49178801543
59701642883 48987855970
59938960452 49189184413
59780136912 49073428004
59670072625 49210892357
59835674322 49355856077
60408742880 49839404653
61020070924 50387403950
59744063690 49356797519
58644194631 48473792547
59962748687 49973891191
58660773264 49543272560
58030253689 49336986197
58553293768 50706757288
29582739987 54512960810
50678340305 95493734559
