23
0 0
54039220631 -62029924042
5941168442 -2616231066
1433362215 -4268686637
1428115225 -1200904623
3927754503 -1640725115
2866534937 -1107831956
4812593666 -1849074516
3488975521 -1162802943
2967465126 -866560058
3656383075 -1063800410
4347249861 -1262480172
434156930 -122686477
3612025919 -1014613825
2711632525 -750536188
4061173150 -834564373
3047791852 -624531133
4715817345 -965142501
3021106770 -605903521
3741308346 -361666887
5895769899 14377529749
13257509056 42836028976
175689082808 64451031152
