23
0 0
29301978890 -163584427372
21073858154 -33864364901
41786637316 -21284524124
18513832290 -17435994834
40601864259 -20404570271
40360508234 -20227070799
40613946863 -20229186383
40977744334 -20273657036
40301123344 -19934104668
40379045288 -19972346914
40703778634 -20085126165
40383760142 -19861540625
40610658209 -19968159190
39504586961 -18749131734
40739043501 -20021258032
40656176982 -19918646573
41064382059 -19480987756
42759612727 -20284037938
39804742810 -18858578738
41115849000 -19190079881
46074478775 -20864010815
58814230891 -22610884129
