23
0 0
-4914938663 -59842567773
34962278723 -30058255267
33949810700 -28551380251
37009911145 -29290513195
36939739372 -29076025185
30672442569 -24127923172
37354320092 -29375653984
37146404095 -29117495771
36994395871 -28910542961
37292594838 -29230865187
37224408442 -29085601615
37354678160 -29186954333
37249312061 -28979325805
36709973489 -28545957607
36995649493 -28534644612
36807001864 -28119772985
38870789630 -28617063664
38677010340 -28450913605
35678506128 -25607455973
40044590347 -28388895896
46195562693 -26388416316
71964930026 -21626802511
