23
0 0
43934102040 -108670430835
50543164333 -80885418059
51238323253 -80225962963
50656780160 -79284020344
50687058654 -79254282612
50684805671 -78920396781
50915866698 -79233071914
50850596217 -78967787502
50734983011 -78924376584
51036018878 -78938977830
50785054525 -78527688801
50423702972 -77924450277
50672836724 -78191279409
50700679141 -78201172430
50699590499 -78040685711
51040265386 -78720220221
51054033823 -78577130007
51459067369 -78997684197
51526116982 -78803841273
52214196903 -78692843331
52873459635 -78966904411
53493049815 -79091505599
