23
0 0
38627559711 -23945607892
10544983280 8356237968
10341859657 8414601457
9077788119 10271127306
9075798144 10339335700
8938349988 10194236548
8964531158 10282529805
7917842393 9083633508
8822899728 10182646428
10068221726 11626691239
9003426605 10401274766
8955989850 10447585540
8453268731 9864534869
8853103857 10339984164
9056635918 10577803145
8595582383 10392616308
8148055094 10088656816
7305291335 9713909004
9003879974 11153643777
8934257058 11961256247
9987342780 13542169903
7934252090 68704294028
