23
0 0
122963249630 -35162479037
48978494954 3630771587
44327780302 3380845267
37825676678 2996561138
39441995553 6516833992
38880158310 6627448830
41122584391 7925318613
40695956562 7853540079
41066930797 8054241385
40532314123 8181838671
40217141835 8143113105
40247222258 8373294160
40614432621 8283310497
40325787075 8440410234
43531054867 9269017475
40567936025 8724856030
34047530676 7388234194
39456203381 8585980076
40245225417 8767906975
39449578831 8908295914
40715951450 12973709549
37323085656 68345639759
