23
0 0
4853955154 -29193411744
10854283407 -17142331355
2526895103 -3299830958
3487610063 -4482829254
2494226958 -3032667601
2894892297 -3181487641
2795997833 -3063623862
3021707999 -3238434798
1488521193 -1594001816
2791789354 -2982789263
2056648746 -2197162365
2923317631 -3123035593
2881430405 -2970381551
2383921100 -2179922018
3065594938 -2769882808
3238199730 -2923501691
4405938371 -3905325303
1239705478 -947003202
4044948802 -2782548239
3742029513 -1640505035
5943470764 -2122026996
60451086947 14083953815
