23
0 0
19395317442 -51326562049
23170876858 -30657773186
23234846698 -28638540161
17206288363 -17330944200
26171438927 -15853469522
27143182260 -16178810362
25942371082 -15307704524
26818317110 -15810578246
25572646586 -15042856204
26630751012 -15453942569
26295294399 -15237872927
26342542057 -14970415249
25469610672 -14233756077
25363974374 -14131158544
26772241673 -14846107442
26408011387 -14644006845
26820811391 -14872383804
27228627495 -15086498090
27380825611 -14538147967
27848993379 -13944151025
39517823312 -12969829572
66211834914 12439552595
