23
0 0
187673500369 129399999501
110300380548 134646589231
99384409097 135380018200
100247204530 142598597033
99493511808 141533778765
100668320384 143205679691
100311241496 143110782254
99948412684 143168560532
99936806876 143237006726
99679484131 142896255398
99946991204 143444428273
99697630453 143363440459
99410583048 143185269175
99243352571 143109847512
99294369862 143254178979
99352449552 143643105968
99580915131 144028826625
99763693689 144691369543
-179031401872 152238640736
59438466478 161273920165
61983912962 172583960637
79262633395 296155955289
