23
0 0
134498347763 -33355494088
18727725392 23633800228
10622383563 16825681739
11062097576 18105098989
10427544055 17111834709
11299164016 18788642616
10534248990 18017212184
10411838025 17821582431
14708007260 25689678952
10084817344 17676270879
10350662519 18176347735
10502272126 18504076094
8068801601 14274559295
10076084217 17954383469
9978379221 18222589921
9860646838 18029150157
8256033882 16014442263
8704644172 20122171608
9656229686 29380551516
8601487990 19956454745
3166126693 12612699991
-15768765606 57421553200
