23
0 0
27944763496 -220024099005
35696910866 -26708507092
31954574581 -21726888749
28175432195 -17647270183
36125249099 -16483084524
36421843523 -16590877607
35967336707 -16281794500
36124711697 -16347879940
35619778631 -16116762145
38777951792 -17545419023
36358567972 -16449596356
36835225180 -16402990601
36027448415 -16190488745
34705867116 -15449629099
36441823783 -16220728275
36438984223 -16218891236
36153501458 -15985078289
36911755925 -16077512121
27787605855 -10421989561
39908627734 -14834605058
42739784775 -15840062943
85463205833 2033043846
