23
0 0
35055693723 167043492279
106760252841 74259753573
-3751316462 112248290298
-7092232562 107134050222
-7610790667 105255195052
-7799357566 106536070132
-7763167832 104996417150
-7879229512 105320222357
-8027156993 105706133056
-8026310079 105326773536
-8428443732 106981334459
-8419143814 106800185072
-8357504035 105739982884
-8268494313 103883653830
-8429853878 105129879699
-8496018035 105947016414
-9637396556 111101443300
-9578817157 107363879400
-10118251286 106785150434
-14936764154 106293427348
-15703065491 110412639209
-36848711525 108648736427
