23
0 0
108398618772 -57651582921
40264482813 -17516123804
58500578862 -5919271193
61574201733 -6053898388
53310276238 -4826283758
48988872820 -4221202130
60373624276 -4745212049
57333914297 -1984373418
58144754466 -1824951087
57578483218 -1645781127
56977595598 -1623964930
58087770159 -1328593973
57183608482 -1238602609
56519593116 -1192047186
57445870510 -1174083178
57389277245 -833609560
59081761778 -1167865800
58938278368 -746148571
76299424083 2060079056
54307037170 8675810806
132671359803 32807553660
23358642009 114663552507
