32
0 0
322552835528477925000 44938075826854870000
223167170956230096800 121128076869206266500
223160258828978668900 121535286612403336000
229298615483012191500 127968321323927574245
226569172764916790500 128469384984848160950
227160135461765081000 131421339007899125600
226878577107061618500 131876375645754830950
224400980650904416550 130669321490364006900
224125024415130794750 129711873375190340450
220588307080709309550 127692915087128104134
223836761440182954500 130352874798068887000
223839956976630303950 130395623307195599800
220596022900724613050 127702708507177374372
223185749648508408100 130357197385623357550
222809895913456736800 130721959650658664850
223398459733262758250 131346739231486371400
223378641037488072950 131364623624659133800
224458281355076371650 132585846015550137800
221110517313258605350 129218614703243113950
214981498183208875250 126989361531607781950
218697838692488961100 129219194611146999900
214674714661125577500 126874330216522510200
218580078126825731650 129189101834415743900
221706576486256123300 131285826205539785900
221721260787533488950 131336666664034396600
220235506174486996755 131916319045789813950
220222351623120217525 132018748114794829750
104082106408868340000 212172111627758865000
207704925741003424500 166545943295193823000
239713353236851341000 193733328059309825000
781240731529029905000 697448178889414580000
