23
0 0
60196778256 38556703311
23679650344 31913889446
26290664143 35682333424
20794019473 30929601265
20734052552 30858777649
21010753481 34949659241
20869312157 34803738669
20882883739 34986148799
21045766639 35479071632
20691036162 34899265585
20702143997 34959499594
20696002444 35225084294
20561758831 34997171128
20314283684 34580299760
20558657269 35126268389
20698904348 35474053398
20209200608 35144693421
22024372597 38307471078
19860854121 34612618415
18935541110 38303194728
-150105073851 39315914049
-42379622513 150724918638
