23
0 0
13913971494451099500 -52903452760580196700
8706102140052179900 -28975656168675083700
8198487185904135200 -15527518348523293700
-268057820324238225500 -89197809219646253700
3351849757266352810 -3683625157643278750
3275800622123680570 -3656017571010740480
3338295780952115430 -3649714735156686790
3071503327090236320 -3349027175653713980
3251909958267654410 -3545335762791532630
3610250501383968740 -3744162074428277010
2181870646429320530 -2257805943802478800
3489798342123569960 -3604888368703567930
3200086512222563770 -3305465087706382690
2625150952221222941 -2710805916159681300
3481385468067508350 -3594876541138549870
3221947394305342180 -3280202949974311400
3587739238765676220 -3634554238178462160
2403822335689555250 -2364448263920579600
1938596630008421590 -1723745084829186100
3578546797967923430 -3173145903119943460
11526203407210736500 -6644040566124514400
29756129301271024500 5918824366941486600
