32
0 0
13135861181091100 189354817698558187
-100998731799373600 532590764058957527
-212564378972777900 754130888890096437
-783690005998859400 1498851539734014847
-822333058062950500 1546777169368115547
1711372828020436200 759250681772742477
1716457261120679870 764081472313702127
1753237114920791930 784892768827470027
1818268553460380850 891446576430143547
1901032186037863840 981850893792876277
1982014378768276370 1076096444417235247
1992021175659388230 1446321166576151947
2039335233896554160 1484560570569656647
2089234767724550460 1540515201883744347
2304318340173680070 1815324192213643747
2517766793771890300 -7401692619677391
2627474630990833900 3706560500908340
2737842795300321400 13452582680747199
2774646142411634300 15484424031598026
2840512297207962200 158725340638663117
2925787268626332200 165340923760023237
3164858054964810900 181360946521437867
3194161885132459100 188812958392294097
3273890465179801200 194546505159830777
3439183132362942800 206620933033351907
2244059296195403300 -1859543927517254253
2347006911983079780 -1879069389861481653
2586877573736957200 -1942621398460292153
2650179808639401800 -1977611956814912853
2753080615459986300 -2052139121037272753
1996337815907186950 -1861105266376967753
