23
0 0
4899691148504656900 -4903144766230288400
4451670917099461250 -3581221397513082300
3178922344779386910 -2244245958580350230
2547126945061500300 -1773997158048797020
3680398678618371129 -1303683033377901679
3649471630328888281 -1267594973548276661
3667401399908110324 -1265392121669784694
3728575430864592706 -1283896163926150350
3708366584275841369 -1263625337395537610
3658919534354427334 -1245576145883770250
3598532436182211360 -1222829996792242580
3680687674400950984 -1237206879792197898
3732050604538914600 -1218295395969338109
3624350742017543050 -1159811903568296861
3680731025916933072 -1177783406873775767
3777605104276669570 -1200668685803144249
3752293353477130690 -1186103638357182324
16564386707487145500 -5228124743070144400
3540708398724395254 -1055340347279261130
3744826148342689520 -1088560149304382820
4692465245832830200 -527510552403352940
6834713382578597700 11049435567848231000
