32
0 0
432664564160425270000 259009339835074719000
418655639872984607000 273215868332705724500
384826397858565534450 299244334655286106000
396316205828812997500 308433004611681501900
385691637043757731450 306404735979430438750
395378177239624512000 310318149759161974700
381350665331749499630 299530485332550478000
384351137570102284250 305921253149207883370
385021051410090485650 307367371308023888800
386242941666241947650 308066023369616679950
384750447964084879500 307354014383983175350
387883527238317322000 309881942246077090300
383604579851602125200 305619819768439547453
383948292110721378350 306755430165073378600
386542825177126472900 310113384419449050150
386270598826087001750 310243678011085911400
386741503088716778500 310369722629859909050
386646052403655279000 310806216361485472500
383970698038010687300 306817961584850086150
378380112808048638400 304185326787135531350
381716449261897865000 307237582497289303300
369147197934772743500 299787173776872645000
369282930215843731500 299899610183879169500
381935820769581691975 310434583139899048350
380422703751217817050 311251286226012424000
380699924473290227300 313473176900065670000
379767201034014844700 312369770333500088500
38027864495686115000 796785656774619725000
389337582697640339500 323737030662246727000
419017934322412151500 359367118693303565000
640315781068924250000 635675642176030690000
