23
0 0
-14443223950668454000 149506440084709686000
-28836400139044739000 92585736973986024200
-41875983654598657300 86086968743049188900
-41428694757146446200 84781627276225449500
-40657728692702604000 82710861526219530160
-42911207726177474820 83334412407189473470
-43168247381888100410 83700762317967626940
-43386858916086776570 83819511233774785560
-43551932068872159650 83808686340188227890
-43465202887438153200 83641689431538110380
-43231278504287247020 83402771551922962990
-43466204863505469360 83639589598421479200
-42948254362000879730 82565160877241289340
-43092592918459587230 82839836421042358427
-43509895206647489720 83636338760357082860
-43348500692896161940 83323245233036475880
-36109469175404237600 49997603667231828000
-43344343290737254150 82828338489287041150
-43735511788903462372 83079689727251672980
-49916263410455414700 59489998950727391000
-57656663639114018000 63510712987618032000
-175241207690133832000 76564523180588873000
