19
0 0
848600816581046270 -1939418651547326864
-66605962394835540 1081319212884241136
-390997055108500 99514441830417927
577988550261360420 -1286390020550867064
-60853068221801410 1059483753210134136
-14957368460734474930 65599457093292182136
-28841476618366470930 -10822649613957333864
52925303497218078070 -173466444786773043864
261357078642987430 2029964052277647836
-515661015785365560 1658645386135667436
12848711708421334070 -50293649758190366864
-11987995898977373930 -4452623203480351964
21223842786262855070 -69194369045435160864
-3147940660146067630 14434126312765591136
1146519457937340970 -3736310406039535064
97994367535907220 1120862734001107536
-266755739003857707 984251473878470626
168442150005754510 62833208471753341
