19
0 0
118677934342497229 -291924450767242239
-2241370980892063 87232856546984231
319490891281911 6708851155889824
87449572470222289 -213077403535076339
218174036629893 78850220576152903
-1542440564403776551 6462147565208137761
-1973810151472766051 -746718726653948449
5330744936972824049 -16604233101793682239
45756387468531341 199608791068802941
-50170421343262758 152149241297117281
1116878260283189649 -4010857021688774239
-910460127714690861 -341633213265009709
1823644781852636849 -5640576234332949339
-421478362152782661 1823218787626097161
142771911375584729 -441438555636295229
18391690728480357 85498400977196141
-20650350265829991 72290037085968429
17259504962381853 6501063249897936
