19
0 0
-38817693087817060 723407379942055900
-645898014858870440 328086581640670968
-78114200988002150 62598573745193420
-53972547697827090 624459210617525830
-552628959260858200 364436177220007559
-5424732748297108700 52983687036149390
2627663462101266500 -4001040832342690370
2112353578249155800 4999551106889265830
-1237200136577861200 1074163137214884810
-350470189435766870 -885120936507391170
902954618066940500 862451760875232720
1451278383551437700 -2233548150767109270
1169852554276536700 3097025403444371330
-3305846645774661100 188016708905465670
235763945389339650 660769930940530910
-728943212033875730 597199980475405790
-191536441302151594 -206475949833209920
-228238569315562500 350497987194242230
