19
0 0
1309307218072868200 652862749981349658
89257882368016970 1460324687200110820
33323514838613550 119044256671253740
1189550110201620550 622199632039349874
175691475400651020 1371943548470856910
-5851050153920940 7706780217596348390
-5362034706671973930 -3205594516888935310
6766450857266776970 -2387998263525953910
1518578663434501470 2898771996457364790
-1960392302355394730 518604451931965300
1840378739361777370 -1304189011207869510
-3088325107742701330 -1361097455974930310
4032214745844879570 -1341156520481678310
454675462338707965 4815441413638068590
1369255669925608470 -446822165087758410
1011638729050027400 2062084026956686090
-982329298534750930 497925575312533570
466188366813628270 704395812393820190
