32
0 0
528848411735796522000 -394875675312601100000
53083752951635141900 -29018778335108755000
55348598439918449200 -29171698605687265400
55418578043421284500 -29184841588918954800
55464508878386527500 -29193485074248860100
71117778854911609000 -37427246054315410900
56177302027767545700 -29562580761159466580
68347163169163600600 -31671302692599947300
77446613764028712000 -33354754754747843400
59525984702924767220 -25595633640908132000
62833570492737025400 -27008959251300628500
74519280334900936000 -30536380392164099900
60371151229539798121 -25873747822785673000
90755450128224251000 -35820470753456936900
75054289146218572000 -29485224304011634010
57694787075726261600 -22492052080039347600
67836899632124476200 -27545604537132093300
62589844313772717400 -24345534845452723400
27434549700246699000 -9395764194044027000
67335773878409291700 -26037192922679879100
59695572840248917790 -22587495540595694800
51204802775199379300 -17412072856273397000
71919439632276184000 -24370202901667141600
66367231881143792900 -22465384370394969000
66058612331914916100 -22197937871078954200
66051421697792903000 -22159368021912076200
59954600862124715610 -16153985296651489000
64503561424897510500 -12755490074736610000
61967344279347675500 -8629122048160600000
60993007641585704020 -6945914073959510000
61357234658809123100 3072065637620512000
