23
0 0
108772867551 -109524797559
97981813866 -72097138727
96198629188 -70336369760
95221533515 -66806208160
94555753292 -65661073683
94679698260 -65633834026
94715309300 -65631853318
94605002087 -65387532945
94810545373 -65382900160
93544979309 -64509230840
94267016795 -64753715707
94256483119 -64722921029
94332712885 -64751974001
94169253867 -64564486751
94198409622 -64566406178
90657054917 -56240770258
94589624344 -64740919592
94527553153 -64557314038
96069631173 -65592833258
96031183522 -65366297654
96157999381 -65341118380
126708367076 -64695252793
