29
0 0
355781609078016570000 -76361864158701521900
228434436151370331000 -43526361640120145900
182434686924353797000 -34323256276797863900
208791179505435504000 2030455307296906400
205321079083482640500 2014495318197448600
207545336025344397300 3444527152580459300
206151953664774606000 4319799026388957200
209284030284540501300 4537662061185100800
207717522156397350090 5609973284833787275
208026945232760994440 5638766672645662612
210775092148275390700 4606678720134379300
208262611070639589040 6037251401152353730
207554032154968792990 6021864362852835960
207845318598398983010 6090745387739962070
209633815610160454000 6204163191083126070
203186107035728609300 6032849208266775360
207653446907250329240 6366848767019721030
206354033273775179200 6392647130188983500
208164743171829419540 6467684170802947810
207948975945158232250 6534651829053298210
208615044672437456800 7712114504945946100
207371342869289267369 7677239659597208600
210590067530013091800 9790761662203065900
204870618277269137500 9801731828866622500
209228537841996661300 11234525792821068500
238364342099559316000 39254887387167119100
179851470794088512000 49130368932108675100
222811609368261931000 62420160624230809100
