26
0 0
-10499663375483433150 -645902041766226358500
-5876316196759064000 -659224668162708288000
-5673916362525654000 -659752481577035902000
-11337212852565120400 -666122608475574552500
-11330578074754373250 -667279244087579264000
-37148745921661142000 -653221350820095879500
-8177349265007390650 -670440942393477737250
-11325093150535284050 -669087355049692209100
-10470024852897514550 -669570922403188909300
-9351815801062917950 -670107383855889183100
-9352406793937020300 -670112092661668420600
-10470587868025177750 -669610755490787273650
-22994126514158329500 -665358856828014882500
-22840866803545088500 -665541027307439626500
-11519731219029004800 -669397749029181921050
-10210840565757726300 -670640429651442486800
-11411049467488878450 -670211699432717799700
-10889837059162382250 -670427611006147548900
-9285924658182420600 -671009509864659353700
-12102753924417170315 -680770098807931580500
-12045623027982164227 -680672589681573602500
-11734670528549884800 -680714614864349895000
-8475059212858111850 -671413357128903346000
2508363970646034000 -675900381440328526000
44498923023175867000 -697813567689591377500
