23
0 0
69154048372725592000 23351480215764824990
31258188018021068000 23315795514332216190
254490101503397993000 -130880483368628639000
17867431888959673000 23339763304483676170
19180797757443520800 25195211878386952800
17321602589380311000 23293976351538544680
17296502901368452900 23339488179058774790
15334139849190293980 21296453556932753600
17370245157067937200 24139093628594432200
17026393426517110480 23952007374946435010
16922238443134569980 23957432847718662920
16476597320382210080 23338952956552911280
16670264138221805110 23723526525354055390
15915493821799705090 22955170799772069700
15934394181211423300 23339284389602528950
16267163829781407887 23966551537991924890
16707301582753516310 24672307249124259200
15652704925081325210 23122137816431273829
16511875551934270570 24636968819793436400
16185463272194287833 24833993130472129500
16339425018008896941 25850471161154255600
-92668847071714617000 91153387527709171000
