23
0 0
134167203044636684200 -11519009628917504800
133520395568641520100 -10101726768859099400
125716716232945391800 -8547614031438805700
130066578688557712130 -2447712210929026761
129192774845370865990 -2613225428590386360
113803071545388870000 -6175851655376081700
129901566277725773230 -2263942332804775290
130396746114216132690 -2255497229190845330
130256478514123876750 -2204855352558192080
129381876466137351043 -2178491845351601300
130185571077906290560 -2104957697169515690
130641431942691856200 -2087129782549221040
129846504008425951600 -2059201198045074010
128292691221931941600 -2023800935204266120
129576112212275140960 -1373655432560223600
130799431871610354800 -1790958622915246550
128672077433290404760 -774547450816941900
131578381708385844700 -2059403517707980630
127619281872397647800 -38494943456031900
132240866717012188300 -18759200989203900
140390439319806128000 239028149979048700
226152520934538831000 49766505846355961300
