23
0 0
69846298778 -52684514836
74177317937 -44378275684
74871203507 -37649750337
79905397574 -33415908791
80103047558 -32071487174
74023588235 -30919767284
80250885879 -32055261577
80629675433 -32156833780
80615961338 -32127188035
80299801321 -31858858776
80654224908 -31964990068
81545921829 -32300677303
80498374802 -31884377286
79734463290 -31581441576
80812023228 -31291609710
81899389342 -32022075111
80845835341 -30942850232
82695878684 -32744375847
81097752167 -28631401695
84869047407 -29777631474
123806927782 -40257932070
308344680510 77139307204
