23
0 0
60664025110 31023565399
21412779103 35026078796
20380382255 27936758337
20430937904 35823336465
20625343413 36325429263
19965302376 35596949550
19967323415 35813393625
17442400751 31324915550
20071005337 36396889315
19490559765 35432201394
19156653116 34892911147
19711511052 35907555358
19104849495 35160708511
18733596380 34691571385
19443519721 35784923709
18734826123 36037043539
17616602379 34089751656
19982993443 36416680911
18746018108 37193906648
18282467419 38230952477
17849576248 37828562524
15762975227 42241787597
