29
0 0
-109548612448831300000 -1666663844176998880000
245091651203840608000 -1173120066432126920000
132768680995581890000 -575412268772091111000
291200797119651550100 -581485578264045558000
261727962658415267000 -558717142085455520840
296344345358073287570 -582565728496264609000
293113893080131970800 -557265359770848797700
295955202241865741930 -574374137127138366000
293612890682355762700 -550287007098984175600
301920864476900854200 -565543926901369491900
305879674348375332100 -572773459291140752000
296440602287638384121 -554974978027949958500
295229500599595690400 -551920928709105261700
298007218034883296400 -557000768777915308100
296475891822434749772 -551014290087592765900
298253087514295043700 -553693630619379271200
300705844122631033600 -556458472017198878400
299117898602266278000 -551105309779342975200
301232611156615597700 -554411949698240594200
295124768900021150600 -528882620460035342000
307189721872896881000 -556445083347644671200
300303193819794932600 -537585246833328658000
309453885851764295000 -548877437398545637000
310532544702062552000 -545312835515906675000
313406634390547114000 -548476406062828191000
786781285031660670000 -727696164481232330000
563713950458823610000 229303667123099900000
1696973263919329630000 -760514910022150000
