29
0 0
-141011256711601981000 93941821414064873800
-73343914694214382000 42650936340612878800
-45830974909293905000 25978878180932312800
-90551737211111695410 5393352208072929700
-92569576009768369200 4625171513364364600
-89855534884144516900 4481423295491772700
-91181308532077808180 4245798244357431200
-90311082746333176700 4062691930189896500
-90878901907117619210 3356106488747021710
-91945194470431239550 3465179410428140350
-90613199551124825630 3325310569134771540
-90842406804484611040 3291870899132201320
-91003376968344732560 3295229807567220680
-90960701339181680270 3221236734391336020
-91060375757184975130 3208008254844453040
-89110364936463855200 3132294442266085680
-90900010235832283400 3192307915917304110
-93446482050545825200 3183599366826371190
-90999497996785259550 3098440878255962860
-91086161391990444110 3097131658120245640
-91594265818322238090 2804383010438867150
-90887140816318516230 2889394363543856790
-91333882503878192887 2569854090997099167
-91709359459815766060 1566100336848423200
-92625207661011774700 1560849792115508200
-157476670810378664000 -6411850129813839100
-108231622338921582000 -38077986555266408200
-171109499584015645000 -72325328364257961200
