23
0 0
944236844109896506000 429621661096161529000
1183602742005721000 518300940028219407000
-835251659831473000 504444791670564138900
-1145012047720599000 515074571705539732600
-3652186863872806800 518686659872165711000
-4148690690901659900 502435123441034748700
-4394959439528193700 512016154466170227600
-4491295828736318000 510518674671039299600
-6308098426262369800 514404516392639769300
-6232183033231361900 507929298607023777873
-7244630844419629500 510734596405430813600
-7956491598193590600 519373575408563087000
-8583638725958655700 514119959450692042100
-8017462373933488900 476342456349897038000
-9083406829490081400 509876363301665482200
-13916169454784793280 526266069466168784000
-9725967175994995500 533726620485383578000
-10642561390657074200 497634816342429462000
-17122436517770695900 535173975011651657000
-16709763180264337200 521298820610568017000
-247593547065768724000 122416461065971360000
-49379248574603159000 623878558983103600000
