19
0 0
796147624231960020 -522798213643940080
1224664614518777150 996028768529531880
122074791544035400 55829206608943860
732973246192101330 -451877348528800970
1095556032912837950 674628196986913780
19839117489308920150 29960587958583048180
-29200648596933283850 -3456779389066367820
5417240222611057950 -17264184107628113820
6509850845570579950 2042409240117394580
-3541481945331000750 6411161171276800780
-174429883939351611 -2207689562176540720
-15810433623677432850 -1854850674738800020
3127441209308599350 -9009996509523368720
14135130536050669150 21063081003592984180
396489989137912070 -963561217927575070
1544481868745381650 706434533098529580
-77841990407622131 673373511360576780
632048443983506480 74169105511750560
