23
0 0
34914919052 20821834846
16227593132 24585611314
14909344952 22768994353
15158787526 25406624927
15513689127 24763924470
14456232057 24349783546
15035667727 25331209194
14724167323 24814003658
14365094585 24520082092
14522451509 25002867971
13938271937 24007180891
14683068879 25310508220
14275282763 24977239275
13960033759 24151090677
14053055273 24868611955
13959464756 24824135631
14158820438 25429456550
13965213324 25081741478
13345798126 24939495028
13982482355 26129628088
9768540312 30216536067
-13127090430 58583437781
