29
0 0
-190399250849738049000 188925821519954141000
-106094480439974722000 140288871344358961000
-25207011529144196000 99374206947738111000
-114395640454803431400 90381412887367527500
-111055770523786164000 87448170529089236000
-114270453518741860100 87034496136501248600
-115485500556375057301 87360397460065384500
-114211335355532571800 85637089127152400510
-114823469993569048690 85959677570270303340
-116945925320625981300 88420183323908234600
-116025855535025151080 86771940231751562900
-114653211973629000470 85741633706152666480
-115145101221892231270 86043096665704088610
-114940848174456345720 85703496899279243570
-115254345937463669360 85879857200681312230
-114816890684555734840 85547455889491911420
-115007570342766032210 85510534681131726400
-114135237571718640100 84583268698109411840
-114725723351161276040 85011269805803052810
-115202366794895902350 85636348056328621040
-117521729199072214900 87082265602358196900
-115906270017945696610 85794430799148900730
-115287359755547338520 85298920684962877747
-115021404351981358170 84394156488622186950
-116258112798226594540 85177395249907487500
-134536149864318636000 96382661590570678000
-119386378850436845100 47641737340335215000
-154440291102118837000 58562895587468933000
