23
0 0
63475017188347766000 17993440074153962800
22821256997163050000 23721717021690251440
15981939442666147800 22833626088197352300
16566319940058187400 25445766888076906900
16552094625197798900 24688805003664471590
15549952226861300410 24243373437917589523
16134277243633568900 25176134073865946170
15804267373392806700 24663743947685820010
15465715514113005600 24400496157565793240
15603933787602338650 24825682042566846470
15023853296211385770 23905968384573331590
15804128494071069200 25151293008399128440
15387456497181164880 24765768640881021090
15045055879929847850 24001614471373503380
15176918223473550200 24643927446466639750
15072237106460081440 24584244839098377030
15297143810490799300 25115881635060084990
15084641629081309950 24813209424303094010
14489988798446527790 24629899180373727890
15135617876581638440 25767105218294518200
10918402103421490700 29107929285672526200
4385416429869207000 35867480504620076000
