29
0 0
-199618012028624814000 104996364093086447000
-196061434408968811000 61918267775914520000
-146346086624518814000 76159188874829209000
-176388350392964294360 48714651396215611600
-178038606884510320500 47207595811141142000
-173284052471542872000 47384252887446633500
-174458824906138959700 46179880875998428900
-173260560428548838100 45228848852984644770
-175584492734090735323 45829904616679116500
-171807415687696670600 44424824833179918949
-174872045738995292770 45052422477394237710
-174664544530962184540 44934376613105324430
-176213554563826112210 45316694356569403990
-175093952095050427640 45012050889527180610
-174934479469592673110 44856936631911620860
-175197747058442969330 44814108616351905660
-174637482099326013200 44661677332202115800
-174842805452875120980 44566078969104475530
-175118505585355282450 44635876140387608090
-173889526162953153400 44034357496958179020
-177754504370991801400 44693399418604341510
-176147428201225587280 44279387339345687359
-175102913949236878370 43726322993113096340
-173146886442476991700 42689426654786256700
-176349084848508503890 43334952036957791900
-200465451955477361000 36209075877066639300
-160652027947999941000 22372934922731093000
-208776788354043431000 -4554488029657359000
