23
0 0
83847187625 -14962158272
77786544518 -2185315132
77255607191 -1590745419
77219137314 -1462692799
77401060911 -1380515352
76747691227 -62439810
75921158359 -53499618
76434122930 67317854
80852375692 153820108
77062779800 164079923
76776615358 365799954
76276689733 367663232
78241495446 677305423
76482054401 671127928
74759308761 764573409
75128855180 836275362
77882613862 870938469
78707008277 1504760610
76763812714 1551379784
93038299647 8155427773
62022532539 13125480454
138522822742 29408510113
