23
0 0
36451529353 78033190149
33504091953 77230559062
31012953907 71647897311
28390690607 74659169101
28400426447 75778041143
27819533691 75086047604
27777309370 75697394260
27678509378 75602470607
27776081713 75978467096
27652379918 75840208609
26948415175 73914457251
27528387785 75625870158
27245662858 75179088385
27566704839 76213570968
27420054035 75893438654
27241580957 75910748125
27247640708 76153987570
-128561168759 98647220306
28625090407 80049445150
16564382276 87038000695
26699595364 95878883903
24707893519 136012245644
