26
0 0
-5726982506 -3165675554
-5717713231 -3302567672
-5854496171 -3225338515
-5854700524 -3225058509
-5762367237 -3781038971
-5831007078 -3843922939
-6174525835 -3401663914
-5563170674 -4403136040
-5355122529 -4702859673
-5373385975 -4698367344
-5639052336 -4398838540
-5804231871 -4430026746
-5809992402 -4581293110
-7579721911 -4143982656
-7550896695 -4163124143
-7697982913 -4238754532
-5644988236 -4712675303
-5584781899 -5157744921
-7722529965 -4258045217
-9812396049 -4886529513
-9632201581 -4911759129
-9208427356 -5004265370
-4868860490 -5533738149
-4586682259 -5660779153
-3761080527 -6692371070
