23
0 0
5131294258692950900 5744296073674665420
4276796734709109030 6029396121080474560
4176615213721994140 6045911092996583180
3702937718159922917 5626277117571337000
3678548914445446580 6129809793042938792
4160537572725515400 6961791862174748050
3735688442788571073 6261145271751445988
3759127871873944330 6354400268017066230
3690223449732131058 6200511585557016906
3697892156572104018 6252691486262056776
3621088695917349229 6135067398006269156
3674270721206017629 6226770826780587017
3712109220691290223 6291208500946230270
3706645659431954598 6299796615775076160
3688806759129309782 6273570815390772390
3670736654628474993 6252492009834916195
1503505491222099400 3782910800980382300
3633525746437983909 6217084467392658104
3630100158445636877 6329480070438949010
3593980305548448635 6291896606074367200
3620801240252334916 6457516370678356210
-366552126830635000 13757963171378191800
