29
0 0
1777679432024199050000 -383048124423681238500
1157334737433352130000 -223386333073077688500
922547939419041085000 -169555398748458008500
1057345800461046215500 11573718229306909000
1039764816073256771500 11647449870140285000
1050908246005276129900 18671208527211334500
1044573409463694872150 23243820277623278000
1058938830423273675500 23573385209655522500
1051800050148391923350 29203849813965999581
1053175574929482190450 29250191082570404055
1066507377914714299500 23766726187912115500
1054022522450875978300 31163626944987045000
1051073148638057955150 31084334189841590050
1052351881699462965900 31280088463545230000
1060203196682921846000 32350274352865293750
1029531667672855781000 31454767487654273450
1051395066097401851400 32615796398826827250
1045017700289723658450 32873181593968009800
1053912927666122596500 33225156333104519350
1052516320684543940550 33516585493578733650
1055892556232004477500 39320086276156630000
1049070846992198550840 39212533760015173000
1065303661671639544500 49785023788151424000
1037880522782674623500 48511931639757563000
1059443916567806961000 56834492252613810000
1201265555244376170000 202925364261805176500
918636956710506550000 245226735968908676500
1126398977805088635000 316095157894022771500
