23
0 0
1059615748 -46338970737
24831360660 -31254228894
24888101417 -30969085808
23182852457 -28794730526
26688792579 -30256621792
26810601720 -30310096644
26738817860 -29845546295
26946556146 -30030908024
26519158848 -29554134585
27687290965 -30852572155
27058436068 -30137848353
27632059096 -30652823610
26952777406 -29879005546
26632079050 -29447759783
27237480192 -30069702257
27288994024 -30036318151
27434796401 -29949070579
27763341577 -30153862429
26121804768 -21330197616
29638867251 -30418822347
55480875291 -42900055800
149495043238 -49126975256
