23
0 0
-1931275406357568000 -37771972820232713300
23843636314168413550 -4648112420251925950
21835009350284704850 -4143151901161275650
23463473434333983220 -3318654904445739950
23746345389280739095 -3210510732192985169
23410899292702918430 -3140954813820770600
23522470814190205105 -3136566253215375035
23591376961092032830 -3143532489476732250
23743016595913757695 -3145449017153957530
23881516736101005600 -3148114318786399570
24312178292501573650 -3159864299055660730
23640418067170166285 -3065725922781770720
23718015230681277385 -3070906076743335470
23753114183397931475 -3027367175529403180
22983847264790230630 -2286724883773778450
24027569881224796850 -2964459156246890340
23134342021973588460 -2281028571746205950
23696393138723211530 -2146961842121544700
23760852937138018505 -1316919967029729900
26688232550563486900 -1289435668759609000
29658912016512436000 -1038055402526666500
64325742662505394000 10964990211088311700
