29
0 0
-4847132797976408100000 4858698124468636900000
-3924050452144663880000 3917434460213939320000
-3520688925102969690000 3507333068840126120000
-4064059864010462222000 3421836604875484425000
-4051531405671503476000 3399896351434620781000
-4062575328700486119000 3403300042840994063000
-4073788314742097785800 3410113021402734325000
-4060811878113128932000 3387098100119347701200
-4068668383743142056400 3393205946953921207400
-4086912669180253166000 3418248523562129911000
-4082445159661095890000 3402804258893308844000
-4067344036007803687000 3389849346813119088700
-4072518044694423429300 3394014732925827539000
-4070620212150485737800 3389509850567655817200
-4074874043234774927500 3391504459800043917600
-4068414734305431059000 3385933147881145611600
-4071631790697954283900 3384883525475950151600
-4058416803943261291000 3366953434051818202000
-4067668282061610955600 3374628647552002341200
-4074317803418267467100 3386819636321491408300
-4101552519794738854000 3402715140765032210000
-4086288049137742834600 3388397059969422328300
-4077642351095296259473 3376255794254896167700
-4073944332082484996500 3356136953525985486000
-4096091737213563219000 3372858186671176419000
-4367916598482284670000 3536316000202604290000
-4134353353967785834000 2997358945140229790000
-4369856743939444710000 3126054783263221130000
