29
0 0
-208522869965800756000 118423959064884563000
-131967295274988887000 68503132186559691000
-105013398266298539000 51096849582609713000
-150935492941643923500 22093974075414399100
-153932442735863619400 21410368639669047100
-149699365134085601600 20815234952503496900
-151795327520166521670 20011473452142825500
-151272024426590295500 19759229696520947900
-151812161170074141760 18784897129291904340
-152847059651816165900 18884524224201707650
-151377887547421371390 18663923009513416320
-151788916342155285930 18668677368467412150
-151984783028847592290 18676871175026402130
-151930688161747739970 18554683233901411310
-152058318666688821940 18561556740886139590
-150587153278828236700 18337724787514389130
-151866800231161426910 18484592827972513360
-155176163133859790900 18794978592412639450
-151984888546995397240 18391226056782630770
-152085453534474643000 18403215754206344020
-152532516876630073860 18132190132523258230
-151862313106948612350 18027973489423750847
-152295649128282736508 17904663576061414371
-152727579895930549650 16408199119603307700
-154033775557781717100 16489732995259869300
-197351853525918672000 18720948890838294170
-168890310555028647000 -32827950062081970000
-256513541914695060000 -77687104809539124000
