19
0 0
-71438281669449460 698336370825493840
-686924230396729340 282504370484382196
-61055605808757980 37740147682699330
-76911939595950490 578573264872817060
-581779382826050150 328295987775746921
-5222937658979218630 -178985283513302170
1856586694270099470 -2489081295741508000
1861398296115522170 4882541165886775000
-1637425881326021530 1394536895824359800
-446824855392740040 -1238413735612831200
1404825302980610770 998888492834137980
1566265215680963770 -2105953176687985800
1496216870534138270 4081170137867686500
-3682542411406177330 -13888372688121200
204705373244284730 595844184264760420
-753106204288732390 539763892585412410
-161381154559099151 -213873872677414270
-243287128237140512 326906765657105989
