29
0 0
-28521675888022316400 30850075560033856000
-19457254571889978900 27720957435572223500
-869326029126200000 21730618056295485700
-21362932822415856270 19470553374329374600
-21173294931882019540 19244614436933898880
-21350850966888819870 19277204255247838290
-21467337578906743647 19353626051770051470
-21338140418093902640 19145116427953178151
-21400092750487965772 19193101605003103438
-21592843683838379320 19454516393223603460
-21528963443411544417 19308540311412272490
-21386858231774519324 19165298049884305945
-21434525009740723976 19204890032123263841
-21411902897560797836 19163809041049496125
-21447360943022730360 19185751663239040877
-21395166270896995782 19138754182595486506
-21418756541168121510 19134664334307967504
-21324566542016579150 19017252495122994500
-21386365695674246395 19068710160739049140
-21440060905595989409 19151318709740278801
-21723490239583177750 19344042751575545680
-21537296165476870967 19174704759297111439
-21463812593210641082 19082887533721552089
-21432194713890040250 18972814880368349330
-21587763811252790720 19104831793124260968
-25175267831346067700 21597894026256275700
-22011332678238408770 15019306956731523800
-25766530908707436500 16438870151111613400
