23
0 0
6130051620757461860 -10768626507051399100
7020516849379309690 -4380387836743308250
6415771431469575165 -3916709044050603010
6518799535176003578 -3693370368258804910
6612941834517109190 -3672538820919843590
6308672817791500540 -3408084779551254020
6463276102508265539 -3450929070694620514
6475938220048676405 -3456643049104227366
7128944934302403360 -3756962843936911220
6636609822793874300 -3493018704376574191
6526359804559897057 -3434705436622522140
6431263697763446289 -3382972079057100860
6465637908193811174 -3399089932247025870
6180812438914777910 -3241747433803234260
6454214881053340851 -3377151864123372420
6277500158292259350 -3264323579879096070
6536667218618969468 -3389448475002967930
6796886989731393360 -3341332710424203990
6717990761256152410 -3224464725438581880
5794934049612917070 -1301175115027856400
8208031309566698400 -3143075165334337440
15697991731371634000 -2067904168257146800
