23
0 0
344805095751066576000 217862756134819030000
303849137103198248000 192406237064220872000
241932612362459002200 260374541031632192000
238749060495269789000 259672402975760556800
240062478321604893600 267850049012911655600
233740862516755969600 265465751812351292620
235601833393237943200 262977925633505368000
233260520363008278100 265290070426158902080
232190807797843063140 264255437482878165100
233179974467150216020 265504797929468582180
232568501444250777780 265009819003069162561
233320844081829365380 265930260533751531460
232732689137863701420 265957353103757015200
232002960182056177820 265750684755701198420
232454806615886333360 266306580247079946620
231198838255763954760 265682605126127017800
231648497451364038678 266207720617885569820
203599453481577930000 272905014733277586000
206910174355311964000 277608016544085384200
211792780619970829800 293539905265326442000
191786781627720532000 317256861091751770000
152582726029651136000 371465783992803844000
