23
0 0
273827414049377772000 -217482132321350674000
265799699562073269300 -192847864333335317400
264276043969729022600 -191460536936165799700
263800282764971454700 -189723497023667977470
263145106262576047540 -188835323887701384720
263303705755291804600 -188814488927220427350
263345283610799719080 -188812512236380121880
263261432067137473520 -188667495817452353860
263486166640820175340 -188667278992662596660
262065800701675350620 -187785085864694230100
262897863899698676180 -188083625651442864200
262888344426564953080 -188057753634512710200
262980266982057984890 -188098948878383746500
262689816480857046223 -187840539672874341200
262799164951223014660 -187848751032227360700
259154684128196049900 -180513845997906237300
263240258107324139620 -188092163726015707800
263142608620150916690 -187863367466218712900
264478430033710918600 -188815608686312606820
264445772167681953700 -188674183993779679510
264589517863707341600 -188656466164733666850
282503144157130270000 -188767502739953158710
