32
0 0
7010778239929412280 5214158292046965180
783787572546826080 664953815133631830
747346470325701750 781905726159593960
746990417073348390 784258999616520250
746922270166411840 784739864449671757
988366306702440060 962023184443760130
748132314324579290 786656494117541244
747910853674751250 899790980127556225
732645926300361770 914455412888826170
665527019227034710 834431798285940377
673436153719947656 844475600627065957
708997117924189057 905766094985322710
673224195478918707 844225210913554337
747829661758822970 955913606166063440
708504301026481668 905755854622142560
645470388189266943 825210637472536162
693007792650843683 886067469210113817
659896389468035524 845335144410329963
411249643869493620 539436833612839160
690067500048379375 885309429256333416
649472656524940498 835723427716576484
581371188472637092 775986632192909923
673858043765952505 905392177714310421
651211980363264772 875559825645133364
642213404971854370 870823199382779386
639812059422307372 872451619301792590
590464927428603092 848593432732680824
567296691960452143 854533434509172199
566373653082053538 854198976298199884
558826453069981951 851469646402869765
-7822518780564760520 1550540767048837260
