32
0 0
1823353320333495470 3797646625843214530
-37816687396918000 970584888470229396
-39797559187064050 974559689413842223
-40108043224034470 975645739654312163
-40195035659636710 975951153207432935
-23697541889692410 1035493531672106424
-40362865151246460 979208087812740972
-54446281993957109 1026655255102783843
-63758407416316874 1058848743792963203
-61235305402126384 986662736180972632
-61815920289166920 994531210876172682
-75249755017919511 1052381245407371482
-61744481636701001 988985805470670767
-127420070599666558 1280429123208044830
-81930811912363626 1056148503963879042
-64896379693634310 985103287195963772
-77889963179434836 1035350898494586660
-75107180103013716 997017795781105989
-82342613960362301 826323113818816870
-82301586961313587 1035278858677650564
-99832338589192183 999805285247346897
-88056167615332615 877454729836144584
-111064094098663620 1073319543852605250
-108115362833895024 1035397926098447125
-118286823588407511 1027533507118449216
-120393727815846821 1027660599150250184
-157047120590812189 1007532762771120953
-205455704529933017 1036036486780133268
-211210463129286157 1035196052533443474
-253911243479680100 1029610266619293124
-316891347661655520 1043410598431362126
