23
0 0
89019699570790932000 -7470314441302467000
71292863496544484450 8723395336433462050
71275941720533460750 9016617819379400500
59108015579096654000 1381612401119334000
52490119519226813000 1407647402858379000
71230688278269833950 9036816780794919370
70922500969525945290 9172307443181573505
70541852733162916965 9372825632437859290
70715045925149663460 9400503253780063710
70557713267301901445 9384441813585884010
70463861189051041540 9373957521391530335
70832159372192163690 9483888068170077790
70585399184086809523 9459830691804589775
70754766138400692620 9486248033734471875
70404073610412568415 9439767552550081665
70788784323496592930 9619787004287180545
71121912739598519045 9541593841673888025
71096136974469950215 9663126848956771635
71226572028328321450 9728938580240045100
71226945513632296150 11537438309588048800
71755538824053290350 11630665304205780600
77420349631984156000 12939569808838592250
