29
0 0
-176126203823345112700 119560078579895435000
-202893000634458276000 84075512059480696000
-167365196491546783000 68474419551748255000
-182053477348384446920 57714123361407222300
-179836365985535456400 56331963838206502900
-181209099547862553800 56210894196456278700
-182429557755406095863 56122152535779368000
-180694184683446854000 55448493001560562270
-181762045070286840550 55462728411375465220
-182023544237833514390 55477043371964418910
-181810700660298889040 55254268514096536060
-182261663617277235430 55356741577037688170
-179933872791145359700 54643622120303137910
-182078990564194241160 55286638575317698570
-184443361682409988000 55986149212815172500
-182043141419670889680 55077892210389335740
-182395903057755927390 55167856999524199570
-182368431167450884210 54997530419143352350
-181367833094472211800 54659030860429442880
-182670590353292036250 54087697731548448830
-183789046620902005600 54721129878085953220
-182129012572761755380 52179324332611539400
-183805840508089890700 53892975816163298740
-185717889408984656300 52808264073823739700
-184982771145921990300 51311737567416360700
-181223931378050696400 12869635546379522000
-212514439697701014000 13110957708690245000
-301743512565811450000 -28541984683584689000
