19
0 0
-4210610197853406000 63332060577622129000
-59418527647652170000 23480708829354317800
-7581826707695274000 4159163924162477000
-4997052169749130000 54331846967820825000
-52335153632479196000 26956391020238325800
-533345795675743458000 -32986044426371594000
252606381651475962000 -359610775582028656000
207110199136622472000 554412397028096904000
-146481331194640878000 123860737130352479000
-30965296879816706000 -101768728144328926000
90984087167070052000 87084753912800204000
160743977686729542000 -230406122658906466000
87996911222796952000 273711063039231434000
-366504795247691398000 -12198812915359709000
14878706251718417000 57480748717824186000
-66007056760902627000 45148394333291060000
-17966780169555447100 -22299222090447625000
-19628375606897308723 28134234560804425000
