23
0 0
19368551660064985000 -16271171054092860500
20716047902206332250 -10079744641723348650
22689472640809768145 -8338758654157194325
22642723266378552205 -8187237760944047315
22261100458041533110 -7965822105672752870
22693700549081914085 -7843448446900374808
22095699899330670080 -7514577191832856350
23006811240885074400 -7786531967627709325
22519982765469353331 -7611082580836219890
20683001700634040050 -6985171024968965500
22944122093273313190 -7738623627043466865
22864881451906100320 -7646183786345652120
23222401557969871500 -7764820522434353590
22564875993418709374 -7515839273036961395
23138171713419102950 -7699410229701868480
23139350985999817600 -7682499267853898095
23211212947859022400 -7462828272024301480
21785121556114965950 -6983791631323457850
23527012627084703500 -7463881615335138675
23712714516102441400 -7454205224910917125
24312152035178891150 -6870961936897366450
66349417633354525500 -2578237704484758500
