29
0 0
414980204463100020000 -104275351423265981200
299006969704889166000 -64858830695112606200
248871289757306129000 -52019964418408152200
281448772037834998600 -10546567942052868700
274508052700943077500 -15799886669734787800
280465530506744601730 -9587371734916695900
278992406226381842400 -8282923819080524500
281930249185318959400 -8330996157335408900
280675496655130528130 -7305636497078039902
280961969469120702520 -7261514242362136705
283188664983238844000 -8356139835502280800
281123101632488845630 -6846358136270060670
280532561240931785550 -6825517078014867940
280832964241363442990 -6797922404609178920
282285918738385685300 -6796745040903179080
275996192803877826100 -6596918233599174800
280647562544761092900 -6501365391733026020
279467838916671962610 -6442491548556631620
281086490700779507030 -6476919871207076240
280884008981457505730 -6400651959982395290
281549462401267957700 -5342055916280538900
280316379121691296902 -5266464683528264200
283153249547735456600 -3810698403425403300
278246521585072147100 -2778355921623030100
282197950227642394000 -2330842472044899700
301764970577419660000 14330074425829159800
261366210319285462000 30069015459067129800
294985579685583794000 40770720999840268800
