26
0 0
-1417011228053418600 -3005195012585523600
-1434753199746527500 -3099765580256802000
-1434360155248148800 -3102686938412897200
-1343291548169593900 -3651233112437156200
-2518711112083458330 -4208750474074027500
-2482066335181758210 -4249300914631811440
-2349162906851388380 -4398331459269566370
-2325585173346825910 -4417284255979069360
-2897255270089628868 -4320407755994319700
-2325152433827796000 -4423024165231056110
-2870648376366535407 -4337911405677498290
-2763366512980272425 -4382502441836158670
-2739746243457417855 -4456230743347164990
-2542662778734735810 -4532508070389660530
-2537097919744683660 -4536285034064759850
-89841889955294102300 -74595672983505304400
-2137845069017326850 -4530228330715217720
-2983582762823677810 -6446036470628244100
-2136466523214410600 -4620603549362884940
-2210834338571496520 -6020994476929623800
-1773081818572192200 -4839541842921449920
-2024264586101551690 -6858138162848243300
-1143336999312061000 -5367093068006172500
-943621482304810700 -4657049880003082360
-458393104286783500 -5931303523661711150
