32
0 0
4233620019366509900 -3239433440398742190
2869671929562075600 -1850518536971749490
2793720933187368100 -1590668627520464370
2726871201852330200 -1262065470219892490
1332813307517896060 -291124540411161630
1827830881669099710 -570029634182796450
2782721979282174000 -605503544409782160
1316847479795509800 -277050388323657790
2604572139785037800 -546406106775675590
1829652799560456840 -288096109821641650
2579110818310483700 -386210760171027670
1105552862642150249 -161385360173359880
2115363686962446320 -295095312334257100
1422349205148981490 -156282160492215820
1851681756212168970 -222990579428252650
1887260994890429490 370043530048672210
2167816554757974640 556826990968334410
2173844047069486820 692016934502999010
1122253872399631660 -107233309941386610
1134773220412862701 -63686278529086150
1130895156994426095 -59702360637798970
1305270348343712070 61202438054334250
522261674492775590 166320385249849240
2148435742080696860 684461043785721810
1902406638917703280 615434253301843610
1312609548188436920 470590806777235910
1276581535844333451 782646752348210110
-2222962830996908700 1719230652855738110
-201970076589747600 8629426550199794110
-2324247326227252600 27308418839454285110
88190503004905101600 81639779636693774110
