32
0 0
-4849709398278774540 1846271351753553990
-4105942984339134080 1442566769420140120
-4162822031113029240 1435400966057752984
-4169921509196434690 1435135094219286652
-4175886204119521590 1434916202820655559
-4397998583342563734 1536002363476758670
-4187616090862266410 1437927284377363680
-4322460874702121885 1430119267690214463
-4363526545138471519 1428106647978621186
-4230195448795638715 1384362158369908195
-4243271907900866300 1388533661501996982
-4352047609989896977 1413015627212667064
-4241221331116389337 1387835079002287698
-4409665606863619420 1426045141729411511
-4357691298855789228 1409170846823147548
-4211552150265912250 1361875548014464451
-4329534912089719394 1399988720040748102
-4253946435220117073 1375187101417672436
-3558844930183939350 1147329903503274940
-4328439819181088448 1397819510362855694
-4232409674787292151 1364294639100843555
-4116374310805834600 1304596988014905391
-4344788541637893828 1364777806119548894
-4305629872837172089 1351579088608511507
-4304599441859098372 1350639405289565171
-4304476522757574948 1350070641386415310
-4242278255438613421 1267807373609104554
-4268592140681419125 1177989258161875180
-4267826238429549745 1175944567092754300
-4261484521200489441 1158766406526710210
-4283211402831717966 924992386171352120
