26
0 0
-744582188575520800 -160596064846734960
-841960567467698300 -192046808678428600
-975027771396209500 -281225456604363880
-1406557339724646400 -579771010702761930
-1601097351625030300 375376726889929450
-1769020600870752900 194634164317711100
-2012685722782109110 -63409402020338400
-2032340227014539380 -93988036990807530
-1801230445460491200 4439819711812444250
-2065368049899347640 -121935248710899020
-2375638624398993760 1628465751214225250
-2386285922353692610 1534918501149391150
-2588222348615454260 929054536945264750
-2604678202183973920 464107748039458850
-2608604216109201210 444801836555402150
-52315078808158882700 38898807733166031250
-2192061332343469980 -459754766963530860
-3163201743050059900 -749228847621633939
-2643097254999504740 -761599227220572425
-3140138981235538960 -915708316111562620
-2697631769724097040 -1165998296834225110
-3340649946672409160 -1523408695933411840
-3018837455686764760 -1634719191746677410
-1909433538506883640 -1042423453133625650
-3641335285588088410 -2587682624383148150
