29
0 0
47249522173 -45509801727
56244205785 -55713853752
78008198993 -81214122398
58297376598 -41610325275
59642171330 -42995355280
59443691048 -41465250947
60663334011 -42796498389
60011936132 -41984312176
59150914521 -40415493834
58504098294 -39524405194
59877381626 -40998157897
59711574601 -40686706568
60188709562 -41023509410
59746378521 -40299627135
60047222791 -40669008293
59542326621 -39787718735
60407004761 -40839895880
60709907866 -41278904313
59983000010 -40218225141
60307746882 -40527002833
60198352029 -39744279066
60807079339 -40515398841
59506199332 -38774290082
61397237061 -40863308971
60937754405 -39675336737
58543282597 -32837336640
66114308690 -42633135624
65549965243 -33447342424
