23
0 0
35725994571788834000 -2156625348204344000
18422690856747614200 12835124287501367200
18178493593832715000 12904592440034640100
16188082675304434810 14923512742636228760
16196021586894419780 15127743454951129690
15899867352214034270 14864597005529706970
15979402002198569390 14984777227026195320
14735948836750204330 13820233848498066510
15855444918415234360 14901464857436896880
16971884948129739700 15953911470016446700
16055668628087073870 15093159378560521590
15982142586104390870 15116853844745534820
15455412343891924130 14624232131379446231
15871803260796203940 15031553916178807920
16198937096519164000 15342226538330488550
15554105445053990777 15117674087968926820
15084725407547734970 14856518153832768840
13442348660083615400 14324957915266462030
16165956026145105410 17477457662665367700
16153300239421119550 18351674044458886300
16344432899699769510 18695387619277888600
18142975879166882600 60948328906801521000
