32
0 0
-61690794476246680 -21239982634608090
-103049650020605200 -48485301614293970
-308537985217844880 -205087812088513350
-346441978186588710 -237277212579296530
-398085502746087340 -281819743172282200
-430341581803483950 180069601132800590
-456655404801869551 184994477494616190
-474547487481126566 190994631579597810
-610860183718440301 168778608258480250
-718571127517964660 190925201243996780
-798337928981044260 202351932918109280
-1561919378088429840 -38663354400560350
-1780202023718145240 -59858781319307580
-2074116089065717740 -94564493103835240
-3013739320380165240 -241346308715292200
98943290594644920 1191766205467826670
59959007729926920 1349799867027060060
28876923392328100 1495251624422703960
24344530742929300 1520005784508758260
-138325203727171700 1731993057529521660
-143346919442913210 1758498551180719360
-152394060906745480 1845243440034793760
-389319195466023500 2463392865099356560
-448025541051321000 2746055019672949760
-685240990987218760 3850523251222390660
615014347286003760 854252935654818070
597971309301328960 979226582873898940
625340069604991060 1073166473323923090
706279966679098160 1343692436344182460
765008686330943960 1479262399905672360
644390418221608960 772836451611443250
