19
0 0
1150550602606249280 872209650256500099
-96483788416637850 1332643130625423829
14199712545004410 230955030430695119
1029755181771005280 818342308397636599
-1465283193171720 1283433756743026029
-14621437059461307020 17503821533721400129
-15251613341636162020 -31249526340701795871
12391836022922639980 2050207585403884229
343031025354146030 2374854439669441229
-4013730903457187220 -1024250912775326471
4098696392349932280 -1332650485050091971
-4851359993099240820 -9900170839472214071
7619529653768299780 1545410881678288729
-8042460912927038820 10201524332968579129
1491034565904027280 333407431426329139
239715895160257380 1785883396054479529
-543685017553168090 172294754396496419
388011428131776270 792318179498031159
