26
0 0
-323732021972722500 -404986476947196600
-340831293327376600 -462119571605026800
-357850258005991600 -542022048487031500
-471145784637531900 -1078169050034952080
-1242169714836575480 -749408125841873450
-1245076930265218930 -922365265494702110
-1252619137374171970 -1176319865889732310
-1246857657297929440 -1216813331888487470
-2201437034736280480 1102710537411119100
-1251252345938728680 -1233925765711158070
-1925167999547462021 -456695210671176900
-1653854438372940600 -827087146887064030
-1845222247111644008 -976856938509029560
-1604273927946630180 -1190675001489036830
-1602702229897694870 -1201340621169293640
-48525970886486029500 -11088866083387942000
-1167006307005817380 -1414597942201812550
-1666656801239782890 -2304607401820462670
-1252069802598193830 -1892980508680283260
-1595309293443714310 -2418948571106489500
-1050409250532779700 -2488629555951742990
-1272195191561230710 -4378219944538374200
-949717713055762360 -3299025522370536400
-586906808259861200 -2067717793963026070
1352017225040602400 -19945005881729244600
