23
0 0
42723146586 -120960207126
38506749661 -26083433177
35583847434 -21816871800
31009293521 -18816400471
38190917336 -17320806534
38457744434 -17424035370
38050479446 -17158881791
38178647888 -17204441009
37719217683 -16995173463
40768048357 -18365994613
38374297446 -17283665666
38787399134 -17225693728
38099107493 -17060232174
36786494688 -16335996814
38447281696 -17070122763
38444451263 -17068090973
38174086099 -16852049455
38864769455 -16965304893
29818594881 -11521767002
41009250745 -15798116712
43762719444 -16554770958
77038160768 1668818815
