23
0 0
-11649908697242017000 125729983959741781000
-64585371403776561020 46668711926693616600
-63861395394693557500 46008948632654208400
-64233930475952438090 45652396755705159080
-55377757302340688300 48865828590083520100
-63850612171596953100 45345989497344912370
-64293914875801674700 45393307163128678050
-63610354792682012000 44903156098180460890
-64475316769312385420 45273813575775253810
-64426531862816534210 45192561356806851550
-64525853257333593980 45255583251577753980
-55206390507827473900 38711960799690804900
-64520124812099045240 45063428969588657790
-64508336373678725060 45018712317867587770
-64596525803490228500 45116160662514210990
-64701038981530070690 44986041076120197280
-64689126920234611570 45360356613888570570
-64936668601942092971 44985386349603980960
-64785714252509127740 44879618967930452050
-65856761577861713650 44811773806281305120
-66193318327162067500 44393021225997455780
-126908633679119327000 13486911149096693000
