26
0 0
-99719150300522099900 -7447252749055886400
1068628002349638400 -1308723064365267070
2735200441701867410 -1204016740053073300
5951316805144970000 -7410200100421657200
4766474595416924700 -2296072823884164880
4808495378047241100 -2294144687567842637
7349315392170048300 -3752512484730085200
3125972387072173200 -1299774477694854730
3391511992502986520 -1364808716097970110
2682534961995320210 -1066357024423053600
7059651795881085700 -3534315005546886800
2822615899383491410 -1125255266288544200
2830063308623515390 -1128180741793207000
3311390429303141209 -1316960981805722510
3388620577447000920 -1356615285477218980
3313057321245657733 -1314340131352262210
7276076392913128700 -2871954047043237700
4660135685817481600 -1839328220796112770
3310407082695650100 -1302716819281371490
4656807473916147100 -1792047046582640410
4617409571841302300 -1652555919408539710
51396445454351493100 -1105792292012380100
8280540505416141900 -161045932447294200
4256092626239766500 -59046272096904700
4199385318338303140 186850523455550600
