29
0 0
-146124570471404321900 110204294555193855000
-173785471293770140000 75054792991974523000
-134138080351948536000 57806905891676652000
-151182388045182392290 45565472837302537500
-149155514751241754300 44185600301878745900
-150372307450802234300 44364496627937015500
-151562271004041614036 44700108818088886500
-149762599836166001500 43611581564733790460
-150838035042139005770 43709524109966002660
-151079306137369172330 43749616467393028170
-150886758591159689820 43497734402093671150
-151325683460803526410 43622656371093339180
-149174375656635466000 42994425678818368610
-151157698287859873270 43561529770627669670
-153222686523271543100 44130821164616468400
-151063010858503839340 43365025991007411400
-151460652503751786321 43466252348339311330
-151363337257853548150 43315041869305503400
-150371717714978419000 42864294977094741748
-151622405910844746376 42415700534502709430
-152819924496199550500 43090787826285692270
-151089460907839998220 41058275387860531100
-152648856183435897700 42334059751372154340
-153889304697075979900 41811946953722069420
-153186136486747190400 40404831146742785900
-148172769620292623000 12771063442942170000
-173378894105869027000 8463869376333230000
-273413329874252760000 -38379941936964093000
