29
0 0
123392792831437795000 207440784176756605000
78875046051507056000 134310211740586987605
71375086159592651500 121816680683880719500
61133735427993025800 134279076042348286610
60481311114275466750 133504763026890634500
60803987251380082300 135099417678365629900
60266381055173725650 134047215506498775095
60347402835721825700 134432903203939035105
59807916117754566150 134258819717176714745
59538084768058715900 133772585253075767830
59694522686521626630 134127557258422293595
59567268860514249895 134079166724009197495
59685264393978384745 134414713561266450345
59602679871669652175 134334433800369718645
59005788694811025260 133007839451846017450
59473752402009160245 134260286256607833155
59568972370222932410 134481382507384318615
59263729756029198145 133808491268306787470
59479990120171438735 134410560585452094515
59670771484342706855 134939057592424677350
58986474701980888575 134460129638708386755
59129863122081411160 134970519411160104900
59199030694569035004 135740787436573195550
58051828169695743000 133497038104572873500
58631548397224366350 135125122352513231500
59065496995318955075 139942982094191733000
12285414991515109000 91947854414549100500
16523092634261912000 153724604319364785500
