23
0 0
51711802038 -60237085777
5744198734 -2581427026
842365059 -4553756363
1317629223 -1171533674
3835799297 -1656562137
2712711913 -1098219209
4754396020 -1892314399
3365244692 -1165241822
2828610705 -863532938
3535139139 -1055522165
4247893631 -1260253269
339439445 -100343366
3495917467 -1010483797
2564686151 -720824978
3965744928 -811593465
2898265511 -592848793
4604794948 -941831796
2875497815 -576781453
3572615290 -308242033
5111572540 14388883711
13036684201 49405140860
168494130964 63502063491
