19
0 0
-556399212547549900 7059631600164583800
-6569085125950549400 2846976501133633520
-871029217181565700 586432155828768400
-638214597466237900 6275518218455634800
-5400985488921899800 3488960279104673940
-53619695010200571700 -2271781199069188100
26069902964016643300 -36644058957497538600
22574204178615244300 55794211363450418400
-13121204222226863700 10760993957228393900
-4296826379809390000 -13339742736044382600
12079255291593051300 9819641754774760300
16103665143325334300 -22770550631299198600
10034792587745607300 29178294201733762400
-44957922486458001700 -1288347703721414800
2036225111676720700 6621269899957294300
-7016082764657226800 5534146277765716400
-1945891460082617590 -1811943804833864300
-2343737419387894781 3304448473048929670
