23
0 0
2599365717314588000 -57144233007961784500
7596511169594943500 -42747271812229155000
6224067063036752000 -33808698567954181000
14651789680062835118 -22475930159097904605
15595147648278129400 -23586957604046141800
14799242361009449400 -21986438863469533170
14823415979296307180 -21982190151505471370
14389256836053745850 -21143273541066838200
15165336121721956590 -22166366462337028210
15098514670057346325 -21943776123482287425
15108118331095552705 -21918374448753791610
14938655432016388650 -21650642451639333000
15013654015863736215 -21703801889040033640
14909243509547499120 -21532326746119871250
14977178094231149665 -21539934298657798300
15046612749965140460 -21634887298333431465
15304133876277324650 -22002029658167764350
14944060839597318650 -21482069570053066600
15338277829507356350 -21867581291058959240
15383145149329172200 -21800982704808833395
16245784321339905750 -22349151350838916145
46161154191528652500 23608539324018758500
