29
0 0
-3251022878730476000000 -1512791400196191665000
-1804903370919684950000 -1171011988754475312500
-2150561859809397250000 -1896718061143241287500
-1696819871804501435000 -1575441915872495151250
-1674931352869348246625 -1548336464250575870000
-1701188435550701322500 -1590139909168388230750
-1680188073859972410325 -1570547348446122300000
-1667142707822586837500 -1566400594347968977500
-1683690129261689269500 -1583368744087883744750
-1675402962118875086500 -1581207465899206006000
-1676416652790246110125 -1582225704027107750875
-1676685150829164165875 -1583437797751979811750
-1673829110225461602125 -1580825823523880833000
-1674964553746680755375 -1582277504449556224500
-1673274075131639729250 -1581762913874597897625
-1675415543022478606625 -1583814452784252477625
-1673750535922338530875 -1582781307921841306000
-1649960200798225320000 -1560810663924680913750
-1659554925699629778750 -1572137546063490353750
-1663004488016520591250 -1578672776147089520000
-1654585912690636668750 -1572407763134238696250
-1684523243323681004375 -1595982272387979943125
-1679705726119686287528 -1598563261882123810250
-1690135172820931048125 -1611424677688361815000
-1672339080126358365500 -1610698439061631710000
-1530392698676400600000 -1526969741116473648750
-1863268505128517850000 -2084459574450361300000
-1268521818863517100000 -2494632803200697862500
