26
0 0
-39193955992 -16823747706
513922044 -1203192022
1616312650 -764110079
15832729503 -45733061888
3496880176 -1856458315
3519211377 -1849693386
6152947643 -3462717623
1877568682 -838052052
2134307273 -910561619
1565365338 -649527383
5854958825 -3231952666
1654464915 -702596443
1659576332 -704765459
1993058122 -844447747
2133305862 -906449617
2000444860 -826846613
5681342869 -2318290143
3359717782 -1370012849
1999052751 -812778712
3366507356 -1317233157
3322203554 -1234501546
57445132063 13807132150
5003925153 1313933621
2770971227 790002765
2671132264 1143990602
