32
0 0
104104241093762937500 -349864130057334140000
201329061135704131000 -42707605479579919050
201651991712241730500 -42526506734978990175
207890611023833570525 -43215747800679640175
207008490365958692150 -41435944178243357875
209562431592626662000 -40795997380504746623
209738335268764504750 -40617593024817742080
207716469658697254575 -40001910709274044050
206929464847829440400 -40063834567841144950
205264217369401198025 -39730754084650961825
207167519686740200700 -39874950550038809850
207216612951810596400 -39851292876288290550
205290852627880803825 -39727505227783833775
206975159518236002800 -39544351334059279950
207054063362209721550 -39486875567623706350
207741004493261665100 -39427852393663617075
207744741708506170525 -39416819020433267475
208463393744706305700 -39341836377024029700
205942679977830740050 -39456427737984428500
202412257612401906750 -38149806084584418000
205592663784634009725 -38686546597184354650
202047129639896073250 -38015962497392874500
205536748901307862150 -38656786311396787700
207007730503921254425 -38890929537514879050
207021348526011875225 -38884208452480522175
206969018188795540500 -38712798396556291525
206990242382080111300 -38698684737930888825
208640970312990184050 -18479718238746182750
233063967659961250000 -19470265113484614000
343461018790224017500 -19594631438971048500
538497232385415427500 -12155688023890127500
