23
0 0
-1477606971306125000 80857142810697594200
-21243806206572943900 12758912936353446800
-20590613046228893400 11892390638109498700
-21625921008810004300 9613269353791228100
-21870376805555560900 9279368684222986700
-22251765517490133080 9360596617705788700
-21682225395217909200 7920917314961083180
-22090724957518461710 8021558558513573070
-22345424034009171220 8008772667054239650
-20818690336733144500 7459619665643603550
-22367624230987143410 8013185042989302770
-21991441944704966410 7873441578947172720
-22272350360090361810 7904967290165834530
-22387925433642989470 7928479087475949590
-22005137358302296540 7791802279703037720
-22154185696338923120 7731051435299247900
-21847150715657652400 7308763105359405610
-23620445466283328220 6986731047977017854
-23901152675815218150 7037598002488386499
-47643538876969111000 -96390329228218621800
-24287459212644064300 6869717159157099640
-47426429567816157000 -4984438068374496800
