19
0 0
-774941887072047470 -476031266932169120
33901560197101780 -1591314348790521200
-23172024837872570 -75086604512091700
-650672657719282440 -420140643556801230
-223809772588127930 -1056997876764254559
987425981655094300 -18845946166260726560
74178564143339143300 47963388306678333440
-16194864999445725700 5916463915376923540
-1094419841022878080 -3537356496396508860
2233395821764928600 -683268369816912500
-2344905826950499500 4275996019126574640
17875645036105863300 11039360625934073440
-9055946282968489300 2993493220677370040
97774099844906460 -5776129636602805760
-708221350021050940 221765413793107240
-539059157720291780 -1856017590533959980
1403110460318040300 -568633959025881720
-235759496343603910 -701540833665001130
