29
0 0
6554113971696398200 -34198083213760270800
4184817082479569200 -16756300866286007800
16686501422210838326 -26568826460714283800
16396471972499480142 -21719893149795444648
16619799033008587272 -21824534250074371080
16572850086470011638 -21615809136852598686
16352213712302103318 -21327188187754806020
16484690452454055670 -21499121676733246250
16446646872831625286 -21310113895079320660
16586015273379952412 -21486760729097256414
16618613884845097376 -21499430996286133760
16361566201677307484 -21160328775127896200
16579472492463684176 -21426903251347888086
16608870976806188702 -21430839974238880904
16703703546175530634 -21551671859112564543
16583303818323115524 -21395733094350153032
16657504728105225006 -21491252236562044228
16645963382771301508 -21431451094436631214
16618134485607563124 -21395421319017631236
16575295880833601190 -21286662413792440800
16785602864143058200 -21504780495162865440
16966454290645403140 -21652929105297047480
16757643280212977980 -21384547407997398374
16804456614250955460 -21238332386343244120
17031276267051310120 -21509217248643919506
23816680990274101000 -25324811015823030200
19259092287556295600 -17198946119444212800
38051066922160254400 -23101211709436132820
