23
0 0
-2246164346062258580000 8719144449177221320000
-3107713437749410400000 1368280833565315820000
-1975045392176440434000 399633211741222670000
-1992112287618907665000 368274677138217500000
-2053422564361950022299 264561628734466117000
-1934263685866219520000 223367582269263652000
-1964148099604493830000 212761061159600329000
-1977710959477192645000 220087412112952714000
-2008706239360394202000 215881479362464608000
-2079940745020476978000 218894111578723034000
-2090276163795331999000 219375018443543872000
-1962331430723222592000 204450444261331985000
-1990408519024611803000 204453630546123020000
-1990107886568898986000 184361048633473526000
-1801018991822407240000 109741291402071013000
-2082839147254555992000 126188487619839094000
-1815438820773825540000 107492256836787072000
-1896562546291588240000 88711946820587773000
-1873155445129923840000 46653042321893240000
-2115849215628747640000 37821424921271680000
-2217218560291246930000 23030903459357060000
-3661087559574931200000 -1762195168608277880000
