29
0 0
-199651560655213543000 112681590931616995000
-194041100103801889000 70643334713426088000
-146957310428673272000 80422716081636235000
-173861472207745925510 56447930590294595700
-175544257773822966700 55599563398005458500
-171048818133190255400 55436270731266361600
-172263001243515296200 54187555524090724000
-170863530105851957100 53313193466061802120
-173066042616741097493 53975312544164904500
-169366789577811101900 52779351710448732330
-172402644978726309120 53339264814348284930
-172205325219419063530 53211869569636144940
-173565231037911431110 53598067695318312810
-172605285336486840700 53292284115652226920
-172400329853480875160 53120122767089182260
-172678907592742638600 53094331957399707130
-172139211610001206020 52915671548447128310
-172318796519628972560 52852998304187913380
-172594252934257744780 52904041271422994470
-171498629628220122700 52395253280348667180
-174820054702669015400 52964149027875715910
-173408995654854857240 52534079317349530670
-172381719252268462450 52201119222360748070
-170607142148292726100 51200930043517612400
-173689213791688484770 51818032574227616060
-197910677701963967000 44823572782927737700
-155784638041384852000 31420139615589212000
-211402210971326994000 -889433122463504000
