29
0 0
94648665734004778000 -9506589987965881500
47481870303076880000 3929885736924244000
75555434173435419000 10777337390890668350
55440182437580823300 14096425421712091050
55778719416272076200 14512227046587563885
54902210997249814200 14581216384133116580
53953666965756063050 14329838648819080070
54561033228407465000 14529036554373663170
53930381705620637840 14546422135208672375
54411153705951090250 14717792849491369080
54454483899411431950 14763647294045131985
53602279243952034920 14535436607667948560
54298258344795552095 14724775849600319320
54296900376211713930 14773441271194632440
54656680471748033550 14874999960869966140
54198646552472427180 14751821760895416745
54405862893631319400 14809606057327492355
54285912756255955295 14832392739733163010
54177226220254868345 14814413776888878040
53891559933339546962 14800159534679303605
54461645453020149800 15021447589553735935
54755040405920579200 15202852336669083750
54062014372156330415 15021986328659425535
53658428039717919040 15197798829765492700
54233066062468990890 15363854916806507200
63483284444917658500 23661357400869434000
31445292240470545500 27332768187432782000
49847562039557760300 54528118549178586000
