19
0 0
-358478297614193000 7199340677558484300
-6738250495221839400 2636182232725317160
-982948641678187900 672573698085519000
-538469814089686000 6139258852593152400
-5333310140642308100 3301179071377074620
-54839838253388411600 -2322927060626689400
24926325454618083400 -35495032614526962000
18364701362139913400 49566827611526734000
-16917880421981704600 14504367393476882000
-5346487273173787400 -16581848620380689000
13224275243633242400 10097260069756659500
19799210343103236400 -28303393875656158000
12370711522425573400 35888718175644564000
-43680515743096106600 -1095985946298295500
1786037284805932000 6452554767505411800
-7025248982572142300 5750465408405727600
-2028284619550490630 -1766923795832715500
-2173215965607791019 3098123101451716006
