23
0 0
36753154393872719500 -14051037452531890500
13626379057360426850 -4643161640787822500
19104750890618493845 -8639956549993500
20822475333574677600 67044307500150400
17357683487098496600 303055789449185450
15824315766445644750 452221108493014650
19992591141832994600 738343593661629950
18723093021411921405 1587086374676479510
19138044306391359800 1730258463183525444
18887569901009777475 1792112459582324070
18515635338306356610 1756825546820801265
19118142329952224950 1994601568398278625
18648677567986916355 1958478650031240355
18277973471105952865 1928463002509755665
18817518304341285575 2039937695057952575
18821944175875679645 2264470405564140400
19550256806859596850 2131415043106625685
19477772940718190000 2360682771718706500
25795555637396529500 4273185003533563250
17695791631707020750 5531324151815048000
38231889628903244000 14318466369160123500
7633013964777444500 40658279637607872000
