23
0 0
27803459583 -17407411747
9389328970 7204186467
9179643795 7309199747
8023040626 9176809781
8032762759 9425989198
7784899879 9171155001
7843841428 9278202788
6916589241 8191479150
7756133961 9208632081
8771218295 10414845428
7918180084 9402273965
7849845695 9427051419
7472506116 8978352725
7774052259 9349403449
8036895346 9665579110
7529166064 9476819407
7144517901 9293673552
6184944604 8907841144
8045629715 11625492506
8062545348 14327933112
8902137192 17453473515
10059596753 60426751482
