23
0 0
-17134474389 -15414191282
-69879597242 -69647677235
-419753635 -9454754109
3706960165 -8515573028
4854004640 -8695914021
5060047330 -6441664266
7301808865 -9290969772
4162318591 -5294752734
5549223292 -7054859867
6321913190 -8018272857
4799192925 -6086754084
6086269149 -7714272774
5535776763 -7001856489
5386265865 -6257443375
5726521403 -6646363860
5964158251 -6903917566
5933537715 -6700267992
6655476845 -7266950534
68897421458 51095624471
18512773200 1269040774
17352544465 -9387079886
32843899964 -13034361464
