32
0 0
32315674813776097600 -35249552360540600700
7773596804579584400 -7919475513730442480
8077725841260885200 -7935816194699053841
8226885106887508880 -7959282714353469470
8249884071341338150 -7962906241693583200
11101620736577322000 -10712806026397029800
8294246603269830440 -7994987028522592051
9907876413279094350 -8227966398670307480
10363533751331581800 -8296347485967642130
9144893003907537124 -7537371298957141270
9541328602744184710 -7782642130556425690
10260233079845470400 -8136380906076078250
9522968756612809150 -7767492087102602620
10678384095894381000 -8344417336624783360
10292148026311817900 -8042555153590147384
8941304802737431180 -6986894964525881400
9984868901506095030 -7916460165693497800
9528442009123729790 -7445622841686993710
3365184292743768500 -2627758637803590600
9914157642866836570 -7740173531986891400
9452766089938337560 -7367880239975834040
8575777002957681670 -6634225527654039400
10254323377973510800 -7900482759795202270
10032858019135467510 -7719501828827502490
9767468402062099770 -7378634505458489470
9766167820990879480 -7367708838369488780
9289416256759026610 -6626086452536226200
9623100106545487200 -5909254316122713700
9611950677739397030 -5873240778088460700
9531773209557261530 -5613514451549699700
9536367766542836470 -5169972370021733400
