26
0 0
77987865 146047034
-125074720 684834917
-229546118 803039414
-348740161 900658195
-658584972 1132160351
1511738361 510700018
1527165124 524590909
1609184636 573911804
1724612361 717068586
1793311356 779753706
1890551587 871191864
2327778027 1562912340
2448494955 1700245453
2836845207 2169072174
4069894200 3686122594
1219351698 -197800090
1324322131 -162286356
1550220363 -87223569
1620481626 -65501291
1736880909 99797294
1825956853 110888526
2048328387 129382169
2181356984 181060191
2199354797 182749460
2428413895 212235733
