23
0 0
156425934675 -57664862061
182007154647 95558385323
19128577437 28053096667
17433979692 31463366248
18803988987 28184807748
17228521164 31885462728
16995103011 31478983811
16911586165 31328702656
17026450192 32332693947
16640347270 31222812779
16677410015 31679336297
16777095184 31879760351
13592471720 25928233547
16505463921 31560677414
16384265026 31860665609
16273329945 31686390742
14630345489 29525044166
15614707684 32928122344
15744922454 33503375688
15394199372 32785856402
6987640144 27394992987
-23987329291 82171273656
