23
0 0
10327112042566343200 -1800334537107589200
13121939717228773600 9047364596521839500
2133682173325514870 3829023745991901640
1961176240552171230 4194254948085549491
2111355838653061200 3842636037735483820
1940611146866067310 4238224790860147712
1920873571402640473 4198345450622044405
1914017475478972877 4183662622366397618
1921321593937315847 4280598898102998770
1890475612565416473 4173423537956127641
1892894496248590465 4218288284011617634
1900327832926688235 4237179424590856532
1603851308929646700 3589764737258749030
1877519137885833173 4207097407004490858
1866561312192597474 4234769828427577026
1857659457890972664 4219792367901415430
1702152430530666370 3996221688539777420
1788872641191707292 4351799094711867710
1801196724247896025 4408410272035990290
1771650315588819894 4336558744212553290
1126075218228488410 3839507507432594790
-2637390161531500000 10388448789086942800
