29
0 0
-142840142647511197000 10882976742479965000
-78430680324940311000 -8744833160054884900
-123013385544229481000 65155478553545367000
-40762163022076055500 -12065286907793305400
-38740529953865357078 -11830111683792891200
-40477684247098119800 -12405498169245102700
-38187029526385544300 -12467318220424474270
-39621663307113276190 -12438608861275530170
-37780096543288741820 -12504252026275034660
-38599864851237454640 -12778625504757719220
-39065342496380090790 -12936722435091422800
-37967953552326526900 -12580354204543164360
-37848664086831976950 -12549235131520597190
-38048264926111367870 -12625678422690436620
-37728507187894091900 -12597279702323216820
-37838662851438539840 -12645178463719219150
-37908434103470834850 -12723102211208727590
-37651299343348997600 -12707067811795928070
-37793078149325681120 -12740908042956145490
-35854000291337953200 -12673989133784170150
-37639318521215147200 -13084464714678708991
-36338775666430750300 -12884945157580066080
-37028283734607420700 -13201944893725808328
-36686934993990665500 -13268345648657303520
-36859901051405673300 -13356734602923784130
-33013890103870611300 -24505863651898235000
-3851902872404696000 -19720325995619711600
6986656699353046000 -43628749296971859000
