26
0 0
71197679911 133217875702
72536551194 137756463638
72555713742 137824929260
73603226142 137540512958
73609834269 137556000711
155254677922 67407391668
72711937620 138390498296
73684829703 137722247612
73542025235 137863332449
73180896140 138144602724
73181408972 138145251521
73544581717 137868252495
78122196134 135025679811
77988258981 135144650582
73753640231 137799175361
73488064922 138151399056
73939314305 138163474395
73863722961 138219834282
73244117925 138312808837
74685181196 139458261421
74683474093 139458232432
74651450766 139474396891
72829091480 138643451304
70792857595 140020007820
66099395555 144031010035
