26
0 0
1587503967034252100 3452221502315305918
1666437176138270255 3539649596710055340
1630658482698446250 3629814576742809190
1760994806943935915 3554600164189817620
1674557783359252855 3646178678675936950
1769898873809726620 3647039337599514205
1963973174904420000 3899431961294358010
1587950066829580250 3727855315134394570
1720479095032866985 3817176795962885180
1530411396230390050 3750234545370179600
1532518232044364710 3751418316787855315
1796849528537154125 3901987258425348930
1988045815253158100 3914083075392956420
1941811916456349750 3913726530338408320
1751010962624431440 3902135146710124565
1300034084516418070 3911212357770937480
1841326213461959755 3919698723765084465
1749411107183437270 3920440769741963010
1253666914327785195 3868592322191764215
2184830405073854200 4078761443014846100
2110445777788906750 4066365280301052100
6220733851093423900 20345650591612943050
1173542648242537405 3909565704940281865
1164939877220578155 3909472209969861005
-62149914728450671500 3357223876062272845
