29
0 0
289595030327278300000 86766177832161391000
140997821081885661000 67562467566163794000
216873463064083151000 153269661577094517500
156897937127149507200 143173450759824064030
154549771251644652220 142029088293572893000
157312718928348341300 144900534525530811200
155694141491410588400 144104918128728328850
155431442682295303800 145172939782559900200
154831981623896907400 143477072296892408860
153314250186292463450 143519678692554145080
152266011839191993800 142841595972167167560
154013157010335074600 144517986037045061160
153834463194251802090 144441843829727878600
154036215752746243650 144633969892591044490
153821976023531797510 144577759520596175540
155823727987871777800 146466409639498589700
153687895616052907151 144469522892562693740
153908813233163451690 144681115041501287290
153669345951362796994 144555735229294335780
153751525249722129980 144638523774504149470
152791533665911093400 144114447441957447750
154023799104393254060 145387106503876266500
153039993433136286010 144813858091258269300
151997912969441555900 144956016931811443000
153558283283855865077 146466100507180917400
132902203687616156000 149139305118432806900
175324065601365288000 201613575545843510000
119569709780127638000 309013568501201910000
