19
0 0
-527356435412390100 6681317776513123500
-6356269762146351100 2591013547041224590
-834746991163043400 588659268475602900
-595312341734215700 5746676107499446100
-5326527111354670800 3064592386547537546
-52683470751705747500 -3019994721222077300
27701197127746436500 -38260765085199247900
22003517449589434500 54341106823971485100
-13969617835819361500 10869563109471055600
-3947318301401121300 -11733104701174645900
10816987116909406500 9264933496098267400
15978330010270202500 -22131813395913881900
11180476860427868500 31205060941347687100
-34113886476167262500 -698621462530379900
1907618942710277600 6071287779780127000
-6822440278379140000 5175627398001049900
-1935279780878166170 -1826857496102030100
-2229341766235811612 3085594819052273689
