29
0 0
-76232775085492503100 63082315800514336500
-88596421335825858500 41783872853766590000
-69586753190516489000 31758976275912489500
-77319415918625707040 26802630989548805950
-76334664308116472000 25935658759850346700
-76847620114381582850 26094727911170680000
-77466355259437221202 26292540163831455700
-76576651092193727400 25724036549445293920
-77111448540322773450 25779332544561672825
-77216719539109496705 25804944426567746655
-77136060821711718515 25699683420742126130
-77332426776988580850 25762326336829303355
-76335231870824485550 25428714946922457340
-77261986272249962580 25730946093372262420
-78427144211293533500 26102288733407967000
-77208397684557847905 25644590993364279765
-77376121886729528685 25696984082338322565
-77364013760920883780 25626145766639308745
-76859217839209941000 25428746925716364290
-77554552789512538700 25156350100368320380
-78120566953377262850 25537646471017835050
-77241364120421924700 24816244439835695650
-78017519837770039400 25064652365040874970
-78697032340934869100 24878978565777850875
-78389997901429115000 24168274314251605400
-75326962804172397150 11802228489162544500
-89059371496172221000 9015619673275406500
-137425141436620990000 -10819998940091531500
