32
0 0
49007405850418741600 11432959219048911800
9945101167381772300 12872543075768742750
9938669849337800200 12871211801448329640
9912798468301906500 12850261620628107260
9674297549449646990 14015724669412318160
11681471943937308600 15150203608099835400
9657313593679299750 14014955953460558980
9619083359819331840 12544774330915249720
9546634300662613440 13947682265975654020
9510768500628144290 14011097218778255670
9328023113130833000 13859327585462549390
9613690647608983210 14360710653371814100
9412646271652105760 14297042191657688440
9246151354855266640 13863655436840558610
9205378510389142200 13755394418429409440
9568582690585187390 14744753267455308500
9388363330223843920 14361168142338909600
9527396440087994820 14742344670722170100
8789978292277786775 13604988008686620200
8780446784994114561 13600634502351026820
9012375829424659550 13982762793144926740
8956165676805938200 13986394486451897360
8049922995183451220 13255485728687518780
8322575670941936640 13903014174361488450
6727790172989816500 14208275631727839430
9500198185366232190 14741105309647374800
6022550801698078300 14169391889694873820
851804642982294500 14753213090290550800
9626893104102414070 15428448350734075800
11261913111170580500 19326630876866203100
12597878757038391500 22942284550273157100
