32
0 0
230623852477426686000 -144686815962429285500
242566786790496156000 -91889807605957050500
245365237420189498000 -56305816850915750500
256020027907937138700 -46800873358614227500
253931928495280436850 -40902505216999648400
257790570198303204000 -41496735330877189500
250751250807681671400 -40034564571115966734
253129007564351776850 -39260256873542488550
254653705825654142900 -38762526871970241750
256062635090810956400 -38580711172627718700
254455917851542501400 -38566501023625297350
256420617029765361850 -38537444029003553950
252759713665226771200 -38739001962835151800
253558299760040461450 -38081547614044866900
256085561030217863200 -38314428273382101250
256123842887292366600 -37886382482785308800
256430451698315280950 -38349301400788797050
256610511485230988650 -37852452901673138750
253598531360101434500 -38051016903406437550
252246906941267178095 -37006920308006281800
252917817721179976700 -37025742024998167200
251244506713903462000 -36263598771599482900
251277270780540095450 -36273172377882699900
253928465930979369150 -37037800430268754150
253662617484693405750 -36589916309928823100
256973194528361762800 -28666935066147450500
257045034567475510500 -26946224573638373000
257980127221167993000 -24267480625631897500
261110623026096633000 -32076803860171788000
268548799881942868000 -36980089366847585100
269661375319487478000 -36976268492071854900
