23
0 0
22330404047 -152061695562
8596573038 -9115319462
4185672877 -3035651429
5931893451 -1994163010
3866407587 -969500894
6597714588 -1652365889
5791031147 -1321403382
7004478999 -1592698675
6234337204 -1173267272
6482517046 -1215046344
2069307408 -383640505
5664087996 -1043495727
5790719892 -735307834
5505432028 -535406940
6156223402 -870046144
6327410023 -601195569
6905028980 -601417352
5701167370 -481177971
5333715543 -11042091
6122579575 174200885
-2836540663 35070725345
48880302015 12114453581
