32
0 0
19516151052 -47221992403
2529678445 -2711674476
3060241135 -959687944
3099998545 -833821581
1893964286 -465494630
2484715152 50361329
3365125366 -639551165
1810776331 -296529323
3210196012 -513098316
2482670728 80949358
3427843718 117370115
204053784 8193528
2990323058 122132502
2415273740 130562085
2594991935 143577993
2928945203 665200027
3502372863 633967148
3633936667 932850459
435383478 124188396
1657304154 744286801
1652875692 756811079
2383265970 743765078
993833988 1297900167
3163301232 998323326
3145745840 1000799327
2411269314 1107387336
2413528599 1171858095
-46708463327 53463035188
-6261707886 121141509737
10840077882 21815507111
38750979036 19197335142
