32
0 0
43178327247197377000 -52574183805305759500
14509037402286564500 -15365948564769467475
15594259620695498900 -15218272862762635113
15793955485515680750 -15213702345493861329
15981840713914229800 -15209465863776373017
22404678518490134300 -21302007285338776500
16131178489456323500 -15306144572397147090
21311963260287760250 -15111522477061019925
23531074416431747800 -15041712536179826820
19222285788088850850 -12216394524596202800
19489087665858186495 -12354237737923365150
23363931934149440300 -14268351551665208350
19424382419826583505 -12311127058886772850
25595123141405290500 -14984618919227359425
23745234983412396150 -13895161731860222450
19001181838514683250 -11115979113494274850
22551520237689154850 -13189500597422587750
20086177507642540535 -11702757447432457550
4449013224214312000 -2313351305332032500
22550159826605664900 -13136415200852023100
19700474089454898750 -11323791879810208750
17092498226669922600 -8735732888650989000
24126413417328770350 -11914754498117086700
22662435559246731700 -10896225751140800650
22457077735619064100 -10129976374338803500
22484639429465516750 -10051431454744770000
21891668164331896450 -7211986101247474000
25664387874739630000 -1714042216126071000
25759160933335295000 -1128933046721347000
25998728161570057000 332775658790423000
26874408409303383500 1998139066685675500
