32
0 0
153730348989872448000 35989651019727171000
148362595887851470200 42845322917961037100
144248227655266235830 46107830819443153700
145965824822160285000 47937788988490781040
144224653502076036300 47968288448284267400
145766357248891144900 48487511056122390420
142914008647565357010 46975565470468600550
144100777510349994340 47965698386667490120
144140606029601011880 48240210190285097640
144556325222877532790 48345145395717496950
144058147373485029700 48228003083338406500
144667006900768105000 48432006684745061440
143705209614612887341 47943229434248718380
144022437161472896830 48216555394948389440
144421479929493400460 48526370776761957350
144408687094661308150 48544383909400334270
144533506057449189090 48613124232580274520
144530267270150196530 48640120724410784280
144024733769285226180 48219999443474739760
142488344058615221900 47978921768418389530
142639635059618831800 48031124147754255080
141547797415868763000 47830448964175100250
141550801189411013300 47831606594071066240
143719541032332281932 48773681715197304300
143231128000881274700 48987072535768043800
142655468102199754200 51200921791133351100
141826299922181202700 50985309461387439400
77614208724531794000 153209082130016185000
145455085134562490300 52747288302868713200
159872663543135435000 61087761913557634000
199340759814977001000 91038388645045614000
