23
0 0
77674229598 -51115921787
77711121562 -50616909530
75816891365 -48033008119
77931384393 -48388035684
78274467209 -48447081785
77657548970 -47368025393
76599714950 -46676005677
77943397429 -47390133520
77825090838 -47306693654
77125986718 -46880834807
78000026458 -47300561856
78463483717 -47552968876
77257607094 -46686387677
76791857731 -46402919591
77663362151 -46920299685
78518534696 -47429027416
78611508024 -47450001291
78692712192 -47158940849
85678578970 -51700394689
79844820317 -44285104662
140123180882 -59416350539
112898659541 7531284865
