19
0 0
-683667200399554800000 7311128461984355300000
-6672940466346307000000 3059392647866172620000
-962078021980369800000 734765379534690300000
-843555993895020800000 6107644084250619900000
-5554359885308447700000 3525999576411386775000
-50467475212471631300000 -1059217719440505700000
25466070253038632700000 -35869378358358141800000
17645796835984603700000 47296082027038145200000
-15083916658496348300000 12517129819517230700000
-4255134948970199800000 -11975501455328601800000
10963179691796235700000 9919784037825362400000
16483765397245039700000 -23259127599036489800000
11175057492192574700000 33152206492654971200000
-35060463920475354300000 412917403610823200000
1886007547710947900000 6487543192928186000000
-7245264141346422300000 5697607100045269500000
-1996602279153972190000 -1816258701069481900000
-2451941419466156084782 3455804067881656971689
