19
0 0
-632721085976992200 586052999099638200
-1362709965426635450 19630166661529280
-190978312404850400 16888437432263010
-567425388266275400 487429480272129600
-1258823208684049520 74397424852114830
-26586849322619924800 -8862678354571493200
45041914806333487200 -13260580352719206500
8978027646905010200 25467673557268392500
-5096176880909932200 602851648405805600
-105280277557429200 -757694134055018999
2491494068654649800 1788330983129468200
9613892384799329200 -2833640568043647800
1220774888673964100 5172037723372121200
-10827067433154879300 -3306531826082835600
130948715470815800 724253849995528400
-1621936008726049315 172475647583005730
-304616885543694900 -241883942723963670
-772034724274783440 227388159178503300
