32
0 0
-5155393803245639000 8193265414265175115
-13692790756554983000 20953159218857782815
-6563925601613213300 2308533498412200815
-6563951807421879700 2308404962987428115
-3316699276522943100 2497176536294995415
-7037256529954127900 1758937396957982315
-7128415336785956490 1440598927520902015
-7140330253791108460 1419631035680955515
-7979689597499904870 864943138810801405
-7548300167771818270 1224118480504850315
-1816946762554287900 174805075058377446
-7361584030058532150 626224612508258895
-7365706806200395820 612061881768785025
-7369660872217454090 598015694345029925
-7761416592674661880 462490723989078715
-7764117793145776010 457806786218483545
-7881524905632201870 434828804522257875
-7888876364180059440 423311302105633305
-6675615420307513400 331374149144526075
-6674988703876282500 324039953800975945
-6672921167866559200 316992297439184025
-6566610228583545700 45077618098287048
-7833849535596372650 350083558866174415
-7142673374990924810 -4983937816176132
-7144257575503002930 -32503464330407165
-7151309737315229500 -39897929924697915
-7232918997680766540 -1792435907947419185
-7238709962455339310 -1809985323124005285
-15904547032934206600 -12122224381010915185
-7923634904128152030 375899777704872885
-52596598120102052600 -18806738563589994185
