32
0 0
857416204273974730 3153800244950120300
-104371303748094660 1567116180361258073
-106760209677612070 1571962706367527207
-106877364271653210 1572333692810865915
-106948140976090590 1572559513681657517
-92625430464995190 1632980143444153238
-107191658562522340 1575859994797385710
-122619749952833527 1623600407653502360
-132785451283445447 1655353833542552102
-128008753543332535 1583272432710112210
-128919301678838597 1591584172068224568
-143870747999369742 1648905718740966477
-128668228158555543 1585968013932755463
-191213159703751078 1839096597083733570
-148566771837459767 1653228509614846000
-131564841536602742 1581620618441430815
-143841340296074881 1632525327029504607
-144486872633280822 1595195492385015677
-147448646238836331 1412735787000599010
-148574641221673535 1632426303060057895
-166659222926388854 1596517825646747821
-153287207460781142 1463689928974070333
-178246224102441549 1672135239292499140
-175287102749351146 1632365404184004241
-186053828805719338 1624173007523499519
-187691172480500718 1624264967762415128
-224008186822207488 1603797068942262027
-270408881964531750 1632346455289349210
-275775819751471630 1631532741637294632
-320607383868129520 1625499705947385027
-390642696974277250 1640232861202212795
