23
0 0
5253879344587329500 -80616415585867687000
35636277913057028150 -21174785047145924500
29954141680542059600 -17723442578897664300
31719050154135948705 -14897501746430060815
32117864947128342750 -14857693483433598940
30761968729755545300 -13924234166386626300
31556945411028816069 -14208253953260280125
31706921443515498685 -14263125733057701540
37925027962868257000 -16782109037160860800
32282404144086222700 -14148061537987216565
32029886522542599360 -14036128611872359885
31445766539720162935 -13752131287723163400
31706270990484045760 -13799767899242863700
29638301794638562100 -12857930706755684650
31644142275156547495 -13674334067022739100
30838345838426282000 -13248311293663180600
32128550830071526250 -13801523516531298550
33433387653213680950 -13414785724344867550
32890790762331544000 -12890393143347394400
30156325767982950500 -9060702065959066500
41576923949703904000 -11962391166318121000
100695269969336026000 -714143634597962500
