19
0 0
-202991936811837350 3614353326039706700
-3191294016927798100 1432985703135033055
-348382379981138500 236372377391468300
-258505265112798900 3087089747708504400
-2712809731684184600 1643409338207341735
-28548014509420378300 -922955932072544700
12681980643568285700 -17892977969361304600
9751224788198859200 24798577112754397400
-7152399615772160300 5924803716171859200
-1773146649903677300 -5262425762237592100
5277939329906165200 4871973605053802050
8343697942023080200 -11841032769976554100
4598245627531380700 13629934916829188900
-15936979294176076800 300604334779758450
1038625063604838200 3214847079131321250
-3565395676599830250 2792936082367162950
-911636823167919370 -1131792337076045900
-1141758914346063948 1616685628303341560
