29
0 0
17906544466000472150 -64483723594743520500
27528647359658988500 -34595696912940062000
11665515223489012350 -13311435956680086750
16184054008560395990 -15326685575522028440
15289551708760743250 -14477277159302329950
16453361010519358145 -15361286893955857495
15940751439601981765 -14734706121037740160
16297556544751654265 -15190885031081008165
15828816777088687120 -14551584447069990950
16404875554447334995 -15078809511584767380
16702574902940317000 -15348540724395394965
16031760965542326482 -14730595989155941065
15954642907514516050 -14645959980676896245
16134023707456808620 -14810170490744700470
15959209405320549305 -14616501139455735600
16086005085506148185 -14727180505338959265
16197705235415281965 -14822247302079669390
16080496742346264930 -14676094515759987385
16182607960933201720 -14779949479655433670
15595542053832147125 -14063652725738237050
16472845829095776540 -14942347934700426395
15934009485153166455 -14343012550357925300
16449107083036051705 -14761706868181888355
16433551750449812460 -14633213582547311750
16646115440354324750 -14821785517267959945
33935615596140118500 -24849368221387398000
11846924835031766250 42967302235228995000
77077947485263363500 -22285614298083854000
