26
0 0
17862031315 -57295344083
17713638133 -57686108736
18816845884 -58378454637
18498830837 -58458576178
17661759243 -57738620026
18493432016 -58463881879
18166360343 -58393926807
17965202605 -58402976669
19059546418 -58603504043
17948377752 -58403193728
18587250181 -58539663497
18294443305 -58499586439
18063933116 -58567645842
18051386996 -58570901729
18038798793 -59077442497
17629674062 -59229447919
15047677555 -62118413544
19245720680 -58642971818
18219068493 -59494524134
18285156868 -59440541850
15498461933 -62497987976
30882435866 -104703460062
19252861665 -58638753648
19253376956 -58638550438
19265377094 -58633976932
