26
0 0
-64461341686 80363379539
-814073892 -2347731620
-684782140 -2512683383
-1737020738 -4013653898
-1399900010 -4031059906
-1379836478 -4057912073
-4523554363 -7764805537
-466644955 -3088266395
-421677765 -3760740604
-296840315 -2834765716
-2329010180 -5934907707
-301553815 -2844518628
-324218330 -2920721257
-354740346 -3359718550
-418956105 -3761288850
-351902309 -3361156455
-559124141 -5369107714
-423894312 -4080010134
-131390975 -3818374232
-407487972 -4087453831
-74733001 -4099778245
2742664538 -9932756830
1393741023 -4918747731
1212679815 -4174941821
1329231714 -4181256991
