23
0 0
-7575229946703055900 -103416723979925928100
7675872144879113670 -2799678556222616200
7035594096804848690 -3525579112513250700
7581885409826680800 -1892091213079115690
7681349184667460640 -1646747945860587890
7871964741760946670 -1620302592096458690
7284925902255982978 -1357347241438793180
7680971122557090740 -1320481780645247490
7759756938234456000 -1301940215393441590
6745499434464549490 -1130469988192264910
7784025689610599440 -1301209694680045740
7540501125598191480 -1226343118077385620
7742019382670868000 -1247527702590972980
7787836583338159050 -1252649463897466750
7538730991399808800 -1200208939341587220
7697757040911217400 -1101038074146175660
7328542730703611353 -977817736768416710
8097250940703909760 -760723226465083450
8252003417925741500 -759420686394923380
11794303782206807000 43690354592624704900
8367903999155463100 -684301228490505200
12685342372870044100 3078873555074804300
