32
0 0
3773952805971785570 -5138955126115920766
670671242805042290 -60410876902495956
663033285372255730 21885152939270273
663398580105978240 26680678394216794
569639104230976496 97941476109883272
597484276512543602 117016810260017596
683034120775920530 133778683775165410
552546193981990248 110747541453573270
672855444661651540 135370339240137260
593306179131471598 127132364516499594
680473976902439810 136906068876433515
513895686341635307 103686140445604135
640209662625564810 143248696183378054
581075712663754436 125849246431094767
635584209522937407 142299636161215250
639761792045690530 145556144410262566
668374702122192270 152070166268812263
672400163237639120 155214288060665701
523735970680628426 119334374778362413
566146045473569730 149668198382754296
566004547136979572 150830680105122976
578692078088901995 153120660757881168
204554577707525600 224134388538820544
671784909090853310 179257004184987794
650979250073181670 173712038584106665
581423529442680422 155194970983640381
590655911160005704 226500511065635774
241713122542933900 229698830582935404
-177100264151551840 4488492341015612734
867661472259414670 2383039898881127034
5298098561120656270 1529885031303668234
