23
0 0
58381363868 19049017334
45051231601 38139563955
44213629743 38608887097
38047474890 33820646602
39335990024 45792169410
49740021185 49273353836
39522330602 46145094299
39389244126 46203743852
39854451250 46812110018
38994138424 45829688317
39167243911 46035644158
39220536728 46490437986
38698480639 46219629273
38311256177 45760974210
38868575626 46432399391
38329693389 46697838576
39529659558 47286420832
36981620525 46116747753
113366451293 142295882275
38312757159 49117550917
3300550503 44352366477
-2802691862 239093026104
