23
0 0
118112103851810044090 152356666860604743000
4164199288541184790 47687197570910491400
1016427968742277790 44660596427174734320
716052353562606990 46665279853601986900
727818497362865890 48662513419621215700
352483081169440650 46027059536539860320
267832940305907470 46210625026175128140
307247924979333660 42616206676625554700
245185501681037010 46837285624972447300
185727709889853190 45767881273142913850
138130961145526670 45248580863483138965
90397460814477790 46067830808609137100
61589887362658490 45295741679736343502
60360983141473580 45060492454741833800
52621927753474120 45885637960871466240
-466657115065592228 45614848161267445030
-779907806342272190 43007085216296736500
52254380876380770 46682350597715277700
-843548668804418880 46217127504023952170
-2466156966555548710 46824687820132173200
-35416336093291841910 28377416353029056000
-98496062166551377910 74067048122442077000
