23
0 0
1995874889154808750 -9203261728876896100
2375726448749114674 -4602603858039188410
2461982876619293020 -4601007470287996070
2364864325232739406 -4399234933616228788
2366541206730446662 -4397710144528384254
2363174342117633773 -4364809738097177111
2388447876798542666 -4405907578783472162
2378763349395926341 -4372931608667758220
2367326173121956529 -4366168302319805948
2394773203880617818 -4374944046210473862
2366446883211459300 -4323076047978834150
2344460911232829219 -4279789390351026940
2355710581132530203 -4294651134835099520
2357214938889416713 -4296083453787285280
2355872038426850079 -4284043731214544170
2394506001621403481 -4354043491275374266
2380736670435541200 -4327566026980680920
2429629598129154900 -4392350276273473092
2412000451181854330 -4360065017959683508
2449418842170320270 -4329209782198543330
3173597917692885060 -4610727443519961080
3976540379571871700 -4881907469468447590
