23
0 0
138685970353867500000 -1580149472520458770000
495641113634330451000 -229045253154669224000
388185784724842599000 -175153361887702209000
270634583855142210000 -118621673766199584000
412362771825954783000 -166285332935227640900
391322913054167959300 -154201742951342956200
407400231074535506900 -158891917500504019470
419940233830777816000 -163746813803817551900
413072346070676435000 -160787472709901224100
414645831772297190000 -158640543476248693209
366707540077766245000 -142492163966139638000
402768791930824621200 -154068443178453665800
408683879243608127200 -155836370526733237900
389882087096091146000 -146651821425555829000
404324254698979346300 -151737092346255789300
414647779815424503000 -154055258813219478100
350208472963658201000 -94133926641288140000
420307907956976886000 -156146087362375272400
509226152366320730000 -188938066124663580000
442965289967949885000 -84948808912056192000
616681207530195220000 91652125875405920000
742761094951036850000 239802721624003030000
