26
0 0
16562354448 166369849372
16622296393 166500774476
16358281882 167403918964
17093276427 166709642771
16482086084 167509882578
16877190730 167845462370
16883330355 167895272419
16400241615 167917195080
16416650882 167931489507
16105305633 167915123245
16121227154 167926045369
16439374182 168144445368
17254514061 168237740117
16816030827 168187936191
16422287894 168142946597
15795547372 168154699931
16790772500 168301773922
16384543150 168252085503
15522559834 167857765488
18112943850 169046112505
17456730073 168835528622
15895737484 173066813838
15003315936 168045801515
14878785523 168029667031
4664375779 166796975573
