29
0 0
47249522172392951000 -45509801726937229200
56244205784778802600 -55713853751816484000
78008198992230536000 -81214122398011523000
58297376597479664300 -41610325275580737350
59642171329251145070 -42995355280303191100
59443691047388365300 -41465250947222485957
60663334010580011500 -42796498388972680300
60011936131989666170 -41984312176312444720
59150914520910224780 -40415493833923974340
58504098293897826600 -39524405194118224900
59877381625377876640 -40998157896822727020
59711574600795281022 -40686706567762780120
60188709561421896950 -41023509410026540810
59746378520765745514 -40299627135553708400
60047222790652391880 -40669008293035204550
59542326620979014210 -39787718735089902100
60407004760794634460 -40839895879884916050
60709907865652140040 -41278904313187445660
59983000009295272030 -40218225141436948200
60307746881672603850 -40527002832853914960
60198352028799550260 -39744279066447510100
60807079338595155300 -40515398840755218580
59506199331456668810 -38774290082445813300
61397237060287623000 -40863308970645931330
60937754404491858200 -39675336737450835800
58543282596893157000 -32837336639898593700
66114308689398361200 -42633135624121231400
65549965242526282800 -33447342424575344900
