23
0 0
54345995513546691000 32294505826753863200
16678853861628888500 25498831397530388300
15653789090895695600 24880066737092407070
15190343285155528300 24996694582608322300
15049037071023682410 25067625301040455180
14755329940176889780 24619641482076030530
14896804790193887290 24906174115649970340
14901351733076484820 24914096711926198670
14655610280925440540 24674399980408172300
14640909387429512160 24840625062721518820
14677027832138170600 25016742030664576550
13894259454142348050 23700595774125780660
14493662540736117580 24759992209125706790
14006515490077799707 23956778809130562010
14062462852315517570 24086502667013500950
14533841504054991180 24997616232976251100
14632829338195376730 25171873541687261250
13773618168183671130 23801457388485693200
14624358118810289450 25293629546748960640
12461117610517607100 24963342477756061650
9421480773983619900 27524908129353377400
-44927771498951214000 55927048860677366000
