19
0 0
475972251647779406 -693744299906573050
838786313273632530 65331911470169950
890265046569515750 -1205708606747962630
1075014011368299100 680102149897944930
-650520493016402730 -102805931586384910
819607597457700220 557433461047699910
-416583085267861990 -262660029897324330
911734052731573370 -923185819586778590
795513783417086710 43687868630618040
40380555867923730 -26653088722013020
478864225636401316 -645447168345007860
876842615737539870 -891608023266091360
809706142145471650 511427692075978780
-371790192961599520 -248232057246290071
1593003336645161870 -16160690718251160640
13675039288034091970 8766182417067089460
-13953284059757836030 6766095912747674160
438252854973803970 -209470796145467640
