19
805410417206008 912910450625057
-912910450625057 -107500033419049
107500033419049 -805410417206008
-82304577701214 -200116196185934
200116196185934 117811618484720
-117811618484720 82304577701214
-109632504518141 67201754835890
-67201754835890 -176834259354031
176834259354031 109632504518141
236601310698438 479647586037688
-479647586037688 -243046275339250
243046275339250 -236601310698438
-945435988101744 -108115492505601
108115492505601 -837320495596143
837320495596143 945435988101744
193221297384378 355255533692079
-355255533692079 -162034236307701
162034236307701 -193221297384378
0 0
