19
0 0
-295665965306518700 3362477294490666450
-3297034303262931900 1355637872177846900
-523607635058594450 346072753999835400
-370572121165919900 2939329817010099450
-2744311718497561850 1629112464363119916
-25556384679651392050 -780017682509227300
14312336679649304450 -20687969407678927100
10597030952355813950 28455409709201426400
-6985331496094415550 5422529424285440050
-2253499218140723200 -7168965033911655100
5382881441289914450 4465626195013002500
8676486519722807950 -12678997780730238100
5023194921787599450 15523028279366670900
-17920682978956454550 4849128693729350
875363570979216650 3085364524909592250
-3504327945705364450 2700468954732143450
-1087957143556898120 -1025373808944470600
-1077531753921396655 1565565964932283446
