26
0 0
2036772873917947424 66390947184776860
2097967511382227920 225262691872223480
2231774797427269773 579942073993552080
2475769400734386540 -15758322744129100
2410185552833444762 513726341993488524
2413818131445059410 561684418108551460
10217035928687091400 -6473657033225512180
2283731123328722116 690258378175466684
2304537496533968038 716683222040481140
2253721548655387290 708124802523108688
3432710600765705380 45769589252095680
2254642984774725726 707775736354396894
2261046796402761714 709421500517606140
2297792011956425038 721388827702291066
2304141600078615452 719817050217759326
2297847474965978878 721994379972100642
2700996669614838020 849027624254145200
2379453572871626046 747969428799810892
2299242906302163194 744151503607766934
2382713944698022568 814863400689998300
2366845365260426280 868713684796619220
2514881816762592020 1226609868106973520
2403314631046001752 1177236702350593020
2342151270835736964 1153782204550874660
2336702177660785796 1200420129801861940
