23
0 0
5707165931843294140 -4034555854599910030
5711050769082219913 -3994018463877059550
5511492996669811360 -3838282702303047840
5737135231433853200 -3843705681896768907
5760349917713554557 -3845065517348380545
5702343052016742404 -3731350925429693888
5582323514159371065 -3649392464546712130
5735095701553787091 -3729121839026513117
5720410059114614603 -3718895797389512322
5654322744202842894 -3674534211245518200
5741635512406806701 -3716571154333855294
5787382059171054520 -3742684119343750134
5648389785696528729 -3634074914101598390
5618005294089577779 -3614129215148145490
5701442228277811193 -3665562256650001400
5794915348973919770 -3723869195108413264
5802232155423011650 -3724660243554251898
5814322192941237210 -3686301694632705390
6238355167922621370 -4004086244248017540
5958357362068702050 -3288268416044818460
9432476410373719200 -4079025871052156090
6752476193190098000 -1778721052326251100
