19
0 0
-809383752051777100 7142073764040328700
-6556148628537605900 3122404504842239970
-911058858347991100 610702093339313500
-845295846901805800 6207523463462455700
-5506798824932900100 3589433795126213810
-49304019445820434000 -919801138988644700
24593796310215498000 -34679179185934983100
16981253708872475000 46228947093067497900
-15231753743741458000 13309128634886823000
-4287851727405995100 -13663668966423865100
11537922756421700000 9572828459097576700
17010534879474519000 -24103948926556397100
10242232785301077000 31143668766336731900
-35188449687440273000 467507779845624400
1723631870226534000 6564796121175504600
-6887283981873789000 5433210624829373200
-1810720103914455640 -1571209562318906200
-2474308209838234200 3504707496367938281
