23
0 0
-7448839537 -61352627227
33865006140 -29242374469
33045950756 -27365048339
36529439886 -28022690147
36466155866 -27897724276
30912963917 -23646353667
36831062646 -28143804036
36593884409 -27918973613
36432034028 -27709654181
36802910287 -28077693605
36676183617 -27890570489
36749870842 -27945202546
36674438408 -27789066458
36006449170 -27272157368
36328740131 -27254931661
36046522109 -26774407900
38354404629 -27331599585
37998075376 -27076419729
34789195353 -24610562040
39761566778 -26970543278
47195724108 -24250829085
70348164688 -18667331621
