29
0 0
-131195199358142906000 -33058516963675487000
-80396249502523403000 -27696006786157750000
-147527448542927709000 -88594636717483712000
-82730232709736642900 -56192837551558316400
-80229373159427767600 -54908228072323785200
-81242253640446970790 -56746022876668007900
-82937124038082922560 -58892249026472558200
-80214268583447269700 -56965603075903512300
-81222190186224528700 -57924747867991525490
-81658716292388670810 -58336376005052691700
-82007426677898170242 -58851735066743442980
-80832006921727116800 -57939428393251779520
-77129670168546898500 -55367297124947202800
-81277030908624974650 -58346086613151006980
-80870255290873636800 -58319233126756202980
-80173241276544330300 -57846335665964911060
-84752146166132094100 -61151226149918288500
-81701739608424548760 -58965661140216110300
-81286945555977252410 -58682555942190328588
-83095704351542238400 -60074131862777427900
-80185378576708385900 -58791574522892240093
-82302671348925888530 -60448986131041380900
-75733733436690642800 -58259338366373558590
-83480114284203828400 -61926643212636319600
-81381949496962793710 -61079006827065761400
-52729091572630710000 -57978194381853246770
-65767594434255562000 -73455227955247040000
-210927161708584015000 -247460985807653218000
