32
0 0
-42969612526502684800 24540020329845151900
-44117515469009851500 13332793140865744900
-42327339141384408200 10009028664134095300
-47204270096416560200 7948937065185280200
-44668182853142046280 6578152777245868400
-47375775964318249300 7877394353553831900
-43689350540402274100 6713018470283205800
-44544251481622891230 6378232604371833700
-44849501923083393360 6189214964630443940
-45151328210995730500 6383110612140181870
-44774590227084092330 6129419058463620760
-45599857009405883420 6432926891651890600
-44405954687032938800 6178825739332334460
-44689375758520636700 6116046096864067420
-45191506904578538230 6046708298387365170
-45194668482281836240 6023241717591400970
-45695873481386898420 5977318149420643430
-45705970458207367480 5941110963871775240
-44712381183999893630 6100598938412442630
-44170886700967024600 5739355242163177920
-44337607436150267900 5759524210191677640
-44059165951028455200 5665189185323846140
-44059776238155379700 5665253665650132020
-44866405465681420600 5744000129246518790
-44719171446962875140 5592379959962281010
-45362722905444980079 4884337848445895270
-44830466155751354430 4779352465058959190
-53152061674217060400 -15052430567142122100
-53671141096647451800 -94296978539594500
-56184721791138050000 4236450957245982900
-106143507013867736000 -2243962006421716600
