23
0 0
-301652348388006998000 217278989264610542000
-86321590142800379600 -75073765119345973180
-76263168198855239000 -69535826008041985400
-77419150135015482540 -72861954604069224200
-78386289218022258489 -75463205157375651160
-74737225102291723800 -71356940714054496800
-76557981921904731840 -73824900286571003600
-77517464254687293560 -74756881523809055100
-78107272296459822960 -75492347732809900800
-78612738201277483600 -76084800443678729780
-79227095664460386960 -76767922597448119934
-76359722029349437000 -74003506274427761800
-77638545699700195140 -75270551155947033660
-77669847976482519920 -76143326039642370540
-51278503462721012000 -53568953715860272000
-78156112245664284300 -76727260486045026096
-59253513263138047000 -62630031882798346000
-69050219221239945600 -76777130598068130282
-67206114084725609000 -77489541697864915400
-79016559112512699920 -91301678902073368200
-93067630970632055800 -107804990953778144000
-161373838156135696000 -252351307469698350000
