23
0 0
39113281684649837900 -29747710787951574420
8491339998065787900 -1025538604253049520
6678642917462679300 -2733855478432274320
5342951327726340400 -149678667551506650
5295133100050668100 86744967640400031
6193552721984885500 109210011084009753
2890968624844445180 249089420373541210
4489118019107292520 641457211406500520
4720864993135613100 712583430054035110
1614812962613075400 246133009900765300
4880298675209841600 746337705823680870
3377428255730770380 560977761160205990
4540330145867722890 795698449114184310
4713701577503383800 830133481517744530
3277116307224440060 593283533991561290
3856754398011548140 1112502030554909680
2317617970848174600 687367092179280980
4844148531074243700 2408870153748877980
5979298107756330500 2984373420357156680
-109652729553563234100 85882696920101336580
6719344360101331100 3673447119641718480
26635881332006750900 29943758013223465580
