23
0 0
59219413414 -166378440
-107518461 17131794402
4089115991 10143797645
-933174864 16919694196
-1066949755 17122827713
-1082409065 15801067740
-1517717750 16898716641
-1513711217 16852252063
-1725013270 17125248917
-1699050792 16811719341
-1769546796 16936455188
-1829559060 17410359935
-1893790761 17126690614
-1226498908 11008248132
-1890750359 16922551279
-2470431020 17947798923
-2880795873 20903958833
-2278482727 16527825457
-2649447705 18261750589
-2607132760 17882222624
-35582869882 8011596978
-18372881234 45809389931
