26
0 0
120934230667825182900 16946547703006114590
121021839779628280970 16927347136729350050
121849199642168903720 17498867844966099850
121628999999128189990 15520960413138523900
121897267406912045683 17457164280404623840
122370310566387877130 16629838340319912250
123550440208301135700 16463670119249505510
122268208570822882110 17819241536140041150
122396570046276197880 17759556753404270790
122247653812539617350 17918943551023826470
122258352068158369650 17913601377422709790
123029102787627139800 17600384504180826290
123691969931657512800 16373111781373565790
123396674888452810300 16935502618610511460
122832022217173327570 18008640840916246370
122493840400661957880 18881319348198918700
123440491802055287300 17289100265871553720
123141612957965578600 18196527555350532300
122104640089443496060 19322548398455991400
128561497650309146700 13427158357944307400
125815112005791971700 16034844198615234100
126316786784027310900 20084547299522355900
122119157613419967410 19543987163032409500
122088772430222073010 19599477675738334800
118849463059854877900 25562039267843368800
