23
0 0
43655312463 59534928483
14711755927 41768023942
12341979662 38639602218
15780102781 27905336873
11153552022 40383585235
10621217810 39087810537
10468275651 38657714504
10503470414 39507932218
9919539145 37323077077
9667746380 36710332602
10236101292 39133141432
10072006485 38916103936
10156235132 39267771039
10019434097 39234021255
10160717385 39379618002
10017176926 39272522751
8980629581 38670224614
9926794321 39795827611
7306265329 41013768366
9808641678 42470443404
571821363 44698859637
-3344133539 46872269379
