29
0 0
39840979255365991000 70602229443184211500
12189532872601737000 47967327114368035500
-19311066148548600600 67637984264583122000
-19858973996056900800 39905119919002741650
-19675105515853456300 39526364679764538465
-20216575118678582500 39648886573465593880
-20304053364905213350 39755586673692437745
-20509586262625133250 39596798266308387500
-20676546525298820095 40263074245125660950
-20635567418241278145 39633437178466817125
-20422135075653294000 39220731269858316855
-20559297613715208415 39481592959727856645
-20669854066835135160 39474354547307384020
-20834925476097276815 39788884037598013415
-20743141262861769745 39604491830853268380
-20645251507103866615 39393440149736823570
-20776011302203478210 39459556957590886590
-20753597433326175420 39364391908688605532
-20642538839648835810 38747764861843313050
-21125527108343627865 39618811548206295865
-20792062663116406325 38966803066631927385
-21422376283597096030 39928609316402264250
-21034601592447506814 39164996904482593270
-21227423612299954945 38580466703688658750
-21717909679643365700 39398721581359608365
-23543875249329611100 36278519280296308200
-35727960163644030500 46982754085615006500
-88795637969288034000 17396835898977716000
