32
0 0
40605310195 4034836604
30604923709 20190900556
19854693654 19407970670
19846913270 19413546910
19767252712 19368977758
20012078745 19946771791
19922120212 20010841921
19893398820 20040822946
20277847481 20468370893
20200985303 20391010418
18112002967 18308027248
19703510469 20107574268
19701684009 20108934058
19698582876 20110085125
19965608101 20399465988
19965707345 20403178762
20197518198 20642033084
20199314775 20648710871
19472759178 19932447306
19463433334 19939196340
19426703025 19938684869
19037539212 19887822432
19482694567 20492150537
19240159968 20244606850
19239781685 20244872877
19235969464 20249935121
17979100924 20719060003
17960144469 20733328020
16241429359 24042360910
20553217412 21724702319
46348743796 70679555910
