23
0 0
1811753661176828700 -15972051466398967400
17271602388665741000 -15056000393972607400
7456533194208556183 -1702549238811760870
7531476923390135735 -1615523108267864234
7611059177962317860 -1543981530299047599
7471473201111511464 -1533146627737243588
7526328441629310988 -1523328331125505552
7564978385715061584 -1531092998742820279
7601537665360272393 -1530102165385924821
7625784881431665880 -1530503483911745321
7632541293748139920 -1530927606715225277
7525165696072335785 -1509074368234367156
7571609774848290033 -1517437786025191781
7585906759727155079 -1481680623702165149
7116906147175700390 -1368630758301171650
7656563205871610170 -1459608795061788120
7230890165070129100 -1373386227904234260
7504222116431474638 -1381203660981034500
7486730445997786620 -1342265746020324260
7716352729895309890 -1383154967388540550
7779794420527158850 -1394418805854655690
11072981416088833200 1096243351590506100
