32
0 0
2713387862519802730 -3238889116531731200
1550629991364023660 -752245820922617850
1567780901127900870 -685054555503738440
1571717908893463270 -680969785953357660
1323240766079482710 -271080336608273341
1351749446662676310 -235954894734267430
2456503637135604930 -424542287833589548
1243467529273467460 -140610373397553310
2101894051321854430 -214979247291539990
1478935663892562230 37441156345378750
2440282217911293630 -246070142629220400
939178919286844935 -91577468627832740
1756041860060741120 52078103123881240
1453226869224414930 47720773461764620
1629299855010921140 97882601426199180
1786722791060428150 173628288904608350
2393373809465724330 284381910769991420
2442003592758611530 312006137988356210
1024299654266990480 38903337259997570
1116736043009630470 181277059117151350
1115119447303922000 184747527077813030
1424921153862410690 242000167066237150
-2155871953780465070 2659659998840797900
2270683728634771930 1692050543605923600
2264709894981187830 1693361335974931100
2128430495392087330 1723385280161243800
2235404929608476930 1988580136574613500
-2115571564453469970 2659233844265594200
2488682733780188630 2926582305155159100
2728392808683366330 3211283242857710600
66007053011285955130 15764584519316406600
