19
0 0
-761714517054659500 7140304955972036600
-6818059466883158200 3137439521786351050
-1004061507691344600 650379937931946800
-817556223718368900 6274468902896873000
-5906449535669050700 3602733878659486070
-50755622298262456300 -1102532475880755300
25350007935898320700 -35824253943579766400
18152299760024815700 46371932107819087600
-14783055936198662300 11635856228966609600
-4162011706161957000 -12854532723353244400
11897148115398501700 9854729884120667200
16219213685696671700 -23067654057524947400
10301986238079212700 29866918374292008600
-38587023058261747300 158105487103058300
1911550247029330000 6544895528361935900
-7458367881329901000 5630224241995329200
-2106914226645893100 -1796290010471781600
-2499862810239038180 3548281645859513719
