32
0 0
96021300336 -20956950820
39518589958 19329708841
39513142521 19397845455
40664032147 20838681342
39893903365 21200242539
39969573299 21600283368
40012431388 21823536947
39633179911 21502934225
39488267921 21359643600
38812167755 20808260405
39476860390 21420407014
39476623865 21433402388
38869950703 20883657590
39389956911 21436605888
39318906630 21497511841
39437881733 21628863098
39433757118 21632554939
39572441748 21798611809
38968349553 21164427864
37466720780 20642886108
38438108169 21179596497
37385411179 20614371791
38333184102 21140176342
39096440192 21611016580
39096818281 21612271949
38753648221 21773987648
38752221551 21783434899
4489874629 44168666310
36275342021 27940919805
42482357657 33415041783
104693326405 90780497632
