23
0 0
138684242053 -84982964951
48941463405 -21786509264
44664787650 11022643046
42416598555 11324465532
38539627418 11484709130
41165360165 14402517150
41829610790 14294589822
41901875723 14772215912
42336929360 14999520024
41754880118 14797754771
41355114824 14678628726
41736114175 14817360504
40598645587 14571206352
40874109997 14678057255
41741244347 14990535166
41301172405 14859916703
24536235296 17873423365
40915524799 14981279518
41208871699 15372392529
28365874820 25219040416
31165455739 33661114807
44260908987 88529146837
