23
0 0
183844413768 129346232372
105939594767 134759708218
95300068054 135496392952
95943644122 142697846007
95178484257 141576085464
96310331734 143302430928
95993342260 143194729481
95609468994 143268134339
95592792866 143336901741
95353075883 142982144653
95601938842 143536775778
95354517542 143456240472
95064559849 143267842258
94876953382 143200008352
94916470977 143355177385
94998099331 143742245819
95213047280 144090621266
95421215149 144751874274
-181932104225 152542673319
54228004059 160898102151
57735625187 172487907528
72136030545 302203255402
