23
0 0
-559543988778781355 1662129827466991360
-499778368669903250 1873015434943483970
-566808832547134480 1989954124789882560
-644976560902106470 2099961529701466877
-585517885052777825 2181078374888171900
-577222221033943920 2191639368227952510
-460426713918844800 2335623613295487490
-792945748985692660 2215864148669740460
-699021403306892865 2301417424409838875
-555878071856306090 2384421161740812090
-656122696812440355 2379775773495586465
-343427235506370250 2560775106418042825
-266581799956635100 2613006269279592850
-401349623205125600 2604407803155618840
-202869639376997650 2905056440967698700
-665153255572119285 2503494213819058320
3241289227802150750 7048219125144844100
-849985951207091375 2434377724659068030
-918668105885737175 2611445319241063580
-1512389942694947100 3447671971523405600
-2193505561305500600 3739853829571648400
-3398337701529712050 4725535405902650500
