23
0 0
126151996744330915400 -40036597898125218600
5637262817430450900 5061343262123183550
3471631052265986650 3219872855219880950
3735123041700446550 4137741191033709245
3341352231736447185 3263461533580455350
3801238253838211250 4363047101173391900
3348010405533637430 4085629749036063455
3276646241295655035 4001457029976395620
4347077380017151050 5587107433629288900
3038083064451213040 3910228142170072255
3238530148055103270 4174162550172494080
3325723793968848325 4289818265903754845
1028381111572939550 1367763011925466550
3061361212577927400 4074962310459445070
3029202718606530595 4195035039878251715
2936856539408383113 4069379031784874735
1759356763587748400 3134132656204607450
2598721886525544000 5042192667738077650
3057326573398065250 6138469200187327250
2419872623861248650 4866079895186805250
-812206008669777200 1922650957193226550
-28986863063586582100 53821235423235394400
