23
0 0
24763969203 203266149217
-24894524497 104627055001
-49806844347 103768785554
-49279489753 101950014871
-48164342323 98286000196
-51663148603 101139644951
-51972055143 101611083818
-52216848625 101839716669
-52438574326 101898563327
-52277028395 101699184737
-52047444453 101386988963
-52284738489 101690412281
-51712742971 100480314420
-51862599813 100767649986
-52358983180 101732048869
-52175846739 101365337227
-41916036504 66937936007
-52171958368 100961888975
-52668972823 101307872193
-58088880672 88729621399
-62794337825 94076317876
-151361626881 162980820298
