19
0 0
-294202639418062350 3632982168075813600
-3334063765488629600 1502862617461850075
-435218469061646400 297473343159005050
-383525586576487850 3081907488275618750
-2858342931650823100 1722331357982685349
-25008948809887722100 -277308512718217350
12633552789073744400 -17932979735357090150
9484870895453808900 25284393676139263850
-7623737558740965600 6303597784705796650
-1913313871970612100 -5813948565966545150
5428172344435483900 4757171482254938650
8367413582733285900 -11949123868841055650
5666591144832901900 16742531291859938850
-17997879438518494600 335369655374705850
952675716437636700 3221745905798924600
-3769549078079029300 2854236849561412750
-1064783816590817775 -1033122312518909100
-1179153822584102715 1678560320726398218
