26
0 0
-168944193 -170995886
-196532403 -219767985
-203823228 -280215147
-196893810 -446197638
-189596443 -493663404
-1547332988 -294925549
-1659887546 -389661441
-1807682960 -464812417
-2259286156 -936273877
-2323075399 -991390547
-2466081549 -1116922098
-2804789127 -1602735480
-3114793578 -1902098856
-3591069673 -2373142534
-3705354277 -2487641980
-1424187649 442365423
-1848427517 455169834
-1989924940 471348283
-2010404795 475097122
-2252928838 218317578
-2442878192 227188364
-2985327734 256188259
-3096676449 243289044
-3284198634 253010375
-6254855738 399405702
