19
0 0
5509703442804327850 -26568610231389550
2777860812805795758 4758258843671435700
409581504818715450 532493474485193900
4843759814141351600 61892640619279900
3034222936650056470 4137304118335572550
2930954546593427975 66121853800599334000
-53218978967132047500 -30549214415843634000
58575588676148717500 -30840949151315667500
9594590034159426000 9920309300167172500
-7878831441619181500 3322435448164094950
6571805663069873100 -8511054514891219000
-19517595541760606000 -11142137770418949500
24917875575333543500 -11358233284976504500
2887284222037195460 27232061288835498000
4974565956174101800 -2126888051019492550
4864359547905732200 5344975906126355300
-1551361248469710150 1513602378333185555
2762521418536707500 1577230077813349000
