19
0 0
4591950470098501200 -7423350815872453700
8724785622798735900 265070352088969200
8505120613850439600 -12679146622332512300
11319853236420900800 6281873009138979800
-6508237757374100300 -761006850589946100
8838212968062686400 5288717106264038100
-4407319381386821900 -2413592414605120445
8885842506221369000 -10033405155442399100
8269201402462832200 114099998073498900
358536271963681700 -319062331366481600
4688998418470721620 -6953318130490498300
8553755236283470800 -9660283776497828000
8681124010170561800 4814560404752108000
-3918143153556794600 -2312557092037759193
9666301103366302000 -210864304896794907300
182372644710387155700 106380063948669722700
-178722209720856154300 97325960484341759700
4438912030965745700 -2386093487927827300
