23
0 0
105906061449313962500 7095580562403202000
67917000307058875185 4761757569858043500
69894101353364107950 13092172794111889200
68794367015993874750 13236026443407015100
67648580878371543400 13351553862694363600
68920039330865140450 14241436218432615120
68430724121719272900 14152079217106878315
68327138908315370820 14131893280500707175
67625770825607130350 14017790387183354209
68297263426239600355 14205635111170068660
65717628054170705800 13695564858242832635
68441624356266816040 14290454739101590660
68105009249458815575 14225729600707657360
68378969772617864905 14333144670135953490
68136446821629531045 14362852880796902285
68052688027869195640 14374909180288473230
68135591423079802595 14509530565085297750
68502744003721541930 14759935323262772450
66416008244869453800 14645686051890218050
69544325269482902200 15497133311806268100
67316012607021223050 16304571857804928750
111430294593086576000 98312665794761371500
