23
0 0
-3480899098438709000 9636654270930468940
-2422870057475703731 1250219437713886280
-2064614252894289880 942708638717985820
-2280657653710807160 606001345104108790
-1785875142730289480 811948020075127630
-1951615499848509120 723434673185330580
-2274959494068180407 594836130077393666
-1724773493287731200 448802788505113979
-2277617628043749522 591754866622976455
-2273111728382429432 571068472737815922
-2319497686788242620 564115717310652736
-1219037883920112000 305790232489203750
-2272101788859684148 551961412438188006
-2268963937982264986 551172569969821247
-2297476714623854145 557995182178294522
-2314952719263639522 528682447600923595
-2337424128447980875 567658614220521738
-2350184326448828231 532527696914581301
-2345506424387241801 477318280515196914
-2563581859321318750 477392632329653224
-2583947943161601170 386051358280027890
-7393212716333743800 -2786058867011524360
