29
0 0
44023156377382547400 -15926196902687432800
31603611056821138720 -8084856334590551800
19279962128589802400 -22331132287329513800
30923605118853980600 -6182693736095618660
30239621672712331980 -6363520356882783400
30727717972843789690 -5966538707808087640
30453394206811095500 -5713413588887200636
30959494803235805580 -5798565306790229078
30750517692400456860 -5621203750221335247
30792441307347988098 -5618293565181502225
31175771678830730440 -5838725002065792120
30823300830284213946 -5561804171644027550
30721377421052143524 -5542570249066366278
30769762909713075446 -5548186800014571508
30981625588809007920 -5574596274699916176
29817095558452610780 -5349287551973829920
30735003218560715078 -5492514955659528148
30513478178729343492 -5445212562809228462
30816284642760750992 -5498918938545481502
30784646217980240812 -5483074747546764852
30912639595591309780 -5192284429366793340
30618453089627880444 -5142674217647481680
31139538592972013540 -5049136224624455720
30140650968648030160 -4540956417053470400
31050053161229104220 -4482138400607820940
35187769597309571800 -2414886920182056000
26947406951396549200 1499794715235774400
32741887566627641800 1970120393768644400
