19
0 0
-416945978492418814 890231225004938580
-979435845342626980 84029803122274590
-163509626678844680 44892745570531460
-374069423262708069 726181361752483490
-858802773893492960 203186920804198090
-18917723079041280250 -8336454226432064500
16261496698604535750 -11324770429987949700
1259844556601705750 20635485684547221300
-3410604176928884550 1392283136382584700
82603544604030070 -2759580202660084100
1931618808489808850 2341558094404711000
4858949883592877450 -3416635959678189900
112472616275880990 6806523239750906600
-6367804323703804450 -2415626251945500600
-33382037856625680 862157145491236410
-1146904949613793080 430242959445388880
-216094836364627250 -318139076809412300
-465460607945015250 324753676042404300
