23
0 0
247749038082833435000 36899907617304820000
190402341740712330000 58034617933055156000
173327397998510890000 63674040368253543500
103885362468551449047 72022179191850803500
105180080812354664400 86370202331913746195
128865793391963023000 106840917234211208500
109021759780493535000 90608730438534730750
108555635241677029150 91154104930752507750
106538325496162429750 88729829276702617350
106909508385531824850 89616885996986934700
103023224674110432700 86516282837577095290
105923039633582797500 88957126498355556550
108338899855186907550 90987075897779417400
107901856248434888650 91459629827250086300
106058992496983431650 89969119046811904200
105956459065771661600 89895779141347343250
84360358636261373000 74481704664065301500
103546988397350056925 88779497643033832950
104108365039950004330 92908895699383018000
101629958872511835450 91603239377977841800
103602765768731893450 96220259178871521000
-1278145832645165000 212298811015413665000
