23
0 0
-19409477462 -27202800707
-19131127423 -27204764760
-11966535582 -18990361883
-16211637817 -27037876542
-14283839605 -28117847167
-13864760121 -27875325684
-13195139371 -26579992257
-13556697250 -27319138547
-12774985479 -26762777509
-13117149671 -27484438305
-12831098998 -27034134657
-13157836049 -28303396288
-12657459700 -27247032668
-11791245883 -25767764921
-12230271250 -26727305578
-12260555460 -26863098861
-11496757654 -26398049341
-11734362087 -26689189776
-12314889196 -28447794946
-11520359886 -28733378311
-11044188288 -33560499865
22175896861 -101409278714
