23
0 0
283810109666374200 13720545315658620400
-4056112977389506000 27343466273961471000
-5657147922631987960 3737883140500503580
-6496673411561273198 2582306309813611640
-6564340141129020786 2543173665810376080
-6408750477146714560 2211624058770846890
-6873593631306198540 2370740969509807080
-5741107957765180540 1976885079306067388
-6546602858113262634 2240225048816426300
-6728317744602901844 2269350506619115020
-6347321936186504020 2139941504223255038
-6602302911037019094 2188734990482642448
-6540496686423551174 2147677414994927112
-6469936723690647224 2084417722803059796
-6540305218479944824 2106386610691916798
-6565871799070173272 2113274561076101978
-6550669327928983530 2098044772435034498
-6626860497963644291 2109256176793733708
-8171552901047523040 -41898500244350535000
-6939813537937317640 1104266571126720300
-9337765312371586200 -313292238089566200
-12401891557051802600 -2963777032456218600
