23
0 0
117818728192 -36063504548
44148096068 1572625818
39441570952 1655618631
33295817277 1489239551
34751186195 4501948951
34274036467 4701052660
36536541986 5702481785
36069471043 5649475270
36456821177 5853184870
35920844750 5966282008
35609897047 5927268540
35615971225 6178421211
35991992133 6083563110
35685834420 6247909580
38558955095 6892995243
35951170446 6528416285
27410307292 4988654348
34824069142 6391192721
35612763112 6569507670
34790876667 6711617199
35819608184 9957399187
25712541293 86247757366
