19
0 0
-349202553998066450 3665945702065299000
-3272966478301496000 1553030497824161395
-359906775632815600 283189436294509100
-369796461106534850 3181266666004555200
-2672958338131999000 1856451520876766145
-25288721560099601050 -824833085402447250
12305835125671164450 -17175525707680715200
8836355760461628950 22720499338333650300
-7703199964132330050 6748175502283181300
-2408551827040635650 -6783022973544803700
5939499530337910950 5036345730977545900
10646461705807686450 -14873565936968087200
7280551538527138450 19426035124711941800
-17636083608796431050 45337788135899400
1068801543549665400 3341506648939635000
-3456611794314749200 2929282444867368000
-894524716554797875 -980427060836199350
-1266897629262459970 1769458772086432116
