32
0 0
65516643488657157700 98196190063908248300
61161093771623053600 101089991456382758000
57945751171254181400 102177752779605707930
58439318756807890900 103832339827842966990
57543001917163855710 103374433107800405230
58596121101718333600 104345047464821988000
57294878315604862690 102135337065344148080
57370139086734277600 103270000084776285240
57457365079548374690 103552361491214404350
57521642067264760970 103756551359453795980
57363940873644827590 103489451712972742780
57612662164245828910 103940557823585527540
57326572378759340670 103231217556310986070
57297974390065004860 103377236491476751150
57452739441163974620 103804225772317679450
57382437654942701210 103854009267571151330
57589787831267763870 103944295840147477110
57424959244190974220 104091834013279835100
57297949823097136320 103396725761020637290
56337341802816459180 102665425677366709930
56460721938552908380 102895072174110114249
55241909892382409600 101801812065315531700
55318927007721636200 101884320895460234300
56951833953690939550 103830538252175536620
56330964287191998870 103864935074881829490
56447151590915368960 104539243122177856200
56276580376036569380 104174086001224652900
-78391581318548940000 215723698468995460000
57279606627575534960 106478571417034590900
66689563335698556800 129192949062112661000
71439706360400774000 141405593369604833000
