23
0 0
72333023365758418200 -105992867326007782644
66617719138216235800 -2284099997382464844
64162326131958948960 -957240373149275224
64632264359735237340 413921739964551236
64715210360550088740 575803871511624156
65022097261315759220 701728433126074756
64013971209517776080 902778166254831736
64610581356940157100 939769028173492216
64759016571540934520 964523938196598416
63688335900772203493 950577890303832416
64849788998898762880 969942392815049976
64311638061327633340 970206278215718296
64695373415181334700 1060696618872315956
64805143706730857500 1076952627616818236
64213053045906903760 1126238099610231196
64492298541020404400 1450226898066705936
63979581085163423220 1242104730104453636
66592223062690692200 3922313948988599756
67134731147133032400 4339580810501565756
63138728387941726820 7427161810548001956
70610216174203288600 8464071400274311356
76269987874699273200 15311168385146382756
