26
0 0
5098738134009957636 -201827672590621810
5176549250161755975 -295962105165948595
5347170685310013845 -132429449735613245
5180813694361037130 -356454093731218025
5364989409988146790 -178903755231199665
5438195840454521975 -373626652946452085
5444434424041892415 -375086882514543525
5473228147315029465 -95785784963651740
5470135202944206940 -148360464352593455
5481305320661077935 1552368847367700
5482129823890885740 411495041627200
5618912578919071495 -165370763848805390
5606431307699456630 -779910392637683725
5614469941186156515 -386691583384846960
5619784307908563000 -126028780355720435
5647742623936871150 269354084264205800
5659446930027495050 -307900178754045815
5681462716231960000 -91688593144080875
5534723225181581945 733531845693498200
7498004463123832300 -5489887009119988650
6525978044249310950 -1813833396620796550
19524530624386428000 3726852487817821450
5656343814834996200 1474756399095391300
5656658491030237150 1504137495915779500
5676740133063427050 2675876254217376150
