23
0 0
10688999960614286700 83014611799699133100
-501188599675517500 21570973975576441100
-1075780791377302100 8129950683559141900
-1204944983264591900 1674274626856230890
-3977726083349956970 3509751830067150300
-3357938446563418800 2093241921805825300
-3974218052715095770 2365146750675227400
-5194040923282495900 3045205380360315300
-3344492748994178100 1948855858396655300
-4818588293675645630 2740041800372339500
-4151740240056774920 2354166731484902260
-4680556983008599789 2619933362388536570
-4902069174465652580 2651774542916264810
-4004584809962042050 2239387663976552100
-1661712399303264600 886504025473362830
-4315347128627149450 2296789469319755730
-4207404168045757920 2230915847980440860
-3975029743693400680 2034229469073841510
-4991728772496193560 2162741848635258660
-6882000194240306700 -7382473632457913800
-5409772229232476340 2201985361181052600
-17150890170199800300 -41850212708099996900
