19
0 0
-402472472782038505 -201392228735390888
-26825450181404410 -449247500120881950
-11390597724347985 -55784293467838640
-348466558644549920 -183364628995046153
-69440766594544970 -411490806393388020
1560496367392540715 -3619824743053391705
1952139528253407215 2959949639466579295
-3941933818609389635 9235374730541055
-298381401388746270 -997589985826690205
610656498199206465 38996890558498355
-741573019773902735 307953366411919195
952542616661080415 1425903195729062145
-2113612171951361135 -89417722384123710
731771632326837015 -1987125202201211405
-435307892416247965 -29751711954879090
-159052788214912134 -563504066058285515
165062757667717295 -57383950843108345
-143099307654480935 -216879909618757605
