23
0 0
39048342772845205500 -5939085498141285300
30883382319714189500 -70618959057958350
28043937115988636100 93363923972415100
24864822082542368495 218383628935501750
25521871750173629630 3021569942022311710
25340016305426632732 3104372580111174655
25907912339444323000 3565280534137844500
25819248557910668725 3555010401218907730
25883544180363946600 3610134457389473765
25755000793948938770 3663011885575659450
25689072083015271380 3655428848767288805
25683708558767293455 3724886859058784610
25772646350570278770 3687712880587865445
25695553352063286275 3744776298134444090
26414752837356719600 3911179624382582450
25744154373071563820 3832500089611198395
21551606565801241350 3220509372005102485
25482763045304573875 3809137560301492005
25670325067373384550 3844678766919794470
25458792926664883775 3918261973688693200
25586626243344463800 4693316369824059650
12152401672241930000 56000476937808720700
