23
0 0
244590819520 81502343891
198045061902 96169678670
181323979234 88692028557
175716882459 101095399237
177999095237 102425458972
175055428835 102141780398
175136907612 103431027170
174821079895 103420521988
175292724073 103768663827
174877163419 103794396120
171437055903 101766457218
174469605473 103642443903
173288727256 103341586025
174911322402 104318113562
174418530377 104046674515
174067673245 104229925026
174349327037 104504734506
162655392601 110355368985
179086490859 107351410804
167668126340 114139707782
178349599689 124775627105
185346616505 172303340561
