26
0 0
-13356314606766175800 16731852074123057600
-1032969437965042152 -2738353053291896100
-779903211861087360 -3254797018211150600
-1859748905302300290 -4631659062099352860
-1387032102567790930 -4653831249300271040
-1348061972455386260 -4726467932567821990
-3086500090279958000 -7361810946829610100
-639197971790439690 -3701277226996264900
-617162293883405910 -4394418428477433460
-458545877955109090 -3413972073457177100
-2603355140932165700 -6888037531509512900
-475461399341493740 -3444430900818644900
-477068150604376000 -3456089377664218700
-544594697915282790 -3982397675493887220
-606840387452327920 -4395842221471347320
-535004115004753400 -3985717046305456350
-851902768939242090 -6374727816114272700
-626055467098483880 -4689140889647661080
-358875743335758780 -4406369491808997270
-612536068604954540 -4694455613362083380
-321909997720932630 -4704422154878700930
4517784843597046000 -16396206602436741400
1787216272074914100 -6053565330035565100
1461665191496357200 -4796895761175256520
2571024207276601400 -4852058710230959493
