32
0 0
17180351768723379300 32257298969720116900
9255935588471997600 24865951470438415100
9249594164288002540 24941495511456616757
9249280826835612190 24950490130314466803
9248905564615930120 24961332599579588060
9556021492575785100 25791423110149444180
9251885288424083640 24971762489213883663
9228548570868768450 25576524367198103650
9215491402885101870 25930285494914147430
8984780662534705750 25316180330971627750
9012202130338000880 25395726872633610110
9172325760567071520 25904082844216450850
8991604838995512020 25343045404243083770
9202722196133778310 26281458840055649500
9096348090337666600 25979194893402592080
8853947306971177640 25287770487083239120
9023563464332909630 25773153830569101660
8910683750262705470 25457093896330383270
7928984440255436400 22697392329541622700
9016387139908272410 25772891134895904450
8867689757402748140 25390589762796981880
8605273822463331860 24984948315624250770
8916094605649728730 26054269190849525500
8801295547546901550 25797762216755779320
8731901502607363330 25761829874168596410
8719246168260338600 25768556576668355930
8415491027562195457 25675679460662403530
6989208413970002500 26744079437766669400
6909804289524593100 26773254092652653200
6444446269979648200 26945076813178605600
5726920751160527400 27402745823378032900
