23
0 0
-2344374179719410650 -8832665723810279300
4352665154762022400 -7252849648736790300
1920842440233769300 -3043474326287056000
3621704091396374765 -1146750905664974350
3710732950271697290 -1149628268662847415
3294205016461883204 -717068685553748985
19088698627454065350 -4049556003630096650
2747118807817392550 -581435016859813310
3597907652971038625 -752248674929885740
4043749892089286200 -703461243652478370
3193378653216172400 -622939516513806630
3730367779533856785 -648263947591030050
3559608950460585540 -617655204915185480
3385291255783981430 -555537413609890750
3552794361526395535 -579335205681398530
3590766275858097640 -580756629110057050
3569927304261264340 -568506492357716750
3750028568602682895 -564144447710196380
3379480743716887500 864833615305083650
4206688907733894050 1107487353287805300
7644413383483257000 2219509747697791200
9233886489441098350 3307039008837053600
