26
0 0
-11762456660492162550 -6845202345241014300
-11797224649673643450 -6826087530608339700
-11901796005471181155 -7070693776449446800
-12084038844795639285 -6363114058979632900
-11946339093110161940 -6993725254439330750
-12130533240877035220 -6626704422797425600
-12394884769923231191 -6718232475550127850
-12125142407157229490 -7207537849084105330
-12132410290895164945 -7203896312213818610
-12025640782337207660 -7380472027598549190
-12030159255081352760 -7377930075605737370
-12268200620624422210 -7251694585141168760
-13118009917952467450 -6133758771566468550
-12526397098633476020 -6912094223342831550
-12246047959170457170 -7280908211550031385
-11999268597410182795 -7626463230848725488
-12372960385868268115 -7164284256761001270
-12252417841230602385 -7322619905985752675
-11750393539109090400 -7829398741443285515
-18144004397974679500 -3045376337668268500
-14552130046635111250 -5807013368786534150
-15339445142764555800 -10408463864994653900
-11704437204543200950 -7995908198276994525
-11695406602138129400 -8007495449470398220
-11425851886402993800 -8359853364934668600
