23
0 0
49104365415 -44387773563
30121973285 -20134111275
16532311191 -9556081798
12082540497 -6844153185
17744928267 -4300327212
17427517906 -4205943110
17616558579 -4164772676
18063854225 -4191664427
17933305855 -4110226154
17422010472 -3992902119
16773174910 -3820387575
17618043588 -3921935141
17884661102 -3957285720
16766323445 -3375261723
17270996204 -3475158697
18468662200 -3697162776
17763020306 -3548691811
22860017626 -4557100225
16635116585 -3292583469
17621682673 -3204726997
91127023313 51903180694
-35645017230 164340922877
