29
0 0
6192106949889705000 -1008776411891584455000
15811096845828330000 -361984643913398550000
415273437016832142740 -733520077518024960000
408436137700261821000 -522062534493915623000
416686583340041501700 -525716224787895629000
415415102123777093812 -516720375214676201300
407867362172496468000 -507321678147103459500
413080749447696309250 -513406429176922850350
411499047846006773050 -507711880600200529000
416100356890981072300 -512805384289771130600
417159701913050324700 -513210132301338428250
410121313516355175000 -504284471299223226500
415877179723567907845 -511344809678247383150
416713030332267409800 -511533121538071796700
419844899044520938250 -515274249011392861050
416004275505790447800 -510281861184027861400
418412266769743812000 -512927591793307204950
418091020668135996550 -511455517607669699700
417253934374226584000 -510301133387483954200
415889464483073550185 -507621402176474073000
422478091971978817000 -513702437917828418200
427227433170403237000 -517455955928118869050
421523598455072451000 -509889775376918169600
422767961976726684500 -505654594289245756500
428659579068792604000 -512286449708005534250
625285604950230950000 -621512507400631915000
510415126149211205000 -366608264764166685000
972671570472126625000 -533571815014798601500
