29
0 0
-57572410985758052000 53265056975928972600
-40720763679947264300 15368153772855677600
23925456476104255000 95244295619561397600
-31621909827180294847 10012104546199929100
-32478504726427699440 9414690489028815300
-30364398236355059100 10421252315658291100
-31138007782809437520 9382266164642516600
-30036810192366605000 8645905497502423620
-31707984746520906741 9115842860782004700
-28965351665920463100 8311221364322897340
-31158768119883900550 8703715383600622030
-30942027069326869330 8563369156075539360
-31930838543186619010 8835781189738376680
-31318136339370642350 8657878782351688300
-31137104212073545540 8512423608669122250
-31342198998460632120 8489012563751540750
-30872963453357335410 8360971192053094390
-31023263060951810200 8295873652951680520
-31262119614310959370 8358153174698349030
-30337798825713144200 8003509486175724629
-32750004098367532400 8409960774576961620
-31728310423651186531 8057540220299203370
-31143151926972787260 7815704571626750770
-29735803535757910900 7037508573859696490
-31949220847344417990 7555141541157096850
-42584086299555141000 4172452403407327600
-16613677752445961000 -8961011853909148400
-64837824085057702000 -51380632561600147400
