23
0 0
-121290187444025674000 72556415731191973300
-60788082168787014000 23537566510518954300
-45549550536739533800 -3477057074265373500
-49439934679998586500 -3780174412481317600
-48422102924150439700 -4579708668191783600
-48331987158305297181 -5164942936715810150
-47875816718964189710 -4925206474406026100
-47758863552546258190 -5104395800155012240
-48147214491337438040 -5145989823326495550
-48165736848791081790 -5149320450360151180
-47787303719840787150 -5115491086910818000
-47714088266091948570 -5254011756845708960
-48006991663699726390 -5297443495715685800
-48079387673219896540 -5345268711732986080
-48035143026990985720 -5386650257326931230
-48276938679647170333 -5563376223601171810
-48089982738205047270 -5543887986302372340
-50317211897842353300 -7537063658286102800
-39545165003836447900 -13658817132901985000
-42387072302031888000 -14662964051751244900
-42898490333662973700 -15924021149509267700
-33412875120201002000 -35843604026366314700
