19
0 0
-540867768242773400 7283792559388933400
-6620857122826128400 3056481471770180930
-815794091022899300 615332767132684000
-628661612027710200 6607425324232194900
-5633673941326827100 3462753541374838466
-48877018741161902100 -1120433812532152100
28664153003481809900 -42280885820778560300
23343100169972865900 57815545675713335700
-13909698790371802100 10982011712850205500
-3494862454813951700 -10328600508357424300
10456375326499667900 9529119429116567700
12771845639250377900 -18926871585213610300
11155642699283262900 31850936252606676700
-35072607965495100100 283219114394214400
2243734196367680700 7003005535573654600
-7302048059943555500 5720601019481784900
-1813844660916490320 -1729801027646113100
-2348951625345474239 3474480577910074887
