23
0 0
18376113600 -66651881640
23380037994 -28420276167
22946020549 -27385521104
14578399628 -16846177018
25330613214 -15625667454
26380151222 -16034479977
25028741961 -15114312738
26062654555 -15696086437
24675233182 -14823116508
25768111032 -15261318102
25417416389 -15051565597
25448758222 -14808148852
24630635961 -14156692090
24426875344 -13963653516
25870592618 -14713919921
25493295180 -14498298432
25918634147 -14739754071
26356432629 -14970056172
26497203028 -14445258947
26925959355 -13918029794
41363294375 -13602680282
110252338788 37137252463
