23
0 0
16012055163834826200 8765589466372616500
7130448779741224800 9562454756855518600
6067797893678172990 9650145567829379800
5971413977043441200 10386090578384209068
5927665429013461439 10317248337979738849
5997625430325844920 10440869826624685194
5966080234954078380 10432178616303529565
5929896529006500040 10439870389756970054
5927223765515762814 10445611940225681961
5910783184739923028 10416807343019468476
5923829709088456001 10465227296102522260
5902431678835685364 10457520615352019154
5880936341710285455 10441331873447480131
5868706165331235802 10435818402506836357
5870448673134141783 10446116125187280733
5864166793179447818 10485170173447343011
5879275865531330522 10514655859672994810
5883237351249629718 10552469557433032640
-17734832913173390800 11339316731914577260
4585071656375547700 10982499512986046360
4522403401470267000 11399882345404350800
522939052081789000 22957518795674923000
