23
0 0
3205511168447472220 15490800823517134900
1876682403624084920 9082533380871151610
71115438269502820 10337153995507038370
-333802574895695690 9626115761330511520
-390213047080370470 9413512333081524914
-401826842234075240 9560387668540805214
-405825544207244150 9383133596371501250
-414913005434561640 9416721475409233625
-428668803187471040 9461053021121341417
-428839903558058280 9416793841990081179
-463698411753747531 9605482692423210078
-463423620514409880 9585766177805620678
-460217559030910391 9462571695422171182
-454171393842749325 9197052544533570010
-470886043267327415 9390990224237777260
-477073774067952092 9488033544674034047
-605558941596026683 10251509424472818220
-583859629498632460 9644644929205055070
-630854169399654783 9575878822502861724
-1358193958700345190 9458142539942216593
-1480369338924746430 10150425668953399740
-7347348536605201380 9487128470051497541
