19
0 0
310823547077523000 -780980797246601940
831760983822142920 -121309310759777820
827806800823855050 -2126673604958077440
1738673514117122440 999257724171419860
-1423895784041311360 225125772780278720
847866225426853950 734974646427679160
-749616280579759860 -414194430229962180
1044334586052571280 -1223070324204096650
561108506376028760 -160685502952383020
169427021466151870 -214703824969226819
412049003057485220 -526900780084769640
818573877905649910 -965726063359824630
737879912091046820 410788007573944510
-413869259097030630 -347352052220499052
1038894880442646060 -5617545594855719240
4656313298918619440 2927501358506184960
-4552623648461597760 1787754128343156260
380861510299888640 -300763369335459840
