32
0 0
-24308712979127698000 9226063273981912700
-20665211561012487050 7259268573659941550
-20944299808195005850 7223920952425094365
-20977949013103509650 7222664813662930240
-21007629295197082100 7221574290187105295
-22117394442756513395 7725995375515234100
-21064539741357295350 7236710567856053950
-21740636556055381909 7197635881800457710
-21945922377891741460 7187555459028496940
-21279394527096979750 6968832163110595245
-21344180975015675050 6989392777636857920
-21888388235945260095 7111883268053668140
-21334502368539537530 6986098432584846915
-22177095326210405255 7177198288630598800
-21916417177029501750 7092501035844947475
-21186464522795543700 6856177837869094550
-21775890447695939645 7046709406841007295
-21399648170692389460 6923451489212345665
-17944079893924612250 5792321234872425700
-21770474911563829079 7035979114905162335
-21290565456650415210 6868441040903029015
-20744212311429463000 6584287219993676400
-21849175846560116145 6870328454305019540
-21656321884527236145 6804649340009363665
-21651291061489061960 6800047605370970435
-21650691746508994930 6797288642765019750
-21339152296399272790 6385021766972807355
-21472866734972348890 5940942344628835500
-21463530013408158305 5915961498610591900
-21435322677666621995 5838901473377317400
-21531886197080879420 4766747943578124300
