23
0 0
-518057754189289160 -4167284485961974820
331353130053225720 -3766931865376060380
455847661797067620 -3592631182849335830
757179564319457684 -3775150750662078880
874502697257489346 -3513520114419825514
784996538894587082 -3117447359332756700
861908334279780200 -3399063900942511830
890166611878620418 -3372728452283577508
851724820789035716 -3192367396642835180
902014885143692384 -3379846303314879954
852055712576687176 -3191692023200366720
916948062969587368 -3428731865455619188
946155801954880754 -3339571162621146510
947319992510463360 -3340680230636414248
866599092725080828 -3002059102043115140
970169045143428054 -3324953552362561384
1003236659201545148 -3428292522002840608
1073512471203613180 -3537865990019410828
1133198745138168640 -3507969011136971057
1213508460327478320 -3469539995264800876
1548869065545583220 -3914950525015796440
5567797912000997260 -5219748489165506560
