23
0 0
13004549354075837200 7385055172920782400
11631189483284745680 9300340630411629000
11502194725867478360 9358201204124253160
10385820888009419294 8484005761810191600
10419114534703399918 10843707412698089124
12711453982358202600 11710253772945825600
10478401881278259530 10914490159164317960
10471864831943257520 10917065619363524066
10563420014100497920 11042193550606291760
10369142958013727630 10848778618116600830
10401281762905329798 10885569912365346502
10423876901319184940 10990461350996893180
10298771241569286603 10938544956762974522
10135656159288319628 10765469396634653565
10325864871699711834 10968530159635839696
10239560491748411542 11013877321447038880
10486727549893070330 11152578180840132000
10007470810420570320 10894406071491130282
16700706205643290200 18245744745729822400
9991375145188099400 11898229830510972740
3416393231113600000 10541562314057976600
-5205991619000124000 50262092988409828400
