19
0 0
-42631930960159890 699204027811263090
-649786665590733000 296950799755427426
-75012021246094280 46335529047918550
-48372545966400710 600872380902594250
-588921829954935790 326900230600805237
-5546187763032325720 129711954591948590
2563513509283541280 -3645492363642109810
1709634722223662380 4606946006942309690
-1532933011850140420 1270423840354566680
-412255988332670740 -1249954218189775510
1068493535841883780 880527681427607200
1580555541547993680 -2268706300787515810
1130364845135805280 3289079453837107390
-3362714082222922520 211530829617345810
196887689278669200 620926788140216640
-765849229173167910 547746790978978510
-182538604348953074 -197843147668167910
-217756541467772494 310913532266494326
