23
0 0
122415478033159030000 37809085882691576000
100207722746182156000 44899636965786097500
131016741811544125000 -36550160226883508000
84351209514548634300 47648245060172750500
86899228675819158000 49123190293208111200
83321223622322241960 49006178586673965900
83457059798625065170 50329259125890388910
83016706340200423990 50355594392268200910
83544810650435344100 50792897543232251840
83068953281446276070 50793846273952196250
79106082227214999600 48430735347561178100
82573484010144814426 50615322863037142191
81330705539352599400 50383795222948893810
82995078158601462500 51477848101619114670
82447287370223940589 51148893307029242670
81958483743627994360 51382681738008748990
82276061914405003880 51738331814532890800
73521676606821170900 55784776442184224400
88761237198878833700 55965723054945648700
76805266099553716500 58578537237871417300
85483975992789195600 66307981221856167000
86097564192659309700 71191056788177022000
