23
0 0
12908166582166576500 -78128281679298884500
28104204512683327850 -13330549802661646700
23224266970961767100 -10853311618233006250
17072130161145013000 -7969650975917398300
24392921276372603550 -10532708662164474310
23331267635771364735 -9895030008114934440
24216790020914685005 -10159110625008344775
24838198169885063800 -10417518978904432135
24427874776326588550 -10235088737950206475
24500861228121046300 -10112043736154113469
22488395327769095700 -9414749438321576050
23936828578176890875 -9877468259532313765
24151797064102969160 -9944420929114287490
23349743228829904900 -9555497308879448050
23981422220254496660 -9810397054402947815
24495679208730589550 -9917750002968952340
21170570529357679700 -6935643359053647750
24766332384244960750 -10023323085175027590
28751755981622840500 -11570871049325774200
26246174157473413250 -6033578730441654700
35328835757700940500 3247963771275521000
39856749239835736000 8471992802514616000
