23
0 0
-5007902363 12319234450
-4731228518 12995249414
-4931755878 13189921777
-5232919126 13440816559
-5012019878 13672098044
-4961968096 13719972925
-4416554486 14216778866
-5612574122 13539347432
-5311654885 13772307508
-4764036129 14139176714
-5151612878 13967361081
-4065596197 14721864258
-3842873217 14879545302
-4273283444 14653516918
-3754831144 15210392624
-5133184380 14118366378
30603260029 46289021115
-5637021684 13804884852
-5711876383 13958817468
-5994080342 14088107573
-6282760151 13952731299
-6452181467 13930309708
