32
0 0
4998071610183747200 1304046046143081220
3257539571099566440 2987074073621825680
2911162093777089182 2991892656379749254
2898546314213958922 3001765958536668515
2885996865084274002 2992065356570945920
2944453720320231976 3100489889040976188
2919886101314486206 3121962943975008814
2919499906927657700 3122322282481851528
3012370048160586220 3222092454986023440
2990028415691635080 3198258609493831248
2232031163360148440 2400103962308140040
2892253759982334140 3133000276639737998
2891004699539145800 3134084015178616102
2885285098368872154 3136469132427702970
2939271061031468978 3196170895223016094
2939127141325686242 3196350505652789996
2987202175926609340 3248703912792432240
2987383452698136360 3249329024321712720
2843513973302662702 3094359127451613712
2839501825448658388 3096762208616066412
2838754902697526206 3097208306971542176
2676700296761632870 2989068092300221234
2849736278830283702 3222739489113810340
2795832402182396156 3166559520832183588
2795579608790477020 3166671478282716994
2792851475530325270 3170785108794041502
2521009010921525120 3285429889459930040
2519372900915813500 3288475399329935180
483054005416801400 6623902839242108600
3224576370657929300 3703159844104844840
6463110850198576200 9240456002537499800
