19
0 0
-8695478658495017000 64362590235507091000
-61281774168918587000 27344787266974792900
-6632679812909894000 4101069416568346000
-9475263795048067000 54261309253157322000
-52431523979917176000 31623801930022993430
-486611589103307620000 -17040087858276229000
249093932925830690000 -338076166326469933000
196476046471355450000 543367837108821277000
-136915542014924170000 107877868403436108000
-30856957639028989600 -95358541421165923000
103778695093351490000 88170587446537403000
125798000143911240000 -171751887759761593000
117876987243090420000 357934307755485477000
-351043518423243840000 -2005712420321384000
17820043527127246000 58003309430273960000
-67835586632755156000 51209238110640341000
-15256780424269283400 -18523330460795555000
-22906474257461475455 31252765322717842093
