29
0 0
-23971867733599489500 71817905155333707500
-13693586078577317000 38355418360799371000
-45769121315568347000 41925063191890982000
-42686941014180083700 27587268397941698050
-44011627306591880085 27343690820886129050
-42032654144254731550 24937969065540163595
-43786052445383088655 25968244044189834050
-43212803215911031400 25616609173281067500
-44606139078044687950 25767204803880490700
-43797193695762831150 25217181697159101250
-43931178076919028110 25224932004167811750
-42800627278529065750 24572416008313420802
-43740979520533805695 25109364309014129000
-42231754030566118150 24132979932222518010
-43869718964354542825 25062301552643069750
-43758276233628890165 24925407072188088425
-44025014557510545160 25069734805838026550
-43876399872658763850 24866397618640538595
-44014808954935427250 24931721385767034765
-45570820152626926250 25697637755087961050
-44938264809306433550 24916022597060676415
-43610577950714927935 24179061306291715930
-44365105521993835840 24203177536542755525
-43837729030358469690 23235201442573052600
-45713858573602888900 24207325048502440160
-61266630164335038000 24653561351966373510
-48214780554618832200 -59437380800631000
-106312542964391822500 -17700836681091672500
