26
0 0
75521408185317100 -409481020464965800
92528832945795880 -440110739541350400
129743670695428380 -492484052810928200
515086124447121850 -1033911847193576600
-586529638008638730 -1029061371444538300
-469126828955180830 -1159297032892846300
-265091574782264950 -1388346031776300840
-247906987047941210 -1403522278657523270
-1607784284943374420 -957320759441604400
-233423887402032720 -1421090106629700520
-1246336874456321550 -1227359459076026100
-1195914747492764980 -1248163761766911000
-850789573932081990 -1539765690445196280
-748758097759790279 -1597468096247987930
-741923680671861345 -1602776429653536030
-147949532930309329350 -78402318517454595400
254600094115015720 -1793240630676252600
642786958493937550 -3036159697128202610
620350676411748550 -2362263657027002670
998117279182826650 -2962046293634987940
1436075855617673250 -2868482808472722940
3274247991487420150 -5293467829445135200
2471816084659698950 -3802683889142771400
1403096834676016050 -1955833330378827710
5031119123208636450 -6074509040421504900
