23
0 0
561386929474623240 1168608869161207960
500259830017222060 1143204489233090330
430640171311138930 1075132732557408638
309119950648078040 1073652673931643030
305388325827812445 1118282582582510010
297000187740142728 1098221366778465881
284750202166033107 1052937314672952728
281508486695345678 1059211383419603879
222785083205980900 850087039974446890
275875567747550022 1089663027611651190
236538373947616144 942753192863144393
227164687656011651 932028828347553232
219393475260623631 905765107925391620
251620768356271715 1040821461888796015
249824980734680505 1050702865811486370
257381914048970307 1085972939803838909
261128142543332654 1103996151894104772
235518209041617671 1033578349835480673
239276615878749818 1106644446164756593
233830205826110224 1112534385021412960
242616594671628728 1244957161688147270
-339847827077151700 4057985405886651600
