23
0 0
-4186492491712420600 12919595996687363770
-3893395904664229320 13555568176564605470
-4070408684345940900 13760449210201796330
-4353263875905840790 14040966875709231700
-4119303336720069260 14284330898612137720
-4085506651446001560 14318199591833523010
-3580586270181808400 14805887768483970950
-4679939646291136308 14148037198143522220
-4406947936500292310 14382883497944239910
-3935411992082517490 14734374205342464170
-4242438932426992950 14568412759186912840
-3151446687457128700 15371935022228757700
-2831257981617856200 15623465890978580700
-3409007076282519400 15285553576460190000
-2742983812269522300 15991812810762503400
-4207714203412532850 14734645870090741430
18633880821538808000 36449637807480838000
-4685072320998177815 14413923280432950350
-4740745393740284986 14576291960712283600
-5039926186995321120 14742180120518043680
-5321963628938783040 14597342024807978810
-5436256923670206100 14585712349517844480
