23
0 0
19568320600163585150 -17391057589398605000
21509004131640563800 -13588033811324849850
21248906754337794850 -11483791544298285100
23637950097410954125 -9499670420192767000
23785096370707157771 -8678499374032601740
20018633425907509500 -8021181523755177650
23839314349070445960 -8674111903436277045
24065684959359608325 -8725031111095781395
24058121306879425965 -8713601631179630265
23855331000731039230 -8600536135423566115
24067894867942400035 -8653777040016718255
24534898695545034400 -8796812399595767131
23973642107018120045 -8593123605756030090
23610977847352925980 -8462579357802279985
24128155988195502165 -8284662137250280850
24671452129783688100 -8685658096306948535
24111793607299257365 -8188187302601623300
24961595137048315350 -8939420449492871110
24170022406270953225 -7141963885490318350
25992837851872097500 -7629479192399234900
42410758747241371000 -11920221010132508600
62473366352708009500 9267856425867752500
