23
0 0
134573648574319077000 3369240464386445000
105757698247827841000 12008319890354144000
99176152701099115000 23040216102563172100
94328449946761692860 13873474083526088000
87471881847082258200 13450343910136228000
97778025487454945400 23682772856692141160
96352324319554603700 24326533947135580647
95826449953548245730 24584819639087138100
96044718072683252430 24641407153124657010
95815856504131369680 24617676869092141970
95742289799480559250 24602876194022031160
96069011649589880440 24795922579814209730
95761603682943878900 24770012961385825750
95955676312358905020 24841349922140026150
95514792120600193710 24727625781826344830
95800986345384668670 25181177557046581670
96495485916373328700 24991907550546581530
96226465806117892800 25356290469554520950
96726637960553939500 26056118611801142800
88179446246216075000 41649996773275510000
87714047248446112600 49141361062436513000
125098505094932170000 72478551485053490000
