29
0 0
-1270907933596768380000 -521934891128289200000
-871835491211959507000 -370268717532807330000
-1452617935436600080000 -1065965335352986820000
-892575327958201839500 -677861408760503657000
-868086968491433105000 -660276966292901089000
-880213447173654740900 -682829041344801918000
-893898382146627003800 -704229625314150975900
-866921755264634033000 -684103213434650360000
-877045149837832983900 -694691639936634081300
-880513882138452767300 -698070015446665373800
-883376753049016985200 -702731496265434558070
-873268963357632023000 -694693979123028106100
-839124136711508161000 -667612763734330993000
-877718314228438156000 -698657560245699903300
-873306419866366618000 -697383337222927840300
-865400756507417992000 -691195872483704107000
-910252109396824007000 -727032719988221266000
-880955623696405255500 -703796796482363110400
-877356945888977407000 -701861870812949696369
-895280035498219039000 -717796264047636565000
-866632984606561379000 -701455127500809993120
-886314695831665956900 -721240894668864093000
-834847719307340373000 -696022780066172992900
-897410586941158831000 -734402793435472165000
-881282291800935253200 -724982200343954097000
-605953630775649860000 -684497757879698355000
-728646489700523810000 -840734743073794790000
-2083294370435045580000 -2596860737179940780000
