23
0 0
104096098675531330000 -15708837520135179500
-4371672140576535500 24416774598637237200
-20858566053398433100 22233613333387910503
-20993758700417913600 22300145647343364820
-21259071488782799000 22439528237202365740
-21109267718741143400 22275031765611378970
-21178700946615428700 22318554948841262525
-21250087588610042850 22392031286026046025
-21304856795690089100 22434669098157016690
-21385215186791599425 22504564682972250480
-21464226954044911270 22574495546521268865
-21303801401421505700 22391984309510670165
-21337299201199111470 22426773058179036305
-21390534206581304485 22443474408829027650
-21467689538797882015 21967351850473912015
-21471469250282299905 22505977215380770830
-21672100886350142395 22136665048464160535
-22020432549967255735 22366000536751114440
-22463220356832997300 22350736138132509570
-23327589329233538050 23152556002684126000
-25068675634378906550 24634591101317480050
-62457076000446233000 46600369049602358000
