32
0 0
-32708516860 34735055556
-5186192204 1144466513
-4979118604 377650427
-4808727091 -893588360
-3065332405 -1318090186
-3556792214 -2124385360
-4730348323 -2860987674
-2678868436 -1650885804
-4550200811 -2868657639
-3432973067 -2371137646
-4668731242 -2943830316
-1894446210 -1331150472
-4080665251 -2977569256
-3169134612 -2413969967
-3752506560 -2910217241
-3744136319 -3060756394
-4336441738 -3392574411
-4339968610 -3402720705
-2206514939 -1805283822
-2657273854 -2495063154
-2655603348 -2499853405
-3134014135 -2961767292
2538015079 -3365632138
-3921816411 -3960639740
-3913927597 -3960053960
-3062466052 -3105133890
-3061868656 -3128896118
1668425517 -3963039930
36406041777 -79920758171
-1396449191 -46569589367
-56123423469 -46104738740
