23
0 0
3146262121116623800 -189798841624786782400
15798031820511077000 -7770018680612183800
10419586283142277000 -3962358689396917220
13369894915629641560 -3396937517471893940
7962181440905740000 -1730190669795844920
15175895482205866000 -3184780425584030240
13286887162863601380 -2581696869325985200
16311515385129190800 -3137385997334580760
14518123237717813400 -2458789209642875280
15093151717697858800 -2550117234160452920
4839982534159477800 -810625364306202220
12955764931673670660 -2149820505397961520
13442712054713520760 -1798414380864542420
12724225302311534940 -1464004547481058820
14417693100402394960 -2032937854566399800
14991351963399213200 -1710751829288715000
16467884002220957800 -1836160278215357540
13367819339939150400 -1416368090135081040
12415562204055706103 -562016980311180000
14821458879050355200 -419457964071520200
3316358949140848800 93053358272331239600
241352300189587948800 16048169058558466800
