23
0 0
108758519462 33115549438
36712758181 72541536520
32709048726 82354030144
29926190893 75396441272
29055812462 78807238381
28784444275 78311597745
28589793250 78245383017
28491738038 78465558449
27793483692 76091227507
28422389444 78362434296
28015265422 77288355073
28568162586 78868098973
28303925266 78606049245
27329477446 77657470747
28320823979 78671010714
27367928580 77868991024
28459818725 79307127535
26733125357 77064981719
27655869697 79774428772
20014102755 84217761722
17915764871 138576449318
-45213168003 140029437878
