26
0 0
-7342782485023625000 -16981573167926251000
-31319541412441921450 30484014750963516730
-32580174722560169235 30932009552367382124
-32437715722152757995 30984186668597901640
-31459543693467572350 30906245712261633479
-32427273402437178410 31014655079272024775
-32015003002406669150 31011499057515713085
-31807575282279794350 31048476702771486670
-32638117605299116500 31029987550060263425
-31807868330077083800 31074924561117321745
-32519795335859183060 31050708436075892295
-32125197245452611100 31087805217452722530
-32049600210672163200 31124925605203879755
-32039904813390699750 31128856915920494810
-32225969098727372820 31662645787311070800
-32172085433227133650 31744499930944847700
-31987565119170680700 32374083291784265150
-32860849083901633520 31024773097826483970
-32405480189999784425 31810463400968185450
-32438521948951433295 31842368500256234250
-32375091784224791225 32727050650449064950
-32577545926579100410 32020108626729297750
-32861707115564739125 31023330376025979705
-32862911594079169500 31021397798962566965
-32864810394753225690 31019094096953897115
