19
0 0
419041661498327520 -439854097917800845
590445653504667375 142973675142690670
773905452898669785 -762372859720521075
692323198722754320 611554114280008925
-456741336618429045 -146061677334597593
521672760838510595 490237114449650625
-266352513912304495 -233190791794111985
754167068076788505 -553926745430648755
560191864452616395 117473371323679580
37210805437510520 -13450397970305925
412084645112867820 -400903396128483655
726962515300518010 -534446667695884810
518404795040645050 456937241779423825
-235879995338168195 -219370996858648790
11542526270294104955 -48569138697547121675
36709886478356934955 33840836224779691825
-47242925433648026045 14431422049992333825
336495771667664955 -98960140925036675
