26
0 0
-168944193031484900 -170995886422096080
-196532403735644500 -219767984955828810
-203823228822446700 -280215147006067060
-196893810824544900 -446197638699425630
-189596442970744400 -493663404343565967
-1547332988075725660 -294925548951105340
-1659887546229252700 -389661441552243110
-1807682960528474820 -464812417648972950
-2259286156739182390 -936273877283029950
-2323075398908241330 -991390547725248970
-2466081549652985866 -1116922098650007200
-2804789127205470810 -1602735480740065770
-3114793578314838430 -1902098856673602670
-3591069673517928700 -2373142534064845970
-3705354277703543000 -2487641979977728070
-1424187649030602800 442365422772107730
-1848427517212316090 455169833329036130
-1989924940267210170 471348282543379030
-2010404795426246290 475097121901750730
-2252928837931906090 218317578055498540
-2442878192456606862 227188363693777710
-2985327733895291360 256188258922070400
-3096676449636263900 243289044023847640
-3284198634478586200 253010375157815220
-6254855737909093000 399405701358190070
