23
0 0
-71558302593898531000 50339191665019391800
-39694405433340757400 18217372190093730800
-30162597993578449200 381689479792386300
-32274679855487307670 378921757302001400
-31830113709323895913 96310971372133000
-31800481358837203730 -373613434258379880
-31308030901883686270 -197787698589300680
-31172160716822398840 -366376689947960920
-31601424866667853380 -371546600985728700
-31617841954016318230 -380370995984806220
-31217137227519921640 -396377133205633690
-31145626783160485680 -547332319626146220
-31419185343966694090 -577313560928027800
-31514452829999876760 -615815093488010880
-31448288021604103130 -687532641160195000
-31615962208446294790 -855463904267225330
-31504987310365777400 -884342610279510700
-32088669746892566820 -1464189499639760000
-25808292898046468200 -6856324070594292600
-27693991541064481100 -7787299757127485300
-27771166218221545100 -8092673952782992500
-24118712839744267300 -15470417564361286200
