26
0 0
-22190625441896101500 847037481711296220
-25472583494273827700 1653303669106893900
-27954767469074588400 627244999503797820
-28035211113665143900 836812799793846047
-27011858351062264100 1761125763080034370
-28104526763921961070 1003469381009607480
-27604090715530647000 1608778526997785450
-27986922015930732600 1797773346297741700
-28616931340806654940 597368751821854320
-27997747251769632100 1817026951828665030
-28610127156972226560 644968356225105580
-28242978203613236160 1418396732039217590
-28379365501281596650 1777447712977087590
-28391621399504434040 1810203321513823840
-28865126890571534150 1882712891862452630
-28865214241897122810 1883733150304544030
-29378310482781179730 3692058342822281630
-28876783931852471940 100576830578589770
-29215013987535196400 1896315878611953530
-29341189290457685750 1904181853276984530
-31464024052508327800 3824775268238500530
-30178556170206130000 1971070783352761230
-28876211052659248180 97326763863641650
-28875731846361334510 94127683430246560
-28875573598850543370 90306033134100970
