19
0 0
1845124915327759950 651741398138071415
358137850178322425 1923795748898487550
13745718608642367150 5003853889359305500
-9361198974004147350 10053955961815198700
-2181256869132142200 -12482272704137941800
1396453832560536400 1068147764027790260
221854900403879650 1327032010333742055
584954032541665670 180357372675026900
-77321644613101650 -451519099440410950
2274812748043578900 810538439360938614
5771662075605450 2216517807116031450
341413164338450990 1985372610483842800
-44964783498300500 -45272433600319450
1906814384665931250 635436970153035465
578445658122068095 215345415189089900
1369407486124466900 1045017325186045955
255409621259547315 1315174406661423335
734420921835360650 858512382345519700
