23
0 0
82989007473900811000 -205427084631998535000
104563381097115741000 -98786887147197885900
118132639852693087900 -97792884170947670300
117000374225950816700 -95382550838074402700
115424278281335317200 -92202778503035096500
119348468594837558130 -93797049679948034890
120045517262238656320 -94526496656950654360
120726506632409715000 -94666608496558325660
121056851868098936400 -94728948101511038800
120618686951172088800 -94479644471911752400
120119209876632519170 -94087136653143358084
120659994492347807400 -94416595488756615550
118867795624911736440 -92882634944290447000
119481864054995488600 -93353371938242462320
120898712413261383300 -94460065364143252790
120335560182570514640 -94004479851257115237
100683551478615847000 -59566907429623513000
120188250867102642280 -93197434692896666690
121090276892565335900 -93779572972463137290
189419935903651553000 142853161878676515000
137610343604542159000 -74779053120008669000
298005526649324160000 -130181751491108247000
