23
0 0
180655534357970125000 -372766189947605374500
117087833788000740000 -90932530786005829500
110746011447129757000 -47566254152315355500
105040815313297410500 -44714561341249207000
106542059814398627050 -39358360838388309642
105702437895929386700 -39046934723891687455
106062667218031912550 -38414753838010975550
105134502721773490450 -38034499292634943550
105500216378326166650 -38146188617241749600
106619698802870227500 -37503295756679810300
95000063044600839000 -33143799971792126000
106036945207320953750 -36921089861649749500
105139402955769048600 -36598265790915767500
102988306409229559555 -35815344346143162550
105949152277764820050 -36829956733136641200
105012671596329501000 -35800635464636582200
106458392565852417050 -35987529758113383850
96419849579755614000 -27536748569568416500
87240282641496936000 -16959166660155855000
104761240313495899600 -19589495773628250500
285203730030562965000 239922424108763090500
100238364683220545500 208188986950928800500
