23
0 0
56442863955 40976551617
1992634257 45686890666
2337002115 44136966975
1690177752 45431171631
1556804481 45714191304
1437730332 44175079986
1300753482 45193182156
1297314044 45118861502
1164435809 45324536220
1150619321 44949752062
1085722564 45131546813
1076357289 45784115392
1017343531 45305315674
873588414 38970477438
996923863 45096365631
658147079 46069694580
1040549760 47135580668
502913901 43854524248
160452248 47470953613
100590422 45933961313
-30319406189 7259418630
-19376050711 102286318373
