19
881065094020629 675324564725686
-675324564725686 205740529294943
-205740529294943 -881065094020629
52881306571453 61810274677054
-61810274677054 -8928968105601
8928968105601 -52881306571453
103945904705988 -72067396875996
72067396875996 176013301581984
-176013301581984 -103945904705988
-114521014200929 -433626840698044
433626840698044 319105826497115
-319105826497115 114521014200929
-172950327188647 83758052209828
-83758052209828 -256708379398475
256708379398475 172950327188647
-36656466754847 13144058467273
-13144058467273 -49800525222120
49800525222120 36656466754847
0 0
