32
0 0
-86858535127462016000 46125264116811744000
-36957689381382488300 -18618987336286577500
-36794118492165639500 -19077010671537296100
-36258216070855958600 -21146907878244260400
-34291552541238681290 -21991323173510703600
-34704329661199789530 -22621684870224968300
-35795684198039206300 -23380888710797434700
-33848046403512773100 -22171302335326407400
-35681718527203834460 -23375643698321439940
-34554034681440684510 -22888072372738514540
-35761471636244646410 -23427905504734033820
-32485606833741992100 -21318642798977245100
-35249246047550966760 -23446382341156118640
-34381092171834946620 -22912302613890143180
-34898529551240829390 -23352651687153812590
-34859359492714614250 -23511226991082845200
-35495341557294826550 -23809035044160410005
-35507808870397101590 -23841253352855914976
-33235480055992626200 -22316115504697498500
-33744050369563565100 -22996095672413313140
-33735604776326927900 -23007446271082384100
-34206585490906986060 -23496469387691580380
-25419544627538303200 -24221423275841256190
-35020934536997934034 -24490372571399946620
-34993180551646994890 -24489711055713552470
-34203020500691836820 -23570389606097175530
-34051197196948383600 -24492766706803642210
-25694163182776239100 -24590809942407499270
60947733419761642000 -190100764765995913000
-18856209812847177000 -97425531487157681000
-215474250643965925000 -160396608165912953000
