32
0 0
13135862 189354817
-100998731 532590764
-212564379 754130888
-783690006 1498851539
-822333058 1546777169
1711372828 759250681
1716457262 764081472
1753237115 784892768
1818268554 891446576
1901032187 981850893
1982014379 1076096444
1992021176 1446321166
2039335234 1484560570
2089234768 1540515201
2304318341 1815324192
2517766794 -7401693
2627474631 3706560
2737842796 13452582
2774646143 15484424
2840512298 158725340
2925787269 165340923
3164858055 181360946
3194161886 188812958
3273890466 194546505
3439183133 206620933
2244059297 -1859543928
2347006912 -1879069390
2586877574 -1942621399
2650179809 -1977611957
2753080616 -2052139122
1996337816 -1861105267
