19
0 0
513430802812816300 3476246144541992300
-3957927498184016100 3895793514928395500
-478569233252837300 664963298478551400
285439903609741500 3024888095199498750
-3096164173712883952 3588221963808872600
-93527808176803640400 50942310525863208000
33059363196974484100 -85694429214809882000
248335081850614519600 221984547245138733000
-19889211462954076400 29762720037515059500
-3780407304132198800 -4041547488482417650
11019137130540935100 -1496665373468755505
6641731300321449600 -17576065016025623500
32896126584624742100 31851300342293445500
-55649144071464635400 31102397450087981000
1935457288432784600 2063989064179337250
-4002721833214579650 5646935953802303000
-1585459323617582900 -208992183318529550
-861700792604955350 2266342091403333650
