23
0 0
8441249043631800100 -710969114130675300
5196374094741570510 282273692418033070
6724584889363229900 482014003906723240
4335069031248292600 512335164805748680
4172489065869545700 504416063327661470
5553410213983236015 1258571494571529789
5528595924401775992 1263055290942850003
5549827903721712981 1273091667764900407
5668107613820816340 1311753249308424067
5521608566113042185 1277897668292116144
5535196709988569455 1282837647204283559
5561182766212251363 1297746593715173439
5527678848180277733 1292260982756170301
5471768427538211392 1283677181729356562
5543014693159353235 1300908918045784636
5647405647095698270 1328807802068703350
5525467333691253911 1321855547761584255
5929116486292761060 1396923139204162940
5444906819385395178 1317827125640245562
5766707358952824310 1537241260403154410
-2000250768347750700 10231878171410683600
11607815688628120300 7723159273551559000
