32
0 0
3716437925165152800 3373075073466088190
1744959466530461800 3768549938331434577
1737350893254272720 3754193231619164502
1718288146657366820 3714768719331212482
1712880881570864840 3862076248251811220
1711844312646621140 3896763682321639830
1664415162841420336 3853613587826436738
1708398539316225670 3694154554281729069
1662561836585253562 3838728150846037973
1653600527892381564 3853303259047798613
1650948572709600210 3841256318400914929
1653743299993388922 3871321272060111059
1648204741135772020 3869172312474556448
1641130824329313304 3843355810785037295
1633557793476256627 3809984800373614953
1650192238526145527 3884779075920137149
1642233846253141849 3872900486904886644
1643567187560340407 3885375565481662437
1618656133128710752 3810789716340841096
1608307523308004853 3802394499276151803
1626650285887760489 3846968903086637071
1626454523351082015 3847013817670356695
1555124979472415536 3806306680326872372
1563267540688405023 3835852802274699454
1370121856730056440 3906704577295687260
1642703321426437963 3885461990831539104
1334305712844094860 3909502451222187290
1270709209380409780 3929839376419003440
1642078394259033322 3915428321105775320
1703028713313915140 4266224272659523640
1711015902204312880 4317963941830325220
