23
0 0
6388588217144214000000 -10197483414250385800000
4237231009700953570000 -5234220980864089560000
4714323693476994490000 -5489488731952714525000
4597331461044605411400 -5315110045957129892000
4417512319206350120000 -5047766479396019910000
4631850506100085782000 -5262715258412528180000
4698346087801184558000 -5336583148553643581000
4730863983217407390000 -5372767118578448223000
4758318949752609650000 -5397986429894822955100
4715067722271458250000 -5348760563444777934000
4691439031113128765000 -5321293539697008062000
4714907673666406520000 -5347834038128880796000
4604821381804417016627 -5219550764279971150000
4622280486049305257000 -5239267473049257270000
4732655046005469730000 -5363990115981961536000
4695652839342738338000 -5321713860490362785000
3418107538118758700000 -3376228802017114700000
4676930613200164912000 -5289946323814743070000
4714653201787579180000 -5325547947969245624000
4145077899841528770000 -4093325358190524300000
10630654821882348600000 13159428426680256000000
18126264544428309400000 -17684326251129751000000
