23
0 0
79261846694 -15003706898
73404552974 -7800194682
72754673095 -7432213162
70477072395 -4127732459
67042121606 -6686361090
69298440057 -3382588382
69717111247 -3398932186
69072585165 -3189205536
69651197211 -3167609916
69517610365 -3141577585
67343278731 -3041806375
69545929026 -3043803145
69405238776 -3021582759
69582049292 -2931083849
69321089802 -2919397729
69439761745 -2897007404
69744185455 -2893296100
69266029730 -2853326198
69552362027 -2647119797
69450539628 -2488653124
70635949103 -303546885
75209815429 109435432870
