23
0 0
56105017612 108169576082
6234354383 59625763606
2209346099 55623500476
1891054073 58176370219
1911997605 60706955482
1442493738 57402079963
1353759843 57609148316
1337278767 53244635339
1336256546 58329823393
1268230687 57119264930
1192298394 56324674252
1143305509 57435840109
1092788460 56393267585
1083831222 56049698979
1096924648 57228163484
435629090 56840171004
163739558 53628541165
1109867778 58187350785
80170688 57587770893
-1618033242 58237064902
-18421588100 46990946598
-76143246539 78589589042
