23
0 0
-38652962718829714000 -21089692394764796800
1519873798054533200 -11962896102151178500
4213330717025858300 -9735117967934318500
8590472954379375800 -8798960653166511740
9040448811708245300 -8799733784382512520
9625718429164902810 -7532928988711559310
11307344834636258400 -8848053737217646160
7649972350545354200 -5960203700516387600
10323991249459528280 -8041796152486235050
10766159372091995560 -8353324094221684012
9598776497959016130 -7443308996060959800
10514237925567233130 -8135159112862817250
10368250018108257750 -8005475942708884360
10919495191398053530 -7610953490071738200
11036355363934839600 -7691138025101311320
11216507320419093200 -7806823510105038670
11074135171352498300 -7695322202666979860
11369431026102201300 -7842171489660727560
67721030909297569000 17921961806964278200
27972912038418816000 -2204871201977695700
17564693181515330900 -8357879290617072096
19193501449776563600 -8524188548319820821
