23
0 0
18923729421835455000 11285018382887701150
8094794269368123550 10033750961728587375
6123509932567716820 8832886642529722700
6898710866120970050 10386706430405908325
7100914724021176300 10695822218147458150
6542907480208930100 10244175749728168905
6573074773057049600 10338242358095618150
5284089988724648550 8315108003518357400
6654741263561837650 10569165087261732900
6331221929350029035 10161455218942903570
6016774527430398839 9771081954634891080
6362818796724540140 10339245140705635690
6160555713970338770 10089649416837335820
5953610999952064000 9758725962573066540
6256295815295404975 10278558090833729995
5915888688452520165 10314141542945832245
432632734923156500 7664931559900077100
6426314127502231990 10566010931006512200
5891664255565190245 10687712678433167150
5790637074382503725 10807505196693417050
5291994757656543350 10853207775759812250
623444613284293500 14935343284472309000
