23
0 0
151319940726632194000 -6765599290194837000
118781708658742816000 5532300669947554000
111506282395947136500 16806617775052125900
107294231069207586150 7158203867928147000
99701216706933158100 7572668534123356000
109885958334949460900 17606313114652959240
108700446376129616000 18172228333127674179
108149206472969688300 18473300410947749850
108364015635062876840 18517691652737141220
108149381881373651780 18490291884105551250
108069589805833325390 18477670920420174970
108376965439491900730 18663402872835825540
108075344244628534930 18654759894025945910
108265405108167112360 18706171875705095970
107822568373028647450 18631012969078934030
108072516070894646620 19063159081273376580
108796500183248880600 18839881272992718580
108535290341245298200 19235186349642646250
108938713690581513900 19776696376959043600
101027206633381400900 31368605954178750000
101140636643975328300 37928332630322632000
127201312607146843000 55304161128901575000
