23
0 0
-1270548544017484750000 -6089611357168191150000
500092766046547920000 -3610378350689878240000
583215489038772847500 -3484552857998109695500
604079339084150295500 -3585369325344711635000
613371896124706308500 -3632467726873068970000
628272582069367720000 -3535036203308656762900
633605653042174179500 -3541719594543991564000
550642782769894450000 -3254971685164986425000
650020636647111527000 -3584417838796600590000
638105569541173727500 -3515123414144015589000
636731232750595712500 -3501668973834130402000
645030816288204594000 -3530447757354026727082
642734695722683147000 -3503133830263036442500
641716223088478108500 -3491256020331166475500
647941729740049357000 -3520443430712440132000
667252038045950935000 -3504263523491153972500
730567541453107165000 -3272492830291163975000
658083933207679357000 -3574547869203614471000
701764256766821950000 -3521928554650966488000
979981473938493495000 -3530222731015766137705
967758945626287695000 -3280903874886056420000
6297012320809771250000 -3458156561193963435000
