29
0 0
-29916037383729935000 -13655933060571903300
-16845406911161197000 -8451240056340941600
-17609766438140292900 -16878209892148268400
-14888077238619408160 -14744390865150524480
-14645218311780916016 -14509417826479133840
-14934923316544964300 -14915751941552156647
-14706759346667478283 -14697130472716707770
-14568783577394612390 -14645044379195090440
-14754061042947528896 -14832286266998979595
-14657259728947944155 -14806228891189540253
-14665883820720076835 -14816501854612729360
-14668894492127922322 -14828229757505392225
-14642049720915112613 -14802158065254010985
-14652909117400906979 -14817351456604108481
-14636744411551918547 -14811563076756357546
-14657688598012304455 -14832826640765286099
-14641786198607618523 -14821260467661446826
-14396523135919515620 -14576938596216756340
-14509835364439701740 -14721156353360236860
-14534712783045877870 -14776053058202020630
-14457503816257035580 -14718209311048676210
-14753535317999517859 -14971885415316822529
-14705594567306343325 -14992798793220832351
-14811424602532265870 -15128243280536087090
-14635754337979606019 -15024276534709688730
-13303146628765664000 -14253269881486313000
-15880208252210296000 -17985964717503818100
-11233798469246939500 -21923357476052949700
