26
0 0
-3054623655 2652773665
-3544510602 3321863025
-5338540039 3823740017
-5279058934 3907290345
-4217581968 3956718613
-5250057050 4005795569
-4512520362 4125691680
-4586812498 4291585539
-5663936293 3975123377
-4582746354 4293893457
-5603941971 4015425590
-4924946852 4271547001
-4813131483 4492395754
-4811808228 4494155169
-5039793407 4728255675
-5022091313 4748330550
-3613983736 9605764017
-5883742733 3934233963
-5429200427 5093229919
-5504061755 5156758339
-5989222647 8805766085
-5931175492 5564953257
-5884110726 3933304753
-5887572017 3924653397
-5908295268 3903222067
