23
0 0
8715891421157024883 964844497040962200
160458963973935403 2648370036521776619
152169485141158443 2523261661462354808
84169516649582733 2627227174292018562
74599575263276123 2642197129812998333
70962806006298063 2537279734553022830
46984466635496416 2622538926710805734
35954350125317438 2613899747815560644
19975160758962067 2638617700783056619
19124939494783613 2609203475444117420
11616278945685048 2621340413181861729
9989438036308229 2660117130326657394
-2218418826848776 2640162566278139065
-3008492741416786 1845582174617935580
-11045083383070198 2618718228955234602
-69289409052330300 2715852503493571730
-76760791352838083 2884403251855385380
-73928090868926049 2560560730226578348
-91416794023275276 2752448779165229390
-96916195145569386 2700281338280192110
-6174844753786473417 818732387475477800
-4549561184868961117 9995061117560320000
