23
0 0
105970950641 115135474999
77545596443 121243402356
75590709078 121416263626
66088782268 109659870333
67494348394 122143667840
72862744697 132182038778
68251740421 123837510068
68703519022 125081111745
67736845631 123046305069
67890979484 123624209836
67031447065 122149086723
67625647102 123254957317
68078542414 124090409707
68044859704 124182868313
67843337844 123841971961
67653817246 123568481357
36910106424 79353974449
67296236731 123127838498
67478756049 124284415624
67142338000 123795376725
67645453600 125644773217
52598810712 180012932958
