26
0 0
-1845133171689136300 2860315773103218230
-1855227092556377800 2868831485885139770
-2142237008685861500 3342533274161304119
-2142391104372051500 3342808407139724459
-2377073429740567600 3469200460791450500
-2440977501644864800 3542533921247224440
-2303396220419373800 3593983048841363460
-2752016486551891250 3585774514697558060
-2904030309056433230 3557574474738813610
-2905870605867528550 3578077489876254890
-2763664482503973610 3628813881011431030
-2828443803943018120 3781452087921852770
-2932153525003478350 3875403954783421370
-3005124805061568480 4691684886246128800
-3006431210102722370 4690638053563448200
-3052762605958492390 4763406765073926600
-2987269913106320510 3827952542754627040
-3393954668296012540 4156128149910450500
-3076567548675190230 4800043515608838700
-3599623207409876842 5751953300110808000
-3599689904174106810 5751376692630603000
-3625222072506570010 5663394460600272900
-3831621666175174890 3562455880331361420
-3917114908876790180 3221790259679082570
-65923973694621775600 -16322149960904982400
