26
0 0
155975730263665820 292094068565032550
-250149439234988320 1369669833294027110
-459092236700256520 1606078827186673650
-697480321997619920 1801316388936289910
-1317169944409435720 2264320702374854650
3023476723160309720 1021400036201114390
3054330247837148340 1049181818052287590
3218369272037003800 1147823608258385050
3449224723154946660 1434137171872176250
3586622711906942840 1559507412461818530
3781103174487880380 1742383727752860050
4655556053235211080 3125824680627947250
4896989909845531880 3400490905142539850
5673690413897141080 4338144348814222250
8139788399827968080 7372245187571124850
2438703395646654740 -395600179660799550
2648644262256077660 -324572712268477570
3100440725376218500 -174447137969397195
3240963252445011380 -131002582284135238
3473761818134103060 199594588513579990
3651913705913913340 221777051440046130
4096656773866581680 258764337365863970
4362713968571299680 362120381328826170
4398709595141741280 365498920412785450
4856827790065707680 424471464907302890
