29
0 0
354029632742406080000 -77183283142748026000
228012392367624059000 -43116628873684473000
181244049346701714000 -33944286880007925000
208233592194059535100 2344380220618872800
204807743616752747600 2439201621863108500
207053942821636060770 3788412786460130100
205654340765802061300 4658091827051271400
208719503884215436700 4773221157050266500
207207009070483530430 5869016443744265866
207491073465413426730 5913045544310753813
210183724351023526000 4882942753537845900
207726505412109295620 6318394692551418360
207057346414822465160 6313238163404404080
207350243243196025750 6360156490979096360
209076030859666180000 6525259020781301660
202813666980872706300 6350780496028585840
207135710172887043650 6651964331115828470
205927857735688881660 6670340319502001980
207651968987370993510 6738351816497026760
207429277036867549450 6792134464404973780
208099356637631049400 7979182022715191700
206835895542688481872 7962729195753443600
210245490213468288100 10243816676430413600
204380020106189348100 10253948502012733700
208774554217595059900 11551277021623236200
237649000486194688000 40007192387720185000
180469081341759044000 49448239313544688000
222570522648076902000 62546658621657199000
