29
0 0
-160643672756087674400 117049060029123564000
-186229594789322207000 80335158266288801000
-148288303757567181000 62637884404833179000
-163747292855832880210 52165077999199437700
-161754023087428590800 50724558892320324300
-162863963710555547500 50961364790921480400
-164060447626670631357 51288472744555474200
-162269400821486104400 50238813129540698650
-163404238012033913900 50308432891119975590
-163602357187174584730 50363595686351446470
-163442055901141465290 50148331726823485970
-163831047612563368370 50263795504629397040
-161749238494282346400 49618818018944159630
-163684249958567859710 50202973521697849180
-165747518082054473700 50835078977256419600
-163594172319971882310 50022772004345878210
-163951659822179447400 50118518086518416080
-163870501427479886820 49985312471602080560
-162921657942679859300 49617918250276268040
-164141954358696029855 49184312366381393000
-165079805806780546080 49823165549849148900
-163615724119653649800 47770673664535111500
-165059926756772484320 49087162248672930040
-166407955154765433700 48532488432966958060
-165738368665023476200 47168302681524202800
-160924433238437150400 18795239075820359000
-188143104523791897000 13953166303844824000
-289152381654858390000 -30532017917448900000
