23
0 0
-56997951688574636000 6074142516926287000
-46290214958226448600 -38716572968110036770
-45224754233953117750 -36412087429300783900
-45671815042513702230 -38600331565933716130
-45927195053225974750 -38925295119718694290
-46540479811494987130 -39658988747839454740
-45601969385618842900 -39104677793929296190
-46096436432986258810 -39531738425305241580
-44692815363867207500 -38330417833221405190
-40891225347063758700 -35095487820906516900
-45837355519665843119 -39363566586409244818
-45463902892350832860 -39173898952159801020
-45573199257221456630 -39565710908077964200
-45282631514644222550 -39552014289589241680
-45287241559360793270 -39862825459199613110
-45773936782122391255 -39792313035806237910
-43858775713387489100 -40175265416352010890
-45313170035135806740 -42914746284937213100
-49145492920871154700 -47506591169945649100
-36985003583026274000 -43513705233500561100
-61587491411292450000 -72961145580308715000
-66996762540374655000 -84191975816363953000
