29
0 0
12548209892918635000 144023256431901325000
-6876318872021040000 42012487041022022000
-57579772712845339000 96854209936769761000
-44476583724417240600 27314232108335856500
-45959081098898784782 28196675537921658400
-43576639586191336500 25360229693030588170
-45641089773572200210 26497652726868312200
-44581732027760785000 26422823389610083000
-46718943150843547260 26462750405427103400
-45683806172590883840 25815708381410461800
-45865524767973800095 25853971997468615500
-44285786547716633000 24957899607277383690
-45500311416895914120 25630000155987381100
-43950313136108160200 24568959410910443310
-45814062316303052910 25600642503460916300
-45615855468225551420 25393797445836466820
-46062687924349253350 25634609421194841100
-45803277708352983510 25315674352393673500
-46025972782790175945 25406638514003588510
-48493728848967393400 26425931894232225800
-47381000887182883000 25419985816858252260
-45264753200708281100 24283475536893953360
-46432765592685303730 24869877062345739700
-45638074341843412030 22836720766796572400
-48740440394473701500 24386168537220745870
-80372105723500022000 25778001292389312400
-52413972480836938200 -4324084910010915000
-118394937745744676000 -21452227286590246000
