23
0 0
104755050029182257000 35096768675974176500
56232457357979065000 38980212238326981700
48090823649658672700 35498218749554604100
45540644290332464430 33894998063396949400
46449271984882198500 39042289582657206190
46046729483723425480 38978912366886137280
46148391926228897710 39355278947064074500
45690499511779424650 38992376608236453170
46237144846976880310 39531579127865060850
45989194723254238420 39520355188569302590
46065968113140790820 39634426335517277030
45972817165905727920 39557941751404627100
46128317985730907460 39753365313894589070
45052978069288338470 38916091876050821354
45982170700822962820 39776509634422588340
45706153993069499700 39826882450605808850
45944979923578031720 40160643042516979600
45473254033940582341 41121738900026707100
48877799149422239700 44341265383421723700
43404735050959511800 45528206525908043800
45286268484275729410 51187710019959546000
8127183180709755000 125288067609191904000
