23
0 0
10770380682 -131123545173
14800082833 -128468418571
15665827576 -127601772013
17078310955 -127151235062
17197037392 -126893938426
17334491673 -126843321729
15710225979 -124684488297
17342280542 -126749283567
17326556369 -126542396047
17960829300 -126042187832
17886855762 -125265671632
18003199695 -126068306768
18038976656 -126071698519
18297688226 -125785618322
18011716621 -126110715530
18309365659 -125799511314
18611443595 -125443242576
18848527984 -126645518120
18866418963 -126671413401
19072750862 -126599266411
19525118285 -127104906554
102147660996 -141841975851
