23
0 0
-3183190807364318200 -2406578068999035760
-27635462858046802800 -21629896249076721420
-532734385949370900 -1630537842951807260
526265051628145680 -1362355725145524522
758958705402989100 -1400811284359488420
796972673450197782 -1002491556865757620
1301228292034314440 -1632279495594856100
611519913392541100 -765075754819184520
899546904827015848 -1119434140785966716
1018634962686998408 -1244850143185349292
756805297580623774 -936244937777456840
1004328891402846386 -1226732213018440150
907729870139876498 -1096909715020037734
866993181205417219 -968294836054132700
937015479006563724 -1045375606491371454
982496737885373346 -1093905998750834088
978278243400524694 -1057021833987932636
1108421281272163980 -1160441453944139334
17221111225546204600 11519986253120028180
5426417255702347200 1265102493653085580
3513954080390889200 -1660751340351791040
6009264722920605600 -2256204143317978760
