19
0 0
355670215170787278 -768558477440521630
843426273342774960 -76259797012881720
845255868559623070 -2096781435719540810
1748908270407706440 1011845295289762490
-1395067650453766660 240117865976375950
849903044175686570 749103645765708490
-718024094217698560 -407072673313503010
1067217538555573730 -1186849246905608660
581941293309686230 -132798065971811780
179706067220975160 -198183500937256249
437449127982900780 -513836707544335080
842196885125389780 -945851738422924220
753703406296018840 433731289277652500
-396803802907846270 -332697825308131098
1054714017795514420 -5614683981670014410
4690772168620824940 2952192646532952790
-4546389697902774960 1817673060683660290
399698829504520740 -281606091484467710
