23
0 0
-205706582057093196100 44721960056211398600
-12774996721377028300 -7278072074572879870
-9191115099266413400 -5460997323418938300
-5779106465117109300 -7048005415300938060
-5608269889168712900 -7143436141145243430
-5862851372291970100 -7777339765327915260
-3615235076895505660 -6444208491112411600
-4096517900701010480 -7483790143169742530
-4167267090686428800 -7650280422413576520
-2797713448744068300 -5140964855440886100
-4226171696241308400 -7771358179230767900
-3789380066469336970 -7010932454980419300
-3982234072786305860 -7656195617221999760
-4035259799629840790 -7791070550702241250
-3473498486010575300 -7002935297389739100
-3297818696224302800 -7688439105371632860
-2755379685254765600 -6551834921257685100
-2630451038257453500 -9354345974129790900
-2675016824271361700 -10170471134604699900
-1983477783387777300 -8028063381111311893
-2583322964586141600 -10485594410954973200
1119909507027824000 -19223762708825344400
