29
0 0
-1640079546631453600000 -498913680740665555000
-982256772981336720000 -405547919954871860000
-1092895009614443660000 -808649325349972415000
-897046833551833493000 -686940630502502026500
-884592583741373712700 -677858664080409701500
-900315814444533681000 -696383075948649455777
-887935902512718216050 -686960482409913148000
-880408715921061915500 -684761197976784730500
-890122069869337940250 -692370840957796671700
-884934266418515233350 -691602592493056378500
-885414418220052552950 -691979213098466799800
-885757726855525277050 -692806427791226132950
-884118436055780781950 -691529760601326945250
-884600344105967877100 -692151302876159840150
-883727792345562282050 -692008594366928243000
-884822452659882868250 -693061455858784376650
-884022312145899210550 -692555252354791421100
-869548331075547269500 -681332926247526734000
-876434877428935402000 -687611396448715299000
-878327574542301698000 -691196772620784212000
-867900824093545177500 -685002268656082684000
-889946803169701644950 -698320319725793814750
-886376328630676312815 -699754958563641522700
-891293506466992917650 -705215496345670376000
-882841317754861395450 -701878680543957193500
-718387818149247690000 -637031645395398060000
-969864290920552500000 -878686500243094415000
-641840638478663660000 -1069890717034152475000
