26
0 0
-118896782680963473800 -15332075601712142000
13760697571968228200 -62031599860878315000
18445782917725480616 -63651686074885425200
18372821010734202691 -65659358655685775620
18633585656500075580 -65596798957307560360
18912720266175770440 -65699240340393900940
18079810984904288520 -67932389783697911380
19607074578952554420 -64596529284058642480
20335517915408485140 -65182544035556741560
19903051873116315940 -63504977303056713000
18969720634456319020 -67301979497234834200
19903868935943027400 -63579530537790512600
20017094689656040900 -63935849490262364000
20400057056468497000 -65097559121915988060
20377241995383044600 -65174535623737200000
20404305583254329200 -65096904238392063700
21105226319126146800 -67318393879875953400
20614979346024973000 -65753770370443454460
20704056287496319000 -65104729500270574460
21079980721018144800 -65803830395895923700
21103226086076659800 -65793869933761197600
38395997186474926200 -72872064481276342800
36709232774720186400 -67524351742813490200
36616482408459856400 -62805284869915101600
55404883454633272200 -59182405669524947000
