32
0 0
-61690794 -21239982
-103049650 -48485301
-308537985 -205087812
-346441978 -237277212
-398085503 -281819743
-430341582 180069602
-456655405 184994478
-474547487 190994632
-610860184 168778609
-718571127 190925202
-798337929 202351933
-1561919378 -38663354
-1780202024 -59858781
-2074116089 -94564493
-3013739320 -241346308
98943291 1191766206
59959008 1349799867
28876924 1495251625
24344531 1520005785
-138325204 1731993058
-143346919 1758498552
-152394061 1845243440
-389319195 2463392865
-448025541 2746055020
-685240991 3850523252
615014347 854252936
597971309 979226583
625340070 1073166474
706279967 1343692437
765008686 1479262400
644390418 772836452
