32
0 0
5062650982 -68529821246
29329196848 -8696701440
29400488541 -8657175166
32203169174 -8485111805
31954381851 -7991338576
32843311161 -7743685338
33204126247 -7330405059
32289042754 -7431499208
31930102203 -7480539568
31216097273 -7289550845
32040620009 -7388563361
32062971025 -7377789909
31227712886 -7287923554
31965392795 -7244131339
32008709269 -7174259060
32356515085 -7125807310
32357287821 -7124086544
32532722826 -7161411822
31519154154 -7240010156
29601980846 -6509490059
31375525181 -6897765172
29365215540 -6421271761
31332066681 -6880776075
31982932302 -6988513906
31983078928 -6988442464
31971647000 -6924987736
31973613958 -6923939079
33526169501 3241442116
36432099689 -3734746280
41623459368 -5566456793
72452765900 -1557284698
