23
0 0
4584146352 -29588587908
10534545535 -16563346019
2653576911 -3335063330
3672238344 -4605176340
2634673591 -3106199073
2982053165 -3230889302
2895710802 -3129181110
3092608015 -3277312868
1216193394 -1285558960
2894344589 -3057609080
2198915676 -2322930608
3006780149 -3176352974
2970686385 -3043640853
2534936702 -2343130263
3142986148 -2852843923
3291971458 -2987076789
4404298740 -3909744223
821130342 -570866962
4155351106 -2815291216
3961275055 -1797868617
5828000522 -2234974892
63770776794 15109976393
