19
0 0
45049351017935222400 -71789714438882850000
84696391943470691000 3119025186092826000
83596567322122626000 -129176899840214462000
115121544200617639000 65195486451358607000
-68972368561334324000 -4689275863934123000
85435915324675112000 52737145847870206000
-43340314671742952000 -24168614296073060700
87650142308473713000 -97239220804587161000
81961267533267673000 1610789008633340000
2673733049688183000 -1614569133016976000
45110742378450046600 -68666909128406361000
83822918560816753000 -93085218844058728000
83752055973315667000 47345671876167943000
-37829231572726484000 -22931142284899194921
76277131767307394000 -2008888750402755502000
1746659476359844306000 998712594600795598000
-1693190865165745294000 941505466549170268000
43248580987135306000 -22890229750930002000
