26
0 0
182738039134183891 5371898414481248500
162802847567004358 5820906302423095645
162028665871608732 5837848310968398833
303165394401451611 5937859202900192549
303163166371486163 5939393942383296610
469489491079364930 5934294935186118530
156752783903897035 5949207942456230747
303396456517943591 5946377848183778259
263918254828389438 5948494058293201273
201114671655450927 5949746899938255621
201128782735526050 5949834255746302461
264049405376440624 5949163199969991150
407787732191027160 5950192075213905368
412666605949338360 5995168462656486590
322311350560114527 5950585615797619693
264266115112311110 5969235126324703469
311930513007995789 5985181615640450935
301793639393904975 5985231461875049358
201505797611481976 5965710154301089637
3650531449585524170 11302971705148252100
2572230866311159270 9684927722100994700
626287895964736880 7560877854376543900
156762176790573841 5970505885974177112
-6374336441889130 5954589406756658230
-1138337489463230930 5993246145292538599
