23
0 0
26972815959 -130020833065
35503014832 -24601258833
32225616441 -20488039108
28146238663 -17406520563
36312192208 -16423585887
36579522110 -16531314179
36157588665 -16255236870
36315404970 -16318964400
35804684655 -16087661143
38806246204 -17435786211
36509592517 -16402356509
36966760215 -16362254604
36219900588 -16175269009
34918635006 -15451845798
36612188666 -16198522450
36608850878 -16196509057
36349272509 -15986251620
37084958841 -16104373737
27910166261 -10843390551
39571948955 -15149251434
42476424460 -15919899085
73614013019 -3213508712
