23
0 0
120793125483 -133256749716
45224207375 -43037399872
64156274766 -38859837781
71768424124 -50596668620
63224937767 -38279843966
60904224354 -36873500531
64868107623 -38980140200
64204803298 -38454348050
64788779058 -38734807740
64422483695 -38203619899
64209250073 -38020892747
64806415694 -38321677436
64285661349 -37999010497
64141895285 -37913530573
64441796207 -38063847272
64555734020 -37912608064
65498477549 -38681831625
65769445221 -38575896413
83120031892 -47668817419
64586293200 -35621915674
91551536426 -46716871888
69135918395 38951772880
