23
0 0
117672471804793497000 -38083702780812243000
54478281022680829700 -4411321221290280000
52330828634674540000 16648244096338494700
49681225213451793700 17181524537665586000
46400144198316490900 17311472467962927000
48514279230317370510 19590922733502991900
49144574304371121900 19557331081472164250
49232716848548085700 19948701854925410270
49802956524868192600 20232777075823999200
49090396100147180200 19956561970191775950
48714414739846954320 19819917647685980640
49062163496352709950 19980757406062338350
48024007220307505663 19663158589051762360
48268845945428149240 19773408448082079150
49069181990120959760 20126832806809421610
48661447814212659530 19965835714768551070
31977103059249097000 21174473142521645100
48297840565389320960 20036391232290959250
48568290449607232280 20412440554775811800
36891308813301633000 27312239895954496400
38787027265363274900 35033478319344226000
55259770270884915100 140507199376874546000
