23
0 0
22593870394133193800 -101784638477290526000
33086682291431559200 -53521741663253614000
32567565234941233200 -52459092936022228000
18467407002843438000 -27285006098234268600
39759423922252425920 -27241771832349632340
42152909539835508000 -28043991905697651540
39062991282050169509 -25891061569696987340
41455891671691219800 -27295489601902663200
38623516411897589140 -25170744905589193480
40932157378746001160 -26445120476882065282
40104239768147969940 -25855660124087106380
40208947959351766660 -25298965844029655300
38729107349075298160 -24159470512062194800
37528817270916002860 -23006229448442130000
41296638098014492600 -25174798058128465040
40373489874516974100 -24611598030755530040
41372609379850297600 -25219433975682201740
42428122990923712000 -25836255621066054420
42721110049778959600 -24661195397653373680
44131690534944608800 -23405637491936472800
76019479239681044000 -25234425380817076380
232701022724670242000 69177677300304866000
