32
0 0
5152581480208617000 -1867193886952234900
4417708454926829639 668745293595413960
4416378613228451406 672190654503648490
4170975469000942120 340819735369563660
4552944241063677226 1035374482826520669
4648134083123570510 1115848378255330257
4539364009957856313 1060948669449122762
3846445383893032530 624457895048860910
4506475636618804683 1057347105411060827
4508780246192147671 1122277710023947467
4491613023338572865 1123064900134935383
4595559258888674560 1146634973518893042
4517075161570675134 1141277931653632421
4487632443923450906 1139110189798029550
4382625380966009440 1115132974852789282
4618227166856386560 1180986321941042950
4521287659533476623 1162150234086359658
4612927870045869660 1193400799347269130
4362874080219514387 1128885509967641066
4362614721014190928 1129014180330142899
4484531996219306664 1164111926843706856
4484493364940385691 1164288669090723148
4165967099130783740 1216282063006801240
4399294685538457139 1324505131478431900
4387471517202653374 1687814477190846220
4611164634016847270 1197702165533825650
4318273370528074400 1863556329852923000
4144323451566715620 2989785631400434200
4736912304036934210 1236732446704465640
4843189168299476210 1269272277149929750
4860262264593720440 1274975936531584690
