19
0 0
-343326869570215100 3655556862807919800
-3337468542955312350 1530448640554368010
-481828236998810600 367734116099182700
-420879837450918300 3054414311256689250
-2778087338075798900 1763857076006415379
-25234732716424825500 -528850198903596300
12732037195689160000 -17933937627874477200
8821900108210143000 23648793330140354300
-7270725993943564500 5878111828208953250
-1798558042113178400 -5580132466007545700
5388488623531215500 4888026141160876500
8240746808367153000 -11629796699151851200
5607999108560124500 16607151294585330800
-17529541329452804000 208650907928814100
942134417288986050 3243826670631830150
-3623630380455370000 2849555866643916450
-999299449359144945 -907377033913459250
-1226931804175176000 1728668501120762300
