29
0 0
-303397808178394340000 -101343750022271000000
-198924767216752532000 -71420556300901704000
-197846605957991979000 -157203155036174060000
-168738758327680558200 -136647367201261215300
-165748756961924474341 -134494163172057749500
-168386719538591964400 -138883095137368444364
-166124561012142749130 -137050564271172608400
-164589683843394763100 -136451311437091105600
-166969483277149344000 -137986145691459629410
-165416531503335369240 -137830849651966605570
-165532624584772927300 -137939882284712086310
-165560128806038675300 -138103300509052195700
-165207146078178984900 -137827523544784077440
-165335178966530121700 -137964187333607119590
-165089974098988096970 -137931182411867004220
-165364898217264950340 -138200583654822284780
-165157127082788499630 -138064897581282971540
-161894896619531724700 -135374872161537521500
-163355717837016520700 -136799327828434736700
-163961505038370923900 -137830362434324345580
-161395414896055353200 -136206294954132491300
-166398989089189409370 -139389545512066485310
-165550291719916987520 -139715008622285952790
-166649054062914196100 -141089277982103544100
-164633126280020221800 -140134762981959218200
-140284201642408458000 -129228299198475030900
-178172296703596462000 -168945824913832278000
-109970926783643957000 -218917779926556930000
