23
0 0
260492715270219387750 -227163020518433707750
273595207377068260500 -223036037659701157925
276518363742364812750 -223699101994624390750
275334010467008759500 -221452946453019059250
279274840310469260951 -222694255690950841850
279682821473848136200 -222991346427103327125
279636203085994883425 -222227029776632011425
280520854118737974725 -222835024202569950050
280192837058946720575 -222569175989624661675
281987946167813429000 -223508493504388887225
280517537857416245950 -222341981863849769050
281261882610892975075 -222922262015517772900
249448389475008922500 -197671002594185627500
281097306197267733625 -222694797994200955150
275330546554988266000 -218092736177091913500
281774664355656363075 -222903121705031806475
281662693489091390500 -222570893747457916900
281510738594863469075 -219926212322033278250
286236248730755482500 -223424434200024315125
289751898529430513500 -225882580907334948350
312636216901985115000 -226489704575160493500
399768200869026152500 -262436750279007797500
