23
0 0
48569861849 106951270856
45476546546 106121163476
42242397618 101363492255
40454703524 103507157142
40502310931 104769706161
39917523405 104083653879
39885917366 104666284161
39774114469 104572336407
39906801013 104923694733
39760750394 104789034434
38891567410 102527202739
39658137811 104592390744
39326774410 104184713767
39679675632 105167818993
39553281220 104835541430
39333830570 104822239943
39419379994 105123233016
-84897495722 117120061761
40651323933 108412821307
33034295866 112043055048
38718967721 133315374473
37208671418 171805282855
