29
0 0
311210158489102810000 41476346775150313000
162209470538568896000 46986655540016165000
120244724436944401000 44866270071543761000
135036468851469298100 73115313421302277700
135809771994296800400 74572208348136325437
134379683893357884200 74676862303296702625
132249594888488299900 73530072490852139700
133437083873870943930 74346562197939341630
132420508804731516400 74319647039248316350
133542624598674611560 75038151577459822100
131473855197387463500 73887619470564874700
134108930622353856600 75370936069751082490
133635696361381881110 75113107086017905590
133426334915885685800 74995656666405691270
133333643564666653510 75033587352342958320
133429027051107802560 75089105345074905310
133531736335634448470 75191955116282540100
133336322200563812220 75093640211216663850
132346356733526321730 74769507056699534790
133430294703919286800 75169810151141119420
132612852478504910920 75402587156632210930
133727916295926717170 76203023990768575200
134406763221097092900 76884611339500097500
131873922777323377520 75498390102980023250
133318834001810832910 77108411994810684000
164695247862009997000 119639910776238668000
102265124679021734000 83660554159471083000
145856077055229908000 140186434075416742000
