26
0 0
1724599881 -509245365
1771528111 -434495804
1816047265 -362709885
2193965299 -692005506
2247314429 -571768831
2291032340 -482414958
2771655572 -1249473879
2075322114 49486039
2473566572 485951163
1761883567 450937028
2818194685 -856884231
1842467068 456406894
2358139135 516259984
2446544619 612638118
2485481558 530906356
2458857121 634452779
3358789827 875578598
2828338715 738587873
2551599475 807001926
2967294893 1024927518
3080233295 1301992604
4278558810 3555574975
4198436448 3499864766
4036335141 3406503451
4090292622 3526632903
