32
0 0
-70024694605645641000 52031478288381769300
-34917255554740213040 3229378439104519000
-34910299231831545140 3221789042179311200
-34636273875913821260 3084003717503876300
-35840846644137827330 -1777094973294165000
-36805999419363962900 -1840960440213702500
-35766874869138341270 -1853525191892808600
-30071987692833893100 1725985279267965600
-35509908801036038081 -1848668172283508700
-35394017203322983230 -2271128260886966170
-35236797107793081730 -2269876235272163770
-35926926209510838600 -2121929528784670780
-35418489581074387215 -2287533922147998640
-35171973331332052930 -2359631621616384370
-34847703559480983560 -2254733082429405640
-36281341963833978660 -2347495855765164460
-35583499059378749005 -2503276839916999000
-36003276118434866290 -2645799888612516930
-34549988430421020580 -2512187667137917320
-34507987416043722200 -2537608595765181600
-35059591193106563500 -2578903542130327530
-35031530325978255340 -2623269068529248680
-33918040007641331200 -2870792808171231511
-34675553744651590420 -2972953434228888800
-34483874948562212400 -3556455792102372430
-36001117831815246500 -2648625972444966130
-34118683060099154000 -3917653708818682400
-23712897604433227000 -21498026053559486700
-37656255877581317300 -3228608215477805760
-38007347902899776000 -3318844261627101990
-38093351206392152300 -3347793107865305610
