23
0 0
18331084368479070800 9178865302430997420
14204894547886762170 8810147306219902670
13689632200489371400 9821483128904290991
13587020361841599880 8717676295522047700
13356976112830389502 8608218227505795000
13502389371656201437 9769398980282152478
13525790123373755285 9787559103873852395
13485244337688967113 9766121999417499666
13514980020960073648 9790756543615116953
13495584246398252328 9777889861058016429
13480711792262592996 9795109912853009950
13500818721552182402 9811236273088000139
13566913728270504450 9859398085879701110
13647325970887250480 9922729740159953240
13489483357558394334 9811743066028698114
13354994463135262985 9717864376371391359
13517893502552060218 9880887681534322620
13349045471281154333 9839456298037300321
13261213139377514820 9820419622029346395
13334573369560187530 9973697219110304570
7620496040677355900 10942300169767324900
11756198097804302600 16959490110242848000
