19
0 0
22210049596503507000 -36161219424444823500
42421559451644275000 1153857457661940000
41964550629095684500 -64144194347798521500
56778276092435402000 32253244652649531000
-34111217673383292000 -3116412271633870500
42814681745819838000 26503349377930256500
-22149865123068504000 -12334292066584082550
43966792425396437000 -49176419278129046500
40008730293526866000 8583067733081500
2198251295040831500 -1516934150957054000
22424627459580079700 -33499010883558899500
42080601266256643000 -47288130129493317500
42122470952980726000 23925715343403693000
-19571463171089580500 -11644947180693239017
39596407368039530000 -1093870929095857441500
949731858970782778000 545065739802803208500
-924696657290674172000 513797827326271658500
21543869682715928000 -11669120655594291500
