32
0 0
-59404200431027111400 9056234231132381000
-56012581210306964900 -5443908769610931000
-51677039724559603700 -14897642428798896500
-55725329395299538900 -16307598474168476600
-52650675652974319980 -19436546870577849100
-55689025111300533100 -18427426298786793400
-51695143912884903500 -18287977872336801900
-52547799332083410740 -19534099253603694700
-52641693212477858930 -19880198518585858460
-52865447927407662300 -19993975806327267180
-52607581162107242270 -19922453683431812880
-53095754085732418822 -20109735391440439570
-52254587144692673740 -19791883188254825130
-52264245948206577630 -19823326882390182830
-52823413773417483210 -20178778563567918880
-52778807452614491740 -20380951412482286580
-53041188670895472579 -20205440163090530700
-52996383590362028628 -20611053938845896300
-52323445472654483180 -19998845125518815540
-51885360482458901800 -20204112667002733510
-51956897328072954400 -20247683505849263240
-51694024025544972300 -20287559731527092480
-51696997178781234300 -20288737605309958840
-52466258958484881350 -20596373399214423560
-52303241328724218390 -20723922639743773053
-52612184400028751340 -21152501659104270710
-52055263043353314600 -21937426042029295800
-52315214648032672880 -26842136231847893000
-53422530679415351520 -21660049108325208680
-55656526170582467800 -23455168861575717100
-56234077288221251200 -23961480849149240000
