23
0 0
160805418061 -18327670144
125006328576 18448354886
124970234506 19152299295
99063758258 453605126
83920061065 2838258462
124890307990 19187535749
124494679721 19352831461
123666448796 19772064901
124053142330 19836221947
123681915938 19786342021
123518021334 19762539609
124289384547 20035593691
123766404404 19959263823
124111469506 20018200383
123392710361 19902536297
124203269098 20306904372
124734534140 20121188051
124699110159 20336633475
124849203152 20413960068
124836923352 22310746397
125085652127 22357049659
132126861685 24359433110
