23
0 0
21139865195 -35175993332
20636505654 -18492513788
18193202723 -4176209118
20214778645 -2601737841
20540953266 -2597754925
19929391198 -2179378930
19021058898 -2068283343
20149304232 -2035568302
20052242683 -2019971660
19480923241 -1939987930
20195672571 -1910307162
20490549071 -1909377589
19561300623 -1764645108
19195769094 -1714302332
19935297668 -1732807421
20516681117 -1769647855
20758618944 -1657745960
20636012326 -1477497635
60916545216 -4026308360
20909585444 219955700
26219949389 1053953965
43216179305 57352004408
