32
0 0
93181934645 60918788706
91621587481 62553804980
84297673297 68875866397
85399930882 70901029274
84006424561 70504945735
85574577022 71211578375
83139709714 69293423289
83751481417 70411206960
83884443169 70661461167
84382676125 71083988018
83860129512 70657756193
84411257841 71123121326
83647438393 70364181131
83691315074 70518439950
84193550228 71172228675
84167067312 71184947285
84276510539 71279806820
84256214117 71308343031
83699930659 70538554962
82737895345 70082986987
83155920472 70550920304
80571454694 69003427949
80587718087 69018324179
83171102931 71400209028
83037812355 71434425051
82988585945 71753282291
82870165840 71691386227
55436739969 111888462483
84662881302 73658838695
93687185521 84482939465
115929336742 112091827737
