26
0 0
42543523258 -86420387571
47879285118 -92263589037
47896793886 -92279382425
45803936692 -93566566615
45876728314 -93672540530
21680085804 -99132793637
47847954946 -94107573681
46549269253 -94691893554
46926161683 -94616287781
47582014370 -94365090154
47582162027 -94368834650
46930095862 -94623868047
45896298221 -95382279627
45896754145 -95383248149
46027307998 -95309133045
47122871481 -94802963767
46634935368 -95268351745
46967374535 -95216643657
47723685459 -94515534180
47365296596 -99731683106
47426781794 -99570428666
47578641430 -99249281525
47835920508 -94472951501
49861069343 -93511153916
53098386921 -92553588508
