23
0 0
35342479663426639000 -155088366796284712000
67513942933710248500 -32655739845792148900
58332836179406633920 -26347333656229127500
49232289995934908700 -21820014884508886400
60213635607944155100 -25529610883038454180
58593995661550332010 -24640974857402003190
59929033473422413910 -25039966771311588185
60652532091275851500 -25338978465819437600
60239744525466736900 -25160133916330851262
60309289989508304200 -24956821673243215290
57049226702421235000 -23827369265472415500
59443828826260798800 -24595904937325012260
59828823186763822870 -24711763701039502370
58573178816798522490 -24070597873963629400
59528978419943097510 -24461324558640335960
60338191718699679100 -24619027199018644130
55711438851276324900 -18936944972607598700
60766404612865033600 -24788159795776930980
69190069161023857000 -28021411273771410600
64091245497602294300 -16880877909349284000
79275112408107429000 -2016615494509522000
86652563371113121000 6561177653574700000
