29
0 0
-31887864800675630100 8951287346229796100
-31540043628344631900 4097560132684017700
-23015634926348841100 5954656720243857500
-27819615006866901690 2025599188332871760
-28074657379772549750 1817496258028614500
-27270184887367214170 1747291479498516560
-27427310504801041990 1624739675888416730
-27327375615842107560 1527431258288750460
-27576720775940980965 1538657996288461410
-27035675466003529910 1467294295941547563
-27491520629932422961 1473698750221555331
-27451842880513886065 1465825887395476796
-27661006879413790330 1475794308308013198
-27507634550829524611 1467242798977206705
-27483483939914991729 1449190775373745687
-27521731688477584596 1437877784979827036
-27454174814202968526 1434020205305256789
-27469859047670256167 1420317000981422113
-27509465053949728730 1418836296583176397
-27366140211024161430 1374170912822714178
-27834202103099773680 1355549149910516712
-27622405137135602559 1343995564609562303
-27496388699819578745 1326151929207478705
-27239367565039829920 1219016175806739660
-27690648566024567770 1228639600874350090
-31399503164122337700 -548128454785741900
-23528617738484282100 -2566441098739307500
-31610117531656119600 -4316406395108079500
