26
0 0
-470399267756607700 -129420750915430505
-483912580082806600 -136406167060383640
-486067278192003000 -137844694537489195
-777153588951724200 -332616711694659550
-873259590197034500 125459499998094235
-953879767371734450 37134687551576120
-1071819312578341135 -89260365013410370
-1083803978681243830 -106919334482314940
-998368443165699195 1650549758997707785
-1090205866065280185 -112057191700302950
-1264722894302660560 713196432567581435
-1296533456430686540 420909544105195085
-1377860229984203810 332533666922652035
-1378857410905673530 180483725681266535
-1382584646571339440 169253819793268985
-42182722084612946850 28629388332103722285
-1207691700272488000 -331510881556342970
-1615916014984129535 -457318410123412165
-1380151154603163755 -435355907487630399
-1616699109519862135 -514163860621053215
-1411046026741257920 -607846777124894145
-1717598027113096015 -808753497587359680
-1612744474679445485 -887894610469878815
-1108684027504724170 -612740062568839015
-1836624144824683325 -1213300792483323215
