26
0 0
54454294482 59375277684
56248399368 60406456682
56959133508 63963543934
57705498530 63657514118
58331926752 61542802427
58007871367 63563838983
58095958797 63353251741
58358790896 62728552592
57821740161 64150273445
58371767238 62713607293
57829952706 64143383178
58129731224 63419856789
58292480506 63372790127
58758851801 63174387788
59286306435 63641741152
60037911969 62848232203
73087691079 59197338620
57155243780 65910759074
59297970457 63676067103
59336239853 63757828883
62331010166 63738925812
60198759487 64643287578
57145044571 65921417642
57143804253 65922718211
57056379201 66015203398
