23
0 0
-7213967391736177800 32072408833587363000
-14183530147189238900 21440524148788661900
-11731837126470810000 23368347180267467300
-14965119701846066720 17452814349344886100
-15285116273878610850 17416582239245777900
-14718983086470591260 16468849262536707610
-16367997315333649390 18308127010051853300
-13599781895766330400 15204800538324943000
-15091492284453655130 16830433805457330070
-15431113793959678829 17020893070288718800
-14471864036711621870 16064761332504916460
-15219688599375661360 16786020140298842010
-14961495524067152700 16495807731871038340
-14842309259447020750 16173830827283752050
-14893755649135321370 16226102563240196260
-15170905912462900720 16455761281501104570
-15168055982351637100 16430384997652415950
-15313232740887987730 16542076522306319370
-14647171174292099380 11469349681962967100
-36684981078162937000 -37646989497982008000
-20462033945676219700 15530985044075972880
-20922251924483724500 15454318614904772450
