32
0 0
20166789097791996400 -47500342332584205300
33580753928309540500 -10290958532067509800
29288260006394041590 -2889658881542563020
29294497921080253380 -2858809333173963700
29200499714158605900 -2833605653338039120
30213960442709180330 -2533798229132008790
30329538383924770810 -2015748470842717100
30332888271160493440 -2004982076686146200
31534776247408634500 -2601227416820448390
30857743671023197300 -2345619414453830097
26150503838871555800 -2121677308254482610
30330195091722165050 -1903793395687435030
30332003814966055550 -1894036023553674810
30332257240563774850 -1881504779344902910
30751986925231977200 -1891923633542200290
30754413174724189400 -1883452738684914350
31715449692798212000 -1938246693367775070
31729213640180614700 -1932813955091180530
29800950896488153000 -1621966089942058760
29807769583268924580 -1585359232881729210
29806104826845005320 -1581512551664983820
29500854844563187960 -1296927452554049830
30943628689168613000 -1269888634134821500
29970561139700991470 -1180850440072426200
29970612313570799770 -1180428573049536000
29973869647952037920 -1170778740168012900
30257963511061220640 2279157540873015400
30396932982743844600 2953713291455655100
52259578009520220000 67907063636272385700
37539300838521699800 136887616742967200
95715843206319846000 16577520720126852700
