23
0 0
13102799189114040800 -20310653187916643160
10840916694865251620 968179324725598160
10043251526590088847 1016331385608754020
10144801658105268026 1432418244763313026
9777756376291591220 1001635783223860780
9874097726529079058 1144564544556189520
10124462580000437892 1434018485630771896
9035708766107675820 1297658876632015064
10133511882425656800 1460763585031321634
10117647063547650178 1484072443618873534
10159526331043224818 1490642446278636078
7770781571873858400 1140812966051523880
10124732402608558796 1517915429244476480
10112557265146879270 1516199465391486348
10142147188518061806 1520703257828074132
10147374107861905124 1552914729165952350
10205336385743236906 1530255043255211698
10205770733702617524 1610315946335090260
10199182976548931822 1880643722965757400
10745945396414988820 2157868681955753640
10798026962117390880 2512813435441861420
20042089670558049200 17041148303796658840
