23
0 0
-1426214344289460090 6183144469979271970
-1759769935656023649 159342150948177590
-1610844628994252000 136263446169755510
-1696669829245704399 -71167868064900970
-1713909456215289559 -103160117162081620
-1783814613191856270 -113266256619963470
-1619673566059262650 -163436441938456340
-1701736574734345268 -171763087983296428
-1738384858147792650 -180261182507902900
-1527350788892905190 -158415426746099790
-1744835469595311911 -181145150143939764
-1673356585869637470 -174465304591013053
-1718055210892885782 -184559063365005824
-1744555845850922885 -188943293614288857
-1668704981902415880 -192863460379199194
-1695458875880832670 -209253885438052414
-1620464570006275400 -203687192853303187
-1902303500098658120 -349043565674457364
-1975720102434157820 -376171582040293740
-1666287362220058640 -11774484972703900330
-2048801924663655140 -424370357956071190
-3250729767509819500 -1258566831657987630
