23
0 0
103365655596077295000 -144085701687826678000
55114477964641348400 -49317021993028416400
53709529734119885900 -47429792791310905100
48143602360739057200 -41445082098449932600
52035381848338491780 -42914427856781083290
52735250025063184300 -43484234756356259560
52272087591710648000 -43004036886664253170
51993151155361033260 -42713301003936689577
51479992547632711640 -42273769400763538660
51800123877372018860 -42535355437165164780
51403440335254304330 -42103974753507699950
50673232564069935560 -41433491154398344100
51867553059020769040 -42203194558489724360
50102210866620917000 -40766291205458402100
50068947306212151100 -40732025435799495600
51754917865719456180 -42103438592114731140
52075653888629531480 -42269619965518485550
51076134626096179776 -41424195154958149500
51948955341906925600 -41988939780346192850
51604715288854715230 -41169811492266996700
62717932224637866000 -36184072549793117600
88664688044967341000 -19625970483055164000
