23
0 0
-6742370311 61519104565
-41930874441 125105628728
-33156636864 15888115923
-36529333177 11145368041
-36785097948 10979872224
-35929384294 9842528467
-38201869001 10439447940
-32231750620 8805866550
-36550792422 9984396045
-37345510165 10027652925
-35607321684 9539797192
-36782584764 9779603973
-36464275653 9639142112
-36104655111 9426272255
-36440654319 9513112028
-36565658424 9542708412
-36478684371 9487566904
-36836562463 9544417982
-10706994974 -202446088040
-37911741941 5039513012
-51046630381 -2667649778
-57277369001 -7866370553
