32
0 0
-276920406512911052500 251360469696332370000
-289295361610332316500 146314677104588279000
-290615023983753167000 145298702056872846500
-306224939498365644150 150432851637118362500
-305642947370643605800 140227392021691120000
-310009988804042946600 138573842580837711000
-310548254392419260500 137117072911920269000
-307440861288269625560 135531438792123151400
-305413823014835412350 136458829385065079000
-299918813465303766500 133999076464303864550
-306915223342394677435 135424008413487365650
-307057742349198026014 135336335322861675900
-299981861000406817500 133992347604635840850
-305987054523703142800 134150623125452484150
-306348573339589862550 133057480465378773950
-307647035927858003200 133065327001348088050
-307688252793668529050 132914410111433651150
-311324254741995474050 132927538650482119300
-302780100976628902500 132520972035204894150
-291505305246960406000 124448567211083528000
-303187539575867291600 129366477643550134500
-290438980312542673500 123687272311304624000
-302820200943887725400 128955376701828732500
-306505364925816587050 130415398891501647300
-306516290423466219400 130409268538312931720
-306349896885582494150 128593751901630664750
-306548400325623184245 128419020744233695550
-308994981445222695300 117186588090366186000
-322567010319436770500 110130449591337020500
-677524644433913240000 -79289066532856000000
-603575648445956120000 146481401589372294500
