32
0 0
16310346392 24441150158
11489262527 23972917370
11457769377 23925951297
11174500116 23416907730
10990298645 25125964532
10949580035 25589405012
10384788668 25026483099
11125484564 23316558273
10325066078 24898023234
10239070510 25016390430
10181933538 24894195327
10221445436 25225699584
10146233173 25197174319
10084870946 24891335611
10027175400 24559694062
10139884457 25338377076
10087696184 25240742503
10103748903 25341555733
9858000160 24557146186
9782678635 24551328950
9939491159 24952960244
9937374436 24953162813
9214560063 24506321397
9281231977 24844340327
7322848520 25548347279
10091716670 25342670585
7204050382 25557193585
6820325961 25661070384
10089797506 25666220216
10675358524 28793176818
10691496166 28898475619
