23
0 0
27344945887 -47826945872
18994685488 -13979404200
16831541736 -8864054271
17644098487 -5295731550
17126753745 -4943271140
16881510189 -4438664683
16940933399 -4272501189
14531126569 -3637869468
16641730125 -3838247033
16414101742 -3629968323
16813972804 -3560680456
16401024362 -3466838157
16346296814 -3454622306
16766766259 -3538272297
17226992135 -3633749947
17226247242 -3630165620
16797713175 -3417587537
16389629809 -3333907559
16277525048 -3277656268
17261720192 -3166592204
15014719303 11085188878
24901389949 21753109777
