26
0 0
-25402201928156508700 -54914664914233130
-25473497279943374600 58449403033450770
-26466315385271558700 -239548832142223750
-24928177057923082800 1477289685239227330
-26439364602518078100 -127500910252487290
-26132395731851701100 1108280813373209230
-26159353415746959000 1116554725507001830
-26968203519998261430 -329244776879614330
-26998608280270885810 -239763547030125410
-27073114087466300670 -523023892718960500
-27074390655667880690 -519113230297931150
-27276199570117104400 -2758749827749970
-26877945076474351180 2281043362715714330
-27147062268830494600 802272512921083130
-27339948070465733960 -289321966955367670
-27541127421923524140 -963556519341412020
-27393869708561127790 724349928505474030
-27618781873844207513 -342918370914927360
-27507319834979404260 -1325507407864560250
-28436000976539040590 4778375706249600630
-28420819929142976610 4663528238207720530
-35954775236694918700 -1880423960970275840
-27612353701442933322 -1448228147855766850
-27613763759411846625 -1457183661889051240
-28280898669216657020 -5667439934480258970
