32
0 0
1354709371 -61548893064
51378957698 -85016998427
12079051281 -2838596202
12108525216 -2650322072
11960941858 -2605817660
12900051307 -2793390186
12994633920 -2307258885
13001422202 -2282796083
14670261415 -3172956968
14178171730 -3065493376
9554196300 -2050106708
12949114976 -2149702542
12950311944 -2134124372
12950533553 -2130820981
13459846551 -2178913238
13462139700 -2167874098
14493384850 -2294676222
14499560852 -2283636957
12449618179 -1867267085
12452384099 -1833069329
12450329927 -1828673779
12147700504 -1557092306
13598550106 -1588449524
12600749973 -1469975597
12601048260 -1468094312
12602902706 -1463189328
12351702756 -494726047
12693913567 1382653971
15343771359 5827907528
15011680757 -1706657406
124234186382 21643610011
