26
0 0
-335771771223377550 25772874421161931
-367854101592799800 24181932487055194
-443256854705766050 56220766439078074
-443268471669332590 56243443441785899
-487135715803545109 32075969371537539
-491672074487596972 32287179229684369
-479222466732319122 60780389540713143
-511206932105704305 13854709182571323
-515195441934859745 7063172449353226
-515208862607499805 7173060139542358
-512384769586867329 16874370475087104
-515932349704248744 20249743428310603
-516717698973062126 19917340711058374
-522626802498467374 68191827133667613
-523496791087700622 66280700337244772
-527181765458482142 66949970931064411
-517826449146290447 16863833719327732
-550631643787054338 3090834665734197
-529407857032241943 67018393656197000
-678608796605769450 189462693835676593
-677301894489491540 179725654221037763
-676267899590096170 96348922896242013
-620214442405079288 -146803870228866337
-637481314787023504 -240165783357297767
-1644498620868005100 -2271387976434297667
