23
0 0
33653484274544238100 67101161742769673300
-1601261597466760000 11391121454726021500
1544768867345537400 13737126232457075100
-2463470654381700700 8843204184160164200
-3053946992707424400 8198263243610639100
-3309399230679808760 8733423373761649000
-2757242442183452800 6433543424253523940
-3419293809725296650 7388965183758865790
-3591855969899721150 7418502588433202240
-2302377337218440800 4751569608091609400
-3616634513143619600 7454210690872305290
-3290556606744609540 6666030506806875436
-3627001870653050210 7281636656254225330
-3667581071324657240 7356762641517452310
-3325971900054457830 6568893254324689648
-3782735151183703930 6676529926636962500
-3270612882374823560 5512030800206626300
-4733227445766397440 6637654952424313809
-5058666437408528100 6983357163415691030
-40182139138468564900 -61328291213963356700
-5222836856958947100 7016106728681176740
-8040588901413750000 6561381737238449232
