19
0 0
-142378299902761610000000000000000 1515966320888324230000000000000000
-1384054495122301610000000000000000 634679935780731453000000000000000
-199815078018545610000000000000000 152500031040357020000000000000000
-174539661852353430000000000000000 1266671371744915590000000000000000
-1152078055154164420000000000000000 731474853883782860000000000000000
-10464891219154554020000000000000000 -219315174246017260000000000000000
5279999822006974380000000000000000 -7437237735617216860000000000000000
3658458602122517980000000000000000 9807199166532286740000000000000000
-3015183773330593020000000000000000 2437664054043821740000000000000000
-745865409931578060000000000000000 -2314091450916500460000000000000000
2234616388237107880000000000000000 2027073653541733140000000000000000
3417453233337647780000000000000000 -4822898610623743560000000000000000
2325647800105251580000000000000000 6887016942515866840000000000000000
-7269533828467962220000000000000000 86527924776935160000000000000000
390704918555905410000000000000000 1345221034176413980000000000000000
-1502726348482663210000000000000000 1181716188653061730000000000000000
-414411365098306034000000000000000 -376290966160420260000000000000000
-508810931675021189061737123972967 716882085556351767345657190067570
