29
0 0
-32699947219919081500 -52710351798837413500
-11349755144650661500 -37731383509191830500
-37186365883896249000 -16942608621099006500
-6308404735616036450 -30400935253298559990
-6422815234038308470 -29697442580249410060
-6195327872439264780 -30480914262680393725
-6005909882893475405 -29962370178640783335
-6118440435405436699 -30317540212973746215
-5861490365301068615 -29750981946825749390
-5959555541303605275 -30256951514214226395
-5981107305978578115 -30369005107971923740
-5897055276540951205 -29946888576492647395
-5872799004869029215 -29859570779799715725
-5904998730791264160 -30025164619314152860
-5824530395377488930 -29822162650403986860
-5842137008607092485 -29929036903865898765
-5851716414014082820 -30029692447835774950
-5792280486274574410 -29879720059844870760
-5811802393310529590 -29982679108233812595
-5384939586593524950 -29048475718612890000
-5730517058245992575 -30130619205297408525
-5469973524419828350 -29509591159187648550
-5514639240573078300 -29934172376007101900
-5360997017484196400 -29794575302983066580
-5360931459949287300 -30010905506515750840
-4083779148517076000 -33265502581895636350
7084739592293696000 -18509782502180905500
47446707198910456000 -34274702143642440350
