32
0 0
16017860849 -14149641104
8195311238 -368543739
8160995458 595266525
8163437575 650494225
7214703653 1345548503
7462007199 1523565674
8298676531 1699023605
7048115253 1455959955
8248485499 1705860964
7447492233 1622005333
8291035404 1714715803
6693151000 1384484904
7920504470 1791060364
7360315934 1612618706
7812499836 1767999585
7915687162 1814163175
8209936517 1884438096
8216467348 1905227552
6798767451 1550803160
7188643527 1817831880
7185101133 1839057714
7329552531 1854540998
3291460778 2572893508
8118662887 2079401926
8114154933 2079983590
7398797704 1902427446
7595342673 3033948527
3476851248 2838040377
3446416594 24034914991
9019093834 11388535764
59471946620 18239212539
