26
0 0
-119739986814429800 -68997220118651100
-136364469094039000 -93953619332016030
-154702925359888600 -140464576568740450
-405637528855619600 -784910194360325960
-823686049808522260 326337365290556660
-853740098614349710 222484292532482900
-932026248698162760 -23653857910841230
-941656824762586600 -81460237514092350
-1057105981090926300 955750842137652920
-945444342331336130 -93745912943400800
-1067768257639391970 857746842076889420
-1066516918449919390 707168711834044620
-1125275358351970980 424673061775653960
-1126015651568094500 281831884538365870
-1126955320062520430 274741266959901060
-67112725867681206600 83669104604972520520
-984097729361446540 -564849668073419853
-1441487700590957220 -1055629194457508470
-1130760682669268890 -1025008143357773440
-1335000481862380420 -1212139134908211440
-1146876620956313680 -1459120095775913750
-1609876554880510480 -3176918276209858180
-1518765090907221950 -3573458017855284380
-739993640788392220 -1958118300303313280
-1998973648486986940 -6371217007956617180
