23
0 0
12760236428 -195697211602
14759844398 -51899649240
48749145277 -24564262461
8979522476 -19487774893
48175367804 -24248444543
47993392127 -24149455747
48198700759 -24139602797
48529740745 -24179586854
47952703152 -23884762929
48034024417 -23920469257
48304383536 -24018384740
48032032695 -23817777674
48243604901 -23916260886
46754558843 -22077248641
48349003118 -23962097458
48288787033 -23866196435
49053333198 -23156513185
51752848738 -24409772064
47344610436 -22322291276
49250207556 -22786428821
56167572096 -25039271994
75146508413 -27501335978
