29
0 0
-41176739764871763600 39178886889322316000
-30152354543176696700 27674033626999590300
-13848615785715138000 26209536149326467200
-31212299765574072150 23980236155345587870
-31073123698525220980 23768748576092414440
-31194127780336195250 23793559276639224340
-31317109756166075621 23865991570586252530
-31172582666389191910 23658350426045415372
-31252810098069264646 23713367467781047367
-31456162143976828660 23971265413535296750
-31386042374604304650 23803807851228365820
-31235570255893352150 23682020240988845224
-31288944922402011087 23722285230446136460
-31267491474584727549 23681343570682473956
-31309200877907226815 23699308317011473609
-31246621834210731257 23650606968701630447
-31278536594648438112 23642854440951925178
-31140514210291744190 23480821102166159740
-31236187449872363460 23552508553426917367
-31305364972913385364 23659983231702165692
-31616150620989063230 23825381994827723670
-31426661981726019681 23673419001904419926
-31329768310326608233 23593087154814093699
-31293721155000825347 23444536437424110860
-31498692365977764040 23569704570878470074
-33989156356875415900 25010060949038352900
-31761258203573058360 20540718856026261500
-34899073491903799600 21137554611554965800
