23
0 0
4022978970769581800 -4287308775245655600
3060412819427552380 -2836906350226106790
2346278040921413333 -2044741439737499890
2455597398572842110 -1872550014064288654
2670987513845613440 -2079499570649449580
2411417523440747853 -1866081775199650366
2448946558703876438 -1864616854615293020
2099398994690808040 -1595024770347648980
2467719550874851311 -1870740708923549063
2461998112519081364 -1864459624590758604
2457416860297928814 -1856887973132813810
2415299257608483246 -1824598688310706538
2425589099939483624 -1828469084837017769
2306536508737993721 -1725198018060476120
2345463674030331028 -1740687067040555330
2417802055620671327 -1792859060029535479
2513172436989761160 -1863263440550340844
2303791079484812901 -1705870567855964350
2487270127052662050 -1841660417277710407
2501834454535121200 -1820344219576205416
2596622743762036700 -1866862733249578814
1124357410808241100 6282024423311981700
