23
0 0
32984828279542718600 124366232038866580430
-2959859945684903510 36420877963793188430
-953441673711299300 3891538446295199030
-1895943530825614240 2273117625709159330
-2285069755295706880 1663293555221576030
-2891285021565611880 1532774956591889530
-1685460128651361870 759934373458045130
-2270462022654104790 987551994995285570
-2552932707324410969 1089661225425953280
-1191302295976756600 508193929417600223
-2601634856181035364 1108986997458200640
-1964539273728142270 837403503254852400
-2358487389139188750 946678123516576610
-2601515854339532367 1035927833878879150
-1965902709899983320 732849044728962800
-2276016869886760260 701496981778501550
-1717913449506176520 518814074493896951
-3205875304712476740 531903881273872383
-3701100369556413100 567457833362969470
-2674964907620714830 -9730978626332614570
-3907071190900767500 538786673267314422
-20000670926117053400 -2288194292712329470
