29
0 0
17340911534046238000 -20120309315667688400
12647987274936088700 -14383374582885704000
9341612657086587800 -10359927300595546250
14423085848391377510 -10902389799120822680
14628689276172953090 -10924341461349963930
14556237696910716828 -10809355336699087586
14318296657845794790 -10612560330885782670
14469720778802187242 -10720702687641327588
14431885716495914931 -10617139267109331520
14567012593722404343 -10695792217095879093
14321301507573810990 -10513481997433525030
14649114160107536570 -10753890929212131335
14584308184033515356 -10705751380994598580
14553190676843190294 -10682185420999396305
14553823999828486651 -10669130487768728019
14569134914113580530 -10680255843033736984
14590057647663761990 -10689469663862127988
14561380265130303089 -10666918995325625680
14473368118552107417 -10596106700436041280
14581352507408831487 -10675078514101571589
14577225012060755525 -10588915467888830450
14714829461774468060 -10661649695325384397
14846681243022698030 -10722914971906100478
14543514902160892186 -10469315208750243510
14813073192893920830 -10562172917054772270
16805165562525565900 -11169520990523873750
13714990836609347230 -4957483958616549400
24887258266977164000 -8226419107574753200
