23
0 0
24402239830353510100 -30771605964424663400
8136635036682716300 -2913699957040717620
3743566326522716900 -3557787295184289700
2149334561806159600 -1699418708320385830
6462382028010832570 -2206517743850022819
5458160727299690400 -1759269180664030340
7195542052685583200 -2295412439855453126
6068366916820680100 -1833987362693421570
5593086041448736196 -1592331730577875620
6392294188004445090 -1784061238538771400
6991645078478185600 -1950388141944339680
669019180840866300 -183625514863161500
6342089750266423170 -1703954440172580590
5193121347061779190 -1391782953872311890
6766976606107078800 -1546382106585166320
5786867424567315950 -1321276262793326070
7511871197741470800 -1715008609251327180
5705650231374737520 -1262863255509670800
6530827015816018700 -1144053279352554300
8645119317341574200 7566185449764691700
46515669150578783100 69606175827154696600
106887563957594169100 13703437693358496600
