29
0 0
-99997495330882282000 282378655458778188000
-52569480478681044000 145847056474494160000
-169610865536286728800 173721496021299390000
-159809261403146408800 108075776965241276800
-164926998142860644870 106713142905687417400
-157062679335647910400 97100558717241871000
-164131650588326301180 101328394030153643800
-162094246064324974600 98925500791676394200
-166472178767161016340 100609875073739385600
-164430896529547008420 97494592431879945800
-164950931476249223793 97563165291575911800
-161047933252798003400 95194695855681752080
-164230757933662704280 96969798007774247000
-158269401446320261200 93065069812675149920
-164686384501418808440 96796455869734436460
-164347928530035775340 96487049449040577080
-165244468078160710660 97003019214138885200
-164764841029678390428 96167251222085062320
-165251304519906763120 96416780003977036880
-171250384382503877000 99672617648624487400
-168084166055676737600 96141419616206608980
-163787780876477122180 93622226473907634320
-166238781193827159260 93731166680908521440
-164746788197363116724 89725107256826098600
-172104409477242841600 93003900478121169380
-238237572485620842000 89703615750091660800
-186895842131759452000 -3040749249758632000
-426745913957643420000 -73320921558309852000
