19
187777564216 -6225775736
-6621594897701 17453081726067
1985395876978 -1766883328002
-67093382371 130080744346
68166805287 11814878219
-41497199710 1801706031395
-4691636722065 326478629205
9661381546517 -8483077235409
41029511270979 26229128330782
1962964247811 2698604483356
-291054650530 -424299462344
-773315732392 2794509043623
1652857058195 -1343788429776
-363232550409 1878886672540
-1165526312434 68597491566
680969466156 -768764635037
-711340948609 507871238093
-400289505554 -129360940192
-2056202268546 216680865861
