23
0 0
167381308736088779000 121409023799068835000
50999445370283795000 183979657151858024700
49120122695590464700 192561542564687775000
45198688909801864600 181868695621888505400
42325156702960704100 191160490214188983330
42161182833744519000 190840974251743367160
41679542999186181500 190973597395854159990
41671890986654385770 191057842072906642100
38854982473727827400 178270927350945058000
41597027441326493110 191035166822830295000
40910865402226929900 189064490250842679800
41676103599962033340 191398597576836541030
41362139392297215290 191294194719711185920
37975711682225476100 190522091559218540431
41415310985480680780 191547039629896183580
38254560723945474900 191950477229657138200
41631722838405369260 192598983917682180700
30462870398338865000 188791008493852190100
38462465144891156600 194411485263175435600
31938674983629290900 198227432573251850200
39230070818214162700 266476940547971297000
-37049710804351997000 266582063470539286000
