19
0 0
-723486223896782000 6936265743783497500
-6223890473848201900 2991135459312393890
-1041296048741034100 835457322995237500
-770335799411154800 6188208251248303800
-5489082991871125900 3421649957241493161
-54670015378636011300 -1523535733847548000
25662314827158622700 -36461677692261656600
19011493622800835700 50788541605078331400
-12720970792113574300 10361218373906224200
-4654450696155987700 -14452188053868497600
14310052603469967700 9646990130837210100
18903364542114510700 -27014324955431605600
11798155273947055700 34550085064297550400
-44575296924299496300 -534559764097765300
1516569802237155500 6538686303999412500
-7110811232979491200 5746035321865546200
-2079132022144521380 -1514702680764657800
-2348748724160814970 3347608443447536730
