23
0 0
36881511100430202500 -70582654063056746500
32333779095271269500 -31586602470287974000
21170794672558358950 -15676065724877666950
20965739780811745885 -13926387929793708020
20104997206661038700 -17915673595295293450
20592261585135992155 -14612457993770852000
20883086830765678610 -13833682714473293860
19389331907470648200 -12672217865940540350
20855573998204236220 -13556665565424551105
20783179717219216990 -13438552968976732705
20876755396799964095 -13496999414581442704
18104933022656673200 -11673277860908331400
20779671755832778470 -13292008031143033585
20718384494006258315 -13252789302661208480
20801811591540181390 -13305490322697172855
20768405293572272955 -13120802248091872955
20973362334938331765 -13413944654435423220
20827985776150674605 -13134036872430646135
20742214724272513330 -12988080229760674100
21195198038523783350 -12723004496756610350
20987514523546247080 -11956151628238176050
24896558556626677550 33215565571581084000
