23
0 0
2817748621671413000 -101575931443787636000
43537420764524160000 -55526093525861279000
24163640308464890828 -22493183828159907970
24866764691330963800 -22908822184945833260
24236292140838103201 -22200520775945886660
24666849881503563130 -22387610012980431020
24588679818883073730 -22274465963269622530
24893497645029801190 -22514419395840173950
22751624476584528400 -20560450245082781900
24562975313339732150 -22149259859198030100
24028714228761406980 -21545191251916418500
24747833706645642050 -22315020182808307170
24824324419421265360 -22131413594222389710
24291949840674238240 -21495342739588080300
24945276099209020680 -22059379740741096110
25026406140025512480 -22130348150888363420
28352242788992707500 -24998898867883825700
20840334545855665200 -16905317659659081300
26987577712876907800 -21849511990524074510
26601190734332143800 -20117496599092368400
29761554974533910400 -21161901580550611200
122585796876156491000 -2169601146125030000
