23
0 0
1583603029770279158000 -395823794906137550000
-21197273347011467000 380015457590667368000
-37550817348862306000 366554212447879128200
-41236492612824154000 369296039870989004490
-49408376372322347500 376702601386822205900
-48552703797549649000 369685887443159292043
-50883702435814823600 372520884151495937300
-50267898996719690300 374394651228033291500
-51452096963908071400 376597676496903856600
-51803724289462094000 378808344507197575500
-54593543785543458000 397395298038855256000
-51252734037399241100 372638090425411828900
-52206468746481802500 375574169367046712500
-56395223198308985600 377896399558724811900
-61330178282549702000 345843394076528445000
-57226014818769926500 380489902189189858000
-62366360565070687600 350664386428772564000
-77200728317939841000 376341411891560736300
-88573322466234899000 376822418758448042000
-93829825721714435000 399170360020065186000
-99823970619352366000 422500875991073646000
-897673455706280872000 1197350767146012350000
