29
0 0
-83849604895 50595589208
-55929111090 164141897
-34470185093 18002644823
-48819206868 -3181048535
-46587886288 -1749229477
-48961227284 -3629639419
-47987395452 -3759549352
-48683580887 -3707861252
-47689261852 -3956624502
-48609877883 -4034752458
-49092526438 -4095230077
-48034914422 -4008170346
-47828671703 -4007481841
-48175037649 -4036581324
-47836926932 -4093295800
-48020516822 -4117096466
-48262875991 -4183462148
-47942454597 -4220334257
-48186522068 -4253111436
-46770007082 -4547105586
-48472496135 -4479173816
-47590719918 -4628129831
-48239957891 -4781587966
-48109749651 -4953264326
-48380701021 -5003139191
-53409566802 -8138251936
-32233679880 -26084153278
-65913503995 -58227010668
