19
0 0
514528312056819947 -1000110662799717170
1123385396608657860 -54460742192325640
108658509896619910 -16117025708742850
474156810805728268 -897951120037510010
1055098387963129710 -140503259245789860
6545159966096868650 2751922264227547820
-5141286261052661950 3292203007559293420
234040003621268950 -7098696676778881680
2350805596337319950 -622536554077800550
-121742015496039270 1347014980025928720
-591149872175803350 -1779049830940169980
-3012937471413450250 1947807036582520920
334146672412995910 -4583294571349076080
4316704507665932450 1580916129774510820
94577110306641380 -1135865717530771410
1450928323572986840 -350271623892257234
92408274785849990 431565936430986150
545971236221825950 -351523801664014180
