32
0 0
34933701915122984200 -887120641461046000
30117832273766781720 10645635730838726530
30160827467907917250 10737955686739060350
31443018020348643400 11739027865592861080
31100248767991481070 11891900314612875330
31443894162440781600 12331624202923962190
31444405429757017400 12374545862379433340
31052379536872543720 12234415430732355440
30883436781101749670 11963898657159407410
30226991390086838821 11793169843082697150
30948941037425093420 12181006041084827870
31020552058264766210 12222301146204595110
30349459282193588170 11890482980184889220
30847046351110620640 12183691810385168060
30831954094509006000 12281577031712807070
30971644140730563120 12386047932788417530
30970964222863187360 12388524455348072510
31263950281287554450 12615492402389689160
30457689056601338570 12030028007117858040
27782537999608544500 11211928671417067680
30236344624987558252 12202468967799662700
27698049621686885000 11186072710991489000
30200567624628451433 12199930827035147790
30709403244058676700 12415487066003363260
30711265380322999230 12418247391281218540
30556860301756563340 12519304425859213010
30566094206650285520 12554976237286757680
11356486369282254000 49484842961094319000
31587722659598835500 18128465959803117900
36325543676220872000 21014892281474201700
79473688576126375000 48212466816371575000
