26
0 0
-20300713777744003250 -53310231104387648450
-20698889933529797950 -56089565686946819550
-20703082604094847750 -56124468811175647150
-21418149235348489355 -55694661423074149150
-21438415806029148735 -55752702793508762000
-27498501990536279000 -42659996375716772500
-21115010081037088400 -56541181565760486680
-21541109999653954295 -56028308130069664450
-21392051058302825715 -56314548407496578375
-21302244084509621545 -56435262620437109300
-21306371863429111775 -56438596085316838135
-21392761370938796415 -56316456840288666430
-21888728576711795655 -55918833567570347650
-21878158799254143570 -55959905439906995100
-21641758299593495595 -56159179070917624685
-21404424096918362185 -56484015872984821115
-21644438455535033880 -56226032929144752325
-21591385896802125805 -56290909733750900410
-21384736979757635410 -56505508989669658200
-21999506724168989020 -56909736070538855235
-21995029742571828075 -56909339821266994015
-21950264166492275805 -56924894353765448970
-21264948515848529250 -56661918346608318928
-20805363509489449000 -57185538205712544850
-20709000188302436200 -57389366262129389800
