23
0 0
116731817499901649000 60777100381696236100
63925968154717202500 48543388971857982200
72448352013981170000 59024728363245343700
57113155225026242300 46918806095152267000
54606216052681922100 44937617390299944000
56456843948463638330 58142240811760834600
56229256795756564380 58018744261614049620
56254937146153682560 58204615917075928420
56500432586821374520 58596337163788779620
56038443293669210570 58119077080405097470
56084721205638322780 58195287376156176230
56108614956797093150 58413034884404950190
55914819584531817280 58216718364377872320
55638857907692645761 57937183369161499500
55965085892607033910 58345899191054472770
56198737367777542680 58960118174609526600
55581872011839612297 58355916070948714300
58226131515631388700 61142545860601550500
55162963354059609790 57949853331669875750
55191326650213887830 61179545422185020200
-182856450905813444000 64232954451357619700
10623252771923149000 203639075657654232000
