23
0 0
5179016697919728000 -22253258144140972500
7537192383927545950 -12102246030556349000
7599558795582112850 -10603885236763383000
4131670752754728600 -5708158536523204180
9230158261098573415 -5584997068380798065
9839217616486072600 -5778011554078969145
9053233876776326091 -5296038439294735950
9648650738862385350 -5597417956830697880
8862804103407725435 -5140502809119179900
9509048395135057500 -5394074797023898018
9308147622523259190 -5276158846544435305
9336458091797330450 -5153519700427859125
8892515799155551895 -4867107319538444200
8659370911509002015 -4655817568013163350
9600586456831526300 -5120309891535483955
9374093231886739855 -4999312628351490535
9627078479841432100 -5133884461875801705
9906648300497924800 -5272819276169098675
9950766901539997700 -5009402088456559485
10280655312308506750 -4738648217636267300
17890537703825825000 -5046989099858035730
59278667501076992000 16868478386408812500
