23
0 0
56152624773776137000 100391090416006011700
29652866566433575000 99266175761900690000
22556900194928744600 109448561436254881680
21673154733886909400 108525827815664887600
20811160796821170300 107616808847073593800
19839463077648234140 110075140115696572200
19910023487676494770 110561932001416533480
19951538026098597150 110831719171204524880
19702761425778711320 111230126333993114500
19644361605902388050 110919818081308938500
19578216640832530880 110586774109001889430
19635247125380054500 110923388422855836490
19401053358691230034 109985748319451781955
19424731742274052500 110157153588783316650
19558332012296703880 111044825738393301000
19490827984682540870 110682672680855432920
1707306602365409000 88729357862578933000
19183916152348719610 110584372347137279480
19263482033403160665 111070609737760441700
1667301270782843000 112727474323149961300
-999400216366067000 123550410781413389000
-22998539318174267000 182219993610535859000
