19
0 0
-394074703783912500 6725144392221230000
-6285289287958007400 2726380468505517590
-798254350065038100 485469252784739100
-504581530353763100 5858215905368286500
-5446681493322937500 3178106394557841540
-53758175897624395300 -1197589306097559100
28119930585726981700 -41782392501694882700
21238444290832971700 54841644767411889300
-12315569243794554300 10021237274321853000
-3474372379305466600 -10440563790525057700
10001967914230510700 9015141379736203700
14519643026128660700 -21769666508570828700
10942667819095635700 31707048462652303300
-26487736716857425300 1166275019910957100
1873039399512592700 6169420184655650900
-6832092101562250500 5084741722931378100
-1874896593710687720 -1928657028763710300
-2048917906160277391 3064811345537646232
