23
0 0
-4821322895994563200 -17331702908554805500
886799570881048680 -8313432272632217100
1325549213884832295 -6592659991116855260
1406648895920760237 -6473957937006645809
1319415216443449298 -6556426437130307852
1407855296377198214 -6445845211823968299
1427943342314603746 -6432402472995766938
1422380130304086215 -6403564402396434208
1445957465870437778 -6404427447281334489
1448131986359891169 -6397547546059013639
1453469932234903880 -6396474756242148851
1409416371358252465 -6200868284261971500
1458297635489802172 -6382738337198387599
1457752613659215545 -6380290985960505514
1458698430623792778 -6384283499242698445
1466721863659434263 -6371688678190598116
1461195802714011146 -6395050973349526862
1474242889899938019 -6365264052270965225
1479080381533447342 -6352250183411549790
3167552168166316200 -4785607666450293900
1538829154803528270 -6282175750177276670
10245738863668468100 5178968335691388500
