29
0 0
-30905733106345659000 9855461877244672400
-31132701437118945200 7200580715256136800
-24911821568441240300 7810743368645711300
-28356949565447773820 5475381826648026720
-28581645244103996310 5347711176231543850
-27915494421692293360 5218720480138162400
-28036744389722789760 5129134497547247230
-27906952077159368010 5040874840935419435
-28162795826527864643 5084759618526053960
-27734417935976601390 4962358877406783003
-28079605922285123861 5019530764504826440
-28050149461534507546 5006617928371581799
-28235463065073492005 5039631442466714258
-28102903533844268999 5014969530160531145
-28077082825450780402 4994760086635502742
-28111477229141717659 4990901410747028214
-28052127824076482218 4979322523401529314
-28073045683858995886 4969013111908683552
-28095553867118802415 4971408865278075032
-27974225204845815100 4917224306202481997
-28403243420751001430 4964397864907078660
-28197213123565516037 4926217775147090087
-28090640856452128623 4891472432568387291
-27888079577088165720 4794049669826545260
-28260136800191277300 4827718306121772060
-31542091735552357700 3673775802163174600
-25705645143155614400 2103225427387832200
-32198183721552237300 -254215899588895200
