23
0 0
164596551796202101000 -37598747855353315000
47272444407306035600 26102320119335971417
148786563586494541000 82175341760241088000
39699472347086004100 22025595769783492300
42395764511036358400 26103131604306155513
41476193571923641700 26070346804582503177
42056568428393430200 26455093034495846000
42013710845893226200 26666481705641067610
41600118357715612360 26330164380478739910
41700716506673977300 26565284638083471490
41655605623091056570 26540963232440959160
41734443651889944120 26701535023385659940
41286372054326517100 26415096751818770200
41476183448705749120 26541923010624730920
41738517506589952130 26710339010158077920
41579605362799932830 26631685566734950200
41455025513131365460 26577695508025270030
41596938103166851210 26720173840376881790
37556224978523519700 27320644163538823800
38858511775407332500 30820664348579690300
38843814878250195300 31072006993674070000
25789513039243249000 52217133563785228000
