26
0 0
-273414698074626000 -264934111674461600
-340119992305398700 -412318660542522200
-367559272456637500 -489410681108962100
-581525467374176200 -1096782868103616550
-1294635587849101720 -960476773948027900
-1309313516821956450 -1041706896563112610
-1353507630461782960 -1260788206959171410
-1351346807986129830 -1275091997630708410
-1702690858936804550 -846006766472875300
-1351659878399376670 -1276001503388733520
-1697781406173978060 -882623893038099800
-1663955512827858810 -968049773780445200
-1675459710265478360 -1249224346960002960
-1638300678728434860 -1311318003111360250
-1637527085818214430 -1318584755826779840
-67095998376430370500 -18191330785513613600
-1245190753366229850 -1457109902940125090
-1829295763917217670 -2221791652284727490
-1340338507309961250 -1783036298616120770
-1714365303693436300 -2285921773580557290
-1170222379732581410 -2219522695289762150
-1856237258294268360 -4076232344275349100
-1128589893608858560 -2605423217623956360
-818013378893596000 -1927988121986644011
4971987056260963600 -53775803512614273600
