23
0 0
-1119087977 3324259655
-999556737 3746030870
-1133617665 3979908249
-1289953122 4199923059
-1171035770 4362156750
-1154444442 4383278736
-920853428 4671247226
-1585891498 4431728297
-1398042806 4602834849
-1111756144 4768842323
-1312245393 4759551547
-686854471 5121550213
-533163600 5226012538
-802699246 5208815606
-405739279 5810112882
-1330306511 5006988427
6482578456 14096438250
-1699971902 4868755449
-1837336212 5222890638
-3024779885 6895343943
-4387011122 7479707659
-6796675403 9451070812
