26
0 0
-296446351351416100 -614265399250698600
-321503404206419100 -784232959190179100
-311047053036320300 -842358777104088900
-150761611829898400 -1648131906602607070
-1205136320622896350 -1727648928196575250
-1171154706933322260 -1817040686615357780
-1069830946906620720 -2094036520723612660
-1061071637786968040 -2106053492185950820
-1959883579000023250 -1708724657858834720
-1060412187916478550 -2108935411781470370
-1908969724622487210 -1763228631824503690
-1689496606862181920 -1901815734840099630
-1526273848843603315 -2204651153275485530
-1416917883650046470 -2238107762671298880
-1405013957717412970 -2252326882538947950
-56499945663048118500 -30304587193083639500
-906641056421942970 -2175946118140585140
-1069281263379439560 -2740042632432976810
-885298975235924510 -2391290303336222281
-1009840841551474260 -2740233925689383760
-635244888327774850 -2592701664123750810
-257903353278516300 -3668324533614449300
195983753135480200 -3808386621052572300
104802260401676300 -1999291718571987780
1637362335410624200 -5852105618018931900
