23
0 0
15639872533 -34938408536
16990590389 -4162707672
14229099016 -1788608639
14895574045 583374054
13199481259 -1432350151
13735295050 -649805378
14825976980 587459210
13082622620 607359185
14864034290 690779291
14821137392 804908999
14973963916 819323651
11390776696 627260362
14823444246 943067209
14797132438 942030435
14920812994 951901354
14966153807 1153356429
15137948401 966955962
15157542528 1275229830
15161425744 2026817824
17665411355 3879380069
18530290761 6343494475
62802063922 73825730290
