26
0 0
1215453642669769242 -548091414453390030
1274100628762800514 -455929703621321370
1297224856130393468 -419315310519381139
1649044719948968310 -786452896018009500
1703979385201723720 -661331815194225260
1745413294362556530 -577821499481757300
2458001645618493700 -1919622915059738790
1501621807041411800 -98350646774546350
1915003795167081400 433470202300597800
1145421687894968460 285583513268244840
2498035593224988000 -1162138140758893330
1276290434080745357 311496126642383550
1809722197401244830 442122046514323270
1901635825345820190 470189516409823180
1935885080328522140 472334113338022150
1904918649394412500 475971868314429920
2992523505590464700 749795033366993310
2234435986570044330 560248337580655820
2197439584192053590 994742824609452110
2592054054645257100 1294378354917844210
2636310778649926100 1448203976501290410
3765398582846500700 3458191033338355510
3674236322274968100 3376342911008960510
3463800006483849300 3221613075278843210
3503272768656673300 3308832406108264610
