29
0 0
10979562624311007000 -204207379552233249000
4958122972726375000 -67697166934596718000
55052380029672347100 -125071417620601778000
52013353970714848310 -74865650225640677500
53528051286361423900 -75159797447995184500
53206789767105831090 -73052919076590407300
51358154409101094700 -70500122511028622880
52559605755846510687 -72130159068780498270
52120599213536813760 -70163255100384451250
53180058569172195720 -71504060777576405160
53420927154123353050 -71586111366821763450
51750001693933882710 -69183485108527476400
53097333329541522080 -70979664651298940950
53282836490944083370 -70933519711983123680
54124540824310090200 -72000627772715692640
53092431742003321950 -70573840080486285490
53617837601856997000 -71269691663977234910
53568608391686261730 -70728558050916570100
53345646009229720300 -70417711131142451540
53042482813115672650 -69736547568923864200
54569071200359937200 -71039523660549308620
55492011740280432600 -71901323380326154750
54012430091853026100 -69796651393815086200
54295799090522524100 -68198486350535423500
55881219200966011200 -69868516818247030200
97840763831067756000 -87725301074331804000
72937933721077659000 2456073095473982000
245431974155035400000 17167780409530792000
