29
0 0
-123895409996708315000 67371888803458245000
-96090866442407218000 8148669645743920000
-57364362152943198200 4557689073939253000
-67102751585985016907 -8828918043795081900
-64842833247084040500 -7426322634936548600
-67358247684799209380 -9081632806155166600
-66184937903601014100 -9368503301716102450
-66981690838459551020 -9221449779607401010
-65881656995055140700 -9538223808031329310
-66853567004883999740 -9684476179607239220
-67338986308195038830 -9763796895019291680
-66216197447307571570 -9605460609730156670
-66041155979807662900 -9588687543466820720
-66367240118659614850 -9636436911148931560
-66053824985924843900 -9684016580639515600
-66230348414834990350 -9714409861400191040
-66440598697828731860 -9754323675876345510
-66158317407457875800 -9802245766889441130
-66359542763826486350 -9833606589119520270
-65023367594883075700 -10006350506996463280
-66699245870476023200 -10124441938345541792
-65648617488615617400 -10108094450599423561
-66463059397624159210 -10378710723473884520
-66339896896689049250 -10520879271259838340
-66596187027492681350 -10577990180954388420
-83474551662442064000 -24016807671964812000
-46554189277635413000 -34017988031739364000
-97501645927033763000 -93857409657838394000
