26
0 0
7825146736015283450 116873753352281190630
7972602217709373560 117094565045422372660
7734832367175123920 117493502510808713660
8181993005075548800 117316953670184440130
7862285784304724060 117600232282357172060
8219545850487411300 117861228403939008980
8233219805648116300 117918798317330217940
7760150971710789580 117938820878830943750
7783910122971748090 117959024856148257280
7454956370750595960 117944489061580195840
7460784240082089090 117948510822592014480
7807894068549019370 118190222975851700010
8678454227452389500 118298309895495135700
8246893822608894100 118245094127416665730
7774983161916760370 118186863735841638740
7122002011533207973 118144308002605610640
7935867835199458300 118256639438521594480
7752804391891885860 118233178841166123230
7093645324905572530 117904155460322732070
9818580578231055600 119272329776124550600
9094380664226374800 119008531366632269900
7157987115081891690 121599947725322808400
6638823581985304750 118078457170453905570
6452441225285800730 118054622633022091320
-3291029673696144300 116814933131410185180
