19
0 0
-131333157551141340 1085310036702634090
-824659651576097426 709163571506041500
-141947147529622690 192505080908500171
-148354493806815490 961707283770556610
-667242561414437560 730213084191574290
-13418948004325718480 3695173493140218040
12186385753462701520 -24227845140806978160
3484329563005290920 12356558076174982840
-2108546312776778480 3084953761551899840
-657237261949917250 -2692420073119501360
2127924376602374520 800120685757953480
4426673373989537420 -8846398701020917960
1475820435183311320 6063850231033026140
-5236816613702345580 1775900583433322040
117160033843783220 912254691111584790
-853645321428792321 1142014234514320980
-255507711972841980 -180766883242086030
-292959614338999770 583088025696639800
