23
0 0
141268801641 -1207215445
112939608751 7650617919
108006877707 17222511595
104236396864 9378127711
96759415100 8895906831
106332208575 17972570606
105136430902 18484454802
104661874170 18727297055
104870940891 18769924480
104654850077 18745945561
104571239416 18733082624
104877963673 18960953402
104577065710 18926039256
104771676009 18973582150
104291088850 18890670347
104587799069 19323460064
105203248844 19078884246
104993715064 19426633729
105400994633 20009484248
95941612980 35717161192
92574418091 49225510325
129995074838 69130303057
