23
0 0
35838508613416879900 5425946464305605600
33472896793108236300 7127272726502875900
33090762396382943100 8026732879864953730
31438731524825941300 8315504014888745680
31482110735546665600 8643715843326614725
31177751226607349470 8612015866815521485
29316597661046262600 8120965725521329820
31158809240250333620 8773306350892569440
30200676817085508701 8509784304616827324
30009492557308727770 8601318744572838692
29836391040791791530 8572250698849349711
30527234393015024520 8775871985971335460
30739629731097603050 8898834522683486590
30670576406647276630 8924982853123195490
30849963646350902480 9028031847940477630
30817546900365917580 9045788229126405310
31578073030441760900 9333137639844868140
30720679944087449190 9116519310066974640
31537798239334814700 9690474469507169100
31547122581278918900 9722693187343715700
32214062499078045000 10175703556907342600
49304532613669676000 44655333239337163500
