23
0 0
84204989312 -3135894653
23445270907 16502596945
30450673443 21982605376
20381328891 14862094131
21454294560 16068684845
20769707885 15741682442
21341353518 16187778207
21273233648 16366608863
20905839402 15987671094
20998178022 16227511537
20975200847 16213235696
21049150412 16360137888
20642863237 16046899381
20810387689 16177742021
21054379073 16370561211
20877905266 16267445240
20788910776 16219565427
20904089782 16361628976
17978915455 16407531358
19561092482 18558776952
19512940583 18814468676
12322230477 32391960026
