26
0 0
-2495522233 790045323
-2610256755 953877196
-3639764961 586527334
-2325768697 1376999490
-3625492874 655969109
-3298816418 1952876652
-3366200611 1993083874
-4101455452 503371022
-4104925208 514410248
-4178172887 297663799
-4181623427 310463711
-4313234355 792896042
-3924618000 2826481426
-4153317040 1686122724
-4372942863 532405391
-4588641205 31156932
-4505546544 1562271559
-4620891818 425587139
-4310417520 -127010577
-5391040332 4983670465
-5361456854 4767595322
-12605205230 -978355164
-4631700570 -499280826
-4638572113 -561765685
-4778153451 -1622295001
