23
0 0
3220828583008567700 1007298959384931740
3095408568430345140 1204290387754888486
3045639902863292500 1185032638166453697
3046585509009390130 1192252732098396138
3044110159301973790 1191626555298687330
2845746285127386379 1140126771115062284
2961879556570443048 1280772356310125747
2947515349352424425 1286682008906587403
2324950972037317450 1018157327367706820
3058937120762093140 1341487954880702560
3005352433173613393 1318447284745954492
3011244668805499076 1336483594691349418
2987375784577225621 1333987574522038494
3000176490447469408 1350427441213644040
2981992446578117972 1348582376113151580
2979995889436690568 1348734113639618320
2991238711680123803 1365749202917151430
3071563892841856560 1485819439153534330
2847567286280668757 1384844869691529130
3101733000880862640 1539209287692020550
3107340400912376980 1584494680943297370
4384062673932895700 3974125563305377900
