23
0 0
121803999373 3451904320
121236184967 4837020573
115142246241 4821804593
118165418892 12504598931
117443160408 12460306353
98792576743 4562363196
117833156646 12841090327
118349234118 12899757785
118018230177 12905091262
117554304563 12880870008
117972716238 12985688447
118425307518 13069158066
117797048788 13012450996
116909314662 12916353210
117670575770 13447398592
118612300360 13558427176
117102947891 13884833353
119913669638 13324125329
115518729947 15140590426
119615123970 15958292409
120188114713 13774854533
137729571712 39767735055
