26
0 0
-7760699926 2925033225
-7945530777 2893363517
-8730288338 3501908225
-8730407121 3502109090
-9218909811 2861539502
-9270592490 2860141196
-9112362780 3655029529
-9391478653 2540860556
-9502612996 2023753422
-9507098758 2039409349
-9418810276 2595109956
-9590653160 2845616806
-9730020947 2839365435
-10083799662 4057168414
-10081298534 4042365678
-10147158107 4070465405
-9691932996 2595416720
-9820453287 2515175181
-10161119233 4074283220
-11602189161 5867012784
-11516045125 5671903026
-10991066370 4469728338
-9645403827 1488224749
-9618715491 1353288199
-9635274768 1259091390
