23
0 0
80892974456 -57531175822
80909137384 -55332648571
78605198680 -53399069139
80962410510 -53476098952
81318155096 -53514128879
80578130476 -52542915117
79420538321 -51726490009
80901695662 -52549293078
80782699916 -52447082441
80084761832 -51986510955
80956678748 -52450923837
81390262412 -52696695475
80230251011 -51798253407
79719279959 -51466861796
80545420291 -51979043513
81456577428 -52544270925
81572933957 -52565061168
81639701495 -52227584567
86599000439 -55735712951
82374853136 -49744323466
116334777264 -58469537743
94628044750 -28500647942
