23
0 0
19083273400 -56762792011
7376102828 -17506416828
7891294972 -12384133781
-158190593941 -43053123564
3380204215 -3650127802
3293094104 -3606460858
3361826294 -3612516341
3077419376 -3300343331
3259519175 -3492697078
3651527935 -3750921665
2224653146 -2282101998
3505621814 -3590631010
3193442154 -3270710684
2591225797 -2653265185
3488639735 -3571730709
3210633375 -3245344856
3618852301 -3636015788
2452498419 -2433898665
1873732832 -1679967551
3543360984 -3175530293
12570369299 -8075634988
31704454898 4459918809
