23
0 0
54905523821 27696347572
17590349275 18964381888
21256551146 23599706756
14083256151 17478417998
14013922514 17393438801
14112040623 22435221968
13928241092 22289737773
13978720112 22464677459
14121338033 22957426010
13759886820 22373302326
13774804971 22426824128
13756847752 22700731101
13604310393 22457135072
13363990252 22083843803
13596995645 22596396451
13753409747 22945509883
13283205378 22587772921
14753154386 25096006766
12955604658 22102650594
12284493330 24961842684
-135191746042 18485711635
-76865981521 170760281595
