23
0 0
2927514759 -129551908301
6979396124 -4441855830
4564705184 -2490783291
5921890338 -1825259299
3644096895 -947498574
6630478227 -1625880689
5873553169 -1281165668
7074526891 -1527456580
6314213566 -1153065044
6581215878 -1193085585
1800029708 -318536344
5724894007 -1011735509
5918030121 -764092327
5611245452 -563457253
6264984903 -893317337
6520383379 -639432789
7127520524 -668489225
5809140212 -524336872
5500290148 -184622762
6448507261 -9401280
939232841 49527733415
44017994027 7308633487
