23
0 0
-906512302 -71686282439
201063270165 -93500860444
56470421670 -25807716224
54461898508 -24878681496
55413786789 -24491714723
55260182267 -24304342752
55544806433 -24266806701
55487978886 -24001429607
56083395732 -24220970548
55716174535 -24246224339
54507938221 -23467177533
55708745834 -23981355914
55937168192 -24077490547
55448980692 -23838965954
55645009282 -23777838608
55876147298 -23859885633
60023238768 -23664759239
58939712355 -23012538184
54578753141 -20138563678
57432347300 -21053975716
63993109351 -20886792382
82092446693 -13710753489
