23
0 0
63446358871 46937889530
1834945840 51346158362
2368096794 49691760941
1581766705 51122352722
1451040442 51363414521
1359166636 49705216378
1162312780 50839831416
1156775859 50768784293
997664040 50996452904
986740039 50590965688
906820229 50783502926
887988835 51415344484
828758148 50964841143
740425198 45588107945
809075354 50761204645
390057391 51855898789
840427906 52783684014
340244145 49622035553
-75892914 52983093597
-100829860 51575284282
-43973870030 3081335552
-19822344501 100362319143
