23
0 0
52675358323 -40141381232
56384538632 -32697191287
56162841442 -27727680010
60959555093 -23641471353
61257095686 -21990214412
53749901961 -20659044167
61345359823 -21988756212
61792143992 -22080880934
61786744400 -22069528661
61377445000 -21848816016
61801625459 -21959870581
62741907901 -22238056440
61600672393 -21823344486
60794349276 -21531301300
61897298553 -21219609000
63049239229 -21993350832
61918057974 -20886206569
63781834008 -22555266276
62093939436 -18384222059
66120047484 -19552807515
97989931585 -28501733270
226323980408 58690280369
