23
0 0
74795625102 38942571534
66401187859 50829175750
65121257113 52033513424
58986484286 48528859415
60247294276 59005260604
71391947227 62475805879
60470722166 59360937223
60300051481 59443340006
60763289475 59947267042
59861603026 59156568966
60075131881 59381609787
60111660204 59738908535
59572988561 59532034988
59169092821 59130574184
59744102023 59705442920
59180589105 60033332714
60426189919 60416205151
58754186327 59608700134
101486081742 103195008891
59206085673 62272136028
28497765282 62548699530
44445332673 127545432478
