23
0 0
47995733514 -43086912429
27747006928 -17421002728
16313484769 -9679158176
11834561313 -6952997509
17412176539 -4311110927
17081143877 -4192890407
17271417264 -4151066766
17729942507 -4179543096
17586118827 -4088428817
17041234654 -3953462395
16394721228 -3785880997
17265002636 -3886297237
17533968624 -3922345269
16388623574 -3324832744
16905992536 -3425779473
18115178428 -3651096188
17415861262 -3508320642
22565372433 -4506582523
16209743361 -3210269934
17242023221 -3129507562
82585840007 49490871110
-40347681717 169807821104
