23
0 0
128286906847 -20331597713
94986930267 12218053256
94907996641 12890932132
64931968980 -8890545390
46791997297 -6148852394
94882819435 12901942457
94454730953 13080407553
93617766699 13514223702
93981028856 13570407324
93626994248 13523384602
93452120714 13498426258
94215788752 13752206285
93701471023 13694328250
94037992095 13745474913
93345397239 13645886294
94115072386 14027246604
94663912311 13839656556
94617596028 14059493923
94756192458 14132951003
94648434234 16211670575
94956124884 16371871762
101918230987 18010592600
