23
0 0
-16641362363 -17838929838
-16581011590 -17839951555
-9342039252 -11570862888
-13982847120 -17720867579
-11751757752 -18650883592
-11353521757 -18455968378
-10599293397 -17317184264
-10971675298 -17941846146
-10178371403 -17445069496
-10499780332 -18095546040
-10246841893 -17703291761
-10573182461 -18826741286
-10053977605 -17909967724
-9186190873 -16600645819
-9611563837 -17413269426
-9680631666 -17547746552
-8857048089 -17111502570
-9111230097 -17379178351
-9737208781 -18954699557
-8926592819 -19161985074
-8459548638 -23688410866
26497052879 -86995829762
