23
0 0
-14526172242 -146697826297
125462139471 -160907677622
35987077034 -18401644785
32767568589 -16738051732
37081903717 -18662661569
36066369039 -17874030968
36782831587 -18103871290
37288719028 -18349464289
37159319842 -18255493458
37166509595 -18237199296
35296115340 -17316344736
36546820889 -17809156784
36708961857 -17826365641
35983301073 -17417051350
36421570526 -17553500091
37266418389 -17709431188
34283470761 -13449508502
37526767652 -17832872224
42480608677 -20163712581
39024635302 -15124364533
39481862521 -14824825882
39695848786 -14606243067
