23
0 0
8226157222 -69011123616
12753971088 -50644985042
14341793168 -42284084724
-78166736693 46756149802
15585277724 -40463374376
16576852914 -42937535940
15465147894 -39444289904
16078005072 -40931999796
15184347223 -38608226472
16058117534 -40444728349
15782203035 -39743881968
15853042508 -39469445019
15355398856 -37775077481
15193550343 -37219523970
16376166901 -39947592784
15980516004 -38982373310
16384792600 -39967733249
16748753714 -40814540413
16966333158 -40222408945
18146776828 -39984105791
20254394611 -44335760061
84575804719 -68794865256
