23
0 0
137026711648 -85267021348
155984022492 57168921312
6884204171 2839864047
5373111173 6461988428
6703778594 2960065739
5192048225 6910498036
4868604384 6526397872
4755515194 6380906299
4992607909 7409924393
4501775763 6291725048
4540455973 6750774174
4659454694 6932867645
2760999819 4161673840
4375284374 6635575305
4264718344 6935522692
4164951920 6774659366
2966538144 5284913235
3502567489 8121148524
3598231694 8855020312
3375164086 7889050867
1101797182 5083606874
-15808313671 35065668597
