23
0 0
-9258205901 -44073075969
19651487330 -26765463145
19788987847 -26428098983
18596422651 -24174421670
22080095840 -25520478037
22163508152 -25555962406
22133040503 -25113452330
22356145695 -25303328845
21873932002 -24756228334
23064953289 -26100255167
22439186705 -25389862781
23015415635 -25882325507
22363134441 -25138003399
22005215665 -24647254716
22625236807 -25318363409
22674872724 -25288834070
22848750567 -25187267271
23176635004 -25395387474
22331933155 -17612017893
24569873611 -25524061786
51304350594 -38054158370
101899871912 -35075839467
