23
0 0
174680485484 62820950349
138252062729 74782766408
149271292502 10967360298
119928220760 78417455498
122163064071 79991277969
119231296493 79697643952
119350522994 81002628428
119006009277 81018502598
119495917391 81418778871
119064528813 81425353080
115676486953 79111456960
118667624727 81227293193
117725319488 80981922638
119116383938 82010719143
118622270798 81712432186
118235879904 81924732509
118482820556 82229798048
108647052960 87248000521
123661458103 85834197810
113201135102 91102248671
122279425869 99712704419
125731530875 121867667475
