23
0 0
30923751779 22638306715
17617235462 25701063326
15886886295 24096207023
16325871602 26741711926
16563138649 25976134698
15470607630 25585753534
16087552079 26612667470
15735669445 26044772698
15378188261 25774107959
15516870675 26241060360
14928227873 25247193954
15716427558 26595541835
15287364229 26227214777
14955515624 25394106923
15062826449 26115091134
14961580697 26065881990
15194050117 26582904578
14967735025 26347399406
14329863137 26198258378
14984890228 27410920938
10706336155 31312640066
-9939252578 55388064586
