23
0 0
91032733612 43156797617
187291558852 -46593779811
57255179370 44439464673
46841531720 44787721820
47386010680 40388683859
46028941094 44873698509
45731153980 40190609313
45458684255 44380765695
45513915077 44641697639
45314593257 44457083307
46006443899 45234314744
45654293553 45216300965
45273334236 44840660375
35784721963 35638244532
44410074894 44871692615
45251610779 45236499056
46097718305 46788746673
45194464341 45878240035
44901239541 45604560861
38164432475 48544017190
43734649440 48040849171
-68364760833 109411251845
