23
0 0
103921810233 -123901062326
42657024698 -31852355123
49551410083 -30592788040
52775512698 -35053609892
48759051823 -30073177767
46933846935 -28901740320
50254336155 -30737684187
49620239195 -30176644553
50241866076 -30475066081
49893445172 -30033627062
49618322730 -29825409434
50250531343 -30135706510
49707782186 -29794854832
49519503318 -29681562322
49918557358 -29891228270
50244886392 -29599093039
51066813101 -30577920251
51032286642 -30342873959
59579146164 -34993056523
50236748049 -26623458538
74500862125 -37082710755
59893983028 71918012702
