26
0 0
-1195803064 -67168073001
-581069604 -72365342274
-566676611 -72483847706
-1351843527 -72583947234
-1348054231 -72618702635
-67563679053 -29095119168
-427284384 -73620261572
-1314555457 -73243905771
-1183479252 -73330560149
-931383409 -73459278641
-932018810 -73462296440
-1183487233 -73331073363
-3475237571 -72454990428
-3241147709 -72669632571
-1384989559 -73308085931
-1133657174 -73551780367
-1370953896 -73519876922
-1223998219 -73593915547
-919724484 -73629730698
-1499076483 -75815403827
-1472714682 -75809487818
-1432213946 -75804380164
-424551167 -73954371887
2248195679 -75166747147
4066691750 -76262436233
