29
0 0
4883991937870115000 -81745594182648761000
6030880738185482000 -37491504562429105000
45471362964826640400 -35293884201030150900
38064417312256521470 -26387834359543338600
37221207266700942500 -25411391645736180320
38132152198440992610 -25557043228247814090
37799427522448550610 -25072416763547091430
38753574222326399960 -25683462299204304300
39220468376811748040 -25990092880037053090
37021502197805559600 -23978374978049883800
38887658748267264960 -24767356226835585680
38929051169663075470 -24790092870817576170
38901874754599222360 -24679058666784475010
39038196041260676720 -24753547761582773540
38975428507515438380 -24706667788195153850
38998602375455693490 -24588664965364891630
38218005450589597797 -24093704270649651700
39149591759120854780 -24654663537291336410
39729086453993823100 -25008777920689144840
39140147659099448990 -24585430106056119000
39461336628435666400 -24053166429832033500
38389705884238588566 -23381436476323121000
40284959774582951900 -24307039846483305000
41612791456502785700 -24649194555020197910
41267392832282360100 -23688762737789654100
59124787013306982000 -23863127587519120100
32303224047891930400 1460871996932849000
138863658744435404000 21459009381891952000
