26
0 0
-308444985935269800 29339722855133620
-508440174544255900 3199991785693350
-559867072763283200 -5882835437267350
-628701287649407800 -18425588666827860
-1231494150227195480 616534449676274140
-1400425127512860780 409020369563073950
-1550564774833638280 259560406500269110
-1601470395221836800 157824381658509960
2533323073873549100 20295338712852746230
-1608369910182819490 155912307100772820
-1906281668588678930 1391247307292029130
-1898681285450968650 1323822750451695230
-2042790800849728570 1093591291202219230
-1795896320821214810 377874216561945440
-1799883037519071520 372811061633396620
-34158275303883231600 35067956505012808230
-1632397158903288220 10900945360560190
-3425363292785052700 264841432646651680
-1742153093612576500 -17336265641604110
-2482487878710082710 -26635673256151860
-1744663490040581960 -157164250766135780
-3051116034992083920 -360516658416820465
-1782430544427907380 -217754522595855612
-1531608044850261670 -188391167443037500
-4279467423358192200 -4477437400868086670
