26
0 0
3487917852135751830 -9277613281232384100
4103180003097908590 -10137743618920903600
4108271690429830420 -10144136369560768410
3938694351057904092 -10489152246354555380
3944272747170801751 -10503031432311160190
3070916568782484310 -10801999596769190740
4087731807286079030 -10454993940082904960
3954284346291994466 -10528694882126389374
3989083846842761713 -10516712598342138849
4045260365312723520 -10491675850514503280
4045402127063439040 -10492113426220981350
3989500314459283562 -10517743910571306751
3891199400625764692 -10584500619408462352
3891356836726671756 -10584949386673504532
3942221456809775627 -10554635313627316207
3996693271203529326 -10532459395005531253
3955016311505036005 -10567727831959655684
3973829543266515382 -10562742010793579024
4052325294304178820 -10504632949951029150
3987088093473160143 -11000631450960853700
3988315884248066589 -10996788009647750840
4007625630080035833 -10961325033976496770
4085162558564828020 -10489355600866994500
4305261624802120030 -10380546047000361350
4361404959606391940 -10361372382372444940
