23
0 0
6796098658 -68033026523
11416894364 -48786521431
12956762890 -40498236428
-114196805340 77494074066
14280825173 -38317841074
15218196692 -40800082099
14169031794 -37242077001
14766761247 -38775237213
13879072303 -36411126495
14750152129 -38257552097
14484779805 -37557312271
14556851459 -37267340598
14070351902 -35519919239
13923571224 -34980412667
15059298461 -37705254997
14686896747 -36771894919
15079654445 -37754702776
15418701725 -38578122801
15619954499 -37955475329
16809543999 -37613009273
18826770161 -41927897557
95115599125 -66853387608
