23
0 0
19583475825702982000 -157465244972018990000
54482462169794077600 -24569928932569859600
44447853852788743300 -19753138195908196400
31929197478756803000 -14055677487759909200
46757567654557089800 -19012613359859002450
44738556394443333330 -17899405805586335520
46139786636574713410 -18308769915075021202
47456080862967011500 -18825360519168768600
46733219599607753200 -18518892335720350050
46887765552026262400 -18301526577659090185
42553569773698399200 -16796909930427901500
45712670764574332880 -17834277790459730940
46167777668546651400 -17955294964296886250
44440872483813003600 -17102732442735122300
45824952359415037340 -17628605085090781520
46850713989896435600 -17868502305992827140
39774838037562063900 -11847332236044180100
47291227459541850700 -18035249014068500190
55596416858129229000 -21173146710384220500
48984092380145312800 -11582984586498486300
67874679965838343000 7860368155215761000
78878546085504241000 20889741186718274000
