29
0 0
145544012001282916000 -469139307801976700000
105659724994654454000 -321433027474187925000
100037120659107054000 -304169508683478445000
115539691637837842300 -295117758621877163700
114990460495287635300 -292808202038734855300
117017356502101471030 -294517386742556270800
116247037019330234910 -292461282488046587600
116683032641697941550 -292978150067322701600
116899461590700117889 -291471952155276840145
116510428989259884820 -290215968822705007000
116878619328543750731 -291120404348785622390
116991954286216209620 -290580727510640097540
116126583987973331070 -288429524957384814600
117271915209014720900 -291218413327148407850
117278166779294363040 -290891933338648076880
117304276243703028190 -290523519932836821380
116885886318655980990 -289486030464056090500
117514043242004982560 -290902796619811544740
117485528151950341770 -290618206336098564580
117912680456793883200 -291448774199184850535
117923477432232938800 -289547409902019610300
118425510259959992100 -290327913698874891500
119088834255487345900 -290927421523686995870
117598609247294560100 -286450661447276664200
118930875489108101000 -289493050377865867500
121687274907023700400 -292678149579134848500
109267838417366598100 -179577029539362790000
167599166109328930000 -214418880259355724000
