23
0 0
28639304142528045000 -237503476776916960000
49654981592350084300 -32203576402412354200
45091935217782001300 -28495452405896456300
39602992708061430000 -24525091309357048300
50667262058179275030 -22526660194430384470
51034761294393258830 -22648947665954220537
50500429938777551220 -22296026981257331390
50660633477027970140 -22360624016712154490
49979652187557028710 -22056347887009775660
54024708921898696100 -23838091626967178000
50972395000114725010 -22487014847341346360
51608535245005817600 -22408407231557198020
50591929738149995369 -22180909231102549060
48833921236551328400 -21200761697839637300
51100807243541936520 -22183456650712195140
51092134025815681700 -22175832283978267530
50738334530705880750 -21858217756056918830
51766721647083337800 -21984052411650566870
39124879193738964000 -14498177192839665900
55526972657180455800 -20434711440404849100
58766766616077845600 -21583717113954984800
105094170391847735000 -853165379605367000
