23
0 0
64181091124 -175370749798
45660878950 -53675531402
27966134686 -24478564575
27318536127 -17825238768
26127883640 -21877027641
26506227424 -19855415665
27225767824 -17716247082
24642803097 -15868411743
27210401412 -17373986674
27085544610 -17100869612
27258680124 -17206335765
20813499045 -13089168233
27074794452 -16806618086
26971538085 -16742259236
27132963932 -16841681258
27103941802 -16604257302
27412272098 -17014892573
27197771908 -16518571783
27050326658 -16208342291
27763803445 -15929541477
27786273127 -13128477801
38035259445 62220811809
