32
0 0
84184360364 124157321473
82976433059 124917142171
79626385709 126143430565
80092491584 127736035030
79120254040 127290763906
80230057240 128196928771
78887434678 126355527513
78975340714 127220742991
78995251338 127427152829
79117671691 127699079719
78947477234 127397410061
79198169160 127871367801
78861114887 127162389217
78839431023 127303169798
79047419744 127746720362
78941292500 127822697317
79119593040 127895771096
78988148472 128055129908
78837737196 127317890204
77963177550 126742242400
78020914540 126836600161
77743807876 126596993986
77744597152 126598285732
78431299277 127722713397
78148881064 127672492341
77098871834 129454575257
76352147184 128784619626
-41826259114 234386857066
78266264535 132105243795
88951965458 156934760875
105573071626 202875662346
