32
0 0
-103461027345 36062838682
-75583753052 1185397343
-75496298064 1139015544
-71796097856 200421876
-76296802819 -4425272611
-77225721306 -4485819952
-76222337205 -4494667832
-70539192537 -20652293
-75968203329 -4413096280
-75851986706 -4868469208
-75657470234 -4862850349
-76374209077 -4731774370
-75865360994 -4880426299
-75592703943 -4947609015
-75283178531 -4848621247
-76672295057 -4938860013
-76010184454 -5098630621
-76434945985 -5247381602
-74980551147 -5096718601
-74976350671 -5099088562
-75453730645 -5209388111
-75449008719 -5216679571
-74779692351 -5197105398
-75158901194 -5483581416
-75096830965 -5771700009
-76386528350 -5311230390
-74908743169 -5916985063
-62680422026 -25147502676
-77774788419 -5744226290
-79986951876 -6394435715
-80154429522 -6449198078
