29
0 0
-39963899830 -76827119467
-18195976269 -65715391784
-79517279111 -25769079773
-8681243425 -50450746597
-9160594432 -49111526103
-8399387698 -50583400482
-8169699739 -49630449674
-8325716661 -50292236936
-7908676110 -49204702348
-8056293298 -50177059243
-8098533097 -50461896260
-7955019258 -49571388913
-7879320554 -49400159118
-7947334977 -49740906448
-7812280643 -49343150803
-7823481652 -49510415843
-7815419104 -49750299956
-7734498297 -49431988095
-7731476751 -49650202957
-6938864208 -47592159385
-7542808203 -49941758462
-7101844231 -48722855651
-7109455049 -49538826867
-6818411310 -49271760686
-6829791282 -49646424692
-2527164980 -57797857146
12943212698 -31229455050
54199149078 -52418765410
