29
0 0
4926375436362958000 -77850862798336874000
3438295039806292000 -37481759146747804000
44549489565198387100 -33968692031504304100
37214704917303138650 -25824718989648673600
36307562031650340900 -24874633087006244020
37286066392932199400 -24941015950067069540
36982204508575226100 -24528772443788619820
37844107878972156780 -25089116332993006150
38367960620420834020 -25433082936282208210
36129507817781873900 -23439022852823091500
38032745973820144190 -24216408341214405450
38086551373737627960 -24238590035113916870
38058340715319509900 -24122720505700352950
38137413525160041100 -24153258915931316320
38212056580028160770 -24195942491232730990
38165069978978183720 -24017341911025052950
37391289858930291355 -23521184057790285300
38327156860837638910 -24099066792524107230
38825041637720727100 -24408532635245245000
38323939623928157650 -24018784085597756470
38642101475812278900 -23509763478116923700
37523996276624109346 -22828232027624316400
39430568393146856800 -23781209432445173130
40787222615970524500 -24169211052815882370
40399661417436393700 -23144049394732344500
57049419530940935000 -23888488909918149250
32223213424692395800 -458051081600192000
137832288773562076000 21814870158802938000
