23
0 0
4900733553 -94551716325
134993468411 -162756077515
39351049932 -18486220736
36434526036 -17034467869
40442950723 -18720071989
39441434094 -17979564126
40126947107 -18187782572
40642244080 -18420941776
40519098148 -18339599818
40525681506 -18317779080
38621035746 -17449288120
39882536255 -17912833627
40090150568 -17945778062
39338879783 -17561455587
39771154323 -17664714589
40630351740 -17798824044
37961078779 -13681077297
40894302349 -17914278416
46371405257 -20307712626
42560391156 -14985488371
42998079647 -14700486984
43298683755 -14388794403
